<svg xmlns="http://www.w3.org/2000/svg" xmlns:xlink="http://www.w3.org/1999/xlink" width="258.825" height="152.553" viewBox="0 0 258.825 152.553">
  <defs>
    <clipPath id="clip-path">
      <rect id="Rectángulo_462745" data-name="Rectángulo 462745" width="173.783" height="152.553" transform="translate(0 0)" fill="none"/>
    </clipPath>
  </defs>
  <g id="Grupo_1197570" data-name="Grupo 1197570" transform="translate(-1017.711 -2843.674)">
    <rect id="Rectángulo_454804" data-name="Rectángulo 454804" width="235" height="119" rx="25" transform="translate(1017.711 2860.674)" fill="#daeaaf"/>
    <path id="Trazado_1015452" data-name="Trazado 1015452" d="M54,2.835C43.368-1.093,19.8-2.626,8.057,9.684,2.6,15.4-3.1,23.683,1.96,36.376,9.949,56.436,24.5,57.7,31.784,73.461c8.787,19.022-8.239,34.574,10.326,53.251a30.3,30.3,0,0,0,8.11,5.79,31.141,31.141,0,0,0,17.138,3c23.907-2.747,25.875-37.883,24.2-65.908-1.11-18.608-14-48.79-23.328-57.511A44.346,44.346,0,0,0,54,2.835" transform="matrix(-0.259, 0.966, -0.966, -0.259, 1276.536, 2893.297)" fill="#edf5d7" fill-rule="evenodd"/>
    <g id="Grupo_1197435" data-name="Grupo 1197435" transform="translate(1052.217 2843.674)" clip-path="url(#clip-path)">
      <path id="Trazado_1016811" data-name="Trazado 1016811" d="M745.734,634.7c-.645.19-1-.6-1.013-.648.018.082.521,2.289-.948,3.368a2.625,2.625,0,0,1-.62.334,3.463,3.463,0,0,1-.7.185c-.083.014-.167.025-.25.034a4.637,4.637,0,0,1-.942.009,5.026,5.026,0,0,1-1.269-.287,5.461,5.461,0,0,1-1.4-.761,4.51,4.51,0,0,1-1.954-3.779,3.535,3.535,0,0,1,.35-1.41h0l.062-.106.014-.022c.072-.082.183-.164.288-.129.159.052.164.118.164.125l.679-.344a0,0,0,0,1,0,0c.014-.034.138-.3.613-.3a.973.973,0,0,1,.724.248h0l.656-.015a1.559,1.559,0,0,1,.687-.038,1.023,1.023,0,0,1,.6.38l.579.544s.323-.327.559-.124l.015.013c.065.054.128.109.188.165l.017.015c.06.055.118.111.172.165l.005.005a6.554,6.554,0,0,0,.785,1.606c.174.013.428-.089,0-.906-.029-.056-.061-.112-.093-.166l0-.008c-.012-.033-.026-.066-.041-.1-.585-1.444-2.068-1.873-3.083-2.224-.036-.012-.07-.026-.1-.04l-.033-.015c-.022-.01-.043-.021-.065-.032l-.034-.018-.059-.035-.029-.018c-.022-.015-.042-.029-.063-.046a.17.17,0,0,1-.017-.013c-.025-.019-.05-.04-.073-.061l-.021-.019c-.016-.015-.033-.03-.048-.047l-.023-.025-.04-.046-.021-.025-.039-.051-.015-.021c-.017-.024-.034-.049-.049-.074l-.005-.01c-.014-.022-.026-.043-.038-.065l-.012-.022-.029-.056-.01-.021c-.01-.022-.018-.042-.028-.063a.056.056,0,0,0-.005-.012,2.037,2.037,0,0,1-.1-.307,1.968,1.968,0,0,1-.059-.42s-.13-1.613-.546-5.359-.7-9.808-.7-9.808l2.38-3.1s4.175.585,4.488.741.858,1.782.858,1.782a33.755,33.755,0,0,1-.429,5.788c-.507,3.044-1.6,7.609-1.132,9.521s1.522,2.029,1.6,3.785.312,2.185-.351,2.38" transform="translate(-669.832 -555.319)" fill="#fc9a82"/>
      <path id="Trazado_1016812" data-name="Trazado 1016812" d="M112.842,1308.526c-4.1-1.265-10.336.64-16.425-2.451-11.463-5.819-19.813-3.7-33.627-4.4a181.222,181.222,0,0,0-18.851-.36c-7.585.022-12.477,5.941-21.4,6.654s-23.43,3.45-22.494,8.055c.872,4.289,1.695,7.259,25.956,9.379,23.056,2.014,36.4-5.029,47.375,1.5,16.889,10.039,36.146.648,57.664,2.547,42.454,3.746,44.646-8.1,41.981-11.1-13.736-15.458-31.424,1.811-36.945.987-21.072-3.146-23.881-5.753-21.774-6.44s-.357-4.031-1.457-4.37" transform="translate(0 -1183.221)" fill="#562d20"/>
      <path id="Trazado_1016813" data-name="Trazado 1016813" d="M119.685,1296.086c.624-1.769-.26-4.683-2.081-6.4s-1.3.364-.623,2.289.937,4.058-.625,1.353-4.007-6.036-5.568-6.5,2.341,4.318,3.018,6.764-.624,3.174-.832,2.5.208-3.486-.208-2.549-.312,3.694-.936,3.07-1.665-2.393-3.486-3.278-.416.26.208,1.977,1.665,5.151.468,4.058-1.769-1.452-.936.21-2.81,1.507-1.613,2.287,2.393.468,4.891,0,1.613,1.093,2.862,1.041,5.662-.26,5.662-.26Z" transform="translate(-96.593 -1170.101)" fill="#a3cb38"/>
      <path id="Trazado_1016814" data-name="Trazado 1016814" d="M1120.686,1303.414c-12.269.374-15.687,3.668-21.618,1.327s-5.658-2.927-12.76-2.927c-8.35,0-14.165.492-10.575-1.608s.78-1.974,2.341-4.378,7.18-2.248,3.122-5.994-3.434-6.4-.468-4.058,6.244,9.521,4.683,5.307-3.746-8.944-1.093-6.189,3.746,9.311,4.058,6.813,1.093-6.556,2.341-3.434,1.4,5.151,5.463,4.839,7.96-6.868,16.389-5.619,4.734-2.012,9.365-1.873,3.33,1.214,4.631.139,1.717-2.584,2.809-2.688-.1,1.2-.572,3.07-.1,2.862.52,1.3,1.509-2.341,1.769-2.081-1.925,2.5-.572,3.59,2.029,3.241,7.648,5.028,4.058,5.362,0,6.228,4.8,4.3.351,5.354c-8.5,2.013-16.247-2.195-17.833-2.146" transform="translate(-977.198 -1166.711)" fill="#a3cb38"/>
      <path id="Trazado_1016815" data-name="Trazado 1016815" d="M571.375,16.268s.607-3.114,5.089-6.7S588.3.433,591.724.043s20.619,1.592,24.86,6.376-45.21,9.849-45.21,9.849" transform="translate(-519.561 0.005)" fill="#feb450"/>
      <path id="Trazado_1016816" data-name="Trazado 1016816" d="M585.779,56.8c-3.533.513-10.536,1.378-14.2-1.485s-.937-10.381,17.4-15.115c17.937-4.63,29.813-.368,27.862,5.411-1.717,5.087-15.7,7.7-19.607,8.72A113.8,113.8,0,0,1,585.779,56.8" transform="translate(-518.462 -34.762)" fill="#636363"/>
      <path id="Trazado_1016817" data-name="Trazado 1016817" d="M639.576,988.5s-3.239,17.951-3.317,21.307-.468,3.356-.859,5.619.234,3.746-.312,6.556-.078,3.356,1.249,3.824a85.908,85.908,0,0,0,11.238,2.107c2.81.234,6.764-.182,6.139-1.353s-1.2-2.654-4.474-3.694c-2.262-.718-6.192-2.289-6.5-5.1s-1.795-4.292-.234-6.712,9.99-14.75,10.614-15.687a3.328,3.328,0,0,0,.534-1.951Z" transform="translate(-577.293 -898.855)" fill="#feb450"/>
      <path id="Trazado_1016818" data-name="Trazado 1016818" d="M235.779,999.7s-2.966,10.614-3.9,16.7-.312,7.8-1.639,8.585a6.339,6.339,0,0,0-2.81,4.761,33.941,33.941,0,0,1-1.353,7.882c-.808,2.248-2,2.732-.6,4.37s1.717,2.81,3.746,3.2,8.507.234,8.663-.859a5.826,5.826,0,0,0-1.951-4.37c-1.483-1.483-1.018-2.966-.9-5.385s-1.208-5.541.353-7.414,12.113-14.646,12.721-16.311,0-2.419,0-2.419Z" transform="translate(-204.44 -909.043)" fill="#feb450"/>
      <path id="Trazado_1016819" data-name="Trazado 1016819" d="M422.923,468.412a3.082,3.082,0,0,0-.178,2.108,3.017,3.017,0,0,0,.732,1.786,2.916,2.916,0,0,1-1.6,1.5,2.555,2.555,0,0,1-1.233.088,4.028,4.028,0,0,1-1.134-.378,7.549,7.549,0,0,1-.832-.478,9.547,9.547,0,0,1-1.144-.888s0,0,0,0a11.271,11.271,0,0,1-1.3-1.386,10.7,10.7,0,0,1-.8-1.147,4.613,4.613,0,0,1-.864-2.838c.312-1.691,1.249-1.156.676-2.854s-3.122-6.381-2.706-11.714,6.309-2.367,6.309-2.367l2.614,4.058s-1.119,5.047-1.171,6.139.26,1.4,1.171,1.717a5.277,5.277,0,0,1,3.3,3.226,13.973,13.973,0,0,1,.331,4.459s-2.019-1.339-2.176-1.027" transform="translate(-375.089 -408.298)" fill="#fc9a82"/>
      <path id="Trazado_1016820" data-name="Trazado 1016820" d="M439.274,291.748s-.806-1.535-3.694-1.353a5.213,5.213,0,0,0-4.032,1.925,4.283,4.283,0,0,1-1.353-.624.917.917,0,0,1-.222-1.336l-17.6-7.639-2.94-3.278a6.207,6.207,0,0,0-4.449-3.46,4.07,4.07,0,0,0-4.475,1.769,3.373,3.373,0,0,1-.78-.546,1.289,1.289,0,0,1-.257-.346,2.194,2.194,0,0,1,0-1.865c.416-.989-.364-.494,0-2.367a2.288,2.288,0,0,1,2.445-1.717s.364-2.607,5.411-7.908a19.3,19.3,0,0,1,12.748-5.729,32.616,32.616,0,0,1,4.952-.028c5.769.38,9.232,4.967,9.261,4.967l1.668,1.441a21,21,0,0,1,2.458,4.839c.446,1.846.624,16.545.624,16.545s.39.286.937.78.494,1.171.312,1.951.052.728.338,2.055-1.353,1.925-1.353,1.925" transform="translate(-363.06 -233.844)" fill="#ececec"/>
      <path id="Trazado_1016821" data-name="Trazado 1016821" d="M720.94,126.781c-.695-.156-1.127-3.772-1.127-3.772l-5.889-3.434-7,1.457-1.119,1.483s-.663.572-.494,2.263.494,2.081.859,2.016c.046-.008.142.074.275.223-.59.9-1.445,2.054-1.445,2.054a12.288,12.288,0,0,1-1.249,2.107,2.536,2.536,0,0,1-1.873.976s.937,3,2.849,4.292a9.7,9.7,0,0,0,5.015,1.131l4.316-5.35a11.156,11.156,0,0,0,2.922-.526c.312-.366.861-.936.861-.936s2.612-.939,3.263-2.318.531-1.509-.164-1.665" transform="translate(-638.23 -108.731)" fill="#fc9a82"/>
      <path id="Trazado_1016822" data-name="Trazado 1016822" d="M748.033,56.914c-3.356-2.5-7.882.156-7.882.156a4.741,4.741,0,0,0-5.632,1.4,3.491,3.491,0,0,0-3.226,1.743c-1.483,2.055.806,4.344.806,4.344s1.769-1.717,1.951-.52-1.015,3.694-1.015,3.694a4.848,4.848,0,0,0-1.587,5.645,32.3,32.3,0,0,0,2.159,4.266l-.52-1.925a14.732,14.732,0,0,0,2.419,3.512c1.249,1.145,4.644,1.847,4.644,1.847a7.032,7.032,0,0,1,0-2c.169-.911,1.314-2.055,2.563-3.07s1.327-3.07,1.483-3.434,1.4-2.107,1.925-2.966a1.507,1.507,0,0,1,1.327-.793s.624-.156,1.951-1.717.351-3.785.351-3.785a4.41,4.41,0,0,0,1.795-2.341c.429-1.522-.156-1.561-3.512-4.058M739.339,73.48c-.469.447-1.077.271-1.716-.07a1.655,1.655,0,0,1-.9-1.634c.2-.587.949-.625,1.922.046,1.06.731,1.167,1.211.7,1.658M746,68.737c-.312.527-2.029,3.239-2.81,3.649s-1.171.644-1.619.137a8.445,8.445,0,0,0-3.688-2.107,4.671,4.671,0,0,1-2.907-1.953,3.654,3.654,0,0,1,.254-3.3c.546-.644.761-.936.761-.936a9.157,9.157,0,0,0,2.4-.429,9.288,9.288,0,0,0,2.224-1.21,5.025,5.025,0,0,0,2.712,2.419,7.974,7.974,0,0,0,2.419.449s-.059,1.424,0,2.146.566.6.254,1.132" transform="translate(-664.522 -50.778)" fill="#562d20"/>
      <path id="Trazado_1016823" data-name="Trazado 1016823" d="M820.445,150.96a.3.3,0,0,1-.288-.208c-.138-.414-1.425-.453-2.3-.322a.3.3,0,0,1-.09-.6c.433-.065,2.612-.335,2.967.731a.3.3,0,0,1-.288.4" transform="translate(-743.373 -136.17)" fill="#562d20"/>
      <path id="Trazado_1016824" data-name="Trazado 1016824" d="M880.713,178.483h-.024a.3.3,0,0,1-.279-.327,1.739,1.739,0,0,0-.217-1.078A.238.238,0,0,0,880,177h-.007a.3.3,0,0,1-.007-.608.838.838,0,0,1,.651.267,2.317,2.317,0,0,1,.381,1.543.3.3,0,0,1-.3.28" transform="translate(-799.914 -160.396)" fill="#562d20"/>
      <path id="Trazado_1016825" data-name="Trazado 1016825" d="M842.966,195.283a.82.82,0,0,1-.194-.024.3.3,0,1,1,.143-.591.169.169,0,0,0,.155-.031,2.872,2.872,0,0,0,.537-1.612.3.3,0,0,1,.606.052c-.023.265-.167,1.607-.787,2.053a.777.777,0,0,1-.459.152" transform="translate(-766.134 -175.269)" fill="#562d20"/>
      <path id="Trazado_1016826" data-name="Trazado 1016826" d="M821.013,169.608a.967.967,0,1,1-1.124.44.864.864,0,0,1,1.124-.44" transform="translate(-745.4 -154.151)" fill="#562d20"/>
      <path id="Trazado_1016827" data-name="Trazado 1016827" d="M866.242,196.887a.967.967,0,1,1-1.124.44.864.864,0,0,1,1.124-.44" transform="translate(-786.527 -178.957)" fill="#562d20"/>
      <path id="Trazado_1016828" data-name="Trazado 1016828" d="M384.607,322.666c-.039.468-1.717.858-1.717.858s-5.4,1.249-6.959.989-2.862-2.6-4.11-4.11a7.479,7.479,0,0,0-3.382-2.5c-.624-.1-1.561-1.613-1.457-2.653s-.364-2.6-2.549-4.214h0c-2.023-1.493-2.439-1.6-2.779-1.2-.027.033-.053.068-.08.106-.364.52-5.619,10.042-6.764,11.55s-1.3,2-1.093,3.053.885,4.126-1.613,4.075-6.946.989-8.429-.416-4.917-7.961-5.541-9.053a1.058,1.058,0,0,1-.057-1.016c.126-.322.3-.609.121-.982a1.627,1.627,0,0,0-.415-.5c-1.21-1.054.663-2.771,1.8-3.161.581-.2.926.166,1.335-.352a8.114,8.114,0,0,0,.98-2.592c.008-.029.016-.059.024-.088.173-.647.367-1.434.587-2.392,1.043-4.534,2.119-10.148,4.045-14.864.36-.879.748-1.728,1.172-2.532l0,0a10.228,10.228,0,0,0,3.495,3.032,2.714,2.714,0,0,0,3.964-1.205,3.018,3.018,0,0,1-.732-1.786,3.081,3.081,0,0,1,.178-2.108c.156-.312,2.175,1.027,2.175,1.027a13.972,13.972,0,0,0-.331-4.459,5.213,5.213,0,0,0-3.087-3.144c.468-1.352.344-2,.98-2.215,1.171-.39-1.015-1.639-1.015-2.81s-.182-2.914-.182-2.914,1.249.208,1.3-.754.624-.91.65-1.509a5.113,5.113,0,0,0-.7-1.821s9.2-5.567,10.7-8.143.566-6.165.566-6.165l.156-1.044.572-.2s-.245-2.081-.271-2.289.635-.728,1.207-.858a2.256,2.256,0,0,1,1.34.338l.838,2.81a29.492,29.492,0,0,1,.255,3.473c-.117.273-.255.7-.255.7s-.191,2.693-.28,3.59-.051,1.327,1.588,1.912,6.244,1.912,6.712,1.6,1.561-4.527,1.678-5.034.468-2.393.468-2.393a2.331,2.331,0,0,1,1.067.494c.533.429.52,1.717.52,1.717a5.874,5.874,0,0,1,.507,1.9,4.6,4.6,0,0,1-.208,1.223l-.208.728a19.172,19.172,0,0,1-1.952,10.848,112.011,112.011,0,0,1-7.062,11.824s1.36,2.21,3.246,5.324c.107,1.516.237,3.109.383,4.418.416,3.746.546,5.359.546,5.359a1.7,1.7,0,0,0,1.015,1.561c1.015.351,2.5.78,3.083,2.224s-.741-1.4-3-1.756-3.824-.438-4.019,2.161,2.732,5.292,5.814,4.785c3.035-.5,2.287-3.786,2.264-3.887.018.044.369.838,1.013.648.663-.2.429-.624.351-2.38a3.34,3.34,0,0,0-.114-.757,72.364,72.364,0,0,1,3.7,7c1.522,3.98-1.561,7.3-2.185,8.077s.2,2.38.156,2.849" transform="translate(-306.793 -228.497)" fill="#4a4a4a"/>
      <path id="Trazado_1016829" data-name="Trazado 1016829" d="M310.379,531.657c.535,1.588-.249,1.223-.608,2.553-7.208-4.752-11.84-7.786-12.035-7.867-.936-.39-.508-1.831-.152-2.307a1.283,1.283,0,0,1,1.439-.464c1.066.594,5.046,3.128,10.889,6.9.2.48.364.878.466,1.18" transform="translate(-270.222 -476.034)" fill="#562d20"/>
      <path id="Trazado_1016830" data-name="Trazado 1016830" d="M897.377,903.339c0-2.5-1.769-2.549-2.393-2.445s-10.77,2.445-10.77,2.445-31.058-20.466-59.808-39.306c.043.661,0,.9-.442,1.025-.645.19-1-.6-1.013-.648a4.086,4.086,0,0,1-.286,2.617c27.481,18.2,56.789,37.639,56.789,37.639s-13.424,4.683-15.062,5.463,1.249,7.961,1.951,8.975c.092.133.708.072,1.705-.137-.248-1.576-1.191-5.193-.372-5.516.924-.363,1.916-.644,2.27.164.249.57,1.068,3.071,1.527,4.494.527-.145,1.083-.3,1.663-.467-.2-1.48-1.241-5.335-.395-5.669.925-.364,1.916-.645,2.27.164.25.571,1.071,3.079,1.53,4.5.662-.2,1.341-.406,2.028-.618-.174-1.413-1.268-5.411-.4-5.751.924-.364,1.916-.644,2.27.164.252.575,1.08,3.11,1.538,4.527l1.709-.542c-.218-1.51-1.227-5.3-.388-5.628.924-.363,1.916-.644,2.27.164.243.555,1.024,2.941,1.49,4.379q.852-.276,1.671-.545c-.294-1.676-1.11-4.966-.331-5.272.924-.364,1.916-.645,2.27.163.223.511.9,2.57,1.372,4.016.634-.211,1.231-.411,1.784-.6-.3-1.684-1.1-4.936-.325-5.241.924-.364,1.916-.645,2.27.164.22.5.88,2.5,1.348,3.941a6.137,6.137,0,0,0,.758-.3c.156-.234-.494-3.824-.494-6.322" transform="translate(-748.062 -785.679)" fill="#562d20"/>
      <path id="Trazado_1016831" data-name="Trazado 1016831" d="M648.1,280.338a22.653,22.653,0,0,0-4.78.117c-.1.032-.156,4.37-.176,4.7s5.124.338,5.2-.169a33.176,33.176,0,0,0-.246-4.644m-.644,3.941a8.588,8.588,0,0,1-3.187.156,13.562,13.562,0,0,1,.013-3.33,16.875,16.875,0,0,1,2.927-.052c.1.078.533,3.018.247,3.226" transform="translate(-584.819 -254.847)" fill="#feb450"/>
      <path id="Trazado_1016832" data-name="Trazado 1016832" d="M795.67,336.123c-.312-.468-1.327-1.119-1.691-.989s-.546,2.627-.6,2.992,1.925,1.457,2.627,2.471c0,0,.546-.078.6-1.4a5.692,5.692,0,0,0-.936-3.07m.592,2.582c-.137.566.039,1.015-.2.8s-.376-.371-.507-.488c-.446-.4-1.541-.856-1.5-1.16s.137-2.079.39-2.079a1.516,1.516,0,0,1,1.307.859,4.132,4.132,0,0,1,.507,2.068" transform="translate(-721.433 -304.728)" fill="#feb450"/>
      <path id="Trazado_1016833" data-name="Trazado 1016833" d="M397.62,1589.427c-16.416.83-24.35,4.214-14.828,6.556s28.5,2.345,32.217-.263c3.98-2.8,1.42-3.405-4.356-5.122a34.653,34.653,0,0,0-13.033-1.171" transform="translate(-344.351 -1445.155)" fill="#562d20"/>
      <path id="Trazado_1016834" data-name="Trazado 1016834" d="M1495.336,1536.232c-4.75.566-7.726,2.381-3.395,2.732s5.385.937,8.78,0,2.927-2.655,0-2.732a38.906,38.906,0,0,0-5.385,0" transform="translate(-1354.735 -1396.838)" fill="#4ca04a"/>
      <path id="Trazado_1016835" data-name="Trazado 1016835" d="M1007.923,1505.129c-6.613.653-10.146,3.122-3.9,3.2s10.512-.379,10.77-2.029c.19-1.214-5.135-1.342-6.868-1.171" transform="translate(-910.013 -1368.582)" fill="#4ca04a"/>
      <path id="Trazado_1016836" data-name="Trazado 1016836" d="M636.865,414.846c.26.936-2.5,6.5-3.538,7.381s-8.555-1.554-10.116-2.8,1.225-9.209,1.843-9,11.55,3.486,11.811,4.422" transform="translate(-566.27 -373.201)" fill="#feb450"/>
      <path id="Trazado_1016837" data-name="Trazado 1016837" d="M647.981,425.828a1.021,1.021,0,1,1-1.021-1.021,1.021,1.021,0,0,1,1.021,1.021" transform="translate(-587.363 -386.283)" fill="#562d20"/>
      <path id="Trazado_1016838" data-name="Trazado 1016838" d="M744.37,459.105a1.021,1.021,0,1,1-1.021-1.021,1.021,1.021,0,0,1,1.021,1.021" transform="translate(-675.011 -416.543)" fill="#562d20"/>
      <path id="Trazado_1016839" data-name="Trazado 1016839" d="M811.6,8.954c1.242,1.145.624,2.491,1.639,2.263a59.1,59.1,0,0,1,13.4-.558,19.387,19.387,0,0,1,2.18.376,35.7,35.7,0,0,0-5.437-1.717,74.541,74.541,0,0,0-10.664-1.125c-1.254.026-1.29.6-1.121.761" transform="translate(-737.931 -7.449)" fill="#fff3cc"/>
      <path id="Trazado_1016840" data-name="Trazado 1016840" d="M325.216,1052.484a21.211,21.211,0,0,0,4.995,6.608c3.122,2.549,7.737,1.976,7.737,1.976l-.535.72s-5.745.582-8.19-2.02a28.25,28.25,0,0,1-4.006-5.619Z" transform="translate(-295.724 -957.04)" fill="#562d20"/>
      <path id="Trazado_1016841" data-name="Trazado 1016841" d="M676.217,1021.215s3.746,4.644,5.97,5.775,6.846.4,6.846.4l-.634.932s-5.119.815-7.07-.785a67.845,67.845,0,0,1-5.268-5.307Z" transform="translate(-614.753 -928.607)" fill="#562d20"/>
      <path id="Trazado_1016842" data-name="Trazado 1016842" d="M242.337,1279.809a10.551,10.551,0,0,0-1.171,3.824,52.2,52.2,0,0,1-1.171,8.624c-.546,2.029-.642,3.434.654,4.917s3.872,1.561,6.37,1.366a13.976,13.976,0,0,0,4.292-1.015v.663s-5.9,2.174-9.092.663-3.434-3.317-3.044-4.722a67.256,67.256,0,0,0,1.327-6.946c.273-2.107.39-5.807,1.132-6.9s.7-.475.7-.475" transform="translate(-217.359 -1163.593)" fill="#562d20"/>
      <path id="Trazado_1016843" data-name="Trazado 1016843" d="M627.436,1369.334s1.756,1.171,6.79,2.341,10.3,1.639,12.1.663,1.039-.614,1.039-.614l.158.5s-.69,1.171-5.1,1.132a48.082,48.082,0,0,1-11.707-2.009c-.82-.371-3.278-1.425-3.278-1.425Z" transform="translate(-570.538 -1245.157)" fill="#562d20"/>
      <path id="Trazado_1016844" data-name="Trazado 1016844" d="M488.691,673.124a2.554,2.554,0,0,1-1.234.088,2.947,2.947,0,0,1-1.168-1.795,13.282,13.282,0,0,1-.319-2.887.325.325,0,0,1,.65.022,12.848,12.848,0,0,0,.306,2.733,2.586,2.586,0,0,0,1.765,1.839" transform="translate(-441.899 -607.619)" fill="#686da5"/>
      <path id="Trazado_1016845" data-name="Trazado 1016845" d="M466.151,668.445a9.547,9.547,0,0,1-1.143-.888s0,0,0,0a3.809,3.809,0,0,1-.2-.728,19.029,19.029,0,0,1-.1-2.6.325.325,0,0,1,.325-.317h.009a.326.326,0,0,1,.316.334,18.972,18.972,0,0,0,.088,2.477,6.027,6.027,0,0,0,.706,1.719" transform="translate(-422.559 -603.708)" fill="#686da5"/>
      <path id="Trazado_1016846" data-name="Trazado 1016846" d="M445.6,656.843a4.36,4.36,0,0,1-.15-1.3c.037-.807.086-1.157.087-1.159a.325.325,0,0,0-.644-.093c0,.015-.053.377-.093,1.222a4.85,4.85,0,0,0,.005.505,10.721,10.721,0,0,0,.8,1.147.455.455,0,0,0,0-.325" transform="translate(-404.46 -594.707)" fill="#686da5"/>
      <path id="Trazado_1016847" data-name="Trazado 1016847" d="M790.981,846.4a2.627,2.627,0,0,1-.62.334,4.291,4.291,0,0,1-1.774-3.2,12.8,12.8,0,0,1,.105-3.009l.579.544a13.725,13.725,0,0,0-.036,2.424,3.624,3.624,0,0,0,1.637,2.8.3.3,0,0,1,.109.107" transform="translate(-717.041 -764.299)" fill="#686da5"/>
      <path id="Trazado_1016848" data-name="Trazado 1016848" d="M770.438,843.516a4.637,4.637,0,0,1-.942.009,5.053,5.053,0,0,1-1.665-3.068,14.465,14.465,0,0,1-.06-3.7l.656-.015a14.207,14.207,0,0,0,.041,3.588c.451,2.283,1.727,2.892,1.781,2.917a.32.32,0,0,1,.189.268" transform="translate(-698.065 -760.864)" fill="#686da5"/>
      <path id="Trazado_1016849" data-name="Trazado 1016849" d="M748.586,843.924a5.461,5.461,0,0,1-1.4-.761,7.871,7.871,0,0,1-.969-2.647,11.414,11.414,0,0,1-.106-2.674l.679-.344a11.728,11.728,0,0,0,.067,2.9,5.517,5.517,0,0,0,1.6,3.3.322.322,0,0,1,.128.224" transform="translate(-678.423 -761.55)" fill="#686da5"/>
      <path id="Trazado_1016850" data-name="Trazado 1016850" d="M792.026,817.066s-.639-1.154-.984-2.012-.416-.274-.293.312.149,1.307.293,1.307a7,7,0,0,1,.984.393" transform="translate(-718.99 -740.747)" fill="#562d20"/>
      <path id="Trazado_1016851" data-name="Trazado 1016851" d="M551.041,680.017c-.03-.057-.061-.112-.093-.166l-.045-.112c-.585-1.444-2.068-1.873-3.083-2.224a1.514,1.514,0,0,1-.956-1.14c-7.077-4.634-13.848-9.057-19.785-12.924h0l0,0-.05-.032-.034-.022-.041-.027c-.449-.288-1.914-1.206-2.047-.942a4.33,4.33,0,0,0,.547,3.889l.007.005c5.645,3.729,12.064,7.973,18.773,12.414l.062-.106.014-.022a.3.3,0,0,1,.288-.129c.168.055.164.124.164.124l.678-.343s.107-.3.615-.3a.974.974,0,0,1,.724.248l.657-.015a1.561,1.561,0,0,1,.687-.038,1.026,1.026,0,0,1,.6.38l.579.544s.326-.331.561-.122c.144.121.275.243.395.361a6.568,6.568,0,0,0,.786,1.607c.174.013.427-.089,0-.906" transform="translate(-477.069 -602.311)" fill="#562d20"/>
      <path id="Trazado_1016852" data-name="Trazado 1016852" d="M767.087,1350.278c-3.069.906-4.058,1.561-7.648.468s-8.429-.234-7.961-1.015,2.654-.468,3.044-1.8,1.249-1.483-.312-3.824-3.512-3.98-1.093-2.966,3.278,5.151,3.824,4.527-.078-2.654-.078-3.278,1.171-1.249,1.561.859.416,3.3,1.3.208,3.772-6.608,4.318-6.452-2.029,5.541-1.483,7.492.624,3.278,1.873,1.561,2.185-1.717,1.873-.39-.7,3.2,1.4,3.122,4.292,1.873,2.575,1.4a4.679,4.679,0,0,0-3.2.078" transform="translate(-683.303 -1215.76)" fill="#a3cb38"/>
      <path id="Trazado_1016853" data-name="Trazado 1016853" d="M420.077,258.362c-2.933.911-8.605,2.955-11.63,6.25-3.746,4.083-6.322,7.171-5.775,7.539s3.278.447,4.449,1.305.26.208-2.549,0-4.683.312-4.448,1.275c.287,1.18-.754,1.5.6,1.1s2.08.227.676.643a2.617,2.617,0,0,0-1.922,1.475,2.195,2.195,0,0,1,0-1.865c.416-.989-.364-.494,0-2.367A2.288,2.288,0,0,1,401.918,272s.364-2.607,5.411-7.908a19.3,19.3,0,0,1,12.748-5.729" transform="translate(-363.06 -234.932)" fill="#c8c8c8"/>
      <path id="Trazado_1016854" data-name="Trazado 1016854" d="M344.95,978.652c.126-.322.3-.609.121-.982l3.5,6.368Z" transform="translate(-313.669 -889.011)" fill="#562d20"/>
      <path id="Trazado_1016855" data-name="Trazado 1016855" d="M378.837,913.078l-2.606-5.646a8.12,8.12,0,0,0,.98-2.592c-.062.228,1.626,8.238,1.626,8.238" transform="translate(-342.113 -822.785)" fill="#562d20"/>
      <path id="Trazado_1016856" data-name="Trazado 1016856" d="M603.7,896.919l-.051.109c-.072-.089-.044-.12.051-.109" transform="translate(-548.871 -815.581)" fill="#562d20"/>
      <path id="Trazado_1016857" data-name="Trazado 1016857" d="M608.676,800.036s-.156,2.83-.7,6.409l-.546,3.58h0c-2.023-1.493-2.439-1.6-2.779-1.2l-.029,0Z" transform="translate(-549.788 -727.485)" fill="#562d20"/>
      <path id="Trazado_1016858" data-name="Trazado 1016858" d="M391.933,713.58l-3.548,20.405-1.085-3.149c.173-.647.367-1.434.587-2.392,1.043-4.534,2.119-10.148,4.045-14.864" transform="translate(-352.178 -648.869)" fill="#feb450"/>
    </g>
  </g>
</svg>
