<svg xmlns="http://www.w3.org/2000/svg" width="84" height="84" viewBox="0 0 84 84">
  <g id="Grupo_1197568" data-name="Grupo 1197568" transform="translate(-706.371 -341.009)">
    <g id="Grupo_1177230" data-name="Grupo 1177230" transform="translate(0.371 -1337.911)">
      <g id="Grupo_1119665" data-name="Grupo 1119665" transform="translate(534.111 -3840.08)">
        <rect id="Rectángulo_402006" data-name="Rectángulo 402006" width="84" height="84" rx="5" transform="translate(171.889 5519)" fill="#daeaaf"/>
      </g>
    </g>
    <g id="Grupo_1197432" data-name="Grupo 1197432" transform="translate(713.207 349.199)">
      <path id="Trazado_1016792" data-name="Trazado 1016792" d="M140.978,38.2H123.409a1.087,1.087,0,0,1,0-2.175h17.569a1.649,1.649,0,1,0,0-3.3,1.087,1.087,0,1,1,0-2.175h4.241a1.65,1.65,0,0,0,0-3.3H130.38a1.091,1.091,0,0,1,0-2.182h17.012a1.649,1.649,0,0,0,0-3.3H130.16a1.087,1.087,0,0,1-1.055-.824c-.009-.036-.017-.075-.022-.114a1.089,1.089,0,0,1,1.077-1.245h14.1a1.649,1.649,0,0,0,0-3.3H127.2c-5.438.026-5.872.029-6.18-1.014-.276-.932.483-1.419,1.363-1.984.457-.294,1.027-.661,1.624-1.13a61.944,61.944,0,0,0,4.707-4.283c2.07-2.071,2.93-3.84,2.486-5.116a.746.746,0,0,0-.475-.53,2.386,2.386,0,0,0-1.856.436c-2.458,1.566-5.033,2.968-7.524,4.322-4.775,2.6-9.286,5.054-12.155,8.213a12.042,12.042,0,0,0,8.249,20.822h1.7a1.087,1.087,0,0,1,0,2.175h-1.7a14.241,14.241,0,0,1-14.225-14.226,14.094,14.094,0,0,1,4.42-10.29c3.061-3.374,7.729-5.914,12.67-8.6,2.459-1.338,5-2.722,7.4-4.247a4.435,4.435,0,0,1,3.739-.655,2.937,2.937,0,0,1,1.815,1.869c.748,2.149-.262,4.628-3,7.369a64.364,64.364,0,0,1-4.887,4.445c-.115.091-.229.178-.341.261.621-.049,1.3,0,2.067-.007h17.172a3.824,3.824,0,0,1,3.441,5.493,3.825,3.825,0,0,1,.867,7.452,3.824,3.824,0,0,1-3.352,5.666h-.79a3.823,3.823,0,0,1-3.451,5.472Zm0,0" transform="translate(-86.635 0)" fill="#2d5a27"/>
      <path id="Trazado_1016793" data-name="Trazado 1016793" d="M279.978,193.394H269.1a1.087,1.087,0,1,1,0-2.175h10.875a1.087,1.087,0,1,1,0,2.175Zm0,0" transform="translate(-225.182 -160.758)" fill="#2d5a27"/>
      <path id="Trazado_1016794" data-name="Trazado 1016794" d="M200.006,187.131c-2.189,0-3.185-3.391-3.185-6.542s1-6.542,3.185-6.542,3.185,3.391,3.185,6.542S202.194,187.131,200.006,187.131Zm.088-2.158h.011Zm-.088-8.7c-.357.355-1.011,1.825-1.011,4.315s.653,3.96,1.011,4.315c.357-.355,1.011-1.825,1.011-4.315S200.363,176.629,200.006,176.274Zm0,0" transform="translate(-165.329 -146.321)" fill="#2d5a27"/>
      <path id="Trazado_1016795" data-name="Trazado 1016795" d="M143.725,264.859a1.988,1.988,0,0,1-1-.26c-.522-.3-1.35-1.123-1.016-3.236a13.466,13.466,0,0,1,4.247-7.358c1.665-1.347,2.789-1.04,3.312-.738s1.349,1.123,1.016,3.236a12.242,12.242,0,0,1-1.528,4.023h0a12.248,12.248,0,0,1-2.718,3.335A3.739,3.739,0,0,1,143.725,264.859Zm4.427-9.663c-.487.129-1.787,1.075-3.033,3.232s-1.414,3.756-1.282,4.243c.486-.129,1.787-1.075,3.033-3.232S148.284,255.682,148.153,255.2Zm-.34,4.786h.011Zm0,0" transform="translate(-118.931 -212.703)" fill="#2d5a27"/>
      <path id="Trazado_1016796" data-name="Trazado 1016796" d="M218.094,277.464c-1.788,0-3.643-2.388-4.731-4.908-1.249-2.892-1.678-6.4.331-7.269s4.269,1.851,5.518,4.744,1.678,6.4-.331,7.269A1.97,1.97,0,0,1,218.094,277.464Zm-3.517-10.133c-.187.469-.2,2.078.783,4.363s2.169,3.376,2.638,3.563c.187-.469.2-2.078-.783-4.363S215.047,267.517,214.577,267.331Zm0,0" transform="translate(-178.348 -222.889)" fill="#2d5a27"/>
      <path id="Trazado_1016797" data-name="Trazado 1016797" d="M32.5,337.239c-7.607,0-14.084-6.369-14.643-14.138H1.251a1.087,1.087,0,0,1,0-2.175H18.908A1.088,1.088,0,0,1,20,322.013c0,7.074,5.727,13.05,12.506,13.05s12.506-5.976,12.506-13.05a1.088,1.088,0,0,1,1.088-1.088H63.753a1.087,1.087,0,0,1,0,2.175H47.144C46.586,330.87,40.108,337.239,32.5,337.239Zm0,0" transform="translate(0 -269.802)" fill="#2d5a27"/>
    </g>
  </g>
</svg>
