<svg xmlns="http://www.w3.org/2000/svg" width="84" height="84" viewBox="0 0 84 84">
  <g id="Grupo_1197569" data-name="Grupo 1197569" transform="translate(-549.719 -1988.083)">
    <g id="Grupo_1197249" data-name="Grupo 1197249" transform="translate(-156.281 309.163)">
      <g id="Grupo_1119665" data-name="Grupo 1119665" transform="translate(534.111 -3840.08)">
        <rect id="Rectángulo_402006" data-name="Rectángulo 402006" width="84" height="84" rx="5" transform="translate(171.889 5519)" fill="#daeaaf"/>
      </g>
    </g>
    <g id="Grupo_1197433" data-name="Grupo 1197433" transform="translate(570.916 2007.367)">
      <path id="Trazado_1016798" data-name="Trazado 1016798" d="M28.574,331.5l-3.04-1.013a9.46,9.46,0,0,0-5.613-.122l-3.872,1.106a6.81,6.81,0,0,1-4.928-.458,9.546,9.546,0,0,0-6.111-.818L0,331.2v14.79H45.432V331.251l-4.051-1.013c-5.578-1.395-8.172,2.809-12.806,1.264Zm14.185,11.814H2.672V333.39l2.861-.572a6.858,6.858,0,0,1,4.392.588,9.475,9.475,0,0,0,6.858.637l3.872-1.107a6.8,6.8,0,0,1,4.034.088l3.04,1.013a9.559,9.559,0,0,0,6.008,0l3.181-1.06a6.817,6.817,0,0,1,3.814-.147l2.027.507Z" transform="translate(0 -300.557)" fill="#2d5a27"/>
      <path id="Trazado_1016799" data-name="Trazado 1016799" d="M60,420h2.672v2.672H60Z" transform="translate(-54.655 -382.586)" fill="#2d5a27"/>
      <path id="Trazado_1016800" data-name="Trazado 1016800" d="M120,420h2.672v2.672H120Z" transform="translate(-109.31 -382.586)" fill="#2d5a27"/>
      <path id="Trazado_1016801" data-name="Trazado 1016801" d="M180,420h2.672v2.672H180Z" transform="translate(-163.965 -382.586)" fill="#2d5a27"/>
      <path id="Trazado_1016802" data-name="Trazado 1016802" d="M240,420h2.672v2.672H240Z" transform="translate(-218.62 -382.586)" fill="#2d5a27"/>
      <path id="Trazado_1016803" data-name="Trazado 1016803" d="M300,420h2.672v2.672H300Z" transform="translate(-273.275 -382.586)" fill="#2d5a27"/>
      <path id="Trazado_1016804" data-name="Trazado 1016804" d="M360,420h2.672v2.672H360Z" transform="translate(-327.931 -382.586)" fill="#2d5a27"/>
      <path id="Trazado_1016805" data-name="Trazado 1016805" d="M420,420h2.672v2.672H420Z" transform="translate(-382.586 -382.586)" fill="#2d5a27"/>
      <path id="Trazado_1016806" data-name="Trazado 1016806" d="M0,0V8.017H2.672v8.017a4.015,4.015,0,0,0,2.672,3.779v5.575H8.017V19.814a4.015,4.015,0,0,0,2.672-3.779V8.017h2.672v8.017a4.015,4.015,0,0,0,2.672,3.779v5.575h2.672V19.814a4.015,4.015,0,0,0,2.672-3.779V8.017h2.672v8.017a4.015,4.015,0,0,0,2.672,3.779v5.575H29.4V19.814a4.015,4.015,0,0,0,2.672-3.779V8.017h2.672v8.017a4.015,4.015,0,0,0,2.672,3.779v5.575h2.672V19.814a4.015,4.015,0,0,0,2.672-3.779V8.017h2.672V0ZM2.672,2.672H5.345V5.345H2.672Zm4.009,14.7a1.338,1.338,0,0,1-1.336-1.336V14.7H8.017v1.336A1.338,1.338,0,0,1,6.681,17.371Zm1.336-5.345H5.345V8.017H8.017Zm9.354,5.345a1.338,1.338,0,0,1-1.336-1.336V14.7h2.672v1.336A1.338,1.338,0,0,1,17.371,17.371Zm1.336-5.345H16.035V8.017h2.672Zm9.354,5.345a1.338,1.338,0,0,1-1.336-1.336V14.7H29.4v1.336A1.338,1.338,0,0,1,28.061,17.371ZM29.4,12.026H26.725V8.017H29.4ZM8.017,5.345V2.672h29.4V5.345ZM38.751,17.371a1.338,1.338,0,0,1-1.336-1.336V14.7h2.672v1.336A1.338,1.338,0,0,1,38.751,17.371Zm1.336-5.345H37.414V8.017h2.672Zm2.672-6.681H40.087V2.672h2.672Z" transform="translate(0)" fill="#2d5a27"/>
    </g>
  </g>
</svg>
