<svg xmlns="http://www.w3.org/2000/svg" xmlns:xlink="http://www.w3.org/1999/xlink" width="405.236" height="327.642" viewBox="0 0 405.236 327.642">
  <defs>
    <clipPath id="clip-path">
      <rect id="Rectángulo_462758" data-name="Rectángulo 462758" width="398.697" height="311.356" fill="none"/>
    </clipPath>
    <clipPath id="clip-path-3">
      <path id="Trazado_1017506" data-name="Trazado 1017506" d="M107.921,188.127c1.661,4.427,4.429,4.427,1.108,8.3-2.768,2.766-9.963,3.32-13.284,3.875-7.749,1.107-17.158,1.66-21.586,9.409-19.373,33.762,57.562,59.223,78.595,65.865,32.1,9.963,63.1,19.373,96.86,21.585a94.609,94.609,0,0,0,21.586-.553c8.857-1.107,13.284-4.428,20.481-8.856,7.7-4.9,17.621-2.937,27.373-.971,5.662,1.142,11.268,2.282,16.351,2.078,12.731-.553,35.423-4.427,42.064-17.71,8.857-17.711-22.139-26.014-32.1-32.655-7.749-5.535-1.66-13.284-9.41-18.819-16.581-11.846-39.686-22.542-58.773-28.064-17.762-5.14-35.663-10.145-53.826-13.74-7.265-1.438-44.655-7.24-75.091-7.24-25.076,0-45.431,3.936-40.347,17.5" transform="translate(-71.06 -170.631)" fill="none"/>
    </clipPath>
    <clipPath id="clip-path-5">
      <rect id="Rectángulo_462753" data-name="Rectángulo 462753" width="292.865" height="73.923" fill="none"/>
    </clipPath>
    <clipPath id="clip-path-6">
      <path id="Trazado_1017607" data-name="Trazado 1017607" d="M331.393,169.447c-3.316.2-9.259.386-11.2,3.929-.852,1.843-.8,4.657-.225,7.243.425,1.918-39.881,11.945-39.21,13.226,11.174,21.319,51.705,20.772,60.524,20.923,2.966.051,25.246-10.372,29.5-11.709,2.593-.816-9.362-11.045-9.363-13.958,0-.539-.026-1.1-.071-1.67-.254-3.257-2.448-6.277-4.638-8.516-6.5-6.768-15.052-9.484-24.088-9.484-.408,0-.816,0-1.226.016" transform="translate(-280.746 -169.431)" fill="none"/>
    </clipPath>
    <clipPath id="clip-path-8">
      <rect id="Rectángulo_462755" data-name="Rectángulo 462755" width="148.577" height="61.218" fill="none"/>
    </clipPath>
    <clipPath id="clip-path-9">
      <path id="Trazado_1017728" data-name="Trazado 1017728" d="M94.142,180.84c-4.567.83-8.114,2.082-12.68,2.082-2.7,0-9.239,8.8-10.9,10.67-2.906,3.322,6.642,8.3,8.925,9.34a26.235,26.235,0,0,0,14.944,2.284c2.7-.416,5.6-1.454,8.51-1.661,2.7-.415,5.6-.415,8.3-1.245A70.5,70.5,0,0,1,123.9,199.2c1.868-.208,5.19.346,6.02-1.937.415-.829.157-2.975-1.937-2.56l-5.837-4.776c-5.6,0-7.284-4.923-12.68-5.961-4.1-.933-9.694-3.215-13.947-3.215a9.768,9.768,0,0,0-1.382.092" transform="translate(-70.017 -180.748)" fill="none"/>
    </clipPath>
    <clipPath id="clip-path-11">
      <path id="Trazado_1017758" data-name="Trazado 1017758" d="M137.643,242.449c-4.566.83-8.113,2.082-12.679,2.082-2.7,0-9.239,8.8-10.9,10.671-2.906,3.32,6.642,8.3,8.925,9.34a26.234,26.234,0,0,0,14.944,2.283c2.7-.415,5.6-1.453,8.51-1.661,2.7-.414,5.6-.414,8.3-1.245a70.355,70.355,0,0,1,12.661-3.113c1.868-.208,5.19.345,6.02-1.937.415-.83.156-2.975-1.937-2.56l-5.837-4.775c-5.6,0-7.284-4.924-12.68-5.962-4.105-.932-9.695-3.214-13.949-3.214a9.9,9.9,0,0,0-1.382.091" transform="translate(-113.519 -242.358)" fill="none"/>
    </clipPath>
  </defs>
  <g id="Grupo_1197568" data-name="Grupo 1197568" transform="translate(-488.475 -4122.931)">
    <rect id="Rectángulo_455518" data-name="Rectángulo 455518" width="396" height="318" transform="translate(497.711 4122.931)" fill="#edf5d7"/>
    <g id="Grupo_1197477" data-name="Grupo 1197477" transform="translate(488.475 4139.216)">
      <g id="Grupo_1197476" data-name="Grupo 1197476" clip-path="url(#clip-path)">
        <g id="Grupo_1197455" data-name="Grupo 1197455">
          <g id="Grupo_1197454" data-name="Grupo 1197454" clip-path="url(#clip-path)">
            <path id="Trazado_1017500" data-name="Trazado 1017500" d="M223.359,177.871c-13.252-2.624-126.695-19.762-115.437,10.256,1.66,4.428,4.428,4.428,1.107,8.3-2.767,2.767-9.963,3.321-13.284,3.875-7.749,1.107-17.158,1.66-21.586,9.409-19.372,33.763,57.562,59.223,78.6,65.865,32.1,9.963,63.1,19.373,96.859,21.586a94.7,94.7,0,0,0,21.586-.553c8.857-1.108,13.284-4.428,20.48-8.856,12.176-7.749,29.888,1.66,43.725,1.107,12.731-.553,35.423-4.428,42.064-17.711,8.857-17.711-22.139-26.014-32.1-32.655-7.749-5.535-1.66-13.284-9.41-18.819-16.582-11.846-39.686-22.542-58.773-28.064-17.763-5.14-35.663-10.145-53.826-13.74" transform="translate(-12.064 -28.968)" fill="#bb8057"/>
          </g>
        </g>
        <g id="Grupo_1197457" data-name="Grupo 1197457" transform="translate(58.996 141.663)">
          <g id="Grupo_1197456" data-name="Grupo 1197456" clip-path="url(#clip-path-3)">
            <path id="Trazado_1017501" data-name="Trazado 1017501" d="M308.266,316.248c-.864-1.558-4.242-5.153-6.919-3.943l-.543.093c.482-1.975-5.2-9.726-10.187-4.144-.216-6.785-4.66-18.346-18.927-13.84a20.973,20.973,0,0,0-3,1.175c.1-.174.209-.343.308-.526,2.038-4.327-.664-8.13-5.6-9.564a6.987,6.987,0,0,0-6.1.561l.271-.048c-.133.119-.12.5-.26.424.036-3.132-2.251-6.723-4.9-8.642a15.209,15.209,0,0,0-6.184-2.077c-3.129-.132-4.172,1.182-6.155,2.941.289-3.745-6.6-10.817-12.268-5.4-.146-.259-.026-.752-.167-1.013-1.137-1.512-.8-3.749-2.08-5.519a12.134,12.134,0,0,0-5.032-4.452,10.692,10.692,0,0,0-3.245-.754c.032-2.164-2.029-3.878-4.4-5.227-4.15-2.326-9.013-1.313-13.921-1.8,5.236-6.384-10.452-8.173-15.984-6.951,4.873-4.9-7.936-10.21-13.813-6.939,1.54-5.986-5.687-6.53-12.227-5.237a5.144,5.144,0,0,0-2.021-6.932c-2.08-1.258-4.812-1.742-7.677-2.106s-5.969.444-8.424.1c-.41-.025-1.081.183-1.49.159,6.226-5.128-5.681-7.751-10.944-6.573,1.983-1.758,3.58-2.786,2.565-4.793a10.572,10.572,0,0,0-4.6-3.484,29.489,29.489,0,0,0-13.622-.909c-.138-.07.4-.162.537-.281l0,.188c1.309-1.548.584-3.035-.81-4.124-3.352-2.842-9.492-3.6-15.122-1.128-.236.113-.452.227-.672.341a9,9,0,0,0,.882-2.272c2.658-10.494-15.006-10.337-24.739-8.685,6.647-4.727-5.913-6.385-8.6-5.549l-.01-.379c1.021-2.066-5-3.319-7.45-3.471-2.726-.295-8.4.856-7.221,3.689.589,1.415,5.78,2.239,7.965,2.626-5.406.917-2.054,3.759.419,4.665s6.273.641,9.253.325c-3.748,1.774-.661,4.851,1.549,5.99,2.764,1.426,6.285,1.018,9.769-.522-5.2,3.159,6.379,9.546,13.808,7.113-1.049,1.816-.35,3.664,2.218,5.418a20.41,20.41,0,0,0,6.345,2.9,25.14,25.14,0,0,0,3.69.605c.277.142,3.671.039,3.676.229.139.072.139.072.408.024-4.024,1.631,1.226,4.338,2.609,5.054,2.626,1.353,6.878,2.622,10.515,1.529-2.237,2.369,1.673,5.684,3.614,6.871,3.184,1.828,7.4,1.964,11.727,1.23-4.444,3.348,5.313,8.01,13.436,7.129-.9,4.608,11.944,5.12,16.171,4.992-2.887,3.332.437,5.23,3.734,6.376,3.989,1.5,7.776.858,12.262.95-1.778,3.9-.493,5.863,3.646,7.813a29.72,29.72,0,0,0,6.05,2.193c1.917.431,4.357.208,6.406.524-3.814,4.673,2,6.448,8.36,5.8.281,5.747,10.05,11.395,13.782,7.478a7.84,7.84,0,0,0,4.854,7.322c2.2.952,7.965,2.625,10.752.542-.6,2.661,2.337,5.1,4.964,6.453,1.38.712,6.63,3.421,7.892.366.007.188.007.188.144.26.272-.047,1.022,2.193,1.3,2.335a11.728,11.728,0,0,0,1.837,2.248,18.336,18.336,0,0,0,5.817,3.369c3.183,1.212,6,1.181,8.313.017-1.508,5.485,10.663,11.353,13.793,7.125-1.275,2.678-.925,5.083,1.838,6.508,2.211,1.14,7.414,2.34,8.952-.572.337,2.026.961,4.573,2.907,5.947s6.885,2.809,6.766-.956c1.128,1.322,3.676,4.49,5.849,4.5,4.35.02,4.5-3.985,3.355-5.685" transform="translate(-67.036 -173.141)" fill="#68442a"/>
            <path id="Trazado_1017502" data-name="Trazado 1017502" d="M3.99,194.206c1.909-.121,7.144.762,7.68,3.673l.243.506c1.47-1.479,11.8-.918,9.829,6.311,6.173-3.509,19.146-6.063,23.728,8.385a19.816,19.816,0,0,1,.765,3.167c.092-.183.179-.364.284-.545,2.624-4.069,7.64-3.866,11.894-.491a7.054,7.054,0,0,1,3.174,5.431l-.121-.254c-.025.176-.369.371-.221.449,2.766-1.735,7.344-1.766,10.646-.587a16.744,16.744,0,0,1,5.575,4.069c2,2.561,1.461,4.153,1.09,6.778,3.161-2.281,13.608-.339,12.2,7.377.318-.018.686-.388,1-.41,2.032.132,3.821-1.367,6.169-1.256a13.985,13.985,0,0,1,7,1.811,11.567,11.567,0,0,1,2.625,2.318c1.909-1.2,4.677-.4,7.306.853,4.574,2.225,6.6,6.866,10,10.724,2.531-7.876,13.576,4.343,15.822,9.66,1.426-6.763,13.873,1.119,14.5,7.841,4.4-4.552,9.243,1.229,12.032,7.432a5.657,5.657,0,0,1,7.392-2.072c2.372,1.064,4.45,3.1,6.5,5.309s3.2,5.26,4.985,7.138c.269.331.487,1.009.757,1.339.816-8.025,10.326.56,12.448,5.627.371-2.624.325-4.526,2.724-4.766a12.137,12.137,0,0,1,5.87,1.97,30.788,30.788,0,0,1,9.018,10.959c.145.077-.1-.428-.074-.605l-.172.1c.591-1.944,2.352-2.142,4.161-1.562,4.551,1.272,8.925,6.022,10.116,12.1.041.261.068.5.1.751a8.748,8.748,0,0,1,1.491-1.978c7.744-7.944,18.248,6.995,22.64,16.077.2-8.16,9.25,1.5,10.128,4.218l.342-.2c1.225-1.983,5.969,2.4,7.579,4.375,1.905,2.132,4.3,7.53,1.067,8.08-1.615.275-5.477-3.642-7.137-5.269,2.44,5.044-2.111,3.773-4.409,2.186s-4.349-4.927-5.863-7.6c.679,4.115-3.921,3.194-6.267,1.955-2.935-1.548-4.695-4.731-5.422-8.5.324,6.095-12.346-.171-14.653-7.741-.986,1.87-3.054,2.288-6.162,1.082a22.865,22.865,0,0,1-6.409-3.755,26.712,26.712,0,0,1-2.763-2.773c-.293-.155-2.247-3.064-2.418-2.966-.147-.077-.147-.077-.267-.33.973,4.27-4.6,1.329-6.072.555-2.788-1.471-6.479-4.357-7.7-8.009-.764,3.169-6.071,1.685-8.3.7-3.547-1.682-6.21-5.155-8.161-9.191-.3,5.56-10.336-.11-14.445-7.419-3.562,3.264-11.755-7.257-14.189-10.882-1.228,4.24-4.922,2.479-7.929.329-3.741-2.538-5.45-6.071-8.235-9.8-2.4,3.617-4.924,3.606-9.155,1.186a32.928,32.928,0,0,1-5.6-3.894c-1.538-1.377-2.81-3.551-4.325-5.1-1.863,5.748-6.947,1.827-10.2-3.875-5.287,2.89-16.2-2.252-14.963-7.522a8.945,8.945,0,0,1-9.446-.1c-2.177-1.336-7.139-5.271-6.962-8.747-2.01,1.948-5.948.809-8.737-.662-1.466-.775-7.043-3.716-5.082-6.439-.171.1-.171.1-.318.021-.122-.253-2.57.335-2.863.179a13.6,13.6,0,0,1-3.109-.322,20.8,20.8,0,0,1-6.5-3.057c-3-2.017-4.668-4.405-5.025-6.983-3.977,4.254-16.536-2.79-14.657-7.722-1.617,2.531-3.969,3.544-6.9,2-2.349-1.239-6.551-4.961-4.883-7.838-2.007.819-4.652,1.679-7.049.79s-6.649-4.26-3.224-6.209c-1.858-.229-6.213-.648-7.533-2.471-2.639-3.646.84-5.947,3.042-5.912" transform="translate(-58.996 -174.631)" fill="#68442a"/>
            <path id="Trazado_1017503" data-name="Trazado 1017503" d="M90.517,170.686c1.764-.252,6.668.269,7.32,3.135l.253.488c1.285-1.576,10.893-1.727,9.455,5.619,5.538-3.925,17.437-7.362,22.459,6.73a20.878,20.878,0,0,1,.879,3.106c.076-.188.147-.375.233-.565,2.218-4.238,6.882-4.379,11.008-1.307a6.988,6.988,0,0,1,3.235,5.2l-.126-.245c-.013.178-.322.4-.181.463,2.474-1.919,6.718-2.265,9.844-1.316a15.214,15.214,0,0,1,5.389,3.675c1.994,2.416,1.577,4.041,1.373,6.683,2.81-2.492,12.605-1.273,11.715,6.517.294-.041.615-.434.909-.478,1.891-.007,3.47-1.626,5.655-1.675a12.13,12.13,0,0,1,6.588,1.324,10.715,10.715,0,0,1,2.559,2.131c1.706-1.333,4.317-.725,6.823.35,4.361,1.9,6.489,6.393,9.845,10.008,1.928-8.028,12.825,3.4,15.192,8.545.963-6.843,12.931.163,13.87,6.822,3.843-4.842,8.639.591,11.558,6.585a5.144,5.144,0,0,1,6.747-2.575c2.257.9,4.292,2.785,6.315,4.848s3.25,5.026,5,6.776c.267.312.507.973.775,1.284.33-8.059,9.61-.151,11.847,4.756.2-2.642.06-4.536,2.272-4.939a10.584,10.584,0,0,1,5.553,1.561,29.5,29.5,0,0,1,8.949,10.309c.139.067-.115-.419-.1-.6l-.154.111c.445-1.979,2.068-2.3,3.777-1.844,4.291.955,8.6,5.392,10.031,11.372.052.256.091.5.133.741a8.978,8.978,0,0,1,1.28-2.075c6.758-8.454,17.3,5.721,21.86,14.477-.247-8.152,8.658.858,9.619,3.509l.308-.22c1.029-2.062,5.664,1.979,7.264,3.843,1.88,2,4.389,7.212,1.421,7.984-1.484.385-5.275-3.255-6.9-4.764,2.533,4.863-1.756,3.908-3.973,2.482s-4.3-4.614-5.846-7.18c.849,4.058-3.467,3.455-5.71,2.382-2.805-1.343-4.607-4.4-5.482-8.1.624,6.057-11.461.678-14.008-6.712-.814,1.932-2.709,2.491-5.657,1.5a20.37,20.37,0,0,1-6.145-3.3,24.973,24.973,0,0,1-2.712-2.575c-.281-.135-2.247-2.9-2.4-2.792-.141-.067-.141-.067-.266-.31,1.13,4.192-4.2,1.642-5.6.971-2.664-1.276-6.243-3.9-7.569-7.458-.539,3.213-5.541,2.1-7.659,1.267-3.379-1.434-6.035-4.715-8.062-8.6.015,5.564-9.592.6-13.8-6.406-3.129,3.5-11.291-6.429-13.741-9.877-.912,4.313-4.434,2.81-7.338.873-3.6-2.273-5.379-5.68-8.161-9.2-2.037,3.773-4.375,3.933-8.428,1.812a29.741,29.741,0,0,1-5.4-3.5c-1.5-1.268-2.8-3.347-4.285-4.79-1.422,5.861-6.348,2.3-9.673-3.162-4.751,3.245-15.151-1.132-14.282-6.472a7.838,7.838,0,0,1-8.768.552c-2.089-1.182-6.9-4.765-6.924-8.245-1.761,2.081-5.475,1.215-8.14-.059-1.4-.672-6.731-3.221-5.058-6.071-.154.109-.154.109-.293.042-.128-.244-2.367.511-2.647.375a11.694,11.694,0,0,1-2.9-.108,18.334,18.334,0,0,1-6.2-2.6c-2.888-1.8-4.566-4.072-5.034-6.618-3.462,4.515-15.489-1.645-14.008-6.693-1.366,2.634-3.493,3.807-6.3,2.465-2.244-1.073-6.342-4.5-4.949-7.48-1.819.955-4.226,1.994-6.5,1.273s-6.4-3.792-3.322-5.972c-1.736-.1-5.8-.218-7.121-1.945-2.643-3.456.462-5.988,2.506-6.105" transform="translate(-73.765 -170.631)" fill="#68442a"/>
            <path id="Trazado_1017504" data-name="Trazado 1017504" d="M383.841,278.27c-.9-1.535-4.378-5.035-7.023-3.753l-.538.108c.426-1.987-5.465-9.581-10.3-3.865-.4-6.776-5.157-18.212-19.295-13.321a21.187,21.187,0,0,0-2.974,1.257c.1-.176.2-.349.295-.536,1.92-4.379-.885-8.108-5.861-9.407a6.987,6.987,0,0,0-6.079.726l.269-.055c-.13.121-.107.5-.248.431-.051-3.132-2.433-6.659-5.129-8.5a15.2,15.2,0,0,0-6.236-1.91c-3.133-.045-4.14,1.3-6.075,3.108.187-3.751-6.888-10.633-12.411-5.067-.153-.256-.046-.751-.194-1.009-1.177-1.48-.9-3.725-2.228-5.461a12.136,12.136,0,0,0-5.153-4.312,10.67,10.67,0,0,0-3.263-.665c-.026-2.164-2.132-3.822-4.539-5.107-4.213-2.213-9.044-1.067-13.966-1.425,5.061-6.524-10.669-7.885-16.166-6.514,4.738-5.03-8.212-9.989-14-6.56,1.375-6.027-5.863-6.373-12.367-4.9a5.144,5.144,0,0,0-2.209-6.876c-2.111-1.2-4.856-1.608-7.73-1.9s-5.954.606-8.417.332c-.411-.015-1.076.213-1.486.2,6.084-5.3-5.89-7.594-11.119-6.273,1.935-1.812,3.5-2.883,2.434-4.861a10.584,10.584,0,0,0-4.688-3.357,29.485,29.485,0,0,0-13.642-.539c-.139-.067.4-.174.529-.295l.01.188c1.267-1.583.5-3.051-.922-4.1-3.427-2.752-9.587-3.344-15.147-.717-.232.119-.445.239-.663.359a8.98,8.98,0,0,0,.82-2.295c2.372-10.561-15.282-9.925-24.966-8.009,6.515-4.905-6.085-6.222-8.753-5.312l-.021-.379c.965-2.093-5.086-3.181-7.542-3.267-2.733-.221-8.373,1.084-7.118,3.884.626,1.4,5.837,2.08,8.033,2.408-5.379,1.064-1.952,3.815.547,4.653s6.286.47,9.257.074c-3.7,1.873-.528,4.866,1.712,5.944,2.8,1.351,6.311.848,9.751-.788-5.116,3.3,6.637,9.369,14,6.736-1,1.842-.25,3.671,2.365,5.355a20.376,20.376,0,0,0,6.421,2.729,24.98,24.98,0,0,0,3.7.506c.281.134,3.67-.061,3.68.129.14.068.14.068.409.012-3.978,1.739,1.343,4.3,2.745,4.981,2.662,1.281,6.947,2.434,10.553,1.244-2.17,2.428,1.826,5.636,3.8,6.77,3.233,1.74,7.454,1.763,11.757.911-4.352,3.468,5.529,7.863,13.625,6.762-.775,4.63,12.077,4.793,16.3,4.55-2.795,3.409.579,5.217,3.906,6.272,4.027,1.394,7.8.648,12.285.617-1.672,3.949-.335,5.873,3.856,7.711a29.709,29.709,0,0,0,6.108,2.03c1.929.378,4.36.088,6.417.348-3.685,4.775,2.173,6.393,8.516,5.573.438,5.736,10.356,11.116,13.981,7.1a7.839,7.839,0,0,0,5.049,7.189c2.229.892,8.036,2.407,10.765.248-.521,2.677,2.475,5.034,5.136,6.317,1.4.673,6.723,3.239,7.9.15.012.188.012.188.15.257.271-.054,1.082,2.165,1.362,2.3a11.706,11.706,0,0,0,1.9,2.2,18.325,18.325,0,0,0,5.9,3.21c3.215,1.126,6.032,1.017,8.312-.209-1.359,5.525,10.968,11.059,13.983,6.748-1.2,2.712-.786,5.107,2.014,6.456,2.241,1.079,7.474,2.138,8.932-.815.391,2.016,1.085,4.545,3.069,5.866s6.958,2.621,6.737-1.141c1.164,1.291,3.8,4.388,5.97,4.34,4.35-.1,4.385-4.1,3.2-5.773" transform="translate(-79.293 -167.876)" fill="#68442a"/>
            <path id="Trazado_1017505" data-name="Trazado 1017505" d="M166.19,141.045c1.764-.252,6.668.269,7.32,3.135l.253.488c1.284-1.576,10.893-1.727,9.455,5.619,5.538-3.925,17.436-7.362,22.459,6.73a20.775,20.775,0,0,1,.879,3.106c.076-.188.147-.375.233-.565,2.218-4.237,6.882-4.379,11.008-1.307a6.988,6.988,0,0,1,3.235,5.2l-.126-.245c-.014.178-.322.4-.181.463,2.474-1.92,6.717-2.266,9.843-1.316a15.231,15.231,0,0,1,5.39,3.675c2,2.416,1.577,4.041,1.372,6.683,2.809-2.492,12.605-1.273,11.714,6.517.295-.041.616-.434.91-.478,1.892-.007,3.47-1.626,5.656-1.676A12.134,12.134,0,0,1,262.2,178.4a10.716,10.716,0,0,1,2.559,2.131c1.705-1.333,4.316-.725,6.823.35,4.362,1.9,6.488,6.393,9.845,10.008,1.928-8.028,12.825,3.4,15.192,8.545.963-6.843,12.93.162,13.871,6.822,3.843-4.842,8.639.591,11.558,6.585a5.143,5.143,0,0,1,6.746-2.575c2.257.9,4.293,2.785,6.315,4.848s3.25,5.026,5,6.776c.268.312.508.973.775,1.284.329-8.059,9.609-.151,11.847,4.756.205-2.642.061-4.536,2.272-4.939a10.581,10.581,0,0,1,5.552,1.561,29.5,29.5,0,0,1,8.95,10.309c.139.067-.115-.419-.1-.6l-.154.111c.444-1.979,2.067-2.3,3.777-1.844,4.291.955,8.6,5.392,10.031,11.372.051.256.091.5.133.741a8.948,8.948,0,0,1,1.279-2.075c6.759-8.454,17.3,5.721,21.86,14.477-.247-8.152,8.659.858,9.619,3.509l.308-.22c1.029-2.062,5.664,1.979,7.264,3.843,1.881,2,4.389,7.212,1.421,7.983-1.484.385-5.274-3.255-6.9-4.764,2.532,4.863-1.757,3.908-3.974,2.482s-4.3-4.614-5.846-7.18c.85,4.058-3.466,3.455-5.709,2.381-2.805-1.342-4.607-4.394-5.483-8.1.624,6.057-11.461.678-14.007-6.712-.814,1.932-2.71,2.491-5.658,1.5a20.38,20.38,0,0,1-6.145-3.3,25.051,25.051,0,0,1-2.712-2.575c-.281-.135-2.247-2.9-2.4-2.792-.141-.067-.141-.067-.267-.311,1.131,4.192-4.2,1.642-5.6.971-2.665-1.276-6.243-3.9-7.57-7.458-.538,3.213-5.541,2.1-7.658,1.267-3.38-1.434-6.036-4.715-8.062-8.6.014,5.564-9.593.6-13.8-6.406-3.13,3.5-11.291-6.429-13.743-9.877-.913,4.313-4.433,2.81-7.338.873-3.6-2.273-5.381-5.68-8.161-9.2-2.037,3.773-4.375,3.933-8.428,1.812a29.752,29.752,0,0,1-5.4-3.5c-1.5-1.269-2.8-3.347-4.284-4.79-1.422,5.861-6.349,2.3-9.673-3.162-4.751,3.245-15.152-1.132-14.282-6.472a7.838,7.838,0,0,1-8.767.552c-2.091-1.182-6.9-4.765-6.926-8.245-1.759,2.081-5.475,1.215-8.139-.059-1.4-.672-6.732-3.221-5.058-6.071-.154.109-.154.109-.293.042-.128-.244-2.367.511-2.648.375a11.688,11.688,0,0,1-2.9-.108,18.334,18.334,0,0,1-6.2-2.6c-2.888-1.8-4.566-4.072-5.034-6.618-3.461,4.515-15.488-1.645-14.008-6.693-1.366,2.634-3.493,3.807-6.3,2.465-2.244-1.073-6.341-4.5-4.948-7.481-1.819.956-4.226,2-6.5,1.274s-6.4-3.792-3.322-5.972c-1.736-.1-5.8-.218-7.12-1.945-2.643-3.456.462-5.988,2.506-6.106" transform="translate(-86.612 -165.599)" fill="#68442a"/>
          </g>
        </g>
        <g id="Grupo_1197462" data-name="Grupo 1197462">
          <g id="Grupo_1197461" data-name="Grupo 1197461" clip-path="url(#clip-path)">
            <path id="Trazado_1017507" data-name="Trazado 1017507" d="M366.274,270.371a9.694,9.694,0,0,1,2.913,4.132,16.884,16.884,0,0,1,1.065,4.933,24.848,24.848,0,0,1-.158,4.932,26.676,26.676,0,0,1-1.053,4.821,24.177,24.177,0,0,1-.9-4.845c-.163-1.6-.257-3.178-.368-4.729s-.239-3.078-.465-4.6a32.172,32.172,0,0,0-1.03-4.648" transform="translate(-62.182 -45.901)" fill="#6cd379"/>
            <path id="Trazado_1017508" data-name="Trazado 1017508" d="M372.888,262.7a28.465,28.465,0,0,1,.917,6.345,54.858,54.858,0,0,1-.125,6.34c-.153,2.1-.4,4.181-.707,6.256s-.669,4.142-1.191,6.242a30.5,30.5,0,0,1-.764-6.359,62.789,62.789,0,0,1,.179-6.321c.156-2.093.386-4.169.658-6.243.289-2.075.584-4.145,1.033-6.26" transform="translate(-62.984 -44.599)" fill="#6cd379"/>
            <path id="Trazado_1017509" data-name="Trazado 1017509" d="M381.072,265.371c-.322,2.093-.858,4.08-1.359,6.052s-1.034,3.9-1.479,5.84a54.316,54.316,0,0,0-1.047,5.837,42.635,42.635,0,0,0-.266,6.072,14.263,14.263,0,0,1-1.692-6.118,22.153,22.153,0,0,1,.578-6.35,31.448,31.448,0,0,1,5.265-11.333" transform="translate(-63.696 -45.052)" fill="#6cd379"/>
            <path id="Trazado_1017510" data-name="Trazado 1017510" d="M382.9,281.7c-.132,1.06-.282,1.945-.416,2.825s-.276,1.724-.435,2.587-.34,1.735-.582,2.631a12.384,12.384,0,0,1-1.058,2.75,7.961,7.961,0,0,1-.9-2.878,9.694,9.694,0,0,1,.087-2.957,8.452,8.452,0,0,1,1.062-2.834A5.415,5.415,0,0,1,382.9,281.7" transform="translate(-64.417 -47.825)" fill="#6cd379"/>
            <path id="Trazado_1017511" data-name="Trazado 1017511" d="M158.582,240.1a9.685,9.685,0,0,1,2.912,4.132,16.858,16.858,0,0,1,1.066,4.933,24.856,24.856,0,0,1-.158,4.933,26.753,26.753,0,0,1-1.053,4.82,24.165,24.165,0,0,1-.9-4.845c-.163-1.6-.257-3.178-.369-4.729s-.238-3.078-.464-4.6a32.28,32.28,0,0,0-1.03-4.648" transform="translate(-26.922 -40.762)" fill="#6cd379"/>
            <path id="Trazado_1017512" data-name="Trazado 1017512" d="M165.2,232.435a28.466,28.466,0,0,1,.917,6.345,54.877,54.877,0,0,1-.125,6.341c-.153,2.1-.4,4.18-.707,6.255s-.669,4.142-1.191,6.242a30.5,30.5,0,0,1-.764-6.359,62.79,62.79,0,0,1,.179-6.321c.155-2.093.386-4.169.658-6.242.289-2.076.584-4.145,1.033-6.261" transform="translate(-27.725 -39.46)" fill="#6cd379"/>
            <path id="Trazado_1017513" data-name="Trazado 1017513" d="M173.38,235.1c-.322,2.093-.858,4.08-1.359,6.052s-1.034,3.9-1.479,5.84a54.105,54.105,0,0,0-1.047,5.837,42.633,42.633,0,0,0-.266,6.072,14.263,14.263,0,0,1-1.692-6.118,22.153,22.153,0,0,1,.578-6.35A31.448,31.448,0,0,1,173.38,235.1" transform="translate(-28.436 -39.913)" fill="#6cd379"/>
            <path id="Trazado_1017514" data-name="Trazado 1017514" d="M175.208,251.435c-.132,1.06-.282,1.945-.416,2.825s-.276,1.724-.435,2.587-.34,1.735-.582,2.631a12.368,12.368,0,0,1-1.058,2.75,7.963,7.963,0,0,1-.9-2.878,9.721,9.721,0,0,1,.088-2.957,8.441,8.441,0,0,1,1.062-2.834,5.415,5.415,0,0,1,2.237-2.124" transform="translate(-29.158 -42.686)" fill="#6cd379"/>
            <path id="Trazado_1017515" data-name="Trazado 1017515" d="M264.248,180.629a9.7,9.7,0,0,1,2.913,4.131,16.9,16.9,0,0,1,1.065,4.934,24.848,24.848,0,0,1-.158,4.932,26.745,26.745,0,0,1-1.053,4.821,24.179,24.179,0,0,1-.9-4.845c-.163-1.6-.257-3.178-.369-4.729s-.238-3.078-.464-4.6a32.167,32.167,0,0,0-1.03-4.648" transform="translate(-44.861 -30.665)" fill="#6cd379"/>
            <path id="Trazado_1017516" data-name="Trazado 1017516" d="M270.862,172.963a28.467,28.467,0,0,1,.917,6.345,54.873,54.873,0,0,1-.125,6.341c-.153,2.1-.4,4.18-.707,6.255s-.669,4.142-1.191,6.242a30.5,30.5,0,0,1-.764-6.359,62.79,62.79,0,0,1,.179-6.321c.156-2.093.386-4.169.658-6.243.289-2.075.584-4.145,1.033-6.26" transform="translate(-45.663 -29.364)" fill="#6cd379"/>
            <path id="Trazado_1017517" data-name="Trazado 1017517" d="M279.046,175.629c-.322,2.093-.858,4.08-1.359,6.052-.516,1.966-1.034,3.9-1.479,5.84a54.107,54.107,0,0,0-1.047,5.837,42.635,42.635,0,0,0-.266,6.072,14.263,14.263,0,0,1-1.692-6.118,22.152,22.152,0,0,1,.578-6.35,31.448,31.448,0,0,1,5.265-11.333" transform="translate(-46.375 -29.816)" fill="#6cd379"/>
            <path id="Trazado_1017518" data-name="Trazado 1017518" d="M280.874,191.963c-.132,1.06-.282,1.945-.416,2.825s-.276,1.724-.435,2.587-.34,1.735-.582,2.631a12.366,12.366,0,0,1-1.058,2.75,7.964,7.964,0,0,1-.9-2.878,9.722,9.722,0,0,1,.088-2.957,8.442,8.442,0,0,1,1.062-2.834,5.415,5.415,0,0,1,2.237-2.124" transform="translate(-47.096 -32.589)" fill="#6cd379"/>
            <path id="Trazado_1017519" data-name="Trazado 1017519" d="M160.943,203.9a9.689,9.689,0,0,1,2.913,4.131,16.9,16.9,0,0,1,1.066,4.934,24.974,24.974,0,0,1-.158,4.932,26.75,26.75,0,0,1-1.054,4.821,24.116,24.116,0,0,1-.9-4.845c-.163-1.6-.257-3.178-.369-4.729s-.239-3.078-.465-4.6a32.055,32.055,0,0,0-1.03-4.648" transform="translate(-27.323 -34.616)" fill="#6cd379"/>
            <path id="Trazado_1017520" data-name="Trazado 1017520" d="M167.557,196.233a28.418,28.418,0,0,1,.917,6.345,54.51,54.51,0,0,1-.125,6.341c-.152,2.1-.4,4.181-.707,6.256-.322,2.076-.669,4.142-1.191,6.242a30.447,30.447,0,0,1-.765-6.359,62.785,62.785,0,0,1,.179-6.321c.156-2.093.386-4.169.658-6.243.29-2.075.584-4.145,1.033-6.26" transform="translate(-28.125 -33.314)" fill="#6cd379"/>
            <path id="Trazado_1017521" data-name="Trazado 1017521" d="M175.741,198.9c-.322,2.093-.858,4.08-1.358,6.052s-1.034,3.9-1.48,5.84a54.1,54.1,0,0,0-1.046,5.837,42.629,42.629,0,0,0-.267,6.072,14.251,14.251,0,0,1-1.691-6.118,22.094,22.094,0,0,1,.578-6.35,31.428,31.428,0,0,1,5.264-11.333" transform="translate(-28.837 -33.767)" fill="#6cd379"/>
            <path id="Trazado_1017522" data-name="Trazado 1017522" d="M177.569,215.233c-.132,1.06-.281,1.945-.416,2.825s-.275,1.724-.434,2.587-.341,1.735-.583,2.631a12.384,12.384,0,0,1-1.058,2.75,7.98,7.98,0,0,1-.9-2.878,9.721,9.721,0,0,1,.088-2.957,8.435,8.435,0,0,1,1.062-2.834,5.415,5.415,0,0,1,2.237-2.124" transform="translate(-29.558 -36.54)" fill="#6cd379"/>
            <path id="Trazado_1017523" data-name="Trazado 1017523" d="M352.694,225.2a9.693,9.693,0,0,1,2.913,4.132,16.911,16.911,0,0,1,1.065,4.933,24.918,24.918,0,0,1-.157,4.933,26.756,26.756,0,0,1-1.054,4.82,24.164,24.164,0,0,1-.9-4.845c-.163-1.6-.257-3.178-.368-4.729s-.239-3.078-.465-4.6a32.167,32.167,0,0,0-1.03-4.648" transform="translate(-59.877 -38.233)" fill="#6cd379"/>
            <path id="Trazado_1017524" data-name="Trazado 1017524" d="M359.308,217.538a28.467,28.467,0,0,1,.917,6.345,54.887,54.887,0,0,1-.125,6.341c-.153,2.1-.4,4.18-.707,6.255s-.669,4.142-1.191,6.242a30.5,30.5,0,0,1-.764-6.359,62.78,62.78,0,0,1,.179-6.321c.156-2.093.386-4.169.658-6.243.289-2.076.584-4.145,1.033-6.261" transform="translate(-60.679 -36.931)" fill="#6cd379"/>
            <path id="Trazado_1017525" data-name="Trazado 1017525" d="M367.492,220.2c-.322,2.093-.858,4.08-1.359,6.052s-1.034,3.9-1.479,5.84a54.3,54.3,0,0,0-1.047,5.837A42.51,42.51,0,0,0,363.34,244a14.263,14.263,0,0,1-1.692-6.118,22.154,22.154,0,0,1,.578-6.35,31.448,31.448,0,0,1,5.265-11.333" transform="translate(-61.391 -37.384)" fill="#6cd379"/>
            <path id="Trazado_1017526" data-name="Trazado 1017526" d="M369.319,236.538c-.132,1.06-.281,1.945-.416,2.825s-.276,1.724-.434,2.587-.341,1.735-.583,2.631a12.368,12.368,0,0,1-1.058,2.75,7.945,7.945,0,0,1-.9-2.878,9.72,9.72,0,0,1,.087-2.957,8.477,8.477,0,0,1,1.062-2.834,5.415,5.415,0,0,1,2.237-2.124" transform="translate(-62.112 -40.157)" fill="#6cd379"/>
            <path id="Trazado_1017527" data-name="Trazado 1017527" d="M142.878,162.3a9.686,9.686,0,0,1,2.913,4.132,16.912,16.912,0,0,1,1.066,4.933,24.909,24.909,0,0,1-.159,4.932,26.7,26.7,0,0,1-1.053,4.822,24.2,24.2,0,0,1-.9-4.846c-.163-1.6-.257-3.178-.369-4.729s-.238-3.078-.464-4.6a32.157,32.157,0,0,0-1.03-4.648" transform="translate(-24.256 -27.553)" fill="#6cd379"/>
            <path id="Trazado_1017528" data-name="Trazado 1017528" d="M149.492,154.63a28.467,28.467,0,0,1,.917,6.345,54.686,54.686,0,0,1-.125,6.341c-.153,2.1-.4,4.181-.707,6.256s-.669,4.142-1.191,6.242a30.448,30.448,0,0,1-.765-6.359,62.789,62.789,0,0,1,.179-6.321c.156-2.093.386-4.169.658-6.243.289-2.075.584-4.145,1.033-6.26" transform="translate(-25.059 -26.251)" fill="#6cd379"/>
            <path id="Trazado_1017529" data-name="Trazado 1017529" d="M157.676,157.3c-.322,2.093-.858,4.08-1.358,6.052-.516,1.966-1.035,3.9-1.48,5.84a53.894,53.894,0,0,0-1.046,5.837,42.509,42.509,0,0,0-.267,6.073,14.27,14.27,0,0,1-1.692-6.119,22.153,22.153,0,0,1,.578-6.35,31.448,31.448,0,0,1,5.265-11.333" transform="translate(-25.77 -26.704)" fill="#6cd379"/>
            <path id="Trazado_1017530" data-name="Trazado 1017530" d="M159.5,173.63c-.132,1.06-.282,1.945-.416,2.825s-.275,1.724-.434,2.587-.341,1.735-.583,2.631a12.382,12.382,0,0,1-1.058,2.75,7.979,7.979,0,0,1-.9-2.878,9.721,9.721,0,0,1,.088-2.957,8.435,8.435,0,0,1,1.062-2.834,5.415,5.415,0,0,1,2.237-2.124" transform="translate(-26.491 -29.477)" fill="#6cd379"/>
            <path id="Trazado_1017531" data-name="Trazado 1017531" d="M234.753,281.262a9.69,9.69,0,0,1,2.912,4.132,16.858,16.858,0,0,1,1.066,4.933,24.856,24.856,0,0,1-.158,4.933,26.754,26.754,0,0,1-1.053,4.82,24.108,24.108,0,0,1-.9-4.845c-.163-1.6-.257-3.178-.369-4.729s-.238-3.078-.464-4.6a32.282,32.282,0,0,0-1.03-4.648" transform="translate(-39.854 -47.75)" fill="#6cd379"/>
            <path id="Trazado_1017532" data-name="Trazado 1017532" d="M241.367,273.6a28.467,28.467,0,0,1,.917,6.345,54.876,54.876,0,0,1-.125,6.341c-.153,2.1-.4,4.181-.707,6.256s-.669,4.142-1.191,6.242a30.5,30.5,0,0,1-.764-6.359,62.79,62.79,0,0,1,.179-6.321c.156-2.093.385-4.169.658-6.243.289-2.075.584-4.144,1.033-6.26" transform="translate(-40.656 -46.448)" fill="#6cd379"/>
            <path id="Trazado_1017533" data-name="Trazado 1017533" d="M249.55,276.262c-.322,2.093-.858,4.08-1.359,6.052s-1.034,3.9-1.479,5.84a54.515,54.515,0,0,0-1.047,5.837,42.755,42.755,0,0,0-.266,6.072,14.263,14.263,0,0,1-1.692-6.118,22.154,22.154,0,0,1,.578-6.35,31.449,31.449,0,0,1,5.265-11.333" transform="translate(-41.368 -46.901)" fill="#6cd379"/>
            <path id="Trazado_1017534" data-name="Trazado 1017534" d="M251.378,292.6c-.132,1.06-.282,1.945-.416,2.825s-.276,1.724-.435,2.587-.34,1.735-.582,2.631a12.368,12.368,0,0,1-1.058,2.75,7.963,7.963,0,0,1-.9-2.878,9.7,9.7,0,0,1,.089-2.957,8.422,8.422,0,0,1,1.061-2.834,5.415,5.415,0,0,1,2.237-2.124" transform="translate(-42.089 -49.674)" fill="#6cd379"/>
            <path id="Trazado_1017535" data-name="Trazado 1017535" d="M307.117,278.045a9.694,9.694,0,0,1,2.913,4.132,16.884,16.884,0,0,1,1.065,4.933,24.918,24.918,0,0,1-.157,4.933,26.754,26.754,0,0,1-1.054,4.82,24.166,24.166,0,0,1-.9-4.845c-.163-1.6-.257-3.178-.368-4.729s-.239-3.078-.465-4.6a32.167,32.167,0,0,0-1.03-4.648" transform="translate(-52.139 -47.204)" fill="#6cd379"/>
            <path id="Trazado_1017536" data-name="Trazado 1017536" d="M313.731,270.379a28.467,28.467,0,0,1,.917,6.345,54.862,54.862,0,0,1-.125,6.34c-.153,2.1-.4,4.181-.707,6.256s-.669,4.142-1.191,6.242a30.5,30.5,0,0,1-.764-6.359,62.548,62.548,0,0,1,.179-6.321c.155-2.093.385-4.169.658-6.242s.583-4.145,1.032-6.261" transform="translate(-52.941 -45.902)" fill="#6cd379"/>
            <path id="Trazado_1017537" data-name="Trazado 1017537" d="M321.915,273.045c-.322,2.093-.858,4.08-1.359,6.052s-1.034,3.9-1.479,5.84a54.3,54.3,0,0,0-1.047,5.837,42.626,42.626,0,0,0-.266,6.072,14.263,14.263,0,0,1-1.692-6.118,22.154,22.154,0,0,1,.578-6.35,31.448,31.448,0,0,1,5.265-11.333" transform="translate(-53.653 -46.355)" fill="#6cd379"/>
            <path id="Trazado_1017538" data-name="Trazado 1017538" d="M323.743,289.379c-.132,1.06-.282,1.945-.416,2.825s-.276,1.724-.435,2.587-.34,1.735-.582,2.631a12.368,12.368,0,0,1-1.058,2.75,7.963,7.963,0,0,1-.9-2.878,9.7,9.7,0,0,1,.089-2.957,8.422,8.422,0,0,1,1.061-2.834,5.42,5.42,0,0,1,2.237-2.124" transform="translate(-54.374 -49.128)" fill="#6cd379"/>
            <g id="Grupo_1197460" data-name="Grupo 1197460" transform="translate(60.103 14.925)" opacity="0.5">
              <g id="Grupo_1197459" data-name="Grupo 1197459">
                <g id="Grupo_1197458" data-name="Grupo 1197458" clip-path="url(#clip-path-5)">
                  <path id="Trazado_1017539" data-name="Trazado 1017539" d="M72.4,50.181c-.262-5.309,5.625-6.36,9.555-6.41-.439-4.325-1.274-7.853.247-12.2,1.9-5.729,6.55-11.094,12.434-12.739A18.512,18.512,0,0,1,110.4,21c5.558,4.058,5.03,9.184,6.873,14.861.149-3.741,5.85-4.2,8.619-2.858,3.956,1.72,5.173,4.851,5.617,8.589,2.921-2.2,5.7-.073,6.14,3.264,2.913-2.4,8.028-2.849,11.583-1.521,3.157,1.142,6.37,6.414,8.349,6.982Z" transform="translate(-72.393 -17.977)" fill="#c3eafb"/>
                  <path id="Trazado_1017540" data-name="Trazado 1017540" d="M408.094,99.551c.208-5.2-5.564-6.177-9.411-6.189.4-4.236,1.176-7.7-.35-11.939-1.91-5.589-6.511-10.8-12.28-12.359a18.137,18.137,0,0,0-15.4,2.263c-5.406,4.025-4.846,9.034-6.59,14.609-.181-3.659-5.767-4.062-8.466-2.722-3.853,1.72-5.016,4.794-5.414,8.451-2.883-2.125-5.582-.015-5.981,3.256-2.875-2.319-7.887-2.721-11.352-1.386-3.083,1.146-6.178,6.338-8.107,6.9Z" transform="translate(-115.234 -26.517)" fill="#c3eafb"/>
                </g>
              </g>
            </g>
            <path id="Trazado_1017541" data-name="Trazado 1017541" d="M380.4,219.924c0,.611-1.223,1.107-2.732,1.107s-2.731-.5-2.731-1.107,1.224-1.108,2.731-1.108,2.732.5,2.732,1.108" transform="translate(-63.654 -37.148)" fill="#e2bb91"/>
            <path id="Trazado_1017542" data-name="Trazado 1017542" d="M384.36,216.537c0,.3-.635.553-1.421.553s-1.419-.248-1.419-.553.635-.554,1.419-.554,1.421.248,1.421.554" transform="translate(-64.771 -36.667)" fill="#e2bb91"/>
            <path id="Trazado_1017543" data-name="Trazado 1017543" d="M389.331,215.4c0,.229-.333.415-.744.415s-.743-.186-.743-.415.332-.415.743-.415.744.186.744.415" transform="translate(-65.844 -36.498)" fill="#e2bb91"/>
            <path id="Trazado_1017544" data-name="Trazado 1017544" d="M387.981,222.543c0,.586-.829,1.06-1.853,1.06s-1.854-.474-1.854-1.06.829-1.06,1.854-1.06,1.853.475,1.853,1.06" transform="translate(-65.238 -37.601)" fill="#e2bb91"/>
            <path id="Trazado_1017545" data-name="Trazado 1017545" d="M395.036,209.021c0,.573-.99,1.038-2.213,1.038s-2.215-.465-2.215-1.038.991-1.038,2.215-1.038,2.213.465,2.213,1.038" transform="translate(-66.313 -35.309)" fill="#e2bb91"/>
            <path id="Trazado_1017546" data-name="Trazado 1017546" d="M309.052,181.336c0,.645-.957,1.169-2.139,1.169s-2.139-.524-2.139-1.169.957-1.17,2.139-1.17,2.139.524,2.139,1.17" transform="translate(-51.741 -30.587)" fill="#e2bb91"/>
            <path id="Trazado_1017547" data-name="Trazado 1017547" d="M315.979,179.182c0,.385-1.054.7-2.353.7s-2.351-.313-2.351-.7,1.053-.7,2.351-.7,2.353.313,2.353.7" transform="translate(-52.845 -30.301)" fill="#e2bb91"/>
            <path id="Trazado_1017548" data-name="Trazado 1017548" d="M317.771,183.95c0,.534-.819.966-1.831.966s-1.831-.433-1.831-.966.82-.967,1.831-.967,1.831.433,1.831.967" transform="translate(-53.326 -31.065)" fill="#e2bb91"/>
            <path id="Trazado_1017549" data-name="Trazado 1017549" d="M300.5,182.159c0,.323-1.085.584-2.423.584s-2.423-.262-2.423-.584,1.085-.585,2.423-.585,2.423.262,2.423.585" transform="translate(-50.192 -30.826)" fill="#e2bb91"/>
            <path id="Trazado_1017550" data-name="Trazado 1017550" d="M305.169,186.98c0,.459-.588.83-1.313.83s-1.312-.371-1.312-.83.587-.83,1.312-.83,1.313.371,1.313.83" transform="translate(-51.363 -31.603)" fill="#e2bb91"/>
            <path id="Trazado_1017551" data-name="Trazado 1017551" d="M296.127,186.565c0,.229-.527.415-1.176.415s-1.176-.186-1.176-.415.527-.415,1.176-.415,1.176.186,1.176.415" transform="translate(-49.874 -31.603)" fill="#e2bb91"/>
            <path id="Trazado_1017552" data-name="Trazado 1017552" d="M380.4,219.924c0,.611-1.223,1.107-2.732,1.107s-2.731-.5-2.731-1.107,1.224-1.108,2.731-1.108,2.732.5,2.732,1.108" transform="translate(-63.654 -37.148)" fill="#e2bb91"/>
            <path id="Trazado_1017553" data-name="Trazado 1017553" d="M384.36,216.537c0,.3-.635.553-1.421.553s-1.419-.248-1.419-.553.635-.554,1.419-.554,1.421.248,1.421.554" transform="translate(-64.771 -36.667)" fill="#e2bb91"/>
            <path id="Trazado_1017554" data-name="Trazado 1017554" d="M389.331,215.4c0,.229-.333.415-.744.415s-.743-.186-.743-.415.332-.415.743-.415.744.186.744.415" transform="translate(-65.844 -36.498)" fill="#e2bb91"/>
            <path id="Trazado_1017555" data-name="Trazado 1017555" d="M387.981,222.543c0,.586-.829,1.06-1.853,1.06s-1.854-.474-1.854-1.06.829-1.06,1.854-1.06,1.853.475,1.853,1.06" transform="translate(-65.238 -37.601)" fill="#e2bb91"/>
            <path id="Trazado_1017556" data-name="Trazado 1017556" d="M395.036,209.021c0,.573-.99,1.038-2.213,1.038s-2.215-.465-2.215-1.038.991-1.038,2.215-1.038,2.213.465,2.213,1.038" transform="translate(-66.313 -35.309)" fill="#e2bb91"/>
            <path id="Trazado_1017557" data-name="Trazado 1017557" d="M309.052,181.336c0,.645-.957,1.169-2.139,1.169s-2.139-.524-2.139-1.169.957-1.17,2.139-1.17,2.139.524,2.139,1.17" transform="translate(-51.741 -30.587)" fill="#e2bb91"/>
            <path id="Trazado_1017558" data-name="Trazado 1017558" d="M315.979,179.182c0,.385-1.054.7-2.353.7s-2.351-.313-2.351-.7,1.053-.7,2.351-.7,2.353.313,2.353.7" transform="translate(-52.845 -30.301)" fill="#e2bb91"/>
            <path id="Trazado_1017559" data-name="Trazado 1017559" d="M317.771,183.95c0,.534-.819.966-1.831.966s-1.831-.433-1.831-.966.82-.967,1.831-.967,1.831.433,1.831.967" transform="translate(-53.326 -31.065)" fill="#e2bb91"/>
            <path id="Trazado_1017560" data-name="Trazado 1017560" d="M300.5,182.159c0,.323-1.085.584-2.423.584s-2.423-.262-2.423-.584,1.085-.585,2.423-.585,2.423.262,2.423.585" transform="translate(-50.192 -30.826)" fill="#e2bb91"/>
            <path id="Trazado_1017561" data-name="Trazado 1017561" d="M305.169,186.98c0,.459-.588.83-1.313.83s-1.312-.371-1.312-.83.587-.83,1.312-.83,1.313.371,1.313.83" transform="translate(-51.363 -31.603)" fill="#e2bb91"/>
            <path id="Trazado_1017562" data-name="Trazado 1017562" d="M296.127,186.565c0,.229-.527.415-1.176.415s-1.176-.186-1.176-.415.527-.415,1.176-.415,1.176.186,1.176.415" transform="translate(-49.874 -31.603)" fill="#e2bb91"/>
            <path id="Trazado_1017563" data-name="Trazado 1017563" d="M340.71,163.346c1.217-1.5.131-4.623,1.558-5.971,1.4-1.526,3.249-.371,4.919-.288,2.06.2,3.965-.493,6.081-1.038,9.03-2.094,17.649-2.277,26.049,2.731,3.948,2.638,6.8,6.385,9.792,9.922,1.859,2.26,2.871,1.719,5.441,2.754,2.809,1.36,2.218,3.3-.4,4.117-3.842,1.208-7.418,1.818-11.17,3.563-3.72,1.924-8.034,4.684-9.928,8.688-.946,2-1.055,4.6-3.228,5.889-2.7,1.659-7.437,1.414-10.5,1.624a46.683,46.683,0,0,1-11.693-.406c-9.275-1.717-16.138-4.308-21.513-12.527-2.491-3.809-3.5-9.71-.68-13.688,2.106-2.753,7.886-4.476,11.314-4.877Z" transform="translate(-54.96 -26.257)" fill="#af9f95"/>
            <path id="Trazado_1017564" data-name="Trazado 1017564" d="M366.016,195.191c3.072-.966,3.548-4.106,3.264-7.76-.254-3.257-2.448-6.277-4.638-8.516-6.792-7.073-15.829-9.72-25.315-9.467-3.317.2-9.26.385-11.2,3.929-1.483,3.209-.216,9.355,1.737,12.135,5.63,8.016,14.262,10.364,23.08,10.516,2.966.049,8.82.5,13.077-.836" transform="translate(-55.595 -28.764)" fill="#917f73"/>
            <path id="Trazado_1017565" data-name="Trazado 1017565" d="M349.209,164.279a7.594,7.594,0,0,1,4.013.116,27.333,27.333,0,0,1,3.834,1.331c1.24.542,2.487,1.029,3.713,1.636a29.594,29.594,0,0,1,3.515,2.058,34.935,34.935,0,0,1,6.11,5.38,73.894,73.894,0,0,1,5.048,6.367l-.679.174a9.943,9.943,0,0,0-2.11-6.554,31.752,31.752,0,0,0-4.846-5.318,26.307,26.307,0,0,0-5.869-4.151,21.909,21.909,0,0,0-6.789-2.264l-1.929-.282,1.9-.412a10.193,10.193,0,0,1,3.3-.081,24.17,24.17,0,0,1,9.134,3.107,25.265,25.265,0,0,1,4.96,4.086,16.562,16.562,0,0,1,3.525,5.318,17.267,17.267,0,0,0-3.705-5.142,26.642,26.642,0,0,0-5.013-3.878,21.536,21.536,0,0,0-5.866-2.3,14.55,14.55,0,0,0-6.174-.421l-.03-.694a22.639,22.639,0,0,1,7.035,2.291,27.123,27.123,0,0,1,6.063,4.222,29.792,29.792,0,0,1,4.971,5.47,14.62,14.62,0,0,1,1.724,3.327,8.37,8.37,0,0,1,.469,3.768l-.119.957-.56-.783c-3.119-4.36-6.46-8.651-10.842-11.759a29.3,29.3,0,0,0-3.417-2.1c-1.182-.612-2.424-1.166-3.639-1.74a27.1,27.1,0,0,0-3.755-1.45,7.72,7.72,0,0,0-3.969-.281" transform="translate(-59.285 -27.534)" fill="#917f73"/>
          </g>
        </g>
        <g id="Grupo_1197464" data-name="Grupo 1197464" transform="translate(233.084 140.667)">
          <g id="Grupo_1197463" data-name="Grupo 1197463" clip-path="url(#clip-path-6)">
            <path id="Trazado_1017566" data-name="Trazado 1017566" d="M283.668,194.894c.081-1.059,1.49-1.473,2.325-1.181-1.4-1.067,2.349-2.056,3.31-1.524.8-1.442,3.152-2.453,4.513-1.119a2.545,2.545,0,0,1,3.846-1.44c.788-1.005,1.912-2.067,3.088-.787.731-.823,1.914-1.547,2.948-.592-.429-1.494,1.773-1.347,2.426-.588-1.039-2,1.447-1.728,2.593-1.139-.47-.7.066-1.144.742-1.259.748-.214.99.179,1.584.6.007-1.482,2.321-1.7,3.045-.521-.036-2.258,1.316-3.012,3.143-1.494a1.946,1.946,0,0,1,3.357-.747c-.176-1.47.856-1.915,2.048-1.609.076-.183.152-.369.231-.549-.314-.9-.215-1.817.881-1.8.157-.287.325-.565.5-.837-.023-.858.276-1.5,1.1-1.5a11.488,11.488,0,0,1,.795-.844,2.174,2.174,0,0,1,2.362-1.8c.109-.068.219-.134.328-.2.026-1.321.317-1.406,1.54-1.944.239-.127.366.112.521,0s.266-.481.506-.609c.4-.242.958-.512,1.37-.146.362-.933,2.491-1.732,3.313-1,.066-1.144,1.308-1.007,2.07-1.137a16.043,16.043,0,0,1,2.819-.83,11.235,11.235,0,0,1,4.726.848c1.444.3,2.76.962,3.107,2.169.009.032.012.066.021.1l12.018,10.215c.483.79.657,1.8-.557,1.838,1.47.445,1.391,2.027.322,2.906a1.638,1.638,0,0,1,.322,2.907c1.779.218,1.956,2.279.607,3.553,1.973-.684,1.87,1.773,1,2.792,1.156-.371,3.728.408,2.267,2.051,1.185-.2,2.341-.574,3.051.525a1.368,1.368,0,0,1-1.007,2.262c2.881.554,1.028,2.96-1.346,2.32.6,1.465-1.487,2.518-2.676,1.675.516,2-1.659,1.5-2.506,1.648-.169.029-.6-.422-.933-.363s-.562.791-.9.851c-.846.144-1.127.54-1.89.147.825,1.777-2.477,1.817-3.5.946a1.688,1.688,0,0,1-2.989.858c-1.014.919-1.787.767-2.38.072-.556,1.24-2.125,1.98-3.094.514-.39,1.286-2.814,2.4-3.3.564-.638.716-3,1.793-3.592.726-.007,1.217-1.992,1.279-2.77.272.134,1.806-2.494,1.21-2.6-.427-.4,1.724-2.211,1.335-2.386-.2-.291,1.357-2.438,1.027-2.81-.13.159.931-1.137,1.5-1.872,1.277a2.161,2.161,0,0,1-1.207-1.971c-.021,1.92-2.551.871-2.345-.47-1.152,1.416-2.694.547-2.391-1.247-.489,1.215-1.745.994-2.258.038.4,1.846-1.868,2.322-2.664.715.144.847.3,1.778-.826,1.8-.945.076-1.655-1.023-1.869-1.771-.066,1.666-2,1.039-2.612.011a1.841,1.841,0,0,1-.178-.548,3.192,3.192,0,0,1-.487.226c-.747.215-2.3-.217-1.416-1.152a4.867,4.867,0,0,1-2.411.672c-.747-.115-1.528-.9-.707-1.238-1.057.3-4.457.7-2.956-.837a3.068,3.068,0,0,1-2.4.758c-.735-.223-1.6-1.208-.84-1.86-.733.3-1.451.683-2.018-.09a.867.867,0,0,1,.36-1.455c-.875-.025-2.031.347-2.838-.3-1.005-.785-.5-1.394.487-1.736-1.85-.121-2.209-1.715-.32-2.386-1.214.034-2.532-1.571-.982-2.184-1.086.272-2.5.688-2.911-.722-.856,1.105-2.789,1.522-3.176-.242-.718.384-2.79,1.521-2.669-.328" transform="translate(-281.241 -169.236)" fill="#e2bb91"/>
            <path id="Trazado_1017567" data-name="Trazado 1017567" d="M339.965,185.6c0,.8-1.068,1.453-2.388,1.453s-2.387-.65-2.387-1.453,1.069-1.453,2.387-1.453,2.388.65,2.388,1.453" transform="translate(-289.989 -171.93)" fill="#c96"/>
            <path id="Trazado_1017568" data-name="Trazado 1017568" d="M346.875,185.867c0,.307-.619.555-1.382.555s-1.385-.248-1.385-.555.619-.555,1.385-.555,1.382.248,1.382.555" transform="translate(-291.503 -172.127)" fill="#c96"/>
            <path id="Trazado_1017569" data-name="Trazado 1017569" d="M348.626,190.806c0,.526-.638.953-1.426.953s-1.426-.427-1.426-.953.638-.952,1.426-.952,1.426.426,1.426.952" transform="translate(-291.786 -172.898)" fill="#c96"/>
            <path id="Trazado_1017570" data-name="Trazado 1017570" d="M345.493,197.707a.717.717,0,1,1-.693-.9.82.82,0,0,1,.693.9" transform="translate(-291.503 -174.078)" fill="#c96"/>
            <path id="Trazado_1017571" data-name="Trazado 1017571" d="M331.625,194.136c0,.177-.526.32-1.176.32s-1.175-.144-1.175-.32.526-.32,1.175-.32,1.176.144,1.176.32" transform="translate(-288.985 -173.571)" fill="#c96"/>
            <path id="Trazado_1017572" data-name="Trazado 1017572" d="M337.422,191.926c0,.349-.706.632-1.575.632s-1.572-.283-1.572-.632.7-.632,1.572-.632,1.575.283,1.575.632" transform="translate(-289.834 -173.143)" fill="#c96"/>
            <path id="Trazado_1017573" data-name="Trazado 1017573" d="M364.5,190.16c0,.743-.946,1.345-2.114,1.345s-2.113-.6-2.113-1.345.946-1.344,2.113-1.344,2.114.6,2.114,1.344" transform="translate(-294.247 -172.722)" fill="#c96"/>
            <path id="Trazado_1017574" data-name="Trazado 1017574" d="M369.548,194.361c0,.089-.248.16-.554.16s-.553-.071-.553-.16.248-.159.553-.159.554.071.554.159" transform="translate(-295.634 -173.636)" fill="#c96"/>
            <path id="Trazado_1017575" data-name="Trazado 1017575" d="M372.542,189.488c0,.371-.619.672-1.384.672s-1.384-.3-1.384-.672.619-.673,1.384-.673,1.384.3,1.384.673" transform="translate(-295.86 -172.722)" fill="#c96"/>
            <path id="Trazado_1017576" data-name="Trazado 1017576" d="M360.9,183.754c0,.611-.96,1.106-2.144,1.106s-2.145-.495-2.145-1.106.96-1.105,2.145-1.105,2.144.495,2.144,1.105" transform="translate(-293.625 -171.675)" fill="#c96"/>
            <path id="Trazado_1017577" data-name="Trazado 1017577" d="M363.708,195.507c0,.507-.619.919-1.384.919s-1.383-.412-1.383-.919.619-.919,1.383-.919,1.384.412,1.384.919" transform="translate(-294.361 -173.702)" fill="#c96"/>
            <path id="Trazado_1017578" data-name="Trazado 1017578" d="M366.7,203.562c0,.692-.868,1.254-1.941,1.254s-1.94-.561-1.94-1.254.868-1.253,1.94-1.253,1.941.561,1.941,1.253" transform="translate(-294.68 -175.013)" fill="#c96"/>
            <path id="Trazado_1017579" data-name="Trazado 1017579" d="M356.127,187.548a1.219,1.219,0,1,1-1.176-.9,1.067,1.067,0,0,1,1.176.9" transform="translate(-293.144 -172.354)" fill="#c96"/>
            <path id="Trazado_1017580" data-name="Trazado 1017580" d="M354.017,182.714a1.049,1.049,0,1,1-1.038-.9.975.975,0,0,1,1.038.9" transform="translate(-292.833 -171.534)" fill="#c96"/>
            <path id="Trazado_1017581" data-name="Trazado 1017581" d="M311.813,196.588c0,.493-.66.893-1.473.893s-1.474-.4-1.474-.893.66-.893,1.474-.893,1.473.4,1.473.893" transform="translate(-285.52 -173.89)" fill="#c96"/>
            <path id="Trazado_1017582" data-name="Trazado 1017582" d="M316.847,195.479c0,.492-.649.891-1.453.891s-1.453-.4-1.453-.891.65-.891,1.453-.891,1.453.4,1.453.891" transform="translate(-286.382 -173.702)" fill="#c96"/>
            <path id="Trazado_1017583" data-name="Trazado 1017583" d="M323.2,201.046c0,.5-.579.9-1.3.9s-1.3-.4-1.3-.9.58-.9,1.3-.9,1.3.4,1.3.9" transform="translate(-287.514 -174.646)" fill="#c96"/>
            <path id="Trazado_1017584" data-name="Trazado 1017584" d="M319.24,207c0,.191-.4.345-.9.345s-.9-.154-.9-.345.4-.346.9-.346.9.155.9.346" transform="translate(-286.976 -175.749)" fill="#c96"/>
            <path id="Trazado_1017585" data-name="Trazado 1017585" d="M308.652,202.355c0,.417-.712.755-1.589.755s-1.59-.338-1.59-.755.712-.755,1.59-.755,1.589.338,1.589.755" transform="translate(-284.944 -174.892)" fill="#c96"/>
            <path id="Trazado_1017586" data-name="Trazado 1017586" d="M315.135,202.936c0,.346-.609.626-1.36.626s-1.358-.28-1.358-.626.609-.627,1.358-.627,1.36.281,1.36.627" transform="translate(-286.123 -175.013)" fill="#c96"/>
            <path id="Trazado_1017587" data-name="Trazado 1017587" d="M311.887,208.008c0,.291-.579.526-1.293.526s-1.293-.235-1.293-.526.579-.526,1.293-.526,1.293.235,1.293.526" transform="translate(-285.594 -175.891)" fill="#c96"/>
            <path id="Trazado_1017588" data-name="Trazado 1017588" d="M301.723,198.012c0,.669-.9,1.211-2.007,1.211s-2.007-.542-2.007-1.211.9-1.21,2.007-1.21,2.007.542,2.007,1.21" transform="translate(-283.626 -174.078)" fill="#c96"/>
            <path id="Trazado_1017589" data-name="Trazado 1017589" d="M339.439,213.41c0,.42-.731.76-1.635.76s-1.636-.34-1.636-.76.732-.761,1.636-.761,1.635.34,1.635.761" transform="translate(-290.155 -176.768)" fill="#c96"/>
            <path id="Trazado_1017590" data-name="Trazado 1017590" d="M331.739,211.741c0,.356-.4.644-.9.644s-.9-.288-.9-.644.4-.644.9-.644.9.288.9.644" transform="translate(-289.098 -176.505)" fill="#c96"/>
            <path id="Trazado_1017591" data-name="Trazado 1017591" d="M335.48,208.378c0,.145-.755.262-1.687.262s-1.687-.117-1.687-.262.756-.263,1.687-.263,1.687.118,1.687.263" transform="translate(-289.465 -175.998)" fill="#c96"/>
            <path id="Trazado_1017592" data-name="Trazado 1017592" d="M344.4,206.618c0,.339-.589.614-1.314.614s-1.314-.275-1.314-.614.588-.614,1.314-.614,1.314.275,1.314.614" transform="translate(-291.107 -175.64)" fill="#c96"/>
            <path id="Trazado_1017593" data-name="Trazado 1017593" d="M348.62,211.418c0,.179-.308.323-.687.323s-.687-.144-.687-.323.307-.322.687-.322.687.144.687.322" transform="translate(-292.036 -176.504)" fill="#c96"/>
            <path id="Trazado_1017594" data-name="Trazado 1017594" d="M338.443,201.046c0,.5-.728.9-1.626.9s-1.626-.4-1.626-.9.729-.9,1.626-.9,1.626.4,1.626.9" transform="translate(-289.989 -174.646)" fill="#c96"/>
            <path id="Trazado_1017595" data-name="Trazado 1017595" d="M354.229,202.622c0,.174-.232.314-.519.314s-.519-.14-.519-.314.232-.313.519-.313.519.14.519.313" transform="translate(-293.045 -175.013)" fill="#c96"/>
            <path id="Trazado_1017596" data-name="Trazado 1017596" d="M359.906,208.008c0,.291-.4.526-.9.526s-.9-.235-.9-.526.4-.526.9-.526.9.235.9.526" transform="translate(-293.88 -175.891)" fill="#c96"/>
            <path id="Trazado_1017597" data-name="Trazado 1017597" d="M360.46,199.045c0,.433-.526.784-1.175.784s-1.177-.351-1.177-.784.526-.783,1.177-.783,1.175.35,1.175.783" transform="translate(-293.88 -174.326)" fill="#c96"/>
            <path id="Trazado_1017598" data-name="Trazado 1017598" d="M356.134,196.588a1.2,1.2,0,1,1-1.159-.893,1.052,1.052,0,0,1,1.159.893" transform="translate(-293.151 -173.89)" fill="#c96"/>
            <path id="Trazado_1017599" data-name="Trazado 1017599" d="M325.3,191.108c0,.371-.7.672-1.565.672s-1.567-.3-1.567-.672.7-.673,1.567-.673,1.565.3,1.565.673" transform="translate(-287.778 -172.997)" fill="#c96"/>
            <path id="Trazado_1017600" data-name="Trazado 1017600" d="M320.254,213.029c0,.21-.388.381-.865.381s-.864-.171-.864-.381.387-.38.864-.38.865.17.865.38" transform="translate(-287.16 -176.768)" fill="#c96"/>
            <path id="Trazado_1017601" data-name="Trazado 1017601" d="M323.612,211.258c0,.089-.486.16-1.086.16s-1.084-.071-1.084-.16.486-.161,1.084-.161,1.086.072,1.086.161" transform="translate(-287.655 -176.505)" fill="#c96"/>
            <path id="Trazado_1017602" data-name="Trazado 1017602" d="M304.216,208.008c0,.291-.61.526-1.363.526s-1.365-.235-1.365-.526.611-.526,1.365-.526,1.363.235,1.363.526" transform="translate(-284.267 -175.891)" fill="#c96"/>
            <path id="Trazado_1017603" data-name="Trazado 1017603" d="M357.485,212.585c0,.394-.682.712-1.522.712s-1.523-.318-1.523-.712.682-.712,1.523-.712,1.522.318,1.522.712" transform="translate(-293.257 -176.636)" fill="#c96"/>
            <path id="Trazado_1017604" data-name="Trazado 1017604" d="M368.473,210.962c0,.357-.695.646-1.553.646s-1.553-.289-1.553-.646.7-.646,1.553-.646,1.553.289,1.553.646" transform="translate(-295.112 -176.372)" fill="#c96"/>
            <path id="Trazado_1017605" data-name="Trazado 1017605" d="M376.073,202.935c0,.346-.4.627-.9.627s-.9-.281-.9-.627.4-.626.9-.626.9.281.9.626" transform="translate(-296.624 -175.013)" fill="#c96"/>
            <path id="Trazado_1017606" data-name="Trazado 1017606" d="M378.655,207.876c0,.218-.495.394-1.107.394s-1.108-.176-1.108-.394.5-.394,1.108-.394,1.107.177,1.107.394" transform="translate(-296.992 -175.891)" fill="#c96"/>
          </g>
        </g>
        <g id="Grupo_1197469" data-name="Grupo 1197469">
          <g id="Grupo_1197468" data-name="Grupo 1197468" clip-path="url(#clip-path)">
            <g id="Grupo_1197467" data-name="Grupo 1197467" transform="translate(132.89 175.713)" opacity="0.5" style="mix-blend-mode: multiply;isolation: isolate">
              <g id="Grupo_1197466" data-name="Grupo 1197466">
                <g id="Grupo_1197465" data-name="Grupo 1197465" clip-path="url(#clip-path-8)">
                  <path id="Trazado_1017608" data-name="Trazado 1017608" d="M233.537,215.137c-6.394-1.265-61.121-9.533-55.69,4.948.8,2.135,2.137,2.135.535,4.005-1.335,1.335-4.806,1.6-6.409,1.869-3.739.535-8.277.8-10.414,4.54-9.346,16.287,27.77,28.57,37.917,31.775,15.486,4.806,30.439,9.346,46.727,10.413a45.63,45.63,0,0,0,10.414-.266c4.272-.535,6.409-2.137,9.88-4.272,5.875-3.739,14.419.8,21.094.533,6.141-.267,17.088-2.135,20.292-8.544,4.272-8.545-10.679-12.55-15.486-15.754-3.738-2.67-.8-6.409-4.54-9.079A101.137,101.137,0,0,0,259.5,221.765c-8.568-2.479-17.2-4.893-25.965-6.629" transform="translate(-160.064 -211.644)" fill="#917f73"/>
                </g>
              </g>
            </g>
            <path id="Trazado_1017609" data-name="Trazado 1017609" d="M250.328,249.975c-1.868.208-1.66,2.283-1.66,3.944,0,2.7-.208,3.736,2.283,4.774,2.076.623,4.151,1.038,6.019.415,1.038-.415,1.245-1.66,2.283-1.453,1.66.208,1.245,1.868,1.868,2.7,1.66,1.66,3.943,2.076,6.226,2.283a34.688,34.688,0,0,0,13.076-.415c2.283-.623,5.812-3.321,3.944-6.434-1.453-2.283-6.434,0-8.925,0-3.321.208-6.019-.83-8.925-2.076-2.491-1.038-4.981-2.906-7.886-2.7Z" transform="translate(-42.215 -42.438)" fill="#ccb36d"/>
            <path id="Trazado_1017610" data-name="Trazado 1017610" d="M248.169,206.258s.623,12.869,1.038,19.3c.208,2.283.208,4.359.208,6.642s-.83,3.944-1.038,6.227c-.208,1.66-.415,4.566.623,5.6,1.245,1.453,4.774,1.868,6.642,2.076.83.208,2.491-.208,3.528.208,1.245.415,2.282,1.868,3.735,2.491a20.3,20.3,0,0,0,7.887,1.245c4.151,0,12.442-.451,13.076-2.7.366-6.193-3.321-7.057-7.472-8.717-2.076-1.038-4.774-1.245-6.227-3.321-1.038-1.868-.83-4.774-1.038-6.849-.623-4.566-.83-9.133-1.038-13.7-.208-2.491.208-10.793.208-10.793Z" transform="translate(-42.132 -34.629)" fill="#fcc100"/>
            <path id="Trazado_1017611" data-name="Trazado 1017611" d="M196.636,250.059c0,2.213-.692,4.844-.554,7.057.139,1.66,1.245,2.491,2.906,2.629,2.214.277,2.353,0,3.875,1.938,2.491,3.321,4.7,5.119,8.994,5.4a53.157,53.157,0,0,0,9.41.277c2.076-.277,5.949-.692,7.333-2.215,2.076-2.076,1.245-5.812-1.937-4.7-3.044,1.245-7.057,3.183-9.825.415-1.522-1.523-.968-3.6-1.937-5.119-1.107-1.66-3.46-1.938-5.12-2.491Z" transform="translate(-33.286 -42.452)" fill="#ccb36d"/>
            <path id="Trazado_1017612" data-name="Trazado 1017612" d="M198.43,204.336c0,6.365-.139,12.729-.415,18.956-.139,3.321-.554,6.5-.554,9.687,0,3.321-1.245,5.812-1.245,8.993,0,.692-.415,3.183,0,3.736.692.97,2.906.692,3.875,1.108,1.522.692,2.214,2.491,3.321,3.874a15.688,15.688,0,0,0,4.013,3.46c5.535,3.459,11.9,3.181,17.989,1.245a8.182,8.182,0,0,0,3.6-2.513c.723-5.651-2.352-6.759-5.534-8.419-3.044-1.521-6.919-3.321-7.611-7.057-.692-3.321,0-7.333.276-10.654.554-7.472.692-15.221,1.8-22.694Z" transform="translate(-33.28 -34.643)" fill="#fcc100"/>
            <path id="Trazado_1017613" data-name="Trazado 1017613" d="M198.779,116.254c2.076,9.963,1.245,20.548,1.245,30.718,0,4.359-.208,8.51-.208,12.869-.208,2.076-.415,4.151-.415,6.227,0,3.528-1.245,3.528-2.906,6.434-2.491,4.774,3.321,7.265,1.038,11.623-1.245,2.491-3.321,3.736-.415,6.019a14.692,14.692,0,0,0,6.642,2.076,43.18,43.18,0,0,0,13.7-.623c2.491-.623,4.774-1.245,3.736-4.151-.208-.83-1.66-1.868-1.453-2.7.415-1.453,2.491-1.453,2.7-3.113.208-2.076-2.283-3.113-2.076-5.4.208-1.453,1.66-3.736,2.076-5.4,1.038-4.151,4.462-32.379,5.708-35.492,0,0,9.235,41.926,9.235,42.964-.208,2.076-1.038,1.038-2.075,2.491-1.038,1.245-1.038,2.076,0,3.113,1.245,1.453,1.867-.208,1.452,2.076-.415,2.906-2.7,3.736,1.038,5.4,3.944,1.868,9.133,1.453,13.285,1.038,2.9-.208,11.415.415,12.453-3.321.623-2.491-2.7-3.736-2.283-6.227.208-1.245,1.245-1.453.83-3.113-.415-1.453-2.283-1.868-3.113-3.321-1.453-3.321-.415-9.548-.623-13.076a74.761,74.761,0,0,0-2.491-13.284c-1.245-4.151-1.038-8.3-1.453-12.66-.83-8.3-2.9-16.6-4.565-24.7Z" transform="translate(-33.214 -19.137)" fill="#636363"/>
            <path id="Trazado_1017614" data-name="Trazado 1017614" d="M217.012,189.475c-4.321,2.351-9.539,1.6-14.218,1.038,4.778-.593,9.524.208,14.218-1.038" transform="translate(-34.428 -32.167)" fill="#967654"/>
            <path id="Trazado_1017615" data-name="Trazado 1017615" d="M203.338,193.975c.881,1.037,2.351,1.213,3.614,1.452,4.126.7,8.21.144,12.425.273.152,2.089-2.922,2.591-4.426,3.007-3.911.992-7.874.013-11.715-.723-.139.009-.137.061-.193.122-.072.437.847,1.156,1.273,1.383a12.961,12.961,0,0,0,5.983,1.967,31.784,31.784,0,0,0,6.426-.009c-4.6.77-10.089.932-13.8-2.148-.491-.424-.932-1.334-.244-1.854.77-.46,1.671-.018,2.443.136,3.905.885,8.184,1.128,11.989-.3.564-.237,1.469-.62,1.534-1.227l.349.363c-4-.13-8.116.194-12.091-.714-1.261-.315-2.769-.6-3.565-1.724" transform="translate(-34.348 -32.931)" fill="#967654"/>
            <path id="Trazado_1017616" data-name="Trazado 1017616" d="M264.384,189.35a34.664,34.664,0,0,1-8.36,2c-2.038.45-4.888-.171-6.265,1.684l-.2-.493a14.469,14.469,0,0,0,4.531.55,69.7,69.7,0,0,1,9.448.542c1.321.188,5.369,1.3,2.575,2.78-2.5,1.019-5.583,1.4-8.275,2.066-2.849.678-5.612-.476-8.4-.829,2.784.128,5.531,1.12,8.309.355,1.366-.281,2.684-.72,4.071-1.078,1.543-.411,3.2-.592,4.385-1.448a.8.8,0,0,0,.14-.133c.025-.047-.015.031.009.083-2.191-1.411-5.036-1.142-7.6-1.382-3.269-.423-6.634.248-9.82-.971l.185-.359c1.461-2.223,4.609-1.469,6.811-1.844a41.687,41.687,0,0,0,8.45-1.525" transform="translate(-42.262 -32.146)" fill="#967654"/>
            <path id="Trazado_1017617" data-name="Trazado 1017617" d="M250.044,201.994c2.15.729,4.394.461,6.622.546,3.654.141,7.47.4,10.916-1.065-2.49,1.778-5.744,2.071-8.715,1.977-2.955-.279-6.16.057-8.823-1.458" transform="translate(-42.45 -34.204)" fill="#967654"/>
            <path id="Trazado_1017618" data-name="Trazado 1017618" d="M284.518,87.3s.061,18.478,1.162,20.6c3.695,7.124,11.9,19.164,14.669,24.976,2.766,4.981-2.491,11.9,5.812,13.837,2.766.555,7.472-.276,7.748-3.6.277-3.045-3.044-4.706-4.427-7.2-2.768-4.981-11.549-25.564-12.656-30.822s-1.182-14.287-1.182-19.544Z" transform="translate(-48.302 -14.525)" fill="#f7a87f"/>
            <path id="Trazado_1017619" data-name="Trazado 1017619" d="M284.973,49.511c6.006,7.789,9.257,12.009,10.087,19.9.208,2.7,0,4.151,1.453,6.434A19.821,19.821,0,0,1,299,79.163c.83,1.868,1.245,1.245-.415,2.7-2.906,2.7-10.585,2.906-14.529,3.113a48.741,48.741,0,0,1-5.6.208c-.208-1.453.415-2.491.415-3.736a12.283,12.283,0,0,0-1.038-3.944,48.94,48.94,0,0,1-.415-7.68Z" transform="translate(-47.097 -8.405)" fill="#2d5a27"/>
            <path id="Trazado_1017620" data-name="Trazado 1017620" d="M292.4,80.136c-3.057,1.139-6.715,1.486-9.156,3.8l-.134-.572c3.728,1.172,7.718-.306,11.587.518l.371.076-.06.359c-.5,1.907-5.033,1.819-6.685,2.148a10.851,10.851,0,0,1-6.716-1.04c3.2,1.406,6.719.506,9.993-.087.831-.224,2.177-.364,2.62-1.114l.311.435a24.02,24.02,0,0,0-5.726-.091,14.408,14.408,0,0,1-6.459-.736c2.59-2.661,6.639-2.881,10.054-3.7" transform="translate(-47.809 -13.605)" fill="#3c697c"/>
            <path id="Trazado_1017621" data-name="Trazado 1017621" d="M195.185,103.544a18.732,18.732,0,0,0,4.981,1.107,51.769,51.769,0,0,0,10.378,1.107c8.441.277,17.158.554,25.6.139,5.812-.276,11.208-2.491,16.88-3.459-.415-3.183-3.874-5.95-4.427-9.271-.554-2.352,1.937-1.384,3.044-3.321s-1.108-3.875-2.214-5.258c-1.66-2.076.553-2.768,2.352-4.151,1.66-1.245,3.182-2.491,4.843-3.736,3.183-2.353,5.812-5.12,8.717-7.611,4.981-4.151,12.453-9.963,8.717-17.02-3.736-6.918-10.655-12.73-18.4-14.114-7.057-1.245-14.806,0-21.586,1.8-7.057,1.937-13.422,4.912-18.957,10.17-5.4,5.4-9.963,10.308-12.73,17.365a96.959,96.959,0,0,0-3.736,9.963,25.812,25.812,0,0,0-.969,4.7c-.276,2.214-1.107,2.906-2.214,4.7-1.937,3.044,1.384,4.843.969,7.887-.276,1.66-1.245,4.151-1.522,5.534Z" transform="translate(-33.079 -6.358)" fill="#a3cb38"/>
            <path id="Trazado_1017622" data-name="Trazado 1017622" d="M269.521,60.349c-1.383.554-2.076,1.384-3.459,1.8-3.045.692-5.674.553-8.3-1.245-6.5-4.428-4.844-16.052,2.767-18.265a10.974,10.974,0,0,1,11.622,3.736,9.454,9.454,0,0,1,1.66,6.088c-.138,1.522-.691,4.843-2.213,5.535Z" transform="translate(-43.074 -7.166)" fill="#dd7a66"/>
            <path id="Trazado_1017623" data-name="Trazado 1017623" d="M245.367,94.393c-10.172,3.221-21.037.8-31.458,1.988-1.082.111-1.978.532-1.432,1.473,3.37,3.462,21.006,2.375,26.135,1.824,2.607-.42,5.347-1.213,8.009-.526,1.99.667,1.178,2.854-.3,3.643-3.184,1.793-6.811,2.079-10.32,2.563-6.55,1.188-13.73,1.538-20.244-.325-2.184-.6-4.323-1.333-6.506-1.923,4.376,1,8.688,2.658,13.217,2.709a55.453,55.453,0,0,0,13.444-1.082c3.375-.526,7.035-.868,10.012-2.559.692-.423,1.253-1.1,1.123-1.726-.9-1.736-6.585-.236-8.324.014-4.056.575-26.582,1.91-27.106-3.015.031-2.328,3.355-1.67,4.853-1.876.887-.056,1.772-.114,2.655-.125,8.748-.232,17.688,1.411,26.24-1.058" transform="translate(-35.525 -16.025)" fill="#2a495e"/>
            <path id="Trazado_1017624" data-name="Trazado 1017624" d="M226.92,86.031a171.044,171.044,0,0,1,.554,18.819,19.393,19.393,0,0,0,0,4.013c.415,1.66,1.8,2.767,3.044,3.875a44.933,44.933,0,0,0,7.887,6.5c5.4,3.459,10.793,7.749,16.6,10.516,2.215,1.108,6.642.692,4.981-2.767-1.522-3.044-5.672-5.535-8.024-7.749-3.045-2.768-5.536-5.812-8.717-8.441a26.564,26.564,0,0,1-4.013-3.874c-1.107-1.384-.83-2.353-.692-4.151.276-5.674,0-11.208,0-16.882Z" transform="translate(-38.524 -14.582)" fill="#f7a87f"/>
            <path id="Trazado_1017625" data-name="Trazado 1017625" d="M260.919,130.226a20.444,20.444,0,0,0,4.565,2.353c2.076.692,5.812-.277,7.334,1.245,1.107,1.245.83,3.044,1.66,4.289.415.692,2.768,2.9,2.213,3.875-.691.83-7.61-1.384-8.717-1.8-1.245-.415-5.949-1.8-6.087-2.906Z" transform="translate(-44.296 -22.108)" fill="#f7a87f"/>
            <path id="Trazado_1017626" data-name="Trazado 1017626" d="M371.615,172.812S257.6,137.668,237.12,130.471c-1.568-.55-3.618-.805-4.732.676-1.2,1.6-1.19,4.873.751,5.785,1.619.762,3.813.809,5.544,1.328q4.577,1.371,9.149,2.751,13.878,4.182,27.749,8.387,16.679,5.05,33.352,10.109,16.574,5.032,33.133,10.1,12.427,3.811,24.832,7.683c.835.259,1.67.517,2.5.781,0,0,4.15.553,2.213-5.259" transform="translate(-39.313 -22.077)" fill="#4a281e"/>
            <path id="Trazado_1017627" data-name="Trazado 1017627" d="M420.94,220.255c-.208-2.7-2.283-20.444-2.594-25.218A35.9,35.9,0,0,0,417,188.395a6.118,6.118,0,0,0-1.118-2.63c-1.308-2.1-3.856-2.666-5.973-3.527-1.453-.553-2.836-1.108-4.289-1.73-1.592-.623-3.253-1.8-4.913-2.213-2.906-.692-5.534,3.736-5.88,6.157-.139,1.315-.139,4.221,1.038,5.189a8.514,8.514,0,0,0,2.006.692c.623.208,1.245.553,1.938.76,1.582.575,3.7,1.386,4.753,2.844-.857,8.891-2.535,23.11-3.05,27.529-.1,1.038-.493,3.84.856,4.151a2.269,2.269,0,0,0,2.594-1.419c.726-1.349.519-24.18,4.255-23.973,1.509.085.519,15.671.934,22.1.094,1.455-.208,2.179,1.349,2.283s1.66-.623,1.868-2.076c.726-5.6-.608-21.93,2.179-22.312,1.983-.272,1.868,18.161,2.076,20.86.1,1.66.08,3.134,2.387,2.491,1.492-.415,1.038-1.764.934-3.321" transform="translate(-67.018 -30.257)" fill="#728196"/>
            <path id="Trazado_1017628" data-name="Trazado 1017628" d="M305.671,160.876a17.187,17.187,0,0,0-.368-2.283c-.262-1.106-1.468-1.868-2.308-1.176-.892.692-.211,3.391.472,4.081.526.555,2.152,1.038,2.518.07Z" transform="translate(-51.367 -26.68)" fill="#f7a87f"/>
            <path id="Trazado_1017629" data-name="Trazado 1017629" d="M305.587,160.8a9,9,0,0,0-.982-2.858c-.419-.476-1.086-.69-1.5-.227-.491.953-.053,2.368.4,3.3.355.611,1.806,1.244,2.3.445.022.225-.172-.5-.22-.657m0,0c.149.229.291.45.422.676l-.012.052c-.15.633-.94.826-1.5.726a2.743,2.743,0,0,1-2.253-2.415c-.316-1.09-.31-2.971,1.2-3.128,2.194-.036,2.214,2.5,2.146,4.09" transform="translate(-51.283 -26.605)" fill="#c15e4d"/>
            <path id="Trazado_1017630" data-name="Trazado 1017630" d="M310.065,162.539a2.008,2.008,0,0,1-1.783.97c-1.575.068-1.732-1.315-2.047-3.045-.158-1.038-.683-3.181,0-3.944a1.735,1.735,0,0,1,2.886.555,12.731,12.731,0,0,1,.42,1.313Z" transform="translate(-51.931 -26.475)" fill="#f7a87f"/>
            <path id="Trazado_1017631" data-name="Trazado 1017631" d="M309.98,162.46c-.535,1.245-2.668,1.66-3.435.415a13.03,13.03,0,0,1-1.013-3.761c-.12-.96-.382-2.262.429-3.071a2.068,2.068,0,0,1,3.072.287,4.861,4.861,0,0,1,.716,1.921c.118,1.43.193,2.849.23,4.208m0,0c-.286-1.306-.653-3.069-.8-4.046a4.686,4.686,0,0,0-.7-1.612,1.227,1.227,0,0,0-2.218.433,16.007,16.007,0,0,0,.335,3.624,5.728,5.728,0,0,0,.429,1.726c.521,1.044,2.339.8,2.956-.125" transform="translate(-51.847 -26.396)" fill="#c15e4d"/>
            <path id="Trazado_1017632" data-name="Trazado 1017632" d="M314.711,163.161a4.282,4.282,0,0,1-2.729.555c-1.889-.07-2.256-2.353-2.361-4.5-.105-1.591-.577-3.528.84-4.151,1.206-.553,2.256-.623,2.78,1.177a14.051,14.051,0,0,1,.21,1.453Z" transform="translate(-52.537 -26.267)" fill="#f7a87f"/>
            <path id="Trazado_1017633" data-name="Trazado 1017633" d="M314.628,163.084a4.3,4.3,0,0,1-3.342.667c-2.058-.737-1.99-3.519-2.193-5.177-.093-1.123-.406-2.633.552-3.587.992-.844,2.907-1.166,3.539.265a6.138,6.138,0,0,1,.483,2.3c.33,1.631.7,3.879.961,5.533m0,0c-.414-1.34-1.2-4.045-1.559-5.4a7.013,7.013,0,0,0-.535-2.072c-.435-.934-1.655-.536-2.323-.033-.658.774-.384,1.9-.332,2.913.2,1.646-.157,3.977,1.543,4.834a4.476,4.476,0,0,0,3.206-.247" transform="translate(-52.454 -26.189)" fill="#c15e4d"/>
            <path id="Trazado_1017634" data-name="Trazado 1017634" d="M318.815,162.593c-.157,1.106-1.941,1.038-2.518.83-1.679-.555-2-3.113-2.152-5.121a14.3,14.3,0,0,1-.261-2.974c.1-.9.577-1.038,1.312-1.108,1.416-.07,2.1,1.73,2.624,3.251a15.044,15.044,0,0,1,.315,1.66Z" transform="translate(-53.284 -26.182)" fill="#f7a87f"/>
            <path id="Trazado_1017635" data-name="Trazado 1017635" d="M318.731,162.512c-.146,1.126-1.64,1.209-2.546,1.034-2.091-.709-2.284-3.412-2.512-5.254a15.58,15.58,0,0,1-.295-2.981,2.025,2.025,0,0,1,.248-.876,1.769,1.769,0,0,1,1.678-.689,2.52,2.52,0,0,1,1.939,1.528c1.154,2.221,1.117,4.819,1.487,7.238m0,0c-.623-1.866-.826-3.784-1.509-5.612-.539-1.185-1.093-2.71-2.552-2.279-.4.113-.418.374-.465.76a16.554,16.554,0,0,0,.25,2.839c.184,1.7.1,4.13,1.854,4.941.768.252,2.133.345,2.423-.648" transform="translate(-53.2 -26.101)" fill="#c15e4d"/>
            <path id="Trazado_1017636" data-name="Trazado 1017636" d="M312.413,149.933a5.2,5.2,0,0,0,1.108,3.6c1.383,1.66,3.321,1.938,5.4,1.938a19.867,19.867,0,0,0,1.868,5.257c.345.555,1.176,1.453,2.006.9.555-.415.415-1.66.415-2.283a15.359,15.359,0,0,0-.83-3.944c-.345-1.176-.76-3.113-1.729-3.874-1.038-.9-2.56-1.245-3.668-2.145a16.458,16.458,0,0,1-2.836-3.321" transform="translate(-53.034 -24.796)" fill="#f7a87f"/>
            <path id="Trazado_1017637" data-name="Trazado 1017637" d="M312.41,149.933c-.067,3.7,3.124,5.515,6.5,5.206l.241,0,.076.246c.692,1.99.948,4.511,2.628,5.89.369.218.726.129.829-.207.477-2.621-.671-5.569-1.436-8.054-.569-1.713-2.379-2.125-3.762-3.01a11.963,11.963,0,0,1-3.35-3.94,13.043,13.043,0,0,0,3.574,3.568c1.5.8,3.524,1.334,4.167,3.107.956,2.816,2.178,5.593,1.582,8.62a1.352,1.352,0,0,1-2.013.618c-1.983-1.507-2.2-4.216-2.853-6.414l.318.241c-3.563.148-6.961-1.944-6.5-5.866" transform="translate(-53.031 -24.796)" fill="#c15e4d"/>
            <path id="Trazado_1017638" data-name="Trazado 1017638" d="M270.952,139.434c-2.076,1.523.555,7.056,1.245,8.717.415,1.245,1.245,2.491,0,3.46-1.245,1.106-3.044.276-3.874-.692-.277-.415-.692-1.66-.968-1.8-.415-.277-1.523.276-2.076.276a2.958,2.958,0,0,1-2.768-2.629c-1.8.277-2.629,1.245-3.321-.83a11.936,11.936,0,0,1-.276-3.874c0-1.66-.139-5.673,1.66-6.5Z" transform="translate(-43.952 -23.014)" fill="#f7a87f"/>
            <path id="Trazado_1017639" data-name="Trazado 1017639" d="M217.92,81.748a9.783,9.783,0,0,0,.139-2.076c0-2.214.83-2.629,1.8-4.428s.415-4.151.415-6.088a37.771,37.771,0,0,1,.415-5.673c.692-4.013,2.491-7.2,6.089-9.133,2.767-1.523,6.78-2.629,9.824-1.108a10.756,10.756,0,0,1,5.535,8.856c.138,1.384.138,2.906.138,4.428-.138,1.66-1.108,3.044-1.108,4.566-.138,1.245.555.969.97,2.076.276.83-.139,1.523-.415,2.353-.277.692-.97,1.245-.83,2.076s.83,1.107,1.106,1.937c1.245,3.875-4.981,2.906-7.195,3.182a63.143,63.143,0,0,1-7.195.692c-2.353,0-4.566-.692-6.919-.83Z" transform="translate(-36.996 -8.916)" fill="#c1e26a"/>
            <path id="Trazado_1017640" data-name="Trazado 1017640" d="M222.419,83.892c2.741,1.322,5.8,1.193,8.77,1.386,2.9.1,6.13.748,8.665-.971a4.489,4.489,0,0,1-1.9,1.278,17.188,17.188,0,0,1-6.815.522c-2.946-.2-6.3-.3-8.723-2.215" transform="translate(-37.76 -14.242)" fill="#3c697c"/>
            <path id="Trazado_1017641" data-name="Trazado 1017641" d="M237.232,81.341c-3.287.19-7.863.731-11.1.086a3.755,3.755,0,0,1-2.628-1.346.935.935,0,0,1,.648-1.549,23.43,23.43,0,0,1,4.235-.052c.927.017,3.281.059,4.174.1,1.787.1,3.587.9,5.36.645a1.2,1.2,0,0,0,.741-.467c-.733-.8-2.3-.985-3.358-1.248a37.522,37.522,0,0,0-9.559-1.147q1.384-.067,2.766-.11a25.325,25.325,0,0,1,6.886.684c1.29.255,2.759.352,3.776,1.29a.854.854,0,0,1,.207.55,1.12,1.12,0,0,1-.541.827c-1.928,1.092-4.316-.191-6.344-.214-.874-.007-3.217-.086-4.12-.115-.8-.017-1.983-.089-2.762-.116A3.086,3.086,0,0,0,224,79.4c.185.853,1.34,1.177,2.262,1.4,3.589.8,7.318.372,10.971.538" transform="translate(-37.905 -12.937)" fill="#3c697c"/>
            <path id="Trazado_1017642" data-name="Trazado 1017642" d="M257.84,26.691c-1.245.554-1.8,2.906-1.937,4.151a8.522,8.522,0,0,0,3.044,7.611c4.566,4.151,12.729,5.258,18.68,5.812,3.459.415,6.78,1.245,10.378.553,3.736-.692,5.949-3.874,7.472-7.195,0,1.522-3.321,7.749-2.63,8.579,1.938,2.352,4.151-6.088,4.291-7.057a15.223,15.223,0,0,0-1.66-8.579c-1.108-2.214-3.46-5.674-6.366-5.674Z" transform="translate(-43.431 -4.226)" fill="#4a281e"/>
            <path id="Trazado_1017643" data-name="Trazado 1017643" d="M261.422,37.079c-.554,1.107-.415,2.767-.554,4.013-.139,2.353-.554,5.259.139,7.611,1.107,2.767,3.736,6.088,5.672,8.3,1.8,2.352,3.455,4.233,6.639,3.4a18.078,18.078,0,0,0,8.445-5.34,8.612,8.612,0,0,0,2.076-4.013c.553-1.937,1.383-2.491,2.906-4.013,4.981-4.981,8.025-11.762,3.459-18.126-6.365-8.995-27.4-9.271-29.058,4.013Z" transform="translate(-44.245 -3.821)" fill="#f7a87f"/>
            <path id="Trazado_1017644" data-name="Trazado 1017644" d="M260.316,34.389c-.83-.519-2.387-.415-3.425-.415-2.594.1-4.462,1.349-4.878,3.944-1.038,5.915,3.528,7.783,8.095,7.783Z" transform="translate(-42.759 -5.766)" fill="#f7a87f"/>
            <path id="Trazado_1017645" data-name="Trazado 1017645" d="M259.664,30.78c0,3.113-.623,6.019-.623,9.133,0,1.142-.208,1.972.934,2.387a2.282,2.282,0,0,0,2.8-.83c.933-1.349.726-3.84.829-5.5,1.557.726,4.566-.311,5.708-1.453,1.349-1.245,3.01-3.84.83-4.878-1.66-.726-3.84-.623-5.6-.726-1.452-.1-3.631.1-4.773-.311Z" transform="translate(-43.975 -4.856)" fill="#4a281e"/>
            <path id="Trazado_1017646" data-name="Trazado 1017646" d="M276.364,16.792c5.293.208,10.9.311,15.878-1.557a7.031,7.031,0,0,0,1.191-.637c-.048-.238-.1-.476-.154-.712-.623-2.906-.83-6.434-2.283-9.133C289.648,2.16,287.676.81,284.77,1.226c-1.142.1-2.283.519-3.529.519-1.453,0-2.906-.1-4.462-.1-3.528,0-7.057-2.076-10.585-1.557-2.8.415-3.943,2.8-4.462,5.5-.423,2.645-.606,5.425-.915,8.189a21.122,21.122,0,0,0,6.622,1.982,65.34,65.34,0,0,0,8.925,1.038" transform="translate(-44.279 0)" fill="#967654"/>
            <path id="Trazado_1017647" data-name="Trazado 1017647" d="M294.411,24.59c-.66-2.358-.809-4.8-1.3-7.175a7.03,7.03,0,0,1-1.191.637c-4.981,1.868-10.585,1.764-15.878,1.557a65.34,65.34,0,0,1-8.925-1.038,21.123,21.123,0,0,1-6.622-1.982,35.873,35.873,0,0,1-1.576,7.793l1.66,1.764h.1a30.719,30.719,0,0,0,7.471,1.453c3.01.311,6.123.934,9.133,1.038a67.1,67.1,0,0,0,9.133-.208c2.7-.311,6.227-.415,8.614-1.66Z" transform="translate(-43.957 -2.816)" fill="#774742"/>
            <path id="Trazado_1017648" data-name="Trazado 1017648" d="M270.668,4.476C272.75,8.5,278.343,9.838,282.547,9.2a12.9,12.9,0,0,0,4.311-1.512,10.046,10.046,0,0,1-1.944,1.331,11.471,11.471,0,0,1-11.424-.848c-1.255-.895-2.574-2.109-2.821-3.7" transform="translate(-45.951 -0.76)" fill="#6b533d"/>
            <path id="Trazado_1017649" data-name="Trazado 1017649" d="M244.669,17.453a18.2,18.2,0,0,0,1.715,1.906c5.4,4.5,14.108,5.359,20.829,6.013,7.339.714,15.119,1.075,22.43-.022a58.115,58.115,0,0,0,6.123-1.245c1.868-.519,4.151-1.453,6.019-1.453a2.385,2.385,0,0,1,2.491,1.764c.415,1.557-.509,2.193-1.764,2.7-17.539,7.055-45.152,1.939-49.374.828a22.267,22.267,0,0,1-11.959-7.781c-.726-.934-1.868-3.01-.622-4.048,1.562-1.3,2.923-.041,4.112,1.339" transform="translate(-40.745 -2.643)" fill="#cdaa80"/>
            <path id="Trazado_1017650" data-name="Trazado 1017650" d="M278.092,38.738a2.6,2.6,0,0,1-1.378.8c-.919-.058-.8-1.322-.345-1.9a4.644,4.644,0,0,1,3.045-1.666c1.091-.057,1.322.862.46,1.436Z" transform="translate(-46.86 -6.108)" fill="#4a281e"/>
            <path id="Trazado_1017651" data-name="Trazado 1017651" d="M293.19,42.395a2.588,2.588,0,0,0,.749,1.409c.813.434,1.379-.7,1.291-1.432a4.644,4.644,0,0,0-1.717-3.017c-.9-.622-1.577.039-1.145.981Z" transform="translate(-49.612 -6.64)" fill="#4a281e"/>
            <path id="Trazado_1017652" data-name="Trazado 1017652" d="M284.773,46.36a13.026,13.026,0,0,0-.1,3.489c-.036,1.812.628,3.619.227,5.411-.877,1.887-3.41,1.953-5.072,1.44,1.552,0,3.642-.219,4.329-1.7a3.8,3.8,0,0,0,0-1.579c-.159-2.311-.436-4.931.617-7.064" transform="translate(-47.507 -7.871)" fill="#c15e4d"/>
            <path id="Trazado_1017653" data-name="Trazado 1017653" d="M271.8,58.332c-.115,1.494.631,3.792,1.837,4.6a4.247,4.247,0,0,0,5-.517Z" transform="translate(-46.142 -9.903)" fill="#fff"/>
            <path id="Trazado_1017654" data-name="Trazado 1017654" d="M277.74,46.361c-.574.932-1.429,1.448-1.91,1.152s-.405-1.292.169-2.224,1.427-1.449,1.909-1.152.406,1.292-.167,2.224" transform="translate(-46.774 -7.479)" fill="#272525"/>
            <path id="Trazado_1017655" data-name="Trazado 1017655" d="M289.5,50.628c-.574.932-1.429,1.448-1.91,1.152s-.405-1.292.169-2.224,1.427-1.449,1.909-1.152.406,1.292-.167,2.224" transform="translate(-48.771 -8.203)" fill="#272525"/>
            <path id="Trazado_1017656" data-name="Trazado 1017656" d="M99.725,290.333c0,.407-1.425.737-3.182.737s-3.183-.33-3.183-.737,1.426-.737,3.183-.737,3.182.33,3.182.737" transform="translate(-15.85 -49.165)" fill="#e2bb91"/>
            <path id="Trazado_1017657" data-name="Trazado 1017657" d="M104.183,298.812c0,.612-1.154,1.108-2.578,1.108s-2.578-.5-2.578-1.108,1.154-1.107,2.578-1.107,2.578.5,2.578,1.107" transform="translate(-16.812 -50.541)" fill="#e2bb91"/>
            <path id="Trazado_1017658" data-name="Trazado 1017658" d="M100.376,305.584c0,.487-.712.88-1.592.88s-1.591-.394-1.591-.88.712-.879,1.591-.879,1.592.394,1.592.879" transform="translate(-16.501 -51.73)" fill="#e2bb91"/>
            <path id="Trazado_1017659" data-name="Trazado 1017659" d="M94.482,296.73c0,.382-1,.692-2.228.692s-2.228-.31-2.228-.692,1-.692,2.228-.692,2.228.31,2.228.692" transform="translate(-15.284 -50.258)" fill="#e2bb91"/>
            <path id="Trazado_1017660" data-name="Trazado 1017660" d="M90.278,287.13c0,.966-1.548,1.75-3.46,1.75s-3.459-.784-3.459-1.75,1.548-1.749,3.459-1.749,3.46.783,3.46,1.749" transform="translate(-14.152 -48.449)" fill="#e2bb91"/>
            <path id="Trazado_1017661" data-name="Trazado 1017661" d="M80.172,294.8c0,.487-1.3.882-2.906.882s-2.906-.394-2.906-.882,1.3-.881,2.906-.881,2.906.394,2.906.881" transform="translate(-12.624 -49.898)" fill="#e2bb91"/>
            <path id="Trazado_1017662" data-name="Trazado 1017662" d="M55.562,268.546c0,.46-1.24.833-2.767.833s-2.768-.373-2.768-.833,1.24-.833,2.768-.833,2.767.373,2.767.833" transform="translate(-8.493 -45.449)" fill="#e2bb91"/>
            <path id="Trazado_1017663" data-name="Trazado 1017663" d="M60.4,263.607c0,.337-1.054.61-2.352.61s-2.353-.273-2.353-.61,1.054-.61,2.353-.61,2.352.273,2.352.61" transform="translate(-9.455 -44.649)" fill="#e2bb91"/>
            <path id="Trazado_1017664" data-name="Trazado 1017664" d="M51.154,261.563c0,.562-.775,1.018-1.729,1.018s-1.73-.456-1.73-1.018.774-1.019,1.73-1.019,1.729.456,1.729,1.019" transform="translate(-8.097 -44.232)" fill="#e2bb91"/>
            <path id="Trazado_1017665" data-name="Trazado 1017665" d="M60.074,257.911c0,.376-.5.681-1.107.681s-1.108-.3-1.108-.681.5-.681,1.108-.681,1.107.3,1.107.681" transform="translate(-9.823 -43.67)" fill="#e2bb91"/>
            <path id="Trazado_1017666" data-name="Trazado 1017666" d="M60.4,274.4c0,.382-1.054.692-2.352.692s-2.353-.31-2.353-.692,1.054-.692,2.353-.692,2.352.31,2.352.692" transform="translate(-9.455 -46.467)" fill="#e2bb91"/>
            <path id="Trazado_1017667" data-name="Trazado 1017667" d="M47.791,273.357c0,.463-.805.839-1.8.839s-1.8-.375-1.8-.839.805-.839,1.8-.839,1.8.375,1.8.839" transform="translate(-7.503 -46.265)" fill="#e2bb91"/>
            <path id="Trazado_1017668" data-name="Trazado 1017668" d="M46.874,279.328c0,.344-.9.623-2.007.623s-2.006-.279-2.006-.623.9-.623,2.006-.623,2.007.279,2.007.623" transform="translate(-7.276 -47.316)" fill="#e2bb91"/>
            <path id="Trazado_1017669" data-name="Trazado 1017669" d="M63.86,284.5c0,.346-.746.627-1.666.627s-1.667-.281-1.667-.627.746-.627,1.667-.627,1.666.281,1.666.627" transform="translate(-10.276 -48.193)" fill="#e2bb91"/>
            <path id="Trazado_1017670" data-name="Trazado 1017670" d="M63.86,250.5c0,.243-.746.441-1.666.441s-1.667-.2-1.667-.441.746-.441,1.667-.441,1.666.2,1.666.441" transform="translate(-10.276 -42.452)" fill="#e2bb91"/>
            <path id="Trazado_1017671" data-name="Trazado 1017671" d="M110.022,296.384c0,.19-.37.346-.826.346s-.827-.156-.827-.346.37-.346.827-.346.826.155.826.346" transform="translate(-18.398 -50.258)" fill="#e2bb91"/>
            <path id="Trazado_1017672" data-name="Trazado 1017672" d="M100.071,319.6c0,.5-1.047.9-2.339.9s-2.339-.4-2.339-.9,1.047-.9,2.339-.9,2.339.4,2.339.9" transform="translate(-16.195 -54.106)" fill="#e2bb91"/>
            <path id="Trazado_1017673" data-name="Trazado 1017673" d="M194.252,314.673c0,.535-.871.969-1.946.969s-1.945-.433-1.945-.969.871-.969,1.945-.969,1.946.433,1.946.969" transform="translate(-32.317 -53.257)" fill="#e2bb91"/>
            <path id="Trazado_1017674" data-name="Trazado 1017674" d="M200.014,312.534c0,.459-.743.83-1.66.83s-1.66-.371-1.66-.83.744-.83,1.66-.83,1.66.371,1.66.83" transform="translate(-33.392 -52.918)" fill="#e2bb91"/>
            <path id="Trazado_1017675" data-name="Trazado 1017675" d="M202.291,317.091c0,.306-.805.554-1.8.554s-1.8-.248-1.8-.554.806-.553,1.8-.553,1.8.248,1.8.553" transform="translate(-33.732 -53.738)" fill="#e2bb91"/>
            <path id="Trazado_1017676" data-name="Trazado 1017676" d="M206.21,324.262c0,.434-.712.786-1.592.786s-1.59-.352-1.59-.786.712-.786,1.59-.786,1.592.352,1.592.786" transform="translate(-34.468 -54.916)" fill="#e2bb91"/>
            <path id="Trazado_1017677" data-name="Trazado 1017677" d="M211.961,322.829c0,.254-.619.459-1.384.459s-1.384-.205-1.384-.459.62-.459,1.384-.459,1.384.205,1.384.459" transform="translate(-35.515 -54.729)" fill="#e2bb91"/>
            <path id="Trazado_1017678" data-name="Trazado 1017678" d="M208.9,334.173c0,.535-1.054.969-2.352.969s-2.353-.433-2.353-.969,1.054-.969,2.353-.969,2.352.433,2.352.969" transform="translate(-34.666 -56.568)" fill="#e2bb91"/>
            <path id="Trazado_1017679" data-name="Trazado 1017679" d="M213.458,316.8c0,.421-.805.761-1.8.761s-1.8-.34-1.8-.761.8-.761,1.8-.761,1.8.34,1.8.761" transform="translate(-35.628 -53.654)" fill="#e2bb91"/>
            <path id="Trazado_1017680" data-name="Trazado 1017680" d="M195.9,345.461c0,.487-.867.882-1.936.882s-1.938-.394-1.938-.882.868-.882,1.938-.882,1.936.394,1.936.882" transform="translate(-32.6 -58.499)" fill="#e2bb91"/>
            <path id="Trazado_1017681" data-name="Trazado 1017681" d="M201.738,343.677c0,.354-.682.639-1.522.639s-1.523-.286-1.523-.639.682-.64,1.523-.64,1.522.286,1.522.64" transform="translate(-33.732 -58.237)" fill="#e2bb91"/>
            <path id="Trazado_1017682" data-name="Trazado 1017682" d="M203.882,350.119c0,.229-.34.415-.76.415s-.76-.186-.76-.415.34-.415.76-.415.76.186.76.415" transform="translate(-34.355 -59.369)" fill="#e2bb91"/>
            <path id="Trazado_1017683" data-name="Trazado 1017683" d="M102.763,338.2c0,.459-.836.83-1.868.83s-1.868-.371-1.868-.83.836-.83,1.868-.83,1.868.371,1.868.83" transform="translate(-16.812 -57.275)" fill="#e2bb91"/>
            <path id="Trazado_1017684" data-name="Trazado 1017684" d="M103.486,333.689c0,.267-.775.484-1.729.484s-1.73-.217-1.73-.484.775-.485,1.73-.485,1.729.217,1.729.485" transform="translate(-16.981 -56.568)" fill="#e2bb91"/>
            <path id="Trazado_1017685" data-name="Trazado 1017685" d="M96.432,330.994c0,.344-.833.623-1.861.623s-1.861-.279-1.861-.623.833-.623,1.861-.623,1.861.279,1.861.623" transform="translate(-15.739 -56.087)" fill="#e2bb91"/>
            <path id="Trazado_1017686" data-name="Trazado 1017686" d="M100.7,327.286c0,.229-.356.415-.8.415s-.8-.186-.8-.415.356-.415.8-.415.8.186.8.415" transform="translate(-16.826 -55.493)" fill="#e2bb91"/>
            <path id="Trazado_1017687" data-name="Trazado 1017687" d="M83.983,322.832c0,.624-.961,1.129-2.144,1.129s-2.145-.5-2.145-1.129.961-1.128,2.145-1.128,2.144.5,2.144,1.128" transform="translate(-13.529 -54.615)" fill="#e2bb91"/>
            <path id="Trazado_1017688" data-name="Trazado 1017688" d="M122.816,347.534c0,.459-.961.83-2.144.83s-2.145-.371-2.145-.83.961-.83,2.145-.83,2.144.371,2.144.83" transform="translate(-20.122 -58.86)" fill="#e2bb91"/>
            <path id="Trazado_1017689" data-name="Trazado 1017689" d="M128.9,351.465c0,.421-.868.761-1.937.761s-1.938-.34-1.938-.761.868-.761,1.938-.761,1.937.34,1.937.761" transform="translate(-21.226 -59.539)" fill="#e2bb91"/>
            <path id="Trazado_1017690" data-name="Trazado 1017690" d="M134.546,348.119c0,.229-.526.415-1.176.415s-1.176-.186-1.176-.415.526-.415,1.176-.415,1.176.186,1.176.415" transform="translate(-22.442 -59.03)" fill="#e2bb91"/>
            <path id="Trazado_1017691" data-name="Trazado 1017691" d="M145.231,357.27c0,.5-1.054.9-2.351.9s-2.353-.4-2.353-.9,1.054-.9,2.353-.9,2.351.4,2.351.9" transform="translate(-23.857 -60.501)" fill="#e2bb91"/>
            <path id="Trazado_1017692" data-name="Trazado 1017692" d="M155.71,350.119c0,.229-.712.415-1.592.415s-1.59-.186-1.59-.415.712-.415,1.59-.415,1.592.186,1.592.415" transform="translate(-25.895 -59.369)" fill="#e2bb91"/>
            <path id="Trazado_1017693" data-name="Trazado 1017693" d="M159.127,354.4c0,.382-.619.692-1.383.692s-1.383-.31-1.383-.692.619-.692,1.383-.692,1.383.31,1.383.692" transform="translate(-26.545 -60.048)" fill="#e2bb91"/>
            <path id="Trazado_1017694" data-name="Trazado 1017694" d="M170.876,350.5c0,.439-.712.8-1.592.8s-1.592-.356-1.592-.8.713-.8,1.592-.8,1.592.356,1.592.8" transform="translate(-28.469 -59.369)" fill="#e2bb91"/>
            <path id="Trazado_1017695" data-name="Trazado 1017695" d="M181.682,347.119c0,.229-.744.415-1.66.415s-1.66-.186-1.66-.415.743-.415,1.66-.415,1.66.186,1.66.415" transform="translate(-30.28 -58.86)" fill="#e2bb91"/>
            <path id="Trazado_1017696" data-name="Trazado 1017696" d="M183.712,350.5c0,.439-.75.8-1.675.8s-1.676-.356-1.676-.8.751-.8,1.676-.8,1.675.356,1.675.8" transform="translate(-30.62 -59.369)" fill="#e2bb91"/>
            <path id="Trazado_1017697" data-name="Trazado 1017697" d="M189.54,351.465c0,.421-.9.761-2.007.761s-2.006-.34-2.006-.761.9-.761,2.006-.761,2.007.34,2.007.761" transform="translate(-31.497 -59.539)" fill="#e2bb91"/>
            <path id="Trazado_1017698" data-name="Trazado 1017698" d="M154.237,352.831c0,.669-1.23,1.211-2.75,1.211s-2.747-.542-2.747-1.211,1.23-1.21,2.747-1.21,2.75.542,2.75,1.21" transform="translate(-25.252 -59.694)" fill="#e2bb91"/>
            <path id="Trazado_1017699" data-name="Trazado 1017699" d="M68.913,214.317c0,11.208.623,22.209-2.076,33.209-1.038,4.566-3.113,9.755,0,13.906,3.528,4.359,9.133,4.981,14.114,5.812a167.143,167.143,0,0,0,32.171,2.906c6.019,0,25.322-2.283,23.662-11.831-.83-5.4-7.057-8.095-6.849-13.906.208-2.491,1.66-4.774,2.076-7.057a18.936,18.936,0,0,0-1.038-6.849c-1.453-4.774-.208-9.34-.415-14.114-.208-4.981.623-9.133-5.6-8.925-.415,0-1.038.208-1.66.208Z" transform="translate(-11.068 -35.22)" fill="#917f73"/>
            <path id="Trazado_1017700" data-name="Trazado 1017700" d="M124.013,194.665c-4.566.623-6.019.208-9.963-2.076-5.189-3.321-11.208-3.736-17.02-2.283a70.3,70.3,0,0,1-16.189,1.66c-3.944,0-11,.208-14.114,2.7-3.528,2.906-.83,9.133-1.453,13.284-.208,2.076-1.245,4.566-.415,6.642,1.245,2.491,4.774,4.151,7.057,5.4a39.648,39.648,0,0,0,32.171,2.906c4.774-1.66,9.548-5.189,14.737-4.566,3.528.208,9.34,2.491,11.831-.415,2.7-2.906.83-9.133.83-12.869,0-2.906.415-8.51-2.492-10.171-.559-.557-2.139-.207-2.865-.207a16.965,16.965,0,0,0-2.115,0" transform="translate(-10.957 -32.173)" fill="#af9f95"/>
            <path id="Trazado_1017701" data-name="Trazado 1017701" d="M127.988,196.658c2.093-.415,2.352,1.729,1.937,2.56-.83,2.283-4.152,1.729-6.02,1.937a70.427,70.427,0,0,0-12.661,3.113c-2.7.83-5.6.83-8.3,1.245-2.906.208-5.812,1.245-8.51,1.66a26.234,26.234,0,0,1-14.944-2.283c-2.283-1.038-11.831-6.019-8.925-9.34,1.66-1.868,9.755-1.038,12.453-1.038a49.156,49.156,0,0,0,11-.83c4.359-.623,8.095-2.076,12.661-1.038,5.4,1.038,9.064,4.775,14.668,4.775Z" transform="translate(-11.887 -32.644)" fill="#917f73"/>
          </g>
        </g>
        <g id="Grupo_1197471" data-name="Grupo 1197471" transform="translate(58.131 150.063)">
          <g id="Grupo_1197470" data-name="Grupo 1197470" clip-path="url(#clip-path-9)">
            <path id="Trazado_1017702" data-name="Trazado 1017702" d="M126.376,199.752c.726-.669.83-2.9-.415-2.565.1-1.116,0-2.454-1.453-1.9.415-1.228-1.142-2.232-1.972-1.45-.311-.781-1.142-.446-1.66,0-.208.335.1.892-.1,1.116s-.726-.112-.934.11c-.415.558-.415,1.451-.726,1.786-.519.446-1.349-.223-1.453,1,.208-1.338-.934-2.232-1.764-1.116.519-1.226-1.038-1.784-1.764-1,.415-.67.208-2.677-.726-1.674.934-1,.311-3.122-1.142-1.9a1.317,1.317,0,0,0-2.594-.446c.311-1.784-2.7-2.342-2.387-.112-.1-1.114-1.142-2.119-1.868-1,.623-1-.208-3.012-1.349-1.784.415-1.45-1.349-3.235-1.764-1.45-.311-.892-1.972-.892-2.491-.223-.623.558-.415,1.45-.415,2.232-.068-1.173-1.3-1.091-2.2-.549-.262-.9-.856-1.457-1.229-.456-.208-2.231-2.491-2.565-2.8-.223-.415-2.119-2.387-.11-2.491,1.116-1.453-1.562-2.179.335-2.387,1.674-.311-1.116-1.764-2.12-2.594-.893-.1-1.116-1.764-1.674-2.076-.447,0-1.673-2.491-2.342-2.387-.669-1.349-1.673-3.113-.111-2.7,1.562-1.868-.67-2.283.668-1.66,2.453-1.038-.558-3.113-.223-2.179,1.45-.934-.669-3.528.223-2.179,1.673-1.038-.335-2.8.223-2.594,1.674l4.981,6.023c5.6,4.016,13.906,6.135,20.548,5.02a5.007,5.007,0,0,0,.778-.184,17.333,17.333,0,0,0,3.477,1.3,15.893,15.893,0,0,0,9.651-.669,47.325,47.325,0,0,1,9.651-2.454c2.179-.447,6.538-1.45,6.227-4.686a1.068,1.068,0,0,0,.1.558c1.142-.111,1.972-2.342,1.038-2.9" transform="translate(-69.998 -181.731)" fill="#e2bb91"/>
            <path id="Trazado_1017703" data-name="Trazado 1017703" d="M81.582,196.994c0,.383-.558.692-1.245.692s-1.245-.31-1.245-.692.558-.692,1.245-.692,1.245.31,1.245.692" transform="translate(-71.558 -183.389)" fill="#c96"/>
            <path id="Trazado_1017704" data-name="Trazado 1017704" d="M85.165,195.486c0,.516-.558.934-1.245.934s-1.245-.418-1.245-.934.558-.934,1.245-.934,1.245.418,1.245.934" transform="translate(-72.166 -183.091)" fill="#c96"/>
            <path id="Trazado_1017705" data-name="Trazado 1017705" d="M89.83,200.757c0,.573-.65,1.038-1.453,1.038s-1.453-.465-1.453-1.038.65-1.038,1.453-1.038,1.453.465,1.453,1.038" transform="translate(-72.888 -183.969)" fill="#c96"/>
            <path id="Trazado_1017706" data-name="Trazado 1017706" d="M94.875,195c0,.245-.418.443-.934.443s-.934-.2-.934-.443.418-.443.934-.443.934.2.934.443" transform="translate(-73.92 -183.091)" fill="#c96"/>
            <path id="Trazado_1017707" data-name="Trazado 1017707" d="M105.329,193.875c0,.684-.949,1.239-2.12,1.239s-2.119-.555-2.119-1.239.948-1.239,2.119-1.239,2.12.555,2.12,1.239" transform="translate(-75.293 -182.766)" fill="#c96"/>
            <path id="Trazado_1017708" data-name="Trazado 1017708" d="M105.329,200.238c0,.286-.377.519-.844.519s-.842-.232-.842-.519.377-.519.842-.519.844.232.844.519" transform="translate(-75.726 -183.969)" fill="#c96"/>
            <path id="Trazado_1017709" data-name="Trazado 1017709" d="M114.452,197.355a1.766,1.766,0,1,1-1.764-1.678,1.723,1.723,0,0,1,1.764,1.678" transform="translate(-76.962 -183.282)" fill="#c96"/>
            <path id="Trazado_1017710" data-name="Trazado 1017710" d="M112.688,200.915c0,.315-.4.57-.883.57s-.882-.255-.882-.57.4-.57.882-.57.883.255.883.57" transform="translate(-76.962 -184.075)" fill="#c96"/>
            <path id="Trazado_1017711" data-name="Trazado 1017711" d="M118.22,195.278c0,.4-.589.726-1.314.726s-1.314-.325-1.314-.726.589-.726,1.314-.726,1.314.325,1.314.726" transform="translate(-77.754 -183.091)" fill="#c96"/>
            <path id="Trazado_1017712" data-name="Trazado 1017712" d="M85.757,203.382c0,.459-.82.83-1.833.83s-1.833-.371-1.833-.83.82-.83,1.833-.83,1.833.371,1.833.83" transform="translate(-72.067 -184.45)" fill="#c96"/>
            <path id="Trazado_1017713" data-name="Trazado 1017713" d="M97.7,204.661c0,.382-.8.692-1.782.692s-1.782-.31-1.782-.692.8-.692,1.782-.692,1.782.31,1.782.692" transform="translate(-74.111 -184.69)" fill="#c96"/>
            <path id="Trazado_1017714" data-name="Trazado 1017714" d="M98.06,199.785c0,.219-.4.4-.891.4s-.891-.178-.891-.4.4-.4.891-.4.891.178.891.4" transform="translate(-74.476 -183.912)" fill="#c96"/>
            <path id="Trazado_1017715" data-name="Trazado 1017715" d="M105.25,204.488c0,.286-.465.519-1.038.519s-1.038-.232-1.038-.519.465-.519,1.038-.519,1.038.232,1.038.519" transform="translate(-75.646 -184.69)" fill="#c96"/>
            <path id="Trazado_1017716" data-name="Trazado 1017716" d="M121.748,200.5c0,.349-.558.632-1.245.632s-1.245-.283-1.245-.632.558-.632,1.245-.632,1.245.282,1.245.632" transform="translate(-78.377 -183.993)" fill="#c96"/>
            <path id="Trazado_1017717" data-name="Trazado 1017717" d="M128.025,201.87c0,.267-.619.484-1.384.484s-1.384-.217-1.384-.484.619-.483,1.384-.483,1.384.217,1.384.483" transform="translate(-79.395 -184.252)" fill="#c96"/>
            <path id="Trazado_1017718" data-name="Trazado 1017718" d="M75.971,200.778c0,.239-.5.433-1.108.433s-1.107-.193-1.107-.433.5-.433,1.107-.433,1.108.193,1.108.433" transform="translate(-70.652 -184.075)" fill="#c96"/>
            <path id="Trazado_1017719" data-name="Trazado 1017719" d="M77.169,199.143c0,.095-.279.173-.623.173s-.623-.078-.623-.173.279-.174.623-.174.623.078.623.174" transform="translate(-71.02 -183.841)" fill="#c96"/>
            <path id="Trazado_1017720" data-name="Trazado 1017720" d="M91.026,207.252c0,.248-.526.45-1.176.45s-1.176-.2-1.176-.45.526-.45,1.176-.45,1.176.2,1.176.45" transform="translate(-73.185 -185.171)" fill="#c96"/>
            <path id="Trazado_1017721" data-name="Trazado 1017721" d="M83.059,201.143c0,.1-.217.174-.484.174s-.484-.078-.484-.174.217-.174.484-.174.484.078.484.174" transform="translate(-72.067 -184.181)" fill="#c96"/>
            <path id="Trazado_1017722" data-name="Trazado 1017722" d="M82.377,204.976c0,.095-.325.173-.726.173s-.726-.078-.726-.173.325-.173.726-.173.726.077.726.173" transform="translate(-71.869 -184.832)" fill="#c96"/>
            <path id="Trazado_1017723" data-name="Trazado 1017723" d="M87.683,192.6c0,.177-.263.32-.589.32s-.588-.144-.588-.32.263-.32.588-.32.589.144.589.32" transform="translate(-72.817 -182.706)" fill="#c96"/>
            <path id="Trazado_1017724" data-name="Trazado 1017724" d="M119.75,203.725c0,.1-.465.174-1.038.174s-1.038-.078-1.038-.174.465-.173,1.038-.173,1.038.078,1.038.173" transform="translate(-78.108 -184.619)" fill="#c96"/>
            <path id="Trazado_1017725" data-name="Trazado 1017725" d="M134.5,198.053c0,.2-.371.354-.83.354s-.83-.159-.83-.354.371-.355.83-.355.83.159.83.355" transform="translate(-80.683 -183.626)" fill="#c96"/>
            <path id="Trazado_1017726" data-name="Trazado 1017726" d="M133.4,199.342c0,.205-.48.372-1.073.372s-1.073-.167-1.073-.372.48-.372,1.073-.372,1.073.167,1.073.372" transform="translate(-80.414 -183.842)" fill="#c96"/>
            <path id="Trazado_1017727" data-name="Trazado 1017727" d="M135.464,200.795c0,.093-.139.169-.311.169s-.311-.076-.311-.169.139-.168.311-.168.311.076.311.168" transform="translate(-81.022 -184.123)" fill="#c96"/>
          </g>
        </g>
        <g id="Grupo_1197473" data-name="Grupo 1197473">
          <g id="Grupo_1197472" data-name="Grupo 1197472" clip-path="url(#clip-path)">
            <path id="Trazado_1017729" data-name="Trazado 1017729" d="M112.415,275.927c0,11.208.623,22.209-2.076,33.209-1.038,4.566-3.113,9.755,0,13.906,3.528,4.359,9.133,4.981,14.114,5.812a167.141,167.141,0,0,0,32.171,2.906c6.019,0,25.322-2.283,23.662-11.831-.83-5.4-7.057-8.095-6.849-13.906.208-2.491,1.66-4.774,2.076-7.057a18.935,18.935,0,0,0-1.038-6.849c-1.453-4.774-.208-9.34-.415-14.114-.208-4.981.623-9.133-5.6-8.925-.415,0-1.038.208-1.66.208Z" transform="translate(-18.453 -45.68)" fill="#917f73"/>
            <path id="Trazado_1017730" data-name="Trazado 1017730" d="M167.515,256.275c-4.566.623-6.019.208-9.963-2.076-5.189-3.321-11.208-3.736-17.02-2.283a70.3,70.3,0,0,1-16.189,1.66c-3.944,0-11,.208-14.114,2.7-3.528,2.906-.83,9.133-1.453,13.284-.208,2.076-1.245,4.566-.415,6.642,1.245,2.491,4.774,4.151,7.057,5.4A39.648,39.648,0,0,0,147.59,284.5c4.774-1.66,9.548-5.189,14.737-4.566,3.528.208,9.34,2.491,11.831-.415,2.7-2.906.83-9.133.83-12.869,0-2.906.415-8.51-2.492-10.171-.559-.557-2.139-.207-2.865-.207a17.128,17.128,0,0,0-2.115,0" transform="translate(-18.343 -42.633)" fill="#af9f95"/>
            <path id="Trazado_1017731" data-name="Trazado 1017731" d="M171.49,258.268c2.093-.415,2.352,1.729,1.937,2.56-.83,2.283-4.152,1.729-6.02,1.937a70.43,70.43,0,0,0-12.661,3.113c-2.7.83-5.6.83-8.3,1.245-2.906.208-5.812,1.245-8.51,1.66A26.234,26.234,0,0,1,122.99,266.5c-2.283-1.038-11.831-6.019-8.925-9.34,1.66-1.868,9.755-1.038,12.453-1.038a49.156,49.156,0,0,0,11-.83c4.359-.623,8.095-2.076,12.661-1.038,5.4,1.038,9.064,4.775,14.668,4.775Z" transform="translate(-19.272 -43.103)" fill="#917f73"/>
          </g>
        </g>
        <g id="Grupo_1197475" data-name="Grupo 1197475" transform="translate(94.247 201.213)">
          <g id="Grupo_1197474" data-name="Grupo 1197474" clip-path="url(#clip-path-11)">
            <path id="Trazado_1017732" data-name="Trazado 1017732" d="M169.878,261.361c.726-.669.83-2.9-.415-2.565.1-1.116,0-2.454-1.453-1.9.415-1.228-1.142-2.231-1.972-1.45-.311-.78-1.142-.446-1.66,0-.208.335.1.892-.1,1.116s-.726-.112-.934.11c-.415.558-.415,1.451-.726,1.786-.519.446-1.349-.223-1.453,1,.208-1.338-.934-2.232-1.764-1.116.519-1.226-1.038-1.784-1.764-1,.415-.67.208-2.677-.726-1.674.934-1,.311-3.122-1.142-1.9a1.317,1.317,0,0,0-2.594-.446c.311-1.784-2.7-2.342-2.387-.112-.1-1.114-1.142-2.119-1.868-1,.623-1-.208-3.011-1.349-1.784.415-1.45-1.349-3.235-1.764-1.45-.311-.892-1.972-.892-2.491-.223-.623.558-.415,1.45-.415,2.232-.068-1.173-1.3-1.091-2.2-.549-.262-.9-.856-1.457-1.229-.456-.208-2.231-2.491-2.565-2.8-.223-.415-2.119-2.387-.11-2.491,1.116-1.453-1.562-2.179.335-2.387,1.674-.311-1.116-1.764-2.12-2.594-.893-.1-1.116-1.764-1.674-2.076-.447,0-1.673-2.491-2.342-2.387-.669-1.349-1.673-3.113-.111-2.7,1.562-1.868-.67-2.283.668-1.66,2.453-1.038-.558-3.113-.223-2.179,1.45-.934-.669-3.528.223-2.179,1.673-1.038-.335-2.8.223-2.594,1.674l4.981,6.023c5.6,4.016,13.906,6.135,20.548,5.02a5.014,5.014,0,0,0,.778-.184,17.332,17.332,0,0,0,3.477,1.3,15.894,15.894,0,0,0,9.651-.669,47.323,47.323,0,0,1,9.651-2.454c2.179-.447,6.538-1.45,6.227-4.686a1.068,1.068,0,0,0,.1.558c1.142-.111,1.972-2.342,1.038-2.9" transform="translate(-113.5 -243.341)" fill="#e2bb91"/>
            <path id="Trazado_1017733" data-name="Trazado 1017733" d="M125.084,258.6c0,.383-.558.692-1.245.692s-1.245-.31-1.245-.692.558-.692,1.245-.692,1.245.31,1.245.692" transform="translate(-115.06 -244.999)" fill="#c96"/>
            <path id="Trazado_1017734" data-name="Trazado 1017734" d="M128.667,257.1c0,.516-.558.934-1.245.934s-1.245-.418-1.245-.934.558-.934,1.245-.934,1.245.418,1.245.934" transform="translate(-115.668 -244.701)" fill="#c96"/>
            <path id="Trazado_1017735" data-name="Trazado 1017735" d="M133.332,262.367c0,.573-.65,1.038-1.453,1.038s-1.453-.465-1.453-1.038.65-1.038,1.453-1.038,1.453.465,1.453,1.038" transform="translate(-116.39 -245.579)" fill="#c96"/>
            <path id="Trazado_1017736" data-name="Trazado 1017736" d="M138.377,256.605c0,.245-.418.443-.934.443s-.934-.2-.934-.443.418-.443.934-.443.934.2.934.443" transform="translate(-117.422 -244.701)" fill="#c96"/>
            <path id="Trazado_1017737" data-name="Trazado 1017737" d="M148.831,255.485c0,.684-.949,1.239-2.12,1.239s-2.119-.555-2.119-1.239.948-1.239,2.119-1.239,2.12.555,2.12,1.239" transform="translate(-118.795 -244.376)" fill="#c96"/>
            <path id="Trazado_1017738" data-name="Trazado 1017738" d="M148.831,261.848c0,.286-.377.519-.844.519s-.842-.232-.842-.519.377-.519.842-.519.844.232.844.519" transform="translate(-119.228 -245.579)" fill="#c96"/>
            <path id="Trazado_1017739" data-name="Trazado 1017739" d="M157.954,258.964a1.767,1.767,0,1,1-1.764-1.677,1.723,1.723,0,0,1,1.764,1.677" transform="translate(-120.464 -244.892)" fill="#c96"/>
            <path id="Trazado_1017740" data-name="Trazado 1017740" d="M156.19,262.524c0,.315-.4.57-.882.57s-.883-.255-.883-.57.4-.57.883-.57.882.255.882.57" transform="translate(-120.464 -245.685)" fill="#c96"/>
            <path id="Trazado_1017741" data-name="Trazado 1017741" d="M161.722,256.888c0,.4-.589.726-1.314.726s-1.314-.325-1.314-.726.589-.726,1.314-.726,1.314.325,1.314.726" transform="translate(-121.256 -244.701)" fill="#c96"/>
            <path id="Trazado_1017742" data-name="Trazado 1017742" d="M129.259,264.992c0,.459-.82.83-1.833.83s-1.833-.371-1.833-.83.82-.83,1.833-.83,1.833.371,1.833.83" transform="translate(-115.569 -246.06)" fill="#c96"/>
            <path id="Trazado_1017743" data-name="Trazado 1017743" d="M141.2,266.271c0,.382-.8.692-1.782.692s-1.782-.31-1.782-.692.8-.692,1.782-.692,1.782.31,1.782.692" transform="translate(-117.613 -246.3)" fill="#c96"/>
            <path id="Trazado_1017744" data-name="Trazado 1017744" d="M141.562,261.394c0,.219-.4.4-.891.4s-.891-.178-.891-.4.4-.4.891-.4.891.178.891.4" transform="translate(-117.978 -245.522)" fill="#c96"/>
            <path id="Trazado_1017745" data-name="Trazado 1017745" d="M148.752,266.1c0,.286-.465.519-1.038.519s-1.038-.232-1.038-.519.465-.519,1.038-.519,1.038.232,1.038.519" transform="translate(-119.148 -246.3)" fill="#c96"/>
            <path id="Trazado_1017746" data-name="Trazado 1017746" d="M165.25,262.107c0,.349-.558.632-1.245.632s-1.245-.283-1.245-.632.558-.632,1.245-.632,1.245.282,1.245.632" transform="translate(-121.879 -245.603)" fill="#c96"/>
            <path id="Trazado_1017747" data-name="Trazado 1017747" d="M171.527,263.48c0,.267-.619.484-1.384.484s-1.384-.217-1.384-.484.619-.483,1.384-.483,1.384.217,1.384.483" transform="translate(-122.897 -245.862)" fill="#c96"/>
            <path id="Trazado_1017748" data-name="Trazado 1017748" d="M119.473,262.387c0,.239-.5.433-1.108.433s-1.107-.193-1.107-.433.5-.433,1.107-.433,1.108.193,1.108.433" transform="translate(-114.154 -245.685)" fill="#c96"/>
            <path id="Trazado_1017749" data-name="Trazado 1017749" d="M120.671,260.753c0,.095-.279.173-.623.173s-.623-.078-.623-.173.279-.173.623-.173.623.078.623.173" transform="translate(-114.522 -245.451)" fill="#c96"/>
            <path id="Trazado_1017750" data-name="Trazado 1017750" d="M134.528,268.862c0,.248-.526.45-1.176.45s-1.176-.2-1.176-.45.526-.45,1.176-.45,1.176.2,1.176.45" transform="translate(-116.687 -246.781)" fill="#c96"/>
            <path id="Trazado_1017751" data-name="Trazado 1017751" d="M126.561,262.753c0,.1-.217.174-.484.174s-.484-.078-.484-.174.217-.174.484-.174.484.078.484.174" transform="translate(-115.569 -245.791)" fill="#c96"/>
            <path id="Trazado_1017752" data-name="Trazado 1017752" d="M125.879,266.586c0,.095-.325.173-.726.173s-.726-.078-.726-.173.325-.173.726-.173.726.077.726.173" transform="translate(-115.371 -246.442)" fill="#c96"/>
            <path id="Trazado_1017753" data-name="Trazado 1017753" d="M131.185,254.211c0,.177-.263.32-.589.32s-.588-.144-.588-.32.263-.32.588-.32.589.144.589.32" transform="translate(-116.319 -244.316)" fill="#c96"/>
            <path id="Trazado_1017754" data-name="Trazado 1017754" d="M163.252,265.335c0,.1-.465.174-1.038.174s-1.038-.078-1.038-.174.465-.173,1.038-.173,1.038.078,1.038.173" transform="translate(-121.61 -246.229)" fill="#c96"/>
            <path id="Trazado_1017755" data-name="Trazado 1017755" d="M178,259.662c0,.2-.371.355-.83.355s-.83-.159-.83-.355.371-.355.83-.355.83.159.83.355" transform="translate(-124.185 -245.235)" fill="#c96"/>
            <path id="Trazado_1017756" data-name="Trazado 1017756" d="M176.9,260.951c0,.205-.48.372-1.073.372s-1.073-.167-1.073-.372.48-.372,1.073-.372,1.073.167,1.073.372" transform="translate(-123.916 -245.451)" fill="#c96"/>
            <path id="Trazado_1017757" data-name="Trazado 1017757" d="M178.966,262.4c0,.093-.139.169-.311.169s-.311-.076-.311-.169.139-.168.311-.168.311.076.311.168" transform="translate(-124.524 -245.733)" fill="#c96"/>
          </g>
        </g>
      </g>
    </g>
  </g>
</svg>
