<svg xmlns="http://www.w3.org/2000/svg" width="84" height="84" viewBox="0 0 84 84">
  <g id="Grupo_1197570" data-name="Grupo 1197570" transform="translate(-517.719 -2191.823)">
    <g id="Grupo_1197250" data-name="Grupo 1197250" transform="translate(-188.281 512.903)">
      <g id="Grupo_1119665" data-name="Grupo 1119665" transform="translate(534.111 -3840.08)">
        <rect id="Rectángulo_402006" data-name="Rectángulo 402006" width="84" height="84" rx="5" transform="translate(171.889 5519)" fill="#daeaaf"/>
      </g>
    </g>
    <g id="Grupo_1197434" data-name="Grupo 1197434" transform="translate(524.568 2198.53)">
      <path id="Trazado_1016807" data-name="Trazado 1016807" d="M72.771,131.515A1.03,1.03,0,0,1,71.862,130l4.783-9.034a5.309,5.309,0,0,1,7.291-2.145,1.03,1.03,0,1,1-1.009,1.8,3.249,3.249,0,0,0-4.462,1.313l-4.783,9.034A1.03,1.03,0,0,1,72.771,131.515Z" transform="translate(-61.891 -101.777)" fill="#2d5a27"/>
      <path id="Trazado_1016808" data-name="Trazado 1016808" d="M114.5,166.4a1.03,1.03,0,0,1-.909-1.512l2.391-4.517a1.03,1.03,0,0,1,1.82.964l-2.391,4.517A1.03,1.03,0,0,1,114.5,166.4Z" transform="translate(-97.89 -137.737)" fill="#2d5a27"/>
      <path id="Trazado_1016809" data-name="Trazado 1016809" d="M36.009,280.206a2.08,2.08,0,0,0-1.465-.883c-6.022-.717-9.6,1.03-11.2,2.134a6.342,6.342,0,0,0-2.3,8.062,15.83,15.83,0,0,0-1.654,2.682,19.887,19.887,0,0,0-1.867-5.129A7.71,7.71,0,0,0,15.986,276.4c-3.643-3.009-8.958-4-13.705-3.847a2.357,2.357,0,0,0-2.252,2.726A24.013,24.013,0,0,0,4.106,285.6a1.03,1.03,0,1,0,1.643-1.242,21.936,21.936,0,0,1-3.686-9.4.3.3,0,0,1,.284-.344c2.384-.077,8.359.1,12.328,3.377a5.725,5.725,0,0,1,1.663,7.129,19.714,19.714,0,0,0-1.674-2.109A35.19,35.19,0,0,0,8.8,278.3a1.03,1.03,0,0,0-1.11,1.735,33.757,33.757,0,0,1,5.456,4.362,17.632,17.632,0,0,1,1.816,2.366,5.614,5.614,0,0,1-5.948.515,1.03,1.03,0,0,0-.917,1.844,7.689,7.689,0,0,0,7.882-.549,17.96,17.96,0,0,1,1.788,7.121,9.178,9.178,0,0,0-5.812,3.448,7.669,7.669,0,0,0-3.5,1.891,2.53,2.53,0,0,0,1.731,4.363H27.8a2.53,2.53,0,0,0,1.731-4.363,7.67,7.67,0,0,0-3.5-1.891,9.19,9.19,0,0,0-5.741-3.437,13.822,13.822,0,0,1,2.044-4.462,6.374,6.374,0,0,0,8.013.369c1.6-1.1,4.5-3.836,5.968-9.72a2.079,2.079,0,0,0-.307-1.683ZM24.622,300.684a1.03,1.03,0,0,0,.656.4,5.564,5.564,0,0,1,2.853,1.448.467.467,0,0,1-.326.8H10.178a.467.467,0,0,1-.327-.8,5.564,5.564,0,0,1,2.853-1.448,1.029,1.029,0,0,0,.656-.4,7.046,7.046,0,0,1,5.631-3.027,7.046,7.046,0,0,1,5.631,3.027Zm9.7-19.293c-.45,1.806-1.851,6.253-5.139,8.523a4.309,4.309,0,0,1-5.536-.276,17.881,17.881,0,0,1,5.536-3.96,1.03,1.03,0,0,0-.866-1.869,20.006,20.006,0,0,0-5.727,3.961,4.37,4.37,0,0,1,1.925-4.619c2.688-1.855,6.575-2.167,9.792-1.784a.02.02,0,0,1,.016.024Z" transform="translate(0 -234.972)" fill="#2d5a27"/>
      <path id="Trazado_1016810" data-name="Trazado 1016810" d="M208.486,27.076l-4.5-9.048,2.647-5.742a4.018,4.018,0,0,0-.023-3.423l-3.058-6.406A4.039,4.039,0,0,0,198.42.451L179.172,8.137a2.464,2.464,0,0,0-1.434,3l1.474,4.8-4.444,7.235-6.02-2.967-2.4-3.291a1.6,1.6,0,0,0-2.7.174l-2.967,5.406a1.6,1.6,0,0,0,1.3,2.372l4.066.261,20.041,12.174a2.444,2.444,0,0,0,2.628.533L207.2,30.443a2.452,2.452,0,0,0,1.285-3.367ZM180.018,18.55l2.607,8.485-6-2.959Zm-11.524,3.816,14.963,7.376L184.8,34.1l-17.055-10.36ZM165.1,18.7l1.744,2.388-1.071,1.951-2.95-.19Zm41.334,9.833L187.95,35.912a.391.391,0,0,1-.519-.248l-7.725-25.137a.393.393,0,0,1,.229-.478l14.833-5.923,1.785,3.588A1.03,1.03,0,1,0,198.4,6.8l-1.71-3.437,2.5-1a1.975,1.975,0,0,1,2.508.981l3.058,6.406a1.964,1.964,0,0,1,.011,1.673l-1.954,4.238-2.266-4.555a1.03,1.03,0,1,0-1.844.917l7.945,15.969A.391.391,0,0,1,206.437,28.531Z" transform="translate(-138.442 0)" fill="#2d5a27"/>
    </g>
  </g>
</svg>
