<svg xmlns="http://www.w3.org/2000/svg" width="84" height="84" viewBox="0 0 84 84">
  <g id="Grupo_1197569" data-name="Grupo 1197569" transform="translate(-706 -2536.863)">
    <g id="Grupo_1197255" data-name="Grupo 1197255" transform="translate(0 857.943)">
      <g id="Grupo_1119665" data-name="Grupo 1119665" transform="translate(534.111 -3840.08)">
        <rect id="Rectángulo_402006" data-name="Rectángulo 402006" width="84" height="84" rx="5" transform="translate(171.889 5519)" fill="#daeaaf"/>
      </g>
    </g>
    <path id="agricultura_1_" data-name="agricultura (1)" d="M75.3,41.674H70.958a16.324,16.324,0,0,0-7.53-3.714V34.935A8.94,8.94,0,0,0,67.389,33.3,7.044,7.044,0,0,0,69.568,28a.953.953,0,0,0-.938-.938,7.3,7.3,0,0,0-5.2,2.077V26.515a8.939,8.939,0,0,0,3.961-1.639,7.044,7.044,0,0,0,2.179-5.3.953.953,0,0,0-.938-.938,7.3,7.3,0,0,0-5.2,2.077V18.876a8.232,8.232,0,0,0,1.6-3.694,6.059,6.059,0,0,0-1.894-4.552.953.953,0,0,0-1.327,0,6.246,6.246,0,0,0-1.9,4.536,7.439,7.439,0,0,0,1.5,3.532l.112.174v1.843a7.305,7.305,0,0,0-5.2-2.075.953.953,0,0,0-.938.938,7.043,7.043,0,0,0,2.179,5.3,8.937,8.937,0,0,0,3.959,1.638v2.62a7.3,7.3,0,0,0-5.1-2.075h-.1a.953.953,0,0,0-.938.938,7.044,7.044,0,0,0,2.179,5.3,8.937,8.937,0,0,0,3.959,1.638v2.8a24.513,24.513,0,0,0-7.638,1.11,22.227,22.227,0,0,0-10.306-2.7V33.574a8.94,8.94,0,0,0,3.961-1.639,7.044,7.044,0,0,0,2.179-5.3.953.953,0,0,0-.938-.938,7.3,7.3,0,0,0-5.2,2.077V25.154a8.94,8.94,0,0,0,3.961-1.639,7.043,7.043,0,0,0,2.179-5.3.953.953,0,0,0-.938-.938,7.3,7.3,0,0,0-5.2,2.077V17.514a8.236,8.236,0,0,0,1.6-3.694,6.06,6.06,0,0,0-1.894-4.552.953.953,0,0,0-1.327,0,6.245,6.245,0,0,0-1.9,4.536,7.44,7.44,0,0,0,1.5,3.532l.112.173v1.843a7.309,7.309,0,0,0-5.2-2.074.953.953,0,0,0-.938.938,7.043,7.043,0,0,0,2.179,5.3,8.936,8.936,0,0,0,3.959,1.638v2.62a7.31,7.31,0,0,0-5.2-2.074.953.953,0,0,0-.938.938,7.043,7.043,0,0,0,2.179,5.3,8.936,8.936,0,0,0,3.959,1.638v2.577a24.674,24.674,0,0,0-10.929,2.7,24.645,24.645,0,0,0-7.014-1.113v-2.8A8.94,8.94,0,0,0,27.69,33.3,7.044,7.044,0,0,0,29.869,28a.953.953,0,0,0-.938-.938,7.308,7.308,0,0,0-5.2,2.077V26.515a8.94,8.94,0,0,0,3.961-1.639,7.043,7.043,0,0,0,2.179-5.3.953.953,0,0,0-.938-.938,7.314,7.314,0,0,0-5.2,2.077V18.876a8.235,8.235,0,0,0,1.6-3.694,6.06,6.06,0,0,0-1.894-4.552.953.953,0,0,0-1.327,0,6.245,6.245,0,0,0-1.9,4.536,7.44,7.44,0,0,0,1.5,3.532l.112.173v1.843a7.3,7.3,0,0,0-5.1-2.075h-.1a.953.953,0,0,0-.938.938,7.044,7.044,0,0,0,2.179,5.3,8.936,8.936,0,0,0,3.959,1.638v2.62a7.308,7.308,0,0,0-5.2-2.074.953.953,0,0,0-.938.938,7.044,7.044,0,0,0,2.179,5.3,8.937,8.937,0,0,0,3.959,1.638v2.98a15.55,15.55,0,0,0-7.578,3.759H9.953A.953.953,0,0,0,9,42.627v3.267a3.1,3.1,0,0,0,3.1,3.1,6.282,6.282,0,0,1,4.439,10.718,3.1,3.1,0,0,0,0,4.383l4.621,4.621a3.1,3.1,0,0,0,4.383,0,6.278,6.278,0,0,1,10.718,4.439,3.1,3.1,0,0,0,3.1,3.1h6.534a3.1,3.1,0,0,0,3.1-3.1,6.282,6.282,0,0,1,10.718-4.439,3.1,3.1,0,0,0,4.383,0l4.621-4.621a3.1,3.1,0,0,0,0-4.383,6.282,6.282,0,0,1,4.439-10.718,3.1,3.1,0,0,0,3.1-3.1V42.627a.953.953,0,0,0-.953-.953ZM64.767,30.493a5.16,5.16,0,0,1,2.811-1.437,4.9,4.9,0,0,1-1.431,2.795,6.189,6.189,0,0,1-2.426,1.063A5.539,5.539,0,0,1,64.767,30.493Zm0-8.42a5.159,5.159,0,0,1,2.811-1.437,4.9,4.9,0,0,1-1.431,2.795,6.189,6.189,0,0,1-2.426,1.063A5.54,5.54,0,0,1,64.767,22.073Zm-5.961,1.358a4.9,4.9,0,0,1-1.431-2.795,5.159,5.159,0,0,1,2.811,1.437,5.539,5.539,0,0,1,1.046,2.421A6.19,6.19,0,0,1,58.805,23.431Zm0,8.42a4.9,4.9,0,0,1-1.431-2.795,5.159,5.159,0,0,1,2.811,1.437,5.539,5.539,0,0,1,1.046,2.421A6.191,6.191,0,0,1,58.805,31.851Zm3.672-19.024a3.836,3.836,0,0,1,.653,2.212,4.611,4.611,0,0,1-.656,1.776,4.1,4.1,0,0,1-.658-1.76A4.048,4.048,0,0,1,62.478,12.827ZM44.917,29.132A5.16,5.16,0,0,1,47.728,27.7,4.9,4.9,0,0,1,46.3,30.49a6.189,6.189,0,0,1-2.426,1.063,5.539,5.539,0,0,1,1.046-2.421Zm0-8.42a5.16,5.16,0,0,1,2.811-1.437A4.905,4.905,0,0,1,46.3,22.069a6.19,6.19,0,0,1-2.426,1.063A5.539,5.539,0,0,1,44.917,20.712Zm-5.961,1.358a4.9,4.9,0,0,1-1.431-2.795,5.159,5.159,0,0,1,2.811,1.437,5.538,5.538,0,0,1,1.046,2.421A6.19,6.19,0,0,1,38.956,22.069Zm0,8.42A4.9,4.9,0,0,1,37.525,27.7a5.159,5.159,0,0,1,2.811,1.437,5.538,5.538,0,0,1,1.046,2.421A6.193,6.193,0,0,1,38.956,30.49Zm-13.888,0a5.16,5.16,0,0,1,2.811-1.437,4.9,4.9,0,0,1-1.431,2.795,6.189,6.189,0,0,1-2.426,1.063,5.54,5.54,0,0,1,1.046-2.421Zm0-8.42a5.159,5.159,0,0,1,2.811-1.437,4.906,4.906,0,0,1-1.431,2.795,6.19,6.19,0,0,1-2.426,1.063,5.537,5.537,0,0,1,1.046-2.421Zm-5.961,1.358a4.9,4.9,0,0,1-1.431-2.795,5.158,5.158,0,0,1,2.811,1.437,5.538,5.538,0,0,1,1.046,2.421A6.191,6.191,0,0,1,19.107,23.431Zm0,8.42a4.9,4.9,0,0,1-1.431-2.795,5.16,5.16,0,0,1,2.811,1.437,5.54,5.54,0,0,1,1.046,2.421A6.192,6.192,0,0,1,19.107,31.851Zm3.672-19.024a3.836,3.836,0,0,1,.653,2.212,4.614,4.614,0,0,1-.656,1.776,4.1,4.1,0,0,1-.658-1.76A4.049,4.049,0,0,1,22.779,12.827Zm19.849-1.362a3.836,3.836,0,0,1,.653,2.212,4.616,4.616,0,0,1-.656,1.776,4.1,4.1,0,0,1-.658-1.76,4.05,4.05,0,0,1,.661-2.228ZM30.568,40.774l.062.017a.954.954,0,0,0,.732-.1,22.868,22.868,0,0,1,11.265-2.65,20.6,20.6,0,0,1,10.637,2.65.954.954,0,0,0,.732.1c4.052-1.084,8.577-2.293,13.715.883H17.424c4.838-3.121,8.888-2.038,13.144-.9ZM57.341,43.58a14.745,14.745,0,0,1-29.429,0Zm17.006,2.314a1.2,1.2,0,0,1-1.193,1.193,8.188,8.188,0,0,0-5.787,13.972,1.2,1.2,0,0,1,0,1.688l-4.621,4.621a1.194,1.194,0,0,1-1.688,0,8.188,8.188,0,0,0-13.971,5.787,1.2,1.2,0,0,1-1.193,1.193H39.36a1.2,1.2,0,0,1-1.193-1.193,8.057,8.057,0,0,0-5.052-7.561,8.306,8.306,0,0,0-3.184-.644,8.072,8.072,0,0,0-5.735,2.418,1.194,1.194,0,0,1-1.688,0l-4.621-4.621a1.2,1.2,0,0,1,0-1.688A8.188,8.188,0,0,0,12.1,47.087a1.2,1.2,0,0,1-1.193-1.193V43.58H26a16.651,16.651,0,0,0,33.248,0h15.1Zm-21.84,4.582a.953.953,0,0,1-.953.953H33.7a.953.953,0,0,1,0-1.906H51.555A.953.953,0,0,1,52.508,50.476ZM53.851,47.5H31.4a.953.953,0,0,1,0-1.906H53.851a.953.953,0,1,1,0,1.906Zm-8.626,6.9a.953.953,0,0,1-.953.953h-3.29a.953.953,0,1,1,0-1.906h3.29A.953.953,0,0,1,45.225,54.4Z" transform="translate(705.373 2536.236)" fill="#2d5a27"/>
  </g>
</svg>
