<svg xmlns="http://www.w3.org/2000/svg" width="154" height="154" viewBox="0 0 154 154">
  <g id="Grupo_1197575" data-name="Grupo 1197575" transform="translate(-320.941 -10233.986)">
    <g id="Grupo_1197281" data-name="Grupo 1197281" transform="translate(10.883 2862.986)">
      <circle id="Elipse_13624" data-name="Elipse 13624" cx="77" cy="77" r="77" transform="translate(310.059 7371)" fill="#ececec"/>
    </g>
    <g id="XMLID_1364_" transform="translate(309.971 10273.726)">
      <path id="XMLID_326_" d="M92.558,304.6,77.592,330.522l-2.9-10.839L63.808,322.6,78.789,296.65Z" transform="translate(-8.35 -247.701)" fill="#adeefa"/>
      <path id="XMLID_324_" d="M287.653,296.65,302.634,322.6l-10.879-2.915-2.9,10.839L273.884,304.6Z" transform="translate(-183.761 -247.701)" fill="#adeefa"/>
      <path id="XMLID_1369_" d="M105.559,10.561a7.9,7.9,0,0,1,9.244,2.477,7.905,7.905,0,0,0,5.186,2.994,7.9,7.9,0,0,1,6.767,6.767,7.9,7.9,0,0,0,2.994,5.186,7.9,7.9,0,0,1,2.477,9.244,7.9,7.9,0,0,0,0,5.988,7.9,7.9,0,0,1-2.477,9.244,7.9,7.9,0,0,0-2.994,5.186,7.9,7.9,0,0,1-6.767,6.767,7.9,7.9,0,0,0-5.186,2.994,7.9,7.9,0,0,1-9.244,2.477,7.9,7.9,0,0,0-5.988,0,7.9,7.9,0,0,1-9.244-2.477,7.905,7.905,0,0,0-5.186-2.994,7.9,7.9,0,0,1-6.767-6.767,7.9,7.9,0,0,0-2.994-5.186A7.9,7.9,0,0,1,72.9,43.217a7.9,7.9,0,0,0,0-5.988,7.9,7.9,0,0,1,2.477-9.244A7.905,7.905,0,0,0,78.374,22.8a7.9,7.9,0,0,1,6.767-6.767,7.9,7.9,0,0,0,5.186-2.994,7.9,7.9,0,0,1,9.244-2.477,7.9,7.9,0,0,0,5.988,0Z" transform="translate(-15.452 -8.327)" fill="#ffec80"/>
      <circle id="XMLID_1366_" cx="19.801" cy="19.801" r="19.801" transform="translate(67.364 12.651)" fill="#fff"/>
      <g id="XMLID_320_" transform="translate(75.647 23.181)">
        <path id="XMLID_322_" d="M195.788,159.029l-9.629-9.629,5.134-5.134,4.495,4.495,8.273-8.273,5.134,5.134Z" transform="translate(-186.159 -140.488)" fill="#ff7d97"/>
      </g>
      <g id="XMLID_141_" transform="translate(53.808 -0.001)">
        <path id="XMLID_162_" d="M120.3,74.072,109.616,55.563a9.559,9.559,0,0,0,3.324-6.021,6.218,6.218,0,0,1,2.369-4.1A9.582,9.582,0,0,0,118.3,34.265a6.218,6.218,0,0,1,0-4.738,9.582,9.582,0,0,0-2.994-11.174,6.217,6.217,0,0,1-2.369-4.1,9.582,9.582,0,0,0-8.18-8.18,6.218,6.218,0,0,1-4.1-2.369A9.582,9.582,0,0,0,89.482.707a6.218,6.218,0,0,1-4.738,0A9.582,9.582,0,0,0,73.57,3.7a6.219,6.219,0,0,1-4.1,2.369,9.582,9.582,0,0,0-8.18,8.18,6.219,6.219,0,0,1-2.369,4.1,9.582,9.582,0,0,0-2.994,11.174,6.218,6.218,0,0,1,0,4.738A9.582,9.582,0,0,0,58.918,45.44a6.219,6.219,0,0,1,2.369,4.1,9.559,9.559,0,0,0,3.395,6.078L54.029,74.072a1.65,1.65,0,0,0,1.856,2.419L65.171,74l2.477,9.245a1.65,1.65,0,0,0,3.023.4l11.495-19.91a9.478,9.478,0,0,0,2.579-.651,6.218,6.218,0,0,1,4.738,0,9.482,9.482,0,0,0,2.69.664l11.487,19.9a1.65,1.65,0,0,0,3.023-.4L109.16,74l9.285,2.488a1.65,1.65,0,0,0,1.856-2.419ZM69.8,78.546l-1.873-6.991a1.65,1.65,0,0,0-2.021-1.167l-7.031,1.884,8.67-15.017a9.49,9.49,0,0,0,1.918.468,6.219,6.219,0,0,1,4.1,2.369,9.538,9.538,0,0,0,4.962,3.338Zm13.69-18.515a6.272,6.272,0,0,1-7.315-1.96,9.5,9.5,0,0,0-6.268-3.619A6.272,6.272,0,0,1,64.557,49.1a9.5,9.5,0,0,0-3.619-6.268,6.272,6.272,0,0,1-1.96-7.315,9.5,9.5,0,0,0,0-7.238,6.272,6.272,0,0,1,1.96-7.315,9.5,9.5,0,0,0,3.619-6.268A6.272,6.272,0,0,1,69.912,9.34,9.5,9.5,0,0,0,76.18,5.721a6.266,6.266,0,0,1,7.314-1.96,9.5,9.5,0,0,0,7.238,0,6.272,6.272,0,0,1,7.315,1.96,9.5,9.5,0,0,0,6.268,3.619,6.272,6.272,0,0,1,5.355,5.355,9.5,9.5,0,0,0,3.619,6.268,6.272,6.272,0,0,1,1.96,7.315,9.5,9.5,0,0,0,0,7.238,6.273,6.273,0,0,1-1.96,7.315,9.5,9.5,0,0,0-3.619,6.268,6.272,6.272,0,0,1-5.355,5.355,9.5,9.5,0,0,0-6.268,3.619,6.272,6.272,0,0,1-7.314,1.96,9.5,9.5,0,0,0-7.238,0ZM108.42,70.388a1.65,1.65,0,0,0-2.021,1.167l-1.874,6.991L95.784,63.4a9.538,9.538,0,0,0,4.873-3.312,6.217,6.217,0,0,1,4.1-2.369,9.482,9.482,0,0,0,2-.5l8.689,15.05Z" transform="translate(-53.808 0.001)"/>
        <path id="XMLID_1190_" d="M181.777,134.75l-5.134,5.134a1.65,1.65,0,0,0,0,2.334l9.629,9.629a1.65,1.65,0,0,0,2.334,0l13.407-13.407a1.65,1.65,0,0,0,0-2.334l-5.134-5.134a1.65,1.65,0,0,0-2.334,0l-7.106,7.106-3.328-3.328a1.651,1.651,0,0,0-2.334,0Zm4.495,6.829a1.65,1.65,0,0,0,2.334,0l7.106-7.106,2.8,2.8-11.073,11.073-7.3-7.3,2.8-2.8Z" transform="translate(-155.971 -108.956)"/>
        <path id="XMLID_1191_" d="M168.864,95.139a21.458,21.458,0,0,0-13.547-19.948,1.65,1.65,0,0,0-1.217,3.068,18.151,18.151,0,1,1-13.375,0,1.65,1.65,0,1,0-1.216-3.068,21.454,21.454,0,1,0,29.355,19.948Z" transform="translate(-114.056 -62.686)"/>
        <path id="XMLID_1218_" d="M247.611,69.966a1.651,1.651,0,1,0-1.167-.483A1.655,1.655,0,0,0,247.611,69.966Z" transform="translate(-214.254 -55.665)"/>
      </g>
    </g>
  </g>
</svg>
