<svg xmlns="http://www.w3.org/2000/svg" width="118.117" height="118.117" viewBox="0 0 118.117 118.117">
  <g id="Grupo_1197574" data-name="Grupo 1197574" transform="translate(-318.594 -14847.941)">
    <g id="Grupo_1197303" data-name="Grupo 1197303" transform="translate(11.535 8854.941)">
      <g id="Grupo_1192986" data-name="Grupo 1192986" transform="translate(307.059 5993)">
        <g id="Trazado_995327" data-name="Trazado 995327" transform="translate(0)" fill="#fff">
          <path d="M 59.05859375 116.1171951293945 C 51.35486221313477 116.1171951293945 43.88261032104492 114.6088409423828 36.84942626953125 111.6340637207031 C 33.46891021728516 110.2042236328125 30.20824432373047 108.4343566894531 27.15799331665039 106.3736572265625 C 24.13620948791504 104.3321914672852 21.29459381103516 101.9876251220703 18.71207618713379 99.40511322021484 C 16.12957763671875 96.82259368896484 13.78501033782959 93.98097991943359 11.74354362487793 90.95919036865234 C 9.682826995849609 87.90895843505859 7.91297721862793 84.64827728271484 6.48314380645752 81.26776123046875 C 3.508343696594238 74.23457336425781 2.00001049041748 66.7623291015625 2.00001049041748 59.05859375 C 2.00001049041748 51.35486221313477 3.508343696594238 43.88261032104492 6.48314380645752 36.84942626953125 C 7.91297721862793 33.46891021728516 9.682826995849609 30.20824432373047 11.74354362487793 27.15799331665039 C 13.78501033782959 24.13620948791504 16.12957763671875 21.29459381103516 18.71207618713379 18.71207618713379 C 21.29459381103516 16.12957763671875 24.13620948791504 13.78501033782959 27.15799331665039 11.74354362487793 C 30.20824432373047 9.682826995849609 33.46891021728516 7.91297721862793 36.84942626953125 6.48314380645752 C 43.88261032104492 3.508343696594238 51.35486221313477 2.00001049041748 59.05859375 2.00001049041748 C 66.7623291015625 2.00001049041748 74.23457336425781 3.508343696594238 81.26776123046875 6.48314380645752 C 84.64827728271484 7.91297721862793 87.90895843505859 9.682826995849609 90.95919036865234 11.74354362487793 C 93.98097991943359 13.78501033782959 96.82259368896484 16.12957763671875 99.40511322021484 18.71207618713379 C 101.9876251220703 21.29459381103516 104.3321914672852 24.13620948791504 106.3736572265625 27.15799331665039 C 108.4343566894531 30.20824432373047 110.2042236328125 33.46891021728516 111.6340637207031 36.84942626953125 C 114.6088409423828 43.88261032104492 116.1171951293945 51.35486221313477 116.1171951293945 59.05859375 C 116.1171951293945 66.7623291015625 114.6088409423828 74.23457336425781 111.6340637207031 81.26776123046875 C 110.2042236328125 84.64827728271484 108.4343566894531 87.90895843505859 106.3736572265625 90.95919036865234 C 104.3321914672852 93.98097991943359 101.9876251220703 96.82259368896484 99.40511322021484 99.40511322021484 C 96.82259368896484 101.9876251220703 93.98097991943359 104.3321914672852 90.95919036865234 106.3736572265625 C 87.90895843505859 108.4343566894531 84.64827728271484 110.2042236328125 81.26776123046875 111.6340637207031 C 74.23457336425781 114.6088409423828 66.7623291015625 116.1171951293945 59.05859375 116.1171951293945 Z" stroke="none"/>
          <path d="M 59.05859375 3.999992370605469 C 51.62397766113281 3.999992370605469 44.41384887695312 5.455177307128906 37.62852478027344 8.325119018554688 C 34.36693572998047 9.704666137695312 31.22083282470703 11.41236114501953 28.27759552001953 13.40077209472656 C 25.36128234863281 15.37099456787109 22.61879730224609 17.63377380371094 20.12628173828125 20.12628173828125 C 17.63377380371094 22.61879730224609 15.37099456787109 25.36128234863281 13.40077209472656 28.27759552001953 C 11.41236114501953 31.22083282470703 9.704666137695312 34.36693572998047 8.325119018554688 37.62852478027344 C 5.455177307128906 44.41384887695312 3.999992370605469 51.62397766113281 3.999992370605469 59.05859375 C 3.999992370605469 66.49320983886719 5.455177307128906 73.70333862304688 8.325119018554688 80.48866271972656 C 9.704666137695312 83.750244140625 11.41236114501953 86.89635467529297 13.40077209472656 89.83959197998047 C 15.37099456787109 92.75590515136719 17.63377380371094 95.49839782714844 20.12628173828125 97.99090576171875 C 22.61879730224609 100.4834136962891 25.36128234863281 102.7461929321289 28.27759552001953 104.7164154052734 C 31.22083282470703 106.704833984375 34.36693572998047 108.4125213623047 37.62852478027344 109.7920684814453 C 44.41384887695312 112.6620101928711 51.62397766113281 114.1171951293945 59.05859375 114.1171951293945 C 66.49320983886719 114.1171951293945 73.70333862304688 112.6620101928711 80.48866271972656 109.7920684814453 C 83.750244140625 108.4125213623047 86.89635467529297 106.704833984375 89.83959197998047 104.7164154052734 C 92.75590515136719 102.7461929321289 95.49839782714844 100.4834136962891 97.99090576171875 97.99090576171875 C 100.4834136962891 95.49839782714844 102.7461929321289 92.75590515136719 104.7164154052734 89.83959197998047 C 106.704833984375 86.89635467529297 108.4125213623047 83.750244140625 109.7920684814453 80.48866271972656 C 112.6620101928711 73.70333862304688 114.1171951293945 66.49320983886719 114.1171951293945 59.05859375 C 114.1171951293945 51.62397766113281 112.6620101928711 44.41384887695312 109.7920684814453 37.62852478027344 C 108.4125213623047 34.36693572998047 106.704833984375 31.22083282470703 104.7164154052734 28.27759552001953 C 102.7461929321289 25.36128234863281 100.4834136962891 22.61879730224609 97.99090576171875 20.12628173828125 C 95.49839782714844 17.63377380371094 92.75590515136719 15.37099456787109 89.83959197998047 13.40077209472656 C 86.89635467529297 11.41236114501953 83.750244140625 9.704666137695312 80.48866271972656 8.325119018554688 C 73.70333862304688 5.455177307128906 66.49320983886719 3.999992370605469 59.05859375 3.999992370605469 M 59.05859375 -7.62939453125e-06 C 91.67575836181641 -7.62939453125e-06 118.1171951293945 26.44142913818359 118.1171951293945 59.05859375 C 118.1171951293945 91.67575836181641 91.67575836181641 118.1171951293945 59.05859375 118.1171951293945 C 26.44142913818359 118.1171951293945 -7.62939453125e-06 91.67575836181641 -7.62939453125e-06 59.05859375 C -7.62939453125e-06 26.44142913818359 26.44142913818359 -7.62939453125e-06 59.05859375 -7.62939453125e-06 Z" stroke="none" fill="#2d5a27"/>
        </g>
      </g>
    </g>
    <g id="Grupo_1197536" data-name="Grupo 1197536" transform="translate(335.989 14850.849)">
      <path id="Trazado_1018536" data-name="Trazado 1018536" d="M140.259,460.582a1.164,1.164,0,0,0,0,1.646l0,0a1.164,1.164,0,1,0,0-1.65Z" transform="translate(-118.208 -388.762)" fill="#2d5a27"/>
      <path id="Trazado_1018537" data-name="Trazado 1018537" d="M222.148,466.339a1.164,1.164,0,0,0,.007,1.646l.009.009a1.15,1.15,0,0,0,.813.335,1.166,1.166,0,1,0-.829-1.99Z" transform="translate(-187.394 -393.623)" fill="#2d5a27"/>
      <path id="Trazado_1018538" data-name="Trazado 1018538" d="M306.115,462.566a1.164,1.164,0,0,0,0,1.646l0,0a1.164,1.164,0,1,0,0-1.65Z" transform="translate(-258.329 -390.438)" fill="#2d5a27"/>
      <path id="Trazado_1018539" data-name="Trazado 1018539" d="M379.761,464.584a1.167,1.167,0,1,0-.824-.344l0,0A1.155,1.155,0,0,0,379.761,464.584Z" transform="translate(-319.852 -390.462)" fill="#2d5a27"/>
      <path id="Trazado_1018549" data-name="Trazado 1018549" d="M46.127,462.923a1.164,1.164,0,0,0,.52,1.561l.009,0a1.158,1.158,0,0,0,1.557-.523,1.166,1.166,0,0,0-2.086-1.043Z" transform="translate(-38.866 -390.484)" fill="#2d5a27"/>
      <path id="Trazado_1018550" data-name="Trazado 1018550" d="M441.61,464.642a1.168,1.168,0,1,0-1.041-.649l0,.009A1.157,1.157,0,0,0,441.61,464.642Z" transform="translate(-372.105 -390.509)" fill="#2d5a27"/>
      <path id="Trazado_1018551" data-name="Trazado 1018551" d="M73.052,168.528a7.275,7.275,0,0,0,6.392-7.1v-4.456a2,2,0,0,0-2.214-2.007l-4.468.453a7,7,0,0,0-4.06,1.88v-10l3.548-3.966a7.655,7.655,0,0,0-.069-10.05l-3.2-3.5a1.9,1.9,0,0,0-2.895,0l-3.2,3.5a7.656,7.656,0,0,0-.07,10.051l3.552,3.966v3.992a7,7,0,0,0-4.032-1.856l-4.467-.453a2,2,0,0,0-2.215,2v4.46a7.274,7.274,0,0,0,6.391,7.1l4.323.436v12.443H55.963a1.164,1.164,0,1,0,0,2.327H76.428a.687.687,0,0,1,.688.684V185.5a.689.689,0,0,1-.688.688H3.011a.687.687,0,0,1-.684-.688v-7.064a.693.693,0,0,1,.684-.684h47.48a1.164,1.164,0,0,0,0-2.327H40.884v-2.389l4.354-.44a7.275,7.275,0,0,0,6.392-7.1v-4.46a2,2,0,0,0-2.214-2l-4.467.453a7.005,7.005,0,0,0-4.064,1.884v-.779s0,0,0-.006a7.281,7.281,0,0,0-6.391-7.09l-4.465-.448a1.994,1.994,0,0,0-2.211,2v4.46a7.274,7.274,0,0,0,6.391,7.1l4.35.44v8.376H13.068v-2.688l3.859-.388a6.723,6.723,0,0,0,5.9-6.55v-4.051a1.922,1.922,0,0,0-2.126-1.927l-4.058.413a6.441,6.441,0,0,0-3.571,1.578v-1.56a1.164,1.164,0,0,0-2.327,0v15.172H3.011A3.015,3.015,0,0,0,0,178.433V185.5a3.017,3.017,0,0,0,3.011,3.016H76.429a3.019,3.019,0,0,0,3.015-3.016v-7.064a3.017,3.017,0,0,0-3.015-3.011H68.7v-6.454Zm-32.169-1.951a4.96,4.96,0,0,1,4.3-4.774l4.12-.418V165.5a4.96,4.96,0,0,1-4.3,4.78l-2.392.242,2.959-3.274a1.164,1.164,0,0,0-1.727-1.561l-2.961,3.276v-2.382Zm-7.01-5.319,2.959,3.274-2.393-.242a4.959,4.959,0,0,1-4.3-4.78V155.4l4.115.413a4.965,4.965,0,0,1,4.3,4.78v2.376L35.6,159.7a1.164,1.164,0,1,0-1.727,1.561Zm-20.8,5.518a4.391,4.391,0,0,1,3.806-4.23l3.623-.369V165.8a4.4,4.4,0,0,1-3.8,4.235l-1.9.191,2.5-2.77a1.164,1.164,0,0,0-1.727-1.56l-2.5,2.766ZM73,157.739l4.12-.418v4.111a4.96,4.96,0,0,1-4.3,4.78l-2.392.242,2.959-3.274a1.164,1.164,0,1,0-1.727-1.561L68.7,164.89v-2.373A4.951,4.951,0,0,1,73,157.739Zm-8.438-15.956a5.346,5.346,0,0,1,.054-6.928l2.925-3.2,2.926,3.2a5.346,5.346,0,0,1,.053,6.928L68.7,143.809v-5.636a1.164,1.164,0,0,0-2.327,0v5.639Zm-2.839,15.411,2.959,3.274-2.393-.242a4.96,4.96,0,0,1-4.3-4.78v-4.111l4.121.418a4.979,4.979,0,0,1,4.266,4.276v2.846l-2.93-3.241a1.164,1.164,0,0,0-1.727,1.561Z" transform="translate(0 -109.014)" fill="#2d5a27"/>
    </g>
  </g>
</svg>
