<svg xmlns="http://www.w3.org/2000/svg" width="84" height="84" viewBox="0 0 84 84">
  <g id="Grupo_1197573" data-name="Grupo 1197573" transform="translate(-706 -14549.657)">
    <g id="Grupo_1197302" data-name="Grupo 1197302" transform="translate(-0.371 7081.617)">
      <g id="Grupo_1197267" data-name="Grupo 1197267" transform="translate(0.371 5789.12)">
        <g id="Grupo_1119665" data-name="Grupo 1119665" transform="translate(534.111 -3840.08)">
          <rect id="Rectángulo_402006" data-name="Rectángulo 402006" width="84" height="84" rx="5" transform="translate(171.889 5519)" fill="#daeaaf"/>
        </g>
      </g>
      <g id="Grupo_1197538" data-name="Grupo 1197538" transform="translate(720.467 7482.136)">
        <path id="Trazado_1018569" data-name="Trazado 1018569" d="M1.641,18.165H12.424L24.087,28.658a4.9,4.9,0,0,0,3.36,1.326H38.409a5.142,5.142,0,0,0,5.143-5.143V24.4a5.587,5.587,0,0,0-5.581-5.581H35.851a5.589,5.589,0,0,0-1.144-6.233l-4-4h0l0,0L23.985,1.907A6.558,6.558,0,0,0,19.358,0H1.641A1.641,1.641,0,0,0,0,1.641V16.524a1.641,1.641,0,0,0,1.641,1.641Zm11.381-3.283h-.985V3.283h7.321a3.281,3.281,0,0,1,1.754.507,3.319,3.319,0,0,1,.56.447l6.715,6.674,4,4a2.3,2.3,0,0,1,0,3.25,2.262,2.262,0,0,1-1.4.662h-.437a2.3,2.3,0,0,1-1.412-.662l-5.293-5.293a1.641,1.641,0,0,0-2.321,2.321l5.293,5.293a5.578,5.578,0,0,0,3.472,1.613c.087.01.77.01.77.01h6.915a2.3,2.3,0,0,1,2.3,2.3v.438a1.859,1.859,0,0,1-1.86,1.86H27.447a1.632,1.632,0,0,1-1.119-.442L14.078,15.267a2.105,2.105,0,0,0-1.056-.385ZM3.283,3.283H8.754v11.6H3.283Z" transform="translate(0)" fill="#2d5a27"/>
        <path id="Trazado_1018570" data-name="Trazado 1018570" d="M54.167,252.014h-1.86V236.587c2.055-.842,3.5-3.234,3.5-6.131,0-3.476-3.844-5.943-4.283-6.213a1.641,1.641,0,0,0-1.721,0c-.438.27-4.283,2.737-4.283,6.213,0,2.9,1.447,5.289,3.5,6.131v15.426H38.3v-5.8c2.055-.842,3.5-3.234,3.5-6.131,0-3.476-3.844-5.943-4.283-6.213a1.641,1.641,0,0,0-1.721,0c-.438.27-4.283,2.737-4.283,6.213,0,2.9,1.447,5.289,3.5,6.131v5.8H20.791v-5.8c2.055-.842,3.5-3.234,3.5-6.131,0-3.476-3.844-5.943-4.283-6.213a1.641,1.641,0,0,0-1.721,0c-.438.27-4.283,2.737-4.283,6.213,0,2.9,1.447,5.289,3.5,6.131v5.8H6.785V236.587c2.055-.842,3.5-3.234,3.5-6.131,0-3.476-3.844-5.943-4.283-6.213a1.641,1.641,0,0,0-1.721,0c-.438.27-4.283,2.737-4.283,6.213,0,2.9,1.447,5.289,3.5,6.131v15.425H1.641a1.641,1.641,0,1,0,0,3.283H5.1l.039,0,.039,0,48.986,0a1.641,1.641,0,1,0,0-3.283Zm-3.5-24.339c.876.735,1.861,1.829,1.861,2.782,0,1.816-.982,3.173-1.86,3.173s-1.86-1.357-1.86-3.173C48.805,229.5,49.79,228.409,50.665,227.675ZM36.658,237.3c.876.735,1.861,1.829,1.861,2.782,0,1.816-.982,3.173-1.86,3.173s-1.86-1.357-1.86-3.173C34.8,239.133,35.783,238.039,36.658,237.3Zm-17.509,0c.876.735,1.861,1.829,1.861,2.782,0,1.816-.982,3.173-1.86,3.173s-1.86-1.357-1.86-3.173C17.29,239.133,18.275,238.039,19.15,237.3Zm-14.007-9.63C6.019,228.41,7,229.5,7,230.456c0,1.816-.982,3.173-1.86,3.173s-1.86-1.357-1.86-3.173C3.283,229.5,4.268,228.409,5.143,227.675Z" transform="translate(0 -199.488)" fill="#2d5a27"/>
        <circle id="Elipse_13679" data-name="Elipse 13679" cx="1.642" cy="1.642" r="1.642" transform="translate(39.393 11.379)" fill="#2d5a27"/>
        <circle id="Elipse_13680" data-name="Elipse 13680" cx="1.642" cy="1.642" r="1.642" transform="translate(45.521 17.507)" fill="#2d5a27"/>
        <circle id="Elipse_13681" data-name="Elipse 13681" cx="1.642" cy="1.642" r="1.642" transform="translate(48.147 9.629)" fill="#2d5a27"/>
      </g>
    </g>
  </g>
</svg>
