<svg xmlns="http://www.w3.org/2000/svg" width="107" height="107" viewBox="0 0 107 107">
  <g id="Grupo_1197574" data-name="Grupo 1197574" transform="translate(-212.652 -13847)">
    <g id="Grupo_1192995" data-name="Grupo 1192995" transform="translate(-127.848 5319.063)">
      <g id="Grupo_1179280" data-name="Grupo 1179280" transform="translate(0 -165.063)">
        <g id="Grupo_156312" data-name="Grupo 156312" transform="translate(51.832 4244.563)">
          <path id="Elipse_5845" data-name="Elipse 5845" d="M53.5,0A53.5,53.5,0,1,1,0,53.5,53.5,53.5,0,0,1,53.5,0Z" transform="translate(288.668 4448.437)" fill="#fff3cc"/>
        </g>
        <g id="Grupo_1197511" data-name="Grupo 1197511" transform="translate(359.559 8713)">
          <g id="Grupo_1197509" data-name="Grupo 1197509">
            <g id="Grupo_1197499" data-name="Grupo 1197499">
              <path id="Trazado_1018454" data-name="Trazado 1018454" d="M20,48a2.006,2.006,0,0,1,2,2v8a4,4,0,0,1-8,0V50a2.006,2.006,0,0,1,2-2h4Z" fill="#d3a06c"/>
            </g>
            <g id="Grupo_1197500" data-name="Grupo 1197500">
              <path id="Trazado_1018455" data-name="Trazado 1018455" d="M21,41.72V46a2.006,2.006,0,0,1-2,2H17a2.006,2.006,0,0,1-2-2V41.72a16.211,16.211,0,0,0,6,0Z" fill="#ccd1d9"/>
            </g>
            <g id="Grupo_1197501" data-name="Grupo 1197501">
              <circle id="Elipse_13676" data-name="Elipse 13676" cx="16" cy="16" r="16" transform="translate(2 10)" fill="#e6e9ed"/>
            </g>
            <g id="Grupo_1197502" data-name="Grupo 1197502">
              <circle id="Elipse_13677" data-name="Elipse 13677" cx="12" cy="12" r="12" transform="translate(6 14)" fill="#69d6f4"/>
            </g>
            <g id="Grupo_1197503" data-name="Grupo 1197503">
              <path id="Trazado_1018456" data-name="Trazado 1018456" d="M62,4V26a2.006,2.006,0,0,1-2,2H22a2.006,2.006,0,0,1-2-2V4a2.006,2.006,0,0,1,2-2H60a2.006,2.006,0,0,1,2,2Z" fill="#f0d0b4"/>
            </g>
            <g id="Grupo_1197504" data-name="Grupo 1197504">
              <path id="Trazado_1018457" data-name="Trazado 1018457" d="M62,44v3l-2.54.81a14.529,14.529,0,0,1-1.24,3.02l1.22,2.36-4.25,4.25-2.36-1.22a14.529,14.529,0,0,1-3.02,1.24L49,60H43l-.81-2.54a14.529,14.529,0,0,1-3.02-1.24l-2.36,1.22-4.25-4.25,1.22-2.36a14.529,14.529,0,0,1-1.24-3.02L30,47V41l2.54-.81a14.529,14.529,0,0,1,1.24-3.02l-1.22-2.36,4.25-4.24,2.36,1.21a14.529,14.529,0,0,1,3.02-1.24L43,28h6l.81,2.54a14.529,14.529,0,0,1,3.02,1.24l2.36-1.22,4.24,4.25-1.21,2.36a14.529,14.529,0,0,1,1.24,3.02L62,41Zm-6,0A10,10,0,1,0,46,54,10,10,0,0,0,56,44Z" fill="#fcd770"/>
            </g>
            <g id="Grupo_1197505" data-name="Grupo 1197505">
              <path id="Trazado_1018458" data-name="Trazado 1018458" d="M54,6a4,4,0,1,1-4,4A4,4,0,0,1,54,6Z" fill="#b4dd7f"/>
            </g>
            <g id="Grupo_1197506" data-name="Grupo 1197506">
              <path id="Trazado_1018459" data-name="Trazado 1018459" d="M44.59,15.49A3,3,0,1,1,39,17a2.9,2.9,0,0,1,.58-1.76A2.959,2.959,0,0,1,42,14,2.992,2.992,0,0,1,44.59,15.49Z" fill="#b4dd7f"/>
            </g>
            <g id="Grupo_1197507" data-name="Grupo 1197507">
              <path id="Trazado_1018460" data-name="Trazado 1018460" d="M33.42,10.76A2.959,2.959,0,0,1,31,12a3,3,0,1,1,3-3A2.9,2.9,0,0,1,33.42,10.76Z" fill="#b4dd7f"/>
            </g>
            <g id="Grupo_1197508" data-name="Grupo 1197508">
              <path id="Trazado_1018461" data-name="Trazado 1018461" d="M26.72,20.14A1.987,1.987,0,1,1,26,20,1.924,1.924,0,0,1,26.72,20.14Z" fill="#b4dd7f"/>
            </g>
          </g>
          <g id="Grupo_1197510" data-name="Grupo 1197510">
            <path id="Trazado_1018462" data-name="Trazado 1018462" d="M63,26V4a3,3,0,0,0-3-3H22a3,3,0,0,0-3,3V9.035C18.653,9.012,18.324,9,18,9a16.99,16.99,0,0,0-4,33.5V46a2.967,2.967,0,0,0,.4,1.471A2.994,2.994,0,0,0,13,50v8a5,5,0,1,0,10,0V50a2.994,2.994,0,0,0-1.4-2.529A2.967,2.967,0,0,0,22,46V42.5a17.034,17.034,0,0,0,9.913-6.779l.741,1.44a15.016,15.016,0,0,0-.919,2.229L29,40.271V47.73l2.734.876a14.928,14.928,0,0,0,.919,2.229l-1.312,2.549,5.274,5.274,2.549-1.312a15.016,15.016,0,0,0,2.229.919L42.271,61H49.73l.876-2.734a14.972,14.972,0,0,0,2.229-.919l2.549,1.312,5.273-5.274-1.311-2.549a14.972,14.972,0,0,0,.919-2.229L63,47.729V40.27l-2.734-.876a15.016,15.016,0,0,0-.919-2.229l1.311-2.549-5.273-5.274-2.549,1.312a15,15,0,0,0-2.229-.919L50.37,29H60a3,3,0,0,0,3-3ZM22,29h6.566A10.993,10.993,0,1,1,18,15a10,10,0,0,1,1,.057V26A3,3,0,0,0,22,29ZM21,58a3,3,0,0,1-6,0V50a1,1,0,0,1,1-1h4a1,1,0,0,1,1,1ZM20,46a1,1,0,0,1-1,1H17a1,1,0,0,1-1-1V42.872A17.138,17.138,0,0,0,18,43a16.948,16.948,0,0,0,2-.132Zm-2-5a15,15,0,0,1,0-30c.317,0,.65.016,1,.043v2c-.342-.028-.675-.045-1-.045A13,13,0,1,0,30.628,29h2.047A15,15,0,0,1,18,41ZM34.7,29h6.927l-.235.734a14.953,14.953,0,0,0-2.229.919l-2.549-1.312L33.83,32.127A16.769,16.769,0,0,0,34.7,29Zm14.322,2.356.517.146a12.91,12.91,0,0,1,2.8,1.153l.468.262L55,31.788,58.212,35l-1.129,2.194.262.469a12.89,12.89,0,0,1,1.153,2.8l.146.517L61,41.729V46.27l-2.356.754-.146.517a12.975,12.975,0,0,1-1.152,2.8l-.263.468L58.212,53,55,56.213l-2.194-1.13-.469.262a12.972,12.972,0,0,1-2.8,1.154l-.517.146L48.271,59H43.73l-.754-2.356-.517-.146a12.975,12.975,0,0,1-2.8-1.152l-.468-.263L37,56.213,33.787,53l1.13-2.195-.263-.468a12.987,12.987,0,0,1-1.153-2.8l-.146-.517L31,46.271V41.73l2.356-.754.146-.517a12.975,12.975,0,0,1,1.152-2.8l.263-.468L33.787,35,37,31.788l2.195,1.129.468-.262a12.861,12.861,0,0,1,2.8-1.153l.517-.146L43.729,29H48.27ZM42.271,27H22a1,1,0,0,1-1-1V4a1,1,0,0,1,1-1H60a1,1,0,0,1,1,1V26a1,1,0,0,1-1,1H42.271Z"/>
            <path id="Trazado_1018463" data-name="Trazado 1018463" d="M54,5a5.006,5.006,0,0,0-5,5,4.953,4.953,0,0,0,.284,1.593l-4.446,2.594a3.952,3.952,0,0,0-5.366-.261l-4.759-3.461a4,4,0,1,0-6.033,1.781l-2.6,6.762c-.027,0-.052-.008-.079-.008a3.036,3.036,0,1,0,1.943.733l2.608-6.779A3.691,3.691,0,0,0,31,13a3.959,3.959,0,0,0,2.528-.926l4.759,3.461a4.008,4.008,0,1,0,7.547.386l4.457-2.6A4.991,4.991,0,1,0,54,5ZM26,23a1,1,0,1,1,1-1A1,1,0,0,1,26,23Zm5-12a2,2,0,1,1,2-2A2,2,0,0,1,31,11Zm11,8a2,2,0,1,1,2-2A2,2,0,0,1,42,19Zm12-6a3,3,0,1,1,3-3A3,3,0,0,1,54,13Z"/>
            <path id="Trazado_1018464" data-name="Trazado 1018464" d="M57,23h2v2H57Z"/>
            <path id="Trazado_1018465" data-name="Trazado 1018465" d="M49,23h2v2H49Z"/>
            <path id="Trazado_1018466" data-name="Trazado 1018466" d="M53,23h2v2H53Z"/>
            <path id="Trazado_1018467" data-name="Trazado 1018467" d="M49,19H59v2H49Z"/>
            <path id="Trazado_1018468" data-name="Trazado 1018468" d="M11,26H9a9.01,9.01,0,0,0,9,9V33A7.008,7.008,0,0,1,11,26Z"/>
            <path id="Trazado_1018469" data-name="Trazado 1018469" d="M53,44H51a5.006,5.006,0,0,1-5,5v2A7.009,7.009,0,0,0,53,44Z"/>
            <path id="Trazado_1018470" data-name="Trazado 1018470" d="M35,44A11,11,0,1,0,46,33,11.013,11.013,0,0,0,35,44Zm11-9a9,9,0,1,1-9,9A9.01,9.01,0,0,1,46,35Z"/>
          </g>
        </g>
      </g>
    </g>
  </g>
</svg>
