<svg xmlns="http://www.w3.org/2000/svg" width="154" height="154" viewBox="0 0 154 154">
  <g id="Grupo_1197577" data-name="Grupo 1197577" transform="translate(-1128.352 -10233.986)">
    <g id="Grupo_1197280" data-name="Grupo 1197280" transform="translate(818.293 2862.986)">
      <circle id="Elipse_13624" data-name="Elipse 13624" cx="77" cy="77" r="77" transform="translate(310.059 7371)" fill="#d5ded3"/>
    </g>
    <g id="Fertilizer" transform="translate(1164.856 10261.77)">
      <path id="Trazado_1018425" data-name="Trazado 1018425" d="M57,39.908V35.763A2.766,2.766,0,0,1,59.763,33h5.526v6.908Z" transform="translate(21.754 12.59)" fill="#fcc100"/>
      <path id="Trazado_1018426" data-name="Trazado 1018426" d="M7,18.96A16.075,16.075,0,0,1,9.216,12.7,11.433,11.433,0,0,1,19.449,7.276c.536,0,1.095.026,1.677.08l.3.009c2.989,0,4.239-1.852,5.342-3.486.146-.217.275-.409.4-.592C28.161,1.876,30.491,1,33.248,1s5.089.876,6.082,2.287c.129.183.258.374.389.569,1.108,1.643,2.364,3.5,5.452,3.5l.2,0c.667-.06,1.218-.086,1.746-.086A11.375,11.375,0,0,1,57.282,12.7,16.07,16.07,0,0,1,59.5,18.96Z" transform="translate(2.678 0.382)" fill="#d3aa98"/>
      <path id="Trazado_1018427" data-name="Trazado 1018427" d="M5.141,78.261a2.767,2.767,0,0,1-2.681-3.386l2.4-10.385-.246-.457C-2.668,50.451,2.246,31.476,8.592,23h53.9C70.1,33.132,76.006,59.572,59.68,71.889c-5.358,4.043-14.138,6.361-24.087,6.361h0a51.949,51.949,0,0,1-17.378-2.7l-.391-.147L5.773,78.188a2.8,2.8,0,0,1-.632.073Z" transform="translate(0.384 8.775)" fill="#e5ab65"/>
      <rect id="Rectángulo_462791" data-name="Rectángulo 462791" width="60.787" height="12.434" rx="2" transform="translate(5.533 19.341)" fill="#f4c77f"/>
      <path id="Trazado_1018428" data-name="Trazado 1018428" d="M25.181,48.363a11.666,11.666,0,0,1,8.645-13.719c9.609-2.576,11.582-5.07,11.879-5.544l.05-.08.038-.085c-.048.221-.413,13.456-6.689,16.524a12.636,12.636,0,0,1-5.923,1.4c-.514,0-1.006-.02-1.483-.04s-.9-.036-1.323-.036a8.449,8.449,0,0,0-5.194,1.583Z" transform="translate(9.519 11.04)" fill="#a3cb38"/>
      <path id="Trazado_1018429" data-name="Trazado 1018429" d="M30.57,48.341a8.454,8.454,0,0,0-5.2-1.585c-.425,0-.861.017-1.317.035-.482.02-.974.041-1.489.041a12.637,12.637,0,0,1-5.922-1.4C10.368,42.369,10,29.133,10,29l.389.855.337-.017c1.138.982,4.085,2.876,11.2,4.783A11.672,11.672,0,0,1,30.57,48.341Z" transform="translate(3.823 11.064)" fill="#a3cb38"/>
      <path id="Trazado_1018430" data-name="Trazado 1018430" d="M20,51.526A5.532,5.532,0,0,1,25.526,46h2.763a5.532,5.532,0,0,1,5.526,5.526Z" transform="translate(7.638 17.55)" fill="#d69158"/>
      <path id="Trazado_1018431" data-name="Trazado 1018431" d="M43.763,72.538A2.766,2.766,0,0,1,41,69.775V44.908L47.908,38H71.393V69.775a2.766,2.766,0,0,1-2.763,2.763Z" transform="translate(15.65 14.498)" fill="#a3cb38"/>
      <rect id="Rectángulo_462792" data-name="Rectángulo 462792" width="19.341" height="16.578" rx="2" transform="translate(62.176 64.931)" fill="#fcc100"/>
      <path id="Trazado_1018432" data-name="Trazado 1018432" d="M41,44.908,47.908,38h9.671l-6.908,6.908Z" transform="translate(15.65 14.498)" fill="#fcc100"/>
      <g id="Grupo_1197487" data-name="Grupo 1197487" transform="translate(-0.019 0)">
        <path id="Trazado_1018433" data-name="Trazado 1018433" d="M53.208,29.427a1.411,1.411,0,0,0-1.051-1.421,1.322,1.322,0,0,0-1.543.732c-.015.024-1.612,2.41-11.067,4.945A12.489,12.489,0,0,0,31.1,40.306a12.489,12.489,0,0,0-8.442-6.623c-9.333-2.5-11.01-4.859-11.023-4.859h0a1.381,1.381,0,0,0-2.638.6c.013.579.395,14.214,7.419,17.647a14.852,14.852,0,0,0,8.07,1.494A8.173,8.173,0,0,1,29.723,49.6v1.9a6.916,6.916,0,0,0-6.908,6.908A1.382,1.382,0,0,0,24.2,59.79H38.012a1.382,1.382,0,0,0,1.382-1.382A6.916,6.916,0,0,0,32.486,51.5V49.6a8.172,8.172,0,0,1,5.233-1.031,14.854,14.854,0,0,0,8.07-1.494C52.813,43.64,53.2,30.005,53.208,29.427Zm-16.814,27.6H25.815a4.152,4.152,0,0,1,3.908-2.763h2.763A4.152,4.152,0,0,1,36.394,57.027ZM25.774,45.77c-.472,0-.935.019-1.4.038a12.2,12.2,0,0,1-6.746-1.216c-3.527-1.724-5.056-7.768-5.609-12.041a39.858,39.858,0,0,0,9.924,3.8,9.721,9.721,0,0,1,7.7,8.761l-.462-.535a14.794,14.794,0,0,0-7.725-4.724,1.382,1.382,0,0,0-.656,2.685A12.005,12.005,0,0,1,26.5,45.793c-.242-.012-.484-.022-.722-.022Zm12.057.038c-.693-.028-1.393-.053-2.116-.017a12,12,0,0,1,5.691-3.253,1.382,1.382,0,1,0-.656-2.685,14.794,14.794,0,0,0-7.724,4.724l-.479.554a9.7,9.7,0,0,1,7.715-8.781,39.858,39.858,0,0,0,9.924-3.8c-.553,4.273-2.082,10.317-5.609,12.041a12.21,12.21,0,0,1-6.746,1.216Z" transform="translate(3.46 10.668)" fill="#292f30"/>
        <path id="Trazado_1018434" data-name="Trazado 1018434" d="M9.344,52.634a23.952,23.952,0,0,1-2.375-7.607,1.381,1.381,0,1,0-2.733.4A26.681,26.681,0,0,0,6.894,53.91a20.418,20.418,0,0,0,4.383,5.714,1.382,1.382,0,1,0,1.858-2.045,17.665,17.665,0,0,1-3.79-4.945Z" transform="translate(1.637 16.728)" fill="#292f30"/>
        <path id="Trazado_1018435" data-name="Trazado 1018435" d="M71.775,32H66.249A4.149,4.149,0,0,0,62.1,36.145v2.763H48.289a1.382,1.382,0,0,0-.977.4L40.405,46.22A1.39,1.39,0,0,0,40,47.2V72.064a4.149,4.149,0,0,0,4.145,4.145H69.012a4.149,4.149,0,0,0,4.145-4.145V33.382A1.382,1.382,0,0,0,71.775,32Zm-6.908,4.145a1.383,1.383,0,0,1,1.382-1.382h4.145v4.145H64.867ZM48.861,41.671h5.764L50.48,45.815H44.717ZM70.393,72.064a1.383,1.383,0,0,1-1.382,1.382H44.145a1.383,1.383,0,0,1-1.382-1.382V48.578h8.289a1.382,1.382,0,0,0,.977-.4l6.5-6.5H70.393Z" transform="translate(15.287 12.209)" fill="#292f30"/>
        <path id="Trazado_1018436" data-name="Trazado 1018436" d="M29.145,6.382A1.382,1.382,0,0,0,27.763,5H26.382a1.382,1.382,0,0,0,0,2.763h1.382A1.382,1.382,0,0,0,29.145,6.382Z" transform="translate(9.565 1.908)" fill="#292f30"/>
        <path id="Trazado_1018437" data-name="Trazado 1018437" d="M23.763,9H22.382a1.382,1.382,0,0,0,0,2.763h1.382a1.382,1.382,0,0,0,0-2.763Z" transform="translate(8.039 3.434)" fill="#292f30"/>
        <path id="Trazado_1018438" data-name="Trazado 1018438" d="M29.763,9H28.382a1.382,1.382,0,0,0,0,2.763h1.382a1.382,1.382,0,0,0,0-2.763Z" transform="translate(10.328 3.434)" fill="#292f30"/>
        <path id="Trazado_1018439" data-name="Trazado 1018439" d="M35.763,9H34.382a1.382,1.382,0,1,0,0,2.763h1.382a1.382,1.382,0,0,0,0-2.763Z" transform="translate(12.617 3.434)" fill="#292f30"/>
        <path id="Trazado_1018440" data-name="Trazado 1018440" d="M17.763,9H16.382a1.382,1.382,0,1,0,0,2.763h1.382a1.382,1.382,0,0,0,0-2.763Z" transform="translate(5.749 3.434)" fill="#292f30"/>
        <path id="Trazado_1018441" data-name="Trazado 1018441" d="M50.731,83.905c-8.115,2.406-23.662,2.52-32.321-.93a1.376,1.376,0,0,0-.822-.063L5.847,85.621a1.387,1.387,0,0,1-1.661-1.659L6.576,73.6a1.386,1.386,0,0,0-.142-.987C-.677,59.956,3.787,41.567,9.7,33.156H62.156a40.215,40.215,0,0,1,5.826,14.109,1.382,1.382,0,1,0,2.7-.588,44.663,44.663,0,0,0-5.446-13.884A4.145,4.145,0,0,0,67.7,29.012V22.1a4.149,4.149,0,0,0-4.145-4.145h-.211a17.349,17.349,0,0,0-2.216-5.612c-1.954-3.115-5.836-6.681-13.114-5.992-2.473.065-3.4-1.307-4.474-2.891-.136-.2-.271-.4-.4-.592C41.871,1.074,39.174,0,35.925,0s-5.943,1.074-7.209,2.873c-.134.191-.268.39-.4.592-1.07,1.585-1.989,2.965-4.379,2.9-7.366-.689-11.254,2.872-13.209,5.986A17.349,17.349,0,0,0,8.508,17.96H8.3A4.149,4.149,0,0,0,4.152,22.1v6.908A4.145,4.145,0,0,0,6.611,32.79C.638,42.31-3.31,60.307,3.765,73.492l-2.272,9.85a4.149,4.149,0,0,0,4.973,4.971L17.794,85.7a54.231,54.231,0,0,0,18.193,2.72,58.081,58.081,0,0,0,15.529-1.867,1.381,1.381,0,1,0-.785-2.648ZM13.064,13.817c2.242-3.573,5.81-5.156,10.7-4.7,3.98.1,5.7-2.431,6.834-4.107l.374-.547c.716-1.017,2.705-1.7,4.95-1.7s4.236.683,4.951,1.7l.374.547a7.574,7.574,0,0,0,6.929,4.1c8.958-.843,11.6,5.77,12.34,8.847H11.342a14.3,14.3,0,0,1,1.722-4.143ZM6.915,22.1A1.383,1.383,0,0,1,8.3,20.723H63.557A1.383,1.383,0,0,1,64.939,22.1v6.908a1.383,1.383,0,0,1-1.382,1.382H8.3a1.383,1.383,0,0,1-1.382-1.382Z" transform="translate(0.019 0)" fill="#292f30"/>
        <path id="Trazado_1018442" data-name="Trazado 1018442" d="M48.145,46A4.149,4.149,0,0,0,44,50.145V61.2a4.149,4.149,0,0,0,4.145,4.145H61.96A4.149,4.149,0,0,0,66.1,61.2V50.145A4.149,4.149,0,0,0,61.96,46Zm15.2,4.145V61.2a1.383,1.383,0,0,1-1.382,1.382H48.145A1.383,1.383,0,0,1,46.763,61.2V50.145a1.383,1.383,0,0,1,1.382-1.382H61.96A1.383,1.383,0,0,1,63.341,50.145Z" transform="translate(16.813 17.55)" fill="#292f30"/>
        <path id="Trazado_1018443" data-name="Trazado 1018443" d="M27.145,55.763a1.382,1.382,0,1,0,0-2.763H24.382a1.382,1.382,0,1,0,0,2.763Z" transform="translate(8.802 20.221)" fill="#292f30"/>
        <path id="Trazado_1018444" data-name="Trazado 1018444" d="M22.382,59.763h8.289a1.382,1.382,0,1,0,0-2.763H22.382a1.382,1.382,0,1,0,0,2.763Z" transform="translate(8.039 21.747)" fill="#292f30"/>
        <path id="Trazado_1018445" data-name="Trazado 1018445" d="M21.145,53H18.382a1.382,1.382,0,1,0,0,2.763h2.763a1.382,1.382,0,1,0,0-2.763Z" transform="translate(6.512 20.221)" fill="#292f30"/>
        <path id="Trazado_1018446" data-name="Trazado 1018446" d="M30.382,53a1.382,1.382,0,1,0,0,2.763h2.763a1.382,1.382,0,1,0,0-2.763Z" transform="translate(11.091 20.221)" fill="#292f30"/>
      </g>
    </g>
  </g>
</svg>
