<svg xmlns="http://www.w3.org/2000/svg" width="107" height="107" viewBox="0 0 107 107">
  <g id="Grupo_1197575" data-name="Grupo 1197575" transform="translate(-492.711 -19209.262)">
    <g id="Grupo_156312" data-name="Grupo 156312" transform="translate(204.043 14760.826)">
      <path id="Elipse_5845" data-name="Elipse 5845" d="M53.5,0A53.5,53.5,0,1,1,0,53.5,53.5,53.5,0,0,1,53.5,0Z" transform="translate(288.668 4448.437)" fill="#fb9e9e"/>
    </g>
    <g id="Grupo_1197554" data-name="Grupo 1197554" transform="translate(507.338 19123.77)">
      <g id="Grupo_1197553" data-name="Grupo 1197553" transform="translate(-0.001 113.874)">
        <path id="Trazado_1018690" data-name="Trazado 1018690" d="M305.8,232.735a10.213,10.213,0,0,0-9.035-8.624,10.442,10.442,0,0,0-4.9-5.974,8.278,8.278,0,0,0-2.616-5.653l1.942-3.236H304.5a1.139,1.139,0,1,0,0-2.278H290.551a1.139,1.139,0,0,0-.976.553l-2.169,3.614a9.034,9.034,0,0,0-1.9-.774,12.966,12.966,0,0,0-1.439-5.135,1.139,1.139,0,1,0-2,1.083,11.06,11.06,0,0,1,1.211,5,1.139,1.139,0,0,0,.943,1.1,6.823,6.823,0,0,1,2.018.689l-4.555,7.589a1.139,1.139,0,1,0,1.953,1.172l4.413-7.352a5.91,5.91,0,0,1,1.548,4.264,1.139,1.139,0,0,0,.641,1.084,8.3,8.3,0,0,1,4.527,5.578,1.139,1.139,0,0,0,1.068.893,8.1,8.1,0,0,1,7.428,5.416H270.029a1.139,1.139,0,0,0,0,2.278h34.635a1.107,1.107,0,0,0,1.135-1.279Z" transform="translate(-228.062 -190.85)"/>
        <path id="Trazado_1018691" data-name="Trazado 1018691" d="M146.568,288.267a1.139,1.139,0,0,0,.282-1.586,10.83,10.83,0,0,0-8.942-4.585,7.376,7.376,0,0,0-5.769,2.784,7.053,7.053,0,0,0-8.215,5.3,1.139,1.139,0,1,0,2.217.522,4.778,4.778,0,0,1,6.129-3.436,1.139,1.139,0,0,0,1.32-.486,5.118,5.118,0,0,1,4.383-2.4,8.622,8.622,0,0,1,7.009,3.611,1.139,1.139,0,0,0,1.586.282Z" transform="translate(-105.082 -256.551)"/>
        <path id="Trazado_1018692" data-name="Trazado 1018692" d="M318.558,339.657a1.139,1.139,0,0,0,1.139-1.139v-.009a1.139,1.139,0,1,0-1.139,1.147Z" transform="translate(-269.223 -303.439)"/>
        <path id="Trazado_1018693" data-name="Trazado 1018693" d="M265.883,220.237a7.055,7.055,0,0,0-9.047-5.081,1.139,1.139,0,1,0,.7,2.167,4.777,4.777,0,0,1,6.129,3.436,1.139,1.139,0,0,0,2.217-.522Z" transform="translate(-217.169 -199.487)"/>
        <path id="Trazado_1018694" data-name="Trazado 1018694" d="M44.475,116.152h4.644a1.139,1.139,0,0,0,0-2.278H44.475a1.139,1.139,0,1,0,0,2.278Z" transform="translate(-36.756 -113.874)"/>
        <path id="Trazado_1018695" data-name="Trazado 1018695" d="M111.231,116.152h5.225a1.139,1.139,0,0,0,0-2.278h-5.225a1.139,1.139,0,0,0,0,2.278Z" transform="translate(-93.376 -113.874)"/>
        <path id="Trazado_1018696" data-name="Trazado 1018696" d="M51.8,198.513a1.139,1.139,0,0,0,0-2.278h-7.33a1.139,1.139,0,0,0,0,2.278Z" transform="translate(-36.756 -183.729)"/>
        <path id="Trazado_1018697" data-name="Trazado 1018697" d="M1.147,171.356h35.56a1.139,1.139,0,0,0,0-2.278H2.554a8.092,8.092,0,0,1,7.429-5.416,1.139,1.139,0,0,0,1.068-.893,8.177,8.177,0,0,1,4.527-5.577,1.139,1.139,0,0,0,.642-1.086,6.287,6.287,0,0,1,5.377-6.361,1.139,1.139,0,0,0,.943-1.1,9.654,9.654,0,0,1,2.642-6.894c.058-.055.118-.107.177-.16L29,147.655a1.139,1.139,0,1,0,1.953-1.172l-3.67-6.115a9.068,9.068,0,0,1,3.837-.665,1.144,1.144,0,0,0,1.163-1.048c.31-3.884,3.534-5.623,6.591-5.623s6.281,1.739,6.591,5.623A1.139,1.139,0,0,0,46.6,139.7h.027a8.969,8.969,0,0,1,4.154.809,1.139,1.139,0,1,0,.995-2.049,10.746,10.746,0,0,0-4.18-1.024c-.885-4.584-5.019-6.685-8.721-6.685s-7.837,2.1-8.721,6.685a10.885,10.885,0,0,0-4.047.966L24.056,135a1.139,1.139,0,0,0-.976-.553H7.718a1.139,1.139,0,1,0,0,2.278H22.435l1.736,2.892c-.194.157-.382.321-.564.494a11.585,11.585,0,0,0-3.3,7.6,8.559,8.559,0,0,0-6.365,7.774,10.432,10.432,0,0,0-4.895,5.974,10.2,10.2,0,0,0-9.035,8.625,1.162,1.162,0,0,0,.325.992,1.12,1.12,0,0,0,.81.285Z" transform="translate(0.001 -128.192)"/>
        <path id="Trazado_1018698" data-name="Trazado 1018698" d="M466.5,181.125h4.644a1.139,1.139,0,0,0,0-2.278H466.5a1.139,1.139,0,0,0,0,2.278Z" transform="translate(-394.7 -168.982)"/>
        <path id="Trazado_1018699" data-name="Trazado 1018699" d="M405.185,181.125H409a1.139,1.139,0,1,0,0-2.278h-3.813a1.139,1.139,0,0,0,0,2.278Z" transform="translate(-342.696 -168.982)"/>
        <path id="Trazado_1018700" data-name="Trazado 1018700" d="M456.141,261.235h-7.33a1.139,1.139,0,0,0,0,2.278h7.33a1.139,1.139,0,0,0,0-2.278Z" transform="translate(-379.698 -238.86)"/>
      </g>
    </g>
  </g>
</svg>
