<svg xmlns="http://www.w3.org/2000/svg" xmlns:xlink="http://www.w3.org/1999/xlink" width="396.001" height="486.725" viewBox="0 0 396.001 486.725">
  <defs>
    <clipPath id="clip-path">
      <rect id="Rectángulo_462522" data-name="Rectángulo 462522" width="55.748" height="94.601" fill="#edf5d7"/>
    </clipPath>
    <clipPath id="clip-path-2">
      <rect id="Rectángulo_462523" data-name="Rectángulo 462523" width="396" height="452.248" fill="#edf5d7"/>
    </clipPath>
    <clipPath id="clip-path-3">
      <rect id="Rectángulo_462793" data-name="Rectángulo 462793" width="396" height="152.977" fill="none"/>
    </clipPath>
    <clipPath id="clip-path-4">
      <rect id="Rectángulo_462794" data-name="Rectángulo 462794" width="215.46" height="360.794" transform="translate(0 0)" fill="none"/>
    </clipPath>
  </defs>
  <g id="Grupo_1197574" data-name="Grupo 1197574" transform="translate(-1018 -17975.664)">
    <g id="Grupo_1197318" data-name="Grupo 1197318" transform="translate(372.764 18211.141)" style="isolation: isolate">
      <g id="Grupo_1197046" data-name="Grupo 1197046" transform="translate(690.162 27.108)" style="isolation: isolate">
        <g id="Grupo_1197045" data-name="Grupo 1197045" clip-path="url(#clip-path)">
          <path id="Trazado_1015451" data-name="Trazado 1015451" d="M235.3,1107.753c-6.825-6.564-42.473-25.772-38.033,4.595,1.913,13.108,13.909,22.795,17,35.891,2.521,10.723-3.813,28.165,3.2,37.472,12.034,15.97,31.257-13.977,33.569-24.132a55.091,55.091,0,0,0-.338-27.691,57.891,57.891,0,0,0-15.4-26.135" transform="translate(-196.891 -1095.709)" fill="#edf5d7" fill-rule="evenodd"/>
        </g>
      </g>
      <g id="Grupo_1197049" data-name="Grupo 1197049" transform="translate(645.237 -201)" style="isolation: isolate">
        <g id="Grupo_1197048" data-name="Grupo 1197048" clip-path="url(#clip-path-2)">
          <path id="Trazado_1015452" data-name="Trazado 1015452" d="M275.391,1.678C228.977-4.688,119.9,5.787,54.284,55.806,23.808,79.035-10,111.219,2.772,151.334,22.953,214.738,90.054,209.35,110.61,258.5c24.812,59.313-68.324,123.965,2.595,175.568,9.537,6.938,21.319,11.676,33.015,14.425,24.991,5.881,52.73,4.372,77.714-1.172C338.3,421.952,377.727,300.247,393.985,205.339c10.8-63.017-23.656-157.83-59.844-181.488a145.259,145.259,0,0,0-58.75-22.173" transform="translate(0 -0.002)" fill="#edf5d7" fill-rule="evenodd"/>
        </g>
      </g>
    </g>
    <g id="Grupo_1197550" data-name="Grupo 1197550" transform="translate(1018 18309.412)">
      <g id="Grupo_1197549" data-name="Grupo 1197549" clip-path="url(#clip-path-3)">
        <path id="Trazado_1018585" data-name="Trazado 1018585" d="M.036,104.29C-.6,91.055,7.085,74.883,16.905,68.363,45.915,49.1,98.748,53.357,123.243,52.239c49.942-2.279,93.959-5.607,143.8-1.22a705.23,705.23,0,0,1,75,10.657c25.354,5.013,47.419,10.184,52.149,38.283,4.482,26.63,2.547,59.977-28.521,69.563-41.483,12.8-100.664,11.435-152.036,20.38-26.411,4.6-53.608-.893-80.36-2.575-27.679-1.741-58.167-.684-84.363-10.7-12.518-4.787-19.337-14.911-24.621-26.676-2.732-6.084-4.449-13.1-7.937-18.793C12.34,124.6,5.32,120.371,2.069,113.258A24.354,24.354,0,0,1,.036,104.29" transform="translate(0.001 -38.72)" fill="#83b34f"/>
        <path id="Trazado_1018586" data-name="Trazado 1018586" d="M124.136,375.968c3.333-5.552,11.534-6.4,17.281-7.163,18.072-2.414,36.245.819,54.377.562a.7.7,0,0,1,.242-.095c6.018-1.026,12.714-1.518,18.341,1.334,4.42,2.239,8.08,6.555,4.722,11.322-3.731,5.3-11.621,6.747-17.543,7.574-8.281,1.157-16.67.808-24.974.1-8.789-.747-17.551-1.912-26.376-2.178a105.693,105.693,0,0,0-11.718.283c-3.455.279-7.13.708-10.406-.733-4.447-1.956-6.567-6.646-3.948-11.007" transform="translate(101.339 -351.399)" fill="#538729"/>
        <path id="Trazado_1018587" data-name="Trazado 1018587" d="M573.408,205.9c16.851,6.081,58.412.408,94.926,1.95,25.956,1.1,53.413-.9,78.293-7.594,9.571-2.576,19.442-7.31,21.764-15.637a16.733,16.733,0,0,0-.779-10.41,39.836,39.836,0,0,0-3.715-7.189c-1.618-2.621-25.4-21.925-24.7-27.647.824-6.56-3.385-13-9.212-17.105s-13.091-6.246-20.281-7.954c-18.633-4.433-20.538-3.643-39.7-4.392-19.966-.779-39.933-.209-59.9-.15-15.982.045-34.81,1.63-50.807,2.813-13.96,1.019-37.255,2.231-41.21,17.734-2.322,9.122,12,23.787,14.682,32.741,9.025,30.137,21.3,35.864,40.629,42.841" transform="translate(-480.46 -86.768)" fill="#b0583a"/>
        <path id="Trazado_1018588" data-name="Trazado 1018588" d="M518.985,392.155c1.917-3.22,5.482-4.853,9.257-5.8a39.836,39.836,0,0,1,3.715,7.19,16.731,16.731,0,0,1,.779,10.41c-3.265.27-6.725.554-9.8-.794-4.448-1.962-6.575-6.65-3.954-11.009" transform="translate(-244.804 -306.105)" fill="#6e2f15"/>
        <path id="Trazado_1018589" data-name="Trazado 1018589" d="M690.828,136.247a3.184,3.184,0,0,1,.648-1.358,1.943,1.943,0,0,1,2.346-.552,2.487,2.487,0,0,1,.957,1.289c.674,1.692.513,7.614-2.846,5.069a3.959,3.959,0,0,1-1.243-3.36,5.721,5.721,0,0,1,.137-1.087" transform="translate(-442.565 -106.274)" fill="#fff"/>
        <path id="Trazado_1018590" data-name="Trazado 1018590" d="M637.778,295.51a1.825,1.825,0,0,1,.585-1,3.488,3.488,0,0,1,4.133.033c2.408,2.043-.953,3.207-2.669,2.914a2.483,2.483,0,0,1-1.957-1.085,1.371,1.371,0,0,1-.092-.86" transform="translate(-379.806 -232.81)" fill="#ffdac1"/>
        <path id="Trazado_1018591" data-name="Trazado 1018591" d="M850.512,381.662a4.309,4.309,0,0,1-3.831,2.761c-1.76.321-3.908-.021-4.436-2-1.225-4.6,9.111-3.859,8.267-.759" transform="translate(-629.488 -300.398)" fill="#fff"/>
        <path id="Trazado_1018592" data-name="Trazado 1018592" d="M902.247,372.619c.73-1.346,3.887-.921,3.89.634a1.419,1.419,0,0,1-.637,1.055,2.477,2.477,0,0,1-2.117.5,1.717,1.717,0,0,1-1.282-1.645,1.258,1.258,0,0,1,.147-.54" transform="translate(-697.516 -294.581)" fill="#ffdac1"/>
        <path id="Trazado_1018593" data-name="Trazado 1018593" d="M982.382,158.254a2.127,2.127,0,0,1,.305-.578,2.88,2.88,0,0,1,1.947-1.048,6.119,6.119,0,0,1,2.248.205,3.066,3.066,0,0,1,1.478.7c1.415,1.417-1.306,3.624-2.549,3.986a2.913,2.913,0,0,1-2.97-.83,2.55,2.55,0,0,1-.458-2.435" transform="translate(-796.786 -124.067)" fill="#fff"/>
        <path id="Trazado_1018594" data-name="Trazado 1018594" d="M796.79,179.529a2,2,0,0,1,1.656-1.182c2.565-.25,2.848,2.716.162,3.009a1.683,1.683,0,0,1-1.881-1.234,1.221,1.221,0,0,1,.063-.593" transform="translate(-569.991 -141.29)" fill="#ffdac1"/>
        <path id="Trazado_1018595" data-name="Trazado 1018595" d="M639.549,445.043q22.662-.744,45.334-1.076c7.153-.1,14.332-.325,21.478.073,6.815.38,13.519,2.149,20.333,2.278,7.121.135,14.208-1.378,21.3-1.862,7.148-.488,14.318-.48,21.479-.4,15.166.159,30.389.591,45.339-2.44.941-.191,1.344,1.253.4,1.444-14.131,2.866-28.519,2.7-42.868,2.528-7.64-.094-15.29-.173-22.921.28-7.113.423-14.178,1.865-21.3,1.953-6.844.085-13.535-1.722-20.342-2.192-7.61-.525-15.27-.269-22.891-.16q-22.672.325-45.334,1.075c-.964.032-.963-1.466,0-1.5" transform="translate(-552.443 -349.868)" fill="#6e2f15"/>
        <path id="Trazado_1018596" data-name="Trazado 1018596" d="M696.587,326.18c6.865-.986,13.763-1.677,20.692-1.984,7.2-.318,14.417-.042,21.6-.571,6.563-.482,12.9-1.491,19.488-.7,7.176.86,14.222,2.148,21.481,2.044,7.158-.1,14.074-2.134,21.213-2.265,6.791-.125,13.59.814,20.381.988,14.826.381,29.638-.675,44.416-1.726.962-.068.958,1.43,0,1.5-14.287,1.016-28.6,2.036-42.936,1.759-7.282-.141-14.583-1.155-21.861-1.021-6.654.122-13.117,2-19.775,2.23A104.738,104.738,0,0,1,762.444,325c-7.684-1.123-14.465-.65-22.133.013-6.682.577-13.394.377-20.091.576a206.639,206.639,0,0,0-23.234,2.039c-.943.136-1.35-1.308-.4-1.444" transform="translate(-615.161 -255.086)" fill="#6e2f15"/>
        <path id="Trazado_1018597" data-name="Trazado 1018597" d="M785.3,212.041l40.92-1.623c6.707-.266,13.423-.648,20.135-.741,6.938-.1,13.7.955,20.608,1.352,6.713.386,13.34-.752,20.035-.99,6.753-.24,13.53-.083,20.286-.066l41.769.107a.749.749,0,0,1,0,1.5l-41.036-.105c-6.763-.017-13.544-.167-20.305.039-6.931.211-13.8,1.414-20.75,1.014-6.666-.383-13.213-1.422-19.91-1.359s-13.407.454-20.1.719L785.3,213.539c-.964.038-.962-1.46,0-1.5" transform="translate(-716.742 -166.119)" fill="#6e2f15"/>
        <path id="Trazado_1018598" data-name="Trazado 1018598" d="M702.852,376.856a1.808,1.808,0,0,1,.888-.586c1.263-.364,2.443.754,3.2,1.831a36.964,36.964,0,0,1,3.917,7.889,21.783,21.783,0,0,1,2.444-6.223c1.14-1.743,6.249-6.032,6.953-2.036.9,5.092-3.336,10.7-6.4,14.322-1.552,1.835-2.777,1.33-4.391-.109a32,32,0,0,1-3.852-4.5c-1.8-2.331-3.334-5.027-3.473-7.968a3.913,3.913,0,0,1,.714-2.617" transform="translate(-470.216 -297.961)" fill="#b8d985"/>
        <path id="Trazado_1018599" data-name="Trazado 1018599" d="M743.984,424.194c.033-.961,1.531-.966,1.5,0a39.959,39.959,0,0,0,.146,5.058c.089.959-1.41.953-1.5,0a39.993,39.993,0,0,1-.146-5.058" transform="translate(-504.164 -335.51)" fill="#89ab55"/>
        <path id="Trazado_1018600" data-name="Trazado 1018600" d="M820.166,251.746a12.454,12.454,0,0,1,.162-5.723,2.664,2.664,0,0,1,.665-1.313,1.9,1.9,0,0,1,1.823-.33,3.888,3.888,0,0,1,1.593,1.069c2.6,2.659,3.132,6.694,3.08,10.412,1.033-1.46,3.989-5.838,6.165-3.637.956.967.732,2.593.148,3.821a14.527,14.527,0,0,1-4.771,5.184,5.827,5.827,0,0,1-3.7,1.489,6.168,6.168,0,0,1-2.984-1.389,32.534,32.534,0,0,1-5.09-4.2c-1.543-1.661-2.8-3.825-2.55-6.079.074-.669.379-1.423,1.031-1.589a1.812,1.812,0,0,1,1.05.139,9.3,9.3,0,0,1,3.374,2.15" transform="translate(-607.528 -193.543)" fill="#b8d985"/>
        <path id="Trazado_1018601" data-name="Trazado 1018601" d="M846.27,305.089l.074-.109a9.669,9.669,0,0,0,.786-1.972c.268-.727.506-1.463.727-2.206a.75.75,0,0,1,1.445.4c-.289.971-.611,1.93-.981,2.874a8,8,0,0,1-.888,2.013.57.57,0,0,1-.082.1c-.024.025-.041.064-.066.085-.485.421-1.418.073-1.281-.637a1.531,1.531,0,0,1,.267-.55" transform="translate(-629.061 -237.904)" fill="#89ab55"/>
        <path id="Trazado_1018602" data-name="Trazado 1018602" d="M855.87,281.384a2.86,2.86,0,0,1,.757.745,32.528,32.528,0,0,1,3.9,5.928c.284.6.187,1.979-.839,1.375a2.1,2.1,0,0,1-.724-1.044,23.727,23.727,0,0,0-4.007-5.8,1.144,1.144,0,0,1-.375-.755c.024-.45.6-.7,1.027-.567a1.228,1.228,0,0,1,.258.114" transform="translate(-642.179 -222.818)" fill="#89ab55"/>
        <path id="Trazado_1018603" data-name="Trazado 1018603" d="M905.312,130.85a1.8,1.8,0,0,1,.7-.8c1.125-.68,2.555.092,3.563.935,2.257,1.889,2.015,2.765,3.761,5.135-.668-.906.231-4.772.5-5.812.543-2.086,2.261-5.6,4.7-5.99,3.022-.484,2.189,6.04,2.019,7.637,2.364-2.064,5.858-4.163,5.567.212-.276,4.143-4.106,7.047-7.3,9.118-1.706,1.106-3.134,2.048-5.211,1.239-2.736-1.067-5.656-4.519-7.226-6.913-.846-1.289-1.791-3.237-1.075-4.763" transform="translate(-718.137 -98.477)" fill="#b8d985"/>
        <path id="Trazado_1018604" data-name="Trazado 1018604" d="M933.641,164.794a12.46,12.46,0,0,1,1.155,1.368,20.479,20.479,0,0,1,3.859-5.8c.663-.7,1.72.357,1.059,1.059a18.8,18.8,0,0,0-4.778,9.214c-.2.943-1.64.544-1.444-.4a20.523,20.523,0,0,1,.654-2.381,10.812,10.812,0,0,0-1.564-2.006.749.749,0,0,1,1.059-1.059" transform="translate(-737.59 -126.872)" fill="#89ab55"/>
        <path id="Trazado_1018605" data-name="Trazado 1018605" d="M1361.884,264.422a6.736,6.736,0,0,1-3.492.493,7.525,7.525,0,0,1-3.186-2.037c-2.848-2.529-6.2-5.975-5.847-10.112.37-4.369,3.509-1.769,5.536.628.072-1.6.229-8.179,3.145-7.247,2.35.752,3.519,4.485,3.743,6.629.111,1.069.148,4.781.148,4.781,0-.07.581-.352.629-.382a12.811,12.811,0,0,1,3.639-1.88,1.985,1.985,0,0,1,2.487,1.24c1.043,3.525-4.087,6.947-6.8,7.889" transform="translate(-1253.101 -194.947)" fill="#b8d985"/>
        <path id="Trazado_1018606" data-name="Trazado 1018606" d="M1389.215,286.368a12.431,12.431,0,0,0-1.347,1.179,20.476,20.476,0,0,0-2.944-6.311c-.549-.795-1.754.095-1.206.888a18.8,18.8,0,0,1,3.338,9.828c.052.962,1.539.784,1.488-.177a20.535,20.535,0,0,0-.289-2.452,10.81,10.81,0,0,1,1.848-1.748.749.749,0,0,0-.888-1.206" transform="translate(-1281.792 -222.573)" fill="#89ab55"/>
        <path id="Trazado_1018607" data-name="Trazado 1018607" d="M1077.587,258.587c.171.067.339.139.5.212-.772-2.625-1.389-5.475-.476-8.055.4-1.138,1.361-2.3,2.558-2.151,1.137.146,1.771,1.367,2.144,2.451a28.783,28.783,0,0,1,1.561,8.8,23.515,23.515,0,0,0,2.259-3.132,6.69,6.69,0,0,1,2.822-2.562,3,3,0,0,1,3.5.774,3.335,3.335,0,0,1,.507,2.147c-.193,3.411-3.1,5.952-5.78,8.073-2.087,1.651-3.677,2.98-6.287,1.506a24.66,24.66,0,0,1-5.15-4.355,4.559,4.559,0,0,1-1.077-1.769,1.857,1.857,0,0,1,.5-1.91,2.422,2.422,0,0,1,2.413-.026" transform="translate(-920.182 -196.946)" fill="#b8d985"/>
        <path id="Trazado_1018608" data-name="Trazado 1018608" d="M1117.67,297.76a27.009,27.009,0,0,1,3.215,2.867c.227-.46.434-.928.7-1.371a.749.749,0,0,1,1.293.756,17.811,17.811,0,0,0-1.89,4.419.75.75,0,0,1-1.445-.4,19.479,19.479,0,0,1,.682-1.95,24.544,24.544,0,0,0-3.31-3.029c-.761-.572-.016-1.873.756-1.293" transform="translate(-958.921 -235.795)" fill="#89ab55"/>
        <path id="Trazado_1018609" data-name="Trazado 1018609" d="M1455.326,141.116a1.858,1.858,0,0,1,.5,1.91,4.561,4.561,0,0,1-1.077,1.769,24.672,24.672,0,0,1-5.15,4.355c-2.61,1.474-4.2.145-6.287-1.506-2.68-2.121-5.588-4.662-5.781-8.073a3.337,3.337,0,0,1,.507-2.147,3,3,0,0,1,3.5-.774,6.691,6.691,0,0,1,2.822,2.562,23.5,23.5,0,0,0,2.259,3.132,28.793,28.793,0,0,1,1.561-8.8c.374-1.084,1.007-2.306,2.144-2.451,1.2-.153,2.156,1.013,2.558,2.151.912,2.579.3,5.43-.476,8.055.16-.073.327-.146.5-.212a2.422,2.422,0,0,1,2.413.026" transform="translate(-1358.5 -103.855)" fill="#b8d985"/>
        <path id="Trazado_1018610" data-name="Trazado 1018610" d="M1458.54,180.263a26.929,26.929,0,0,0-3.215,2.867c-.227-.46-.434-.928-.7-1.371a.75.75,0,0,0-1.294.756,17.808,17.808,0,0,1,1.89,4.419.75.75,0,0,0,1.444-.4,19.431,19.431,0,0,0-.682-1.95,24.527,24.527,0,0,1,3.31-3.029c.761-.572.016-1.873-.756-1.293" transform="translate(-1365.471 -142.704)" fill="#89ab55"/>
        <path id="Trazado_1018611" data-name="Trazado 1018611" d="M969.134,380.085a1.805,1.805,0,0,1,.7-.8c1.124-.68,2.555.092,3.563.935a36.944,36.944,0,0,1,5.837,6.6,21.79,21.79,0,0,1,.739-6.645c.546-1.669,2.57-4.855,4.459-5.157,3.022-.483,2.189,6.04,2.019,7.637,2.364-2.064,5.858-4.163,5.567.212-.276,4.143-4.106,7.047-7.3,9.118-1.706,1.106-3.134,2.048-5.211,1.238-1.932-.754-3.341-2.407-4.957-3.637-2.342-1.783-4.528-3.986-5.429-6.788a3.913,3.913,0,0,1,.008-2.712" transform="translate(-797.293 -297.1)" fill="#b8d985"/>
        <path id="Trazado_1018612" data-name="Trazado 1018612" d="M997.241,415.561a16.515,16.515,0,0,1,.842,1.548,23.307,23.307,0,0,1,3.952-5.684c.666-.7,1.724.36,1.059,1.059a21.581,21.581,0,0,0-4.972,8.4c-.292.915-1.739.524-1.445-.4.165-.517.377-1.007.575-1.507a15.337,15.337,0,0,0-1.3-2.659c-.507-.823.788-1.576,1.293-.756" transform="translate(-814.154 -325.784)" fill="#89ab55"/>
        <path id="Trazado_1018613" data-name="Trazado 1018613" d="M1181.746,136.653c-.139,2.94-1.676,5.637-3.473,7.968a31.982,31.982,0,0,1-3.853,4.5c-1.613,1.438-2.839,1.944-4.39.109a32.654,32.654,0,0,1-5.6-8.289c-.726-1.754-2.353-8.328,1.511-7.691,1.721.284,3.729,2.287,4.649,3.694a21.79,21.79,0,0,1,2.444,6.223,36.976,36.976,0,0,1,3.917-7.889c.754-1.077,1.934-2.195,3.2-1.831a1.8,1.8,0,0,1,.888.586,3.912,3.912,0,0,1,.715,2.617" transform="translate(-1027.421 -105.54)" fill="#b8d985"/>
        <path id="Trazado_1018614" data-name="Trazado 1018614" d="M1204.347,182.019c.318-.9,1.766-.514,1.444.4a25.449,25.449,0,0,0-1.2,4.861c-.137.951-1.58.546-1.444-.4a25.4,25.4,0,0,1,1.2-4.861" transform="translate(-1059.749 -143.805)" fill="#89ab55"/>
        <path id="Trazado_1018615" data-name="Trazado 1018615" d="M1287.247,374.105a1.809,1.809,0,0,1,.888-.586c1.263-.364,2.443.754,3.2,1.831a36.959,36.959,0,0,1,3.917,7.889,21.793,21.793,0,0,1,2.444-6.223c.92-1.407,2.928-3.41,4.649-3.694,3.864-.638,2.238,5.936,1.511,7.691a32.653,32.653,0,0,1-5.6,8.289c-1.551,1.835-2.777,1.33-4.39-.109a31.97,31.97,0,0,1-3.852-4.5c-1.8-2.331-3.334-5.028-3.473-7.968a3.911,3.911,0,0,1,.714-2.617" transform="translate(-1176.052 -295.743)" fill="#b8d985"/>
        <path id="Trazado_1018616" data-name="Trazado 1018616" d="M1323.425,422.088c-.318-.9-1.766-.514-1.444.4a25.447,25.447,0,0,1,1.2,4.861c.137.951,1.58.546,1.444-.4a25.384,25.384,0,0,0-1.2-4.861" transform="translate(-1203.216 -334.008)" fill="#89ab55"/>
        <path id="Trazado_1018617" data-name="Trazado 1018617" d="M680.322.171a1.625,1.625,0,0,1,1.423-.014,2.432,2.432,0,0,1,1.205,1.774c.238,1.286-.4,4.054-2.245,2.474a3.653,3.653,0,0,1-.984-2.221A2.35,2.35,0,0,1,679.8.673a1.208,1.208,0,0,1,.52-.5" transform="translate(-428.17 0)" fill="#ffdac1"/>
        <path id="Trazado_1018618" data-name="Trazado 1018618" d="M640.611,37.387c1.133.57,1.3,1.994,1.161,3.113a4.768,4.768,0,0,1-.321,1.208,1.987,1.987,0,0,1-.764,1.109,1.3,1.3,0,0,1-2.067-.655c-.5-1.291-.641-6.1,1.991-4.775" transform="translate(-378.406 -29.44)" fill="#ffdac1"/>
        <path id="Trazado_1018619" data-name="Trazado 1018619" d="M402.16,565.8c.616-.743,1.67.322,1.059,1.059a27.389,27.389,0,0,0-5.836,12.382c-.185.945-1.629.545-1.444-.4A28.949,28.949,0,0,1,402.16,565.8" transform="translate(-89.642 -448.076)" fill="#538729"/>
        <path id="Trazado_1018620" data-name="Trazado 1018620" d="M456.765,577.139c.281-.919,1.728-.527,1.444.4a39.454,39.454,0,0,0-1.55,7.652c-.095.95-1.594.96-1.5,0a41.436,41.436,0,0,1,1.6-8.05" transform="translate(-156.789 -456.843)" fill="#538729"/>
        <path id="Trazado_1018621" data-name="Trazado 1018621" d="M498.02,585.214a16.816,16.816,0,0,1,7.386,4.772c.643.715-.413,1.778-1.059,1.059a15.314,15.314,0,0,0-6.725-4.387c-.913-.3-.522-1.743.4-1.444" transform="translate(-212.862 -463.624)" fill="#538729"/>
      </g>
    </g>
    <g id="Grupo_1197552" data-name="Grupo 1197552" transform="translate(1149.526 17975.664)">
      <g id="Grupo_1197551" data-name="Grupo 1197551" transform="translate(0 0)" clip-path="url(#clip-path-4)">
        <path id="Trazado_1018622" data-name="Trazado 1018622" d="M448.975,332.958c1.512-6.7,6.354-11.081,11.411-15.325a99.072,99.072,0,0,0,12.831-13.113c.094-.153.2-.3.289-.456,3.764-6.167,6.4-12.784,9.787-19.13a54.472,54.472,0,0,1,24.128-23.021,1.191,1.191,0,0,1,1.656.706,1.1,1.1,0,0,1,.382.539c1.931,6.054.648,13.314.107,19.543-.621,7.151-1.568,14.256-1.761,21.439a165.622,165.622,0,0,1-5.8,40.91c-1.431,5.164-2.268,10.956-6.645,14.51-7.83,6.359-21.13,10.759-30.841,6.312-5.071-2.322-9.173-8.235-11.806-12.987-3.3-5.953-5.269-13.149-3.739-19.926" transform="translate(-403.096 -198.697)" fill="#ffdac1"/>
        <path id="Trazado_1018623" data-name="Trazado 1018623" d="M610.026,599s.438.576,1.176,1.406c2.235,2.581,7.352,7.605,11.063,5.093,2.12-1.429,2.235-4.886,1.5-8.758-1.244-6.753-5.094-14.75-5.37-15.349l-.023-.023Z" transform="translate(-555.724 -441.266)" fill="#2b1818"/>
        <path id="Trazado_1018624" data-name="Trazado 1018624" d="M490.148,448.051A81.255,81.255,0,0,0,508.67,476.2a1.153,1.153,0,0,1-1.63,1.63,84.071,84.071,0,0,1-19.115-29.161c-.542-1.381,1.686-1.98,2.222-.613" transform="translate(-411.116 -339.489)" fill="#deaf87"/>
        <path id="Trazado_1018625" data-name="Trazado 1018625" d="M187.328,121.462a5.353,5.353,0,0,0-2.128-.49,1.153,1.153,0,0,1,.11-2.3c4.1.136,6.137,3.625,7.782,7.089,1.174,2.472.974,4.9,3.04,6.775,2.087,1.892,4.146,1.27,6.648,2.26a10.9,10.9,0,0,1,4.063,2.826c1.919,2.157,1.552,2.632,4.768,4.019,3.567,1.539,5.69,3.369,7,7.085a1.159,1.159,0,0,1-.871,1.378,17.683,17.683,0,0,1-11.685-1.639c-4.159,1.687-9.067-.4-12.439-3.514-5.429,1.018-12.326-1.246-14.731-6.136-3.205-6.517,3.741-13.507,8.439-17.35" transform="translate(-46.114 -90.071)" fill="#ffcd78"/>
        <path id="Trazado_1018626" data-name="Trazado 1018626" d="M285.452,29.76a29.472,29.472,0,0,1,2.265-5.891,9.226,9.226,0,0,1-.7-9.608,10.467,10.467,0,0,1,5.787-4.755A19.617,19.617,0,0,1,306.7.223a19.933,19.933,0,0,1,5.976.008c1.466.232,2.817.919,4.276,1.289a21.22,21.22,0,0,0,4.188.245,22.981,22.981,0,0,1,8.441,2.018,21.038,21.038,0,0,1,11.192,12.555c3.9,12-3.861,23.881-13.168,30.844a1.242,1.242,0,0,1-1.959-1.016,1.168,1.168,0,0,1-.229-.518,54.466,54.466,0,0,1-.346-11.138c.37-6.789,1.416-12.761-6.352-15.831a85.566,85.566,0,0,0-11.2-3.649c-4.083-.979-7.579-1.215-10.6,3a10.713,10.713,0,0,0-1.939,5.353,9.206,9.206,0,0,0,.589,4.112c.864.271,1.722,4.051,1.721,4.073.249,1.073-3.1,3.037-3.759,3.351a6.757,6.757,0,0,1-6.282.139c-1.48-.9-2.3-2.671-1.8-5.3" transform="translate(-195.104 -0.001)" fill="#ffcd78"/>
        <path id="Trazado_1018627" data-name="Trazado 1018627" d="M477.7,97.029a9.207,9.207,0,0,0,.589,4.112c.864.272,1.722,4.051,1.721,4.074.249,1.073-3.1,3.036-3.759,3.351a6.757,6.757,0,0,1-6.283.139c.046-4.358,4.1-9.034,7.732-11.676" transform="translate(-377.817 -73.646)" fill="#e38c3f"/>
        <path id="Trazado_1018628" data-name="Trazado 1018628" d="M291.781,154.313c.056.2.126.437.181.64.07.234.148.445.218.679a23.491,23.491,0,0,0,7.416-2.895,24.389,24.389,0,0,0,7.881-7.472c-.174-.952-.333-1.872-.484-2.815-.242-1.551,2.119-2.058,2.376-.475.692,4.172,1.354,8.359,2.4,12.471,1.007,4.073,2.928,12.552,7.253,14.334,1.414.6.595,2.933-.819,2.331-.113-.04-.21-.126-.3-.158l-.008.023c-3.667,6.464-12.839,9.37-19.745,8.07-4.91-.913-6.633-4.321-6.563-8.277a17.754,17.754,0,0,1,.877-5.244c-.765-3.1-1.615-6.172-2.579-9.209-.091-.32-.189-.616-.288-.913-.495-1.483,1.692-2.575,2.186-1.091" transform="translate(-174.068 -107.027)" fill="#ffa17f"/>
        <path id="Trazado_1018629" data-name="Trazado 1018629" d="M342.615,179.511a20.977,20.977,0,0,1,7.634-2.216,31.1,31.1,0,0,1,5.311-.229c.092-.911.144-1.783.172-2.585.025-1.589,2.408-1.433,2.382.156-.11,6.457-2.03,14.163-7.329,18.4a10.329,10.329,0,0,1-8.548,2.287,17.761,17.761,0,0,1,.877-5.244c-.765-3.1-1.615-6.172-2.579-9.209a11.884,11.884,0,0,1,2.079-1.365" transform="translate(-224.72 -131.586)" fill="#de6340"/>
        <path id="Trazado_1018630" data-name="Trazado 1018630" d="M153.75,246.5c.83-5.347,4.609-9.956,9.1-12.814a20.947,20.947,0,0,1,1.982-1.13h.023c2.051-1.06,4.241-1.867,6.361-2.742.646-.254,2.835-.9,4.794-1.59,1.682-.6,3.181-1.244,3.342-1.706.346-1.244.853-2.466,1.844-2.927.622-.322,1.221.046,1.867-.023,3.042-.323,6.545,1.291,9.887.9,3.157-.392,6.108-2.3,9.219-3,4.148-.922,5.278,1.5,7.767,4.126,1.959,2.051,4.7,2.351,7.467,2.512,1.152.046,2.282.092,3.365.208a84.233,84.233,0,0,1,8.689,1.175,18.215,18.215,0,0,1,4.31,1.429c6.914,3.411,5.554,11.846,4.863,18.438-.046.461-.138.922-.185,1.383.991,5.739,1.475,11.593,2.144,17.354,1.268,11.086,3.157,22.287,3.042,33.464-.069,7.675-.991,14.842-8.781,18.277-9.242,4.033-19.5-.853-28.832-1.844a1.25,1.25,0,0,1-.876-1.936c-12.077.761-24.684,3.388-36.023-1.706-10.6-4.771-13.9-14.451-15.05-25.329-.783-7.214-.83-14.52-.945-21.733-.115-6.845-.438-14.012.622-20.788" transform="translate(-65.048 -167.95)" fill="#ffdac1"/>
        <path id="Trazado_1018631" data-name="Trazado 1018631" d="M317.833,31.819c4.423-9.261,19.47-14.441,29.92-5.371a25.122,25.122,0,0,1,8.227,15.244c1.932,12.507-4.9,26.54-17.72,30.109-4.872,1.357-10.34,1.28-14.542-1.554-3.815-2.573-5.936-7.123-7.407-11.472-2.594-7.67-2.13-19.315,1.521-26.957" transform="translate(-216.676 -16.484)" fill="#ffa17f"/>
        <path id="Trazado_1018632" data-name="Trazado 1018632" d="M397.015,128.481a1.915,1.915,0,0,1,1.671.262,3.468,3.468,0,0,1,1.114,1.342,4.027,4.027,0,0,1,.481,2.257,2.185,2.185,0,0,1-2.758,2.038,2.736,2.736,0,0,1-1.259-.96,3.81,3.81,0,0,1-.577-3.354,2.4,2.4,0,0,1,1.328-1.585" transform="translate(-280.157 -97.449)" fill="#2b1818"/>
        <path id="Trazado_1018633" data-name="Trazado 1018633" d="M451.126,122.469a1.915,1.915,0,0,1,1.671.262,3.468,3.468,0,0,1,1.114,1.342,4.025,4.025,0,0,1,.481,2.257,2.185,2.185,0,0,1-2.758,2.038,2.738,2.738,0,0,1-1.259-.96,3.81,3.81,0,0,1-.577-3.354,2.4,2.4,0,0,1,1.328-1.585" transform="translate(-347.309 -92.886)" fill="#2b1818"/>
        <path id="Trazado_1018634" data-name="Trazado 1018634" d="M434.271,136.407c-.447,1.456-1.037,3.223.192,4.4,1.118,1.072-.678,2.746-1.792,1.677-1.882-1.806-1.391-4.5-.687-6.791a1.2,1.2,0,0,1,2.287.711" transform="translate(-323.309 -102.354)" fill="#de6340"/>
        <path id="Trazado_1018635" data-name="Trazado 1018635" d="M297.648,23.153a1.384,1.384,0,0,1,.184-.722c7.077-11.761,24.723-9.517,34.6-3.219a22.246,22.246,0,0,1,10.048,17.149C340.41,42.026,335,54.374,335,54.374s-.964-3.037-1.419-3.982c-1.474-3.032-1.681-6.85-3.061-10.006-.908-2.008-.649-2.541-1.176-4.714-2.251,1.681-6.545.535-9.284-1.745-2.449-2.037-3.263-5.2-5.283-7.56-1.335-1.557-3.114-2.238-4.711-3.174a38.963,38.963,0,0,0-13.236,7.75,1.166,1.166,0,0,1-1.926-.908,10.621,10.621,0,0,1,2.74-6.881" transform="translate(-198.086 -10.66)" fill="#ffcd78"/>
        <path id="Trazado_1018636" data-name="Trazado 1018636" d="M321.169,90.415c3.628-.191,5.157,3.027,5.193,6.249.039,3.444-1.325,7.534-4.946,8.7-4.1,1.314-5.551-3.938-5.77-7.018a1.277,1.277,0,0,1,.161-.7c.309-3.308,1.557-7.023,5.362-7.223" transform="translate(-186.97 -68.62)" fill="#ffa17f"/>
        <path id="Trazado_1018637" data-name="Trazado 1018637" d="M337.93,114.473a6.361,6.361,0,0,0,.157,2.9c.426,1.517-1.943,1.994-2.365.491a8.062,8.062,0,0,1-.189-3.539c.258-1.557,2.657-1.421,2.4.146" transform="translate(-203.511 -85.94)" fill="#de6340"/>
        <path id="Trazado_1018638" data-name="Trazado 1018638" d="M404.361,171.654a3.957,3.957,0,0,0,5.333-.932c.905-1.165,2.807.139,1.894,1.315a6.33,6.33,0,0,1-8.541,1.511c-1.258-.785.057-2.679,1.315-1.894" transform="translate(-293.377 -129.234)" fill="#de6340"/>
        <path id="Trazado_1018639" data-name="Trazado 1018639" d="M385.591,98.629a5.167,5.167,0,0,1,1.123-.824c2.171-1.153,4.935.155,6.175,2.129a1.592,1.592,0,0,1,.244,1.487,1.351,1.351,0,0,1-1.177.666,5.483,5.483,0,0,1-1.4-.213,9.672,9.672,0,0,0-2.75-.193,4.319,4.319,0,0,1-2.152-.126c-1.578-.736-1.011-2.011-.064-2.925" transform="translate(-270.475 -73.907)" fill="#ffcd78"/>
        <path id="Trazado_1018640" data-name="Trazado 1018640" d="M452.082,95.392a5.263,5.263,0,0,0-1-.878c-1.929-1.263-4.31-.136-5.34,1.736a1.672,1.672,0,0,0-.173,1.451,1.308,1.308,0,0,0,1.047.725,4.124,4.124,0,0,0,1.217-.128,7.435,7.435,0,0,1,2.4-.029,3.334,3.334,0,0,0,1.878,0c1.359-.633.829-1.922-.024-2.878" transform="translate(-344.828 -71.331)" fill="#ffcd78"/>
        <path id="Trazado_1018641" data-name="Trazado 1018641" d="M121.131,232.125c3.845-2.112,9.063-3.065,13.2-1.157a3.962,3.962,0,0,1,2.647,3.688c-.16,2.266-2.843,2.491-3.007,4.85-.135,1.94.532,3.7-.6,5.528a1.932,1.932,0,0,1-2.718.969c-1.943-.857-3.912-3.194-5.233-4.772a28.7,28.7,0,0,1-4.125-6.643,6.592,6.592,0,0,1-.169-2.464" transform="translate(49.422 -174.526)" fill="#ffcd78"/>
        <path id="Trazado_1018642" data-name="Trazado 1018642" d="M378.466,17.727c2.365-2.695,5.647-6.289,9.375-6.859,1.46-.223,1.973,2.025.506,2.249-3.284.5-6.238,3.93-8.331,6.315-.978,1.114-2.52-.6-1.551-1.705" transform="translate(-264.897 -8.237)" fill="#e38c3f"/>
        <path id="Trazado_1018643" data-name="Trazado 1018643" d="M291.48,149.5a19.5,19.5,0,0,0,1.671-14.888c-.4-1.432,1.854-1.931,2.249-.506a21.871,21.871,0,0,1-1.987,16.651c-.713,1.3-2.644.04-1.932-1.257" transform="translate(-150.967 -101.141)" fill="#e38c3f"/>
        <path id="Trazado_1018644" data-name="Trazado 1018644" d="M265.907,178.577a17.079,17.079,0,0,1,0,11.29,1.153,1.153,0,0,1-2.191-.718,15.037,15.037,0,0,0-.059-10.066c-.488-1.4,1.766-1.891,2.249-.506" transform="translate(-114.929 -134.917)" fill="#e38c3f"/>
        <path id="Trazado_1018645" data-name="Trazado 1018645" d="M225.571,192.845a11.943,11.943,0,0,1,2.737,10.845c-.333,1.443-2.523.721-2.191-.718a9.515,9.515,0,0,0-2.252-8.578,1.153,1.153,0,0,1,1.705-1.55" transform="translate(-67.058 -146.082)" fill="#e38c3f"/>
        <path id="Trazado_1018646" data-name="Trazado 1018646" d="M175.178,233.407a3.766,3.766,0,0,0,1.073-3.31c-.236-1.46,2.012-1.972,2.249-.506a6.208,6.208,0,0,1-1.772,5.522c-1.049,1.053-2.6-.656-1.55-1.706" transform="translate(-5.261 -173.597)" fill="#8a4a35"/>
        <path id="Trazado_1018647" data-name="Trazado 1018647" d="M315.686,660.26c0,5.232,7.306,15.856,7.306,15.856s32.266,1.429,36.484-2.028a11.662,11.662,0,0,0,2.189-3.8c5-11.57,13.183-44.2,13.183-44.2l.669-21.065L378.259,517l-47.984-12.676s-2.328,11.408-4.978,28.648c-2.051,13.229-4.264,29.869-5.762,47.408-3.457,40.333-3.849,74.65-3.849,79.882" transform="translate(-238.876 -382.786)" fill="#1b3617"/>
        <path id="Trazado_1018648" data-name="Trazado 1018648" d="M333.42,875.767a68.742,68.742,0,0,1,3-12.913,37.676,37.676,0,0,1,9.819-15.212c.7,2.465,1.188,5.035,1.722,7.54.737,3.457,1.406,6.937,2.005,10.417l-.669,21.065s-8.182,32.635-13.183,44.2c-3.941-1.175-6.661-5.3-7.951-9.242-2.65-8.228.092-16.686,2.051-24.707,1.7-7.02,2.166-14.12,3.205-21.153" transform="translate(-213.326 -643.368)" fill="#08070f"/>
        <path id="Trazado_1018649" data-name="Trazado 1018649" d="M137.047,614.01l2.085-27.657,5.966-23.047-1.906-9.6H190.44c.384,1.921,4.994,58.386,5.762,88.348s2.924,71.556-5.762,71.556c-3.459,0-37.26,1.043-40.717-2.03-8.259-5.234-7.354-22.279-10.591-39.948s-2.085-57.618-2.085-57.618" transform="translate(-14.527 -420.266)" fill="#1b3617"/>
        <path id="Trazado_1018650" data-name="Trazado 1018650" d="M162.773,814.982c3.107-9.274,3.893-19.476,5.276-29.126,1.626-11.351-.37-22.039-.036-33.366a323.01,323.01,0,0,0-5.052-69.686c-.273-1.45,1.948-2.071,2.222-.613a326.136,326.136,0,0,1,5.134,70.3c-.317,10.734,1.72,21.008.27,31.757-1.395,10.343-2.267,21.42-5.592,31.347-.469,1.4-2.7.8-2.222-.613" transform="translate(5.136 -517.159)" fill="#08070f"/>
        <path id="Trazado_1018651" data-name="Trazado 1018651" d="M290.343,410.383A166.159,166.159,0,0,1,284.581,381c-1.537-15.749,1.334-23.239-.774-24.392s-60.494-1.729-62.8,0-3.509,57.042-3.509,57.042l9.654,15.749,29.385-5.186Z" transform="translate(-127.299 -269.839)" fill="#1b3617"/>
        <path id="Trazado_1018652" data-name="Trazado 1018652" d="M388.257,712.977h.011a1.152,1.152,0,0,0,1.141-1.164c-.016-1.484-.369-36.439-1.134-43.9-.754-7.352-1.009-37.29-1.011-37.591a1.152,1.152,0,0,0-1.152-1.143H386.1a1.153,1.153,0,0,0-1.143,1.162c.011,1.236.257,30.349,1.024,37.809.752,7.352,1.117,43.32,1.121,43.683a1.154,1.154,0,0,0,1.153,1.141" transform="translate(-266.721 -477.556)" fill="#08070f"/>
        <path id="Trazado_1018653" data-name="Trazado 1018653" d="M375.24,578.113a252.837,252.837,0,0,0,33.6,1.9,1.153,1.153,0,0,1,0,2.3,252.9,252.9,0,0,1-33.6-1.9c-1.453-.18-1.471-2.487,0-2.3" transform="translate(-284.661 -438.786)" fill="#08070f"/>
        <path id="Trazado_1018654" data-name="Trazado 1018654" d="M377.742,617.7a252.889,252.889,0,0,0,33.6,1.9,1.153,1.153,0,0,1,0,2.3,252.827,252.827,0,0,1-33.6-1.9c-1.453-.18-1.471-2.487,0-2.3" transform="translate(-287.766 -468.833)" fill="#08070f"/>
        <path id="Trazado_1018655" data-name="Trazado 1018655" d="M221.051,249.647c1.152.046,2.282.092,3.365.208a84.237,84.237,0,0,1,8.689,1.175c-8.551,6.891-11.892,17.286-12.192,27.979a1.147,1.147,0,0,1-.046,2.189,63.643,63.643,0,0,0,.668,8.643c.208,1.452-2.028,2.074-2.235.6a71.585,71.585,0,0,1-.692-9.15c-1.867-.023-3.757-.023-5.623.069a1.155,1.155,0,0,1-1.152-1.152,52.092,52.092,0,0,1,9.219-30.56" transform="translate(-68.692 -189.485)" fill="#1b3617"/>
        <path id="Trazado_1018656" data-name="Trazado 1018656" d="M433.95,280.685a1.2,1.2,0,0,0,1.268,1.106c1.867-.254,3.733-.415,5.6-.6a75.963,75.963,0,0,0,1.59,9.657c.346,1.521,2.489.645,2.143-.876a74.977,74.977,0,0,1-1.5-9.058,1.249,1.249,0,0,0-.185-2.328c-.668-10.141-.138-20.512,5.347-28.463-1.959.691-4.148,1.337-4.794,1.59-2.12.876-4.31,1.682-6.361,2.742h-.023a58.587,58.587,0,0,0-3.088,26.228" transform="translate(-337.25 -189.847)" fill="#1b3617"/>
        <path id="Trazado_1018657" data-name="Trazado 1018657" d="M329.652,441.049l.14-2.3c-7.128-.438-13.808-1.913-14.294-3.159-.932-2.382-.369-18.451-.047-22.306,4.6-.212,27.861-.075,32.73.062.065,1.444.022,4.823-.131,10.082-.02.721-.034,1.213-.034,1.346h2.3c0-.126.014-.594.034-1.279.344-11.957.212-12-.822-12.345-.551-.183-12.629-.254-17.8-.276-17.8-.081-17.853.022-18.3.78-.777,1.3-1.157,22.032-.083,24.776,1.308,3.349,11.836,4.346,16.3,4.62" transform="translate(-210.418 -311.839)" fill="#08070f"/>
        <path id="Trazado_1018658" data-name="Trazado 1018658" d="M392.595,1264.622c.024,2.54.964,5.222,3.158,6.472,3.92,2.2,47.3.275,48.889-2.617a44.536,44.536,0,0,0,1.654-7.112c3-15.694,8.466-51.52,8.466-51.52s-41.225-.8-42.227,1.5c-.978,2.3-1.092,36.385-2.962,38.962-1.623,2.266-5,3.653-7.394,4.839-3.8,1.9-8.146,2.1-9.3,6.882a9.69,9.69,0,0,0-.279,2.593" transform="translate(-333.912 -918.181)" fill="#ffcd78"/>
        <path id="Trazado_1018659" data-name="Trazado 1018659" d="M403.379,1190.512a103.474,103.474,0,0,1,11.362,1.025c2.83.211,5.666.435,8.477.823,1.151.159,3.449.125,4.351,1.061,1.538,1.6.053,10.112-1.022,11.307s-25.666-1.025-31.166-1.286-13.8-.759-14.645-2.248c-1.139-2.018-.673-9.576,1.573-10.688a4.639,4.639,0,0,1,2.211-.31c6.174.154,12.556.052,18.859.315" transform="translate(-304.38 -903.365)" fill="#fff"/>
        <path id="Trazado_1018660" data-name="Trazado 1018660" d="M436.723,1428.144a104.845,104.845,0,0,0,12.037.213q8.321-.208,16.57-1.227c4.9-.635,10.442-1.028,15.126-2.713.165-.06.517-.18.966-.363a44.5,44.5,0,0,1-1.654,7.112c-1.587,2.891-44.968,4.814-48.888,2.617-2.194-1.25-3.134-3.932-3.158-6.472,3.2.52,8.06.759,9,.833" transform="translate(-369.037 -1080.871)" fill="#fff"/>
        <path id="Trazado_1018661" data-name="Trazado 1018661" d="M144.825,1248.6a.032.032,0,0,1,0,.046c.415,6.338.83,11.155,1.106,12.1.945,3.25,4.794,13.252,10.74,15.557,5.969,2.3,27.472,1.337,29.777-1.36,1.291-1.5,1.475-5,1.36-8.044-.069-2.443-.323-4.586-.392-5.208-.138-1.406-3.457-8.435-3.457-10.74s.761-42.637.761-42.637-39.18-.783-40.724-.207c-1.083.415-.138,25.006.83,40.494" transform="translate(-6.962 -916.804)" fill="#ffcd78"/>
        <path id="Trazado_1018662" data-name="Trazado 1018662" d="M168.675,1190.175a103.45,103.45,0,0,0-11.4.41c-2.837.057-5.681.128-8.509.365-1.158.1-3.451-.062-4.4.824-1.622,1.511-.6,10.094.41,11.346s25.683.363,31.19.4,13.825-.011,14.746-1.454c1.246-1.953,1.189-9.526-.993-10.757a4.64,4.64,0,0,0-2.191-.429c-6.173-.18-12.54-.626-18.849-.7" transform="translate(-10.653 -903.345)" fill="#fff"/>
        <path id="Trazado_1018663" data-name="Trazado 1018663" d="M143.513,1376.995c.415,6.338.83,11.155,1.106,12.1.945,3.25,4.794,13.252,10.74,15.557,5.969,2.3,27.472,1.337,29.777-1.36,1.291-1.5,1.475-5,1.36-8.044a42.12,42.12,0,0,1-18.254,2.858c-5.215-.275-9.978-.979-12.876-2.337-5.106-2.392-6.33-6.17-7.682-8.611a96.99,96.99,0,0,1-4.172-10.164" transform="translate(-5.65 -1045.152)" fill="#fff"/>
        <path id="Trazado_1018664" data-name="Trazado 1018664" d="M166.1,1381.656a36.377,36.377,0,0,1,25.282-.326c1.391.486.793,2.713-.613,2.222a34.388,34.388,0,0,0-24.056.326c-1.388.526-1.988-1.7-.613-2.222" transform="translate(-16.556 -1046.844)" fill="#e38c3f"/>
        <path id="Trazado_1018665" data-name="Trazado 1018665" d="M298.281,239.442c6.868,5.539,18.629,2.237,25.379-1.667a1.153,1.153,0,0,1,1.163,1.99c-7.846,4.538-20.412,7.564-28.171,1.307-1.155-.931.485-2.553,1.63-1.63" transform="translate(-181.316 -180.349)" fill="#deaf87"/>
        <path id="Trazado_1018666" data-name="Trazado 1018666" d="M268.937,344.089a2.96,2.96,0,0,1,2.148-.171,3.735,3.735,0,0,1,2.222,2.55c.769,2.515-.719,7.068-4.158,5.591a4.366,4.366,0,0,1-2.375-3.8,4.631,4.631,0,0,1,1.052-3.349,3.418,3.418,0,0,1,1.11-.818" transform="translate(-122.333 -260.94)" fill="#fff"/>
        <path id="Trazado_1018667" data-name="Trazado 1018667" d="M464.662,348.074a2.959,2.959,0,0,1,2.148-.171,3.735,3.735,0,0,1,2.222,2.55c.769,2.515-.719,7.068-4.158,5.591a4.365,4.365,0,0,1-2.374-3.8,4.63,4.63,0,0,1,1.052-3.349,3.417,3.417,0,0,1,1.11-.818" transform="translate(-365.226 -263.964)" fill="#fff"/>
        <path id="Trazado_1018668" data-name="Trazado 1018668" d="M7.373,320.85c2.751-5.788,4.942-10.792,4.649-17.346-.236-5.287-1-10.6-1.555-15.859-.5-4.781-1.209-9.617.132-14.328,1.253-4.4,3.985-8.189,6.659-11.832a47.966,47.966,0,0,0-5.119-2.05c-1.4-.468-.8-2.695.613-2.222,25.322,8.471,38.488,35.1,44.946,60.219A52.218,52.218,0,0,1,59.82,323.8c2.036,7.753,3.253,17.7-.677,25.061-8.039,15.057-31.506,17.458-46.021,12C7.139,358.6.645,354.483.079,347.522c-.717-8.817,3.6-18.9,7.294-26.672" transform="translate(153.737 -195.178)" fill="#ffdac1"/>
        <path id="Trazado_1018669" data-name="Trazado 1018669" d="M159.521,461.924a11.179,11.179,0,0,1,.833-.8c6.7-5.8,33.348-6.578,37.468-5.845,4.276.761,8.9.776,12.786,2.95,3.728,2.088-.007,10.3-.771,13.355-.59,2.359-1.132,4.777-1.908,7.083a3.466,3.466,0,0,0,.309,2.3c3.548,9.239,8.224,18.4,8.385,28.294.047,2.918,1.917,9.15-.754,10.325-10.223,4.5-21.622,6.068-32.72,6.084-4.005.006-11.708.923-14.826-1.82-3.644-3.2-3.485-8.731-5.244-12.912a76.7,76.7,0,0,1-5.589-30.357c.031-3.68.278-7.368-.048-11.034-.278-3.129.033-5.445,2.079-7.625" transform="translate(-39.762 -345.389)" fill="#c5c9d4"/>
        <path id="Trazado_1018670" data-name="Trazado 1018670" d="M298.258,562.477a72.262,72.262,0,0,1,17.411,17.379c.859,1.213-1.139,2.365-1.99,1.163A68.946,68.946,0,0,0,297.1,564.467c-1.2-.848-.052-2.848,1.163-1.99" transform="translate(-171.894 -426.766)" fill="#969aa8"/>
        <path id="Trazado_1018671" data-name="Trazado 1018671" d="M211.488,469.234c2.639-4.088,7.242-4.683,10.636-1.305a5.364,5.364,0,0,1,4.254-2.31c1.906-.123,4.257.168,5.764,1.454a10.007,10.007,0,0,1,4.715-3.606c3.674-1.323,7.716.987,10.825,2.829a1.033,1.033,0,0,1,.533.946,1.2,1.2,0,0,1,.472.429c-3.248,1.025-6.319,2.56-9.672,3.266-.02,0-.031.017-.051.022a54.2,54.2,0,0,1-6.426.221,1.189,1.189,0,0,1-2.091-.148c-.934-.063-1.862-.089-2.805-.2a1.133,1.133,0,0,1-.2-.064q-2.237.211-4.473.317a1.255,1.255,0,0,1-2.091.089,83.119,83.119,0,0,1-8.4-.206,1.165,1.165,0,0,1-1-1.734" transform="translate(-84.151 -351.479)" fill="#fff"/>
        <path id="Trazado_1018672" data-name="Trazado 1018672" d="M95.532,561.216s-7.571,2.142-14.293-8.613-3.649-25.352-.384-28.617,15.557-6.146,15.557-6.146l7.106,5.186,8.835,14.789-.96,12.292Z" transform="translate(84.495 -393.046)" fill="#ffdac1"/>
        <path id="Trazado_1018673" data-name="Trazado 1018673" d="M118.8,611.855s5.762,8.839,12.676,7.778c2.95-.438,5.373-4.771,6.133-9.127a65.022,65.022,0,0,0,.669-12.376v-.023l-17.4,14.013Z" transform="translate(48.502 -453.969)" fill="#2b1818"/>
        <path id="Trazado_1018674" data-name="Trazado 1018674" d="M118.8,564.8l1.014,15.465s8.159-.277,16.617-.783c6.707-.392,13.575-.945,16.732-1.614a65.022,65.022,0,0,0,.668-12.376v-.023a17.522,17.522,0,0,0-3.273-6.891c-2.143-2.7-6.753-4.31-10.049-3.019-8.527,3.319-21.711,9.242-21.711,9.242" transform="translate(32.948 -421.33)" fill="#ffa17f"/>
        <path id="Trazado_1018675" data-name="Trazado 1018675" d="M217.778,573.166c.938-2.345,3.559-1.363,5.558-1.385a26.824,26.824,0,0,0,5.965-.833,5.646,5.646,0,0,1-3.814-2.319,3.031,3.031,0,0,1,1.9-4.71,14.149,14.149,0,0,1,2.676-.026c1.945-.211,3.665-1.059,5.556-1.437a17.22,17.22,0,0,1,6.422-.052,18.242,18.242,0,0,1,11.519,7.377.907.907,0,0,1-.127,1.3,17.459,17.459,0,0,1-.6,10.255c-1.735,4.308-5.555,6.489-9.93,7.43-.11.024-.249.049-.366.073-.382.229-.771.455-1.175.683-2.3,1.3-4.673,2.943-7.287,3.531-2.711.61-6.585-.538-6.429-3.515-4.064-.726-7.248-2.614-7.274-6.708a9.018,9.018,0,0,1-2.472-6.49,3.923,3.923,0,0,1-.127-3.173" transform="translate(-90.9 -426.66)" fill="#ffa17f"/>
        <path id="Trazado_1018676" data-name="Trazado 1018676" d="M281.461,666.351a32.03,32.03,0,0,0,7.3-1.427c1.418-.449,2.024,1.776.613,2.222a34.691,34.691,0,0,1-7.918,1.509c-1.48.11-1.472-2.195,0-2.3" transform="translate(-142.284 -504.639)" fill="#de6340"/>
        <path id="Trazado_1018677" data-name="Trazado 1018677" d="M289.717,645.916a46.832,46.832,0,0,0,12.928-1.232c1.442-.344,2.057,1.878.613,2.222a49.112,49.112,0,0,1-13.541,1.315c-1.478-.063-1.485-2.368,0-2.3" transform="translate(-158.173 -489.294)" fill="#de6340"/>
        <path id="Trazado_1018678" data-name="Trazado 1018678" d="M297.174,619.889a32.025,32.025,0,0,0,13.659-1.086c1.413-.462,2.018,1.763.613,2.222a34.375,34.375,0,0,1-14.884,1.086c-1.463-.207-.84-2.428.613-2.222" transform="translate(-168.052 -469.63)" fill="#de6340"/>
        <path id="Trazado_1018679" data-name="Trazado 1018679" d="M283.969,588.234l7.772-1.336c1.451-.249,2.074,1.971.613,2.222l-7.772,1.336c-1.451.249-2.074-1.971-.613-2.222" transform="translate(-145.959 -445.447)" fill="#de6340"/>
        <path id="Trazado_1018680" data-name="Trazado 1018680" d="M611.734,570.111l6.108,16.686s11.8-2.489,22.079-5.094a122.755,122.755,0,0,0,12.561-3.664c-1.245-6.753-5.094-14.75-5.37-15.349l-.023-.023s-.3-1.314-3.826-4.125c-2.72-2.143-7.905-2.489-10.832-.484-7.56,5.162-20.7,12.054-20.7,12.054" transform="translate(-584.443 -422.562)" fill="#ffa17f"/>
        <path id="Trazado_1018681" data-name="Trazado 1018681" d="M727.52,594.531c1.427-2.509,4.872-4.589,7.263-6.093a39.434,39.434,0,0,1,4.705-2.52c-2.564-.8-5.242-2.128-6.017-4.445-.831-2.482.646-4.219,3.021-4.562,1.885-.273,4.034.589,5.83.964,3.132.656,6.094.464,9.256.6,4.087.171,7.708,1.486,10.388,4.588,4.486,1.269,4.19,2.862,4.976,7.76,1.063,6.626-.7,11.216-5.707,13.253q-7,2.847-14.008,5.665c-1.808.731-4.462,2.541-6.157.686a2.835,2.835,0,0,1-.539-3.219c-2.373,1.057-4.869,1.783-6.921.936a3.912,3.912,0,0,1-2.236-4.017c-1.976-.348-3.667-1.239-3.369-3.807a4.141,4.141,0,0,1,.449-1.394c-1.73-.853-1.806-2.856-.933-4.392" transform="translate(-726.972 -437.842)" fill="#ffa17f"/>
        <path id="Trazado_1018682" data-name="Trazado 1018682" d="M777.367,610.151c3.134,1.5,6.346,3.58,9.938,2.441,1.417-.449,2.023,1.775.613,2.222-4.237,1.344-8-.893-11.713-2.673-1.337-.641-.169-2.628,1.163-1.99" transform="translate(-760.174 -463.016)" fill="#de6340"/>
        <path id="Trazado_1018683" data-name="Trazado 1018683" d="M794.325,681.758a56.867,56.867,0,0,1,8.18-4.5c1.342-.6,2.516,1.384,1.164,1.99a56.859,56.859,0,0,0-8.181,4.5c-1.24.822-2.4-1.173-1.163-1.99" transform="translate(-780.106 -513.957)" fill="#de6340"/>
        <path id="Trazado_1018684" data-name="Trazado 1018684" d="M815.233,668.822a61.429,61.429,0,0,0,5.944-3.474,34.7,34.7,0,0,1,6.056-2.906c1.35-.571,2.526,1.413,1.163,1.99a34.707,34.707,0,0,0-6.056,2.906,61.411,61.411,0,0,1-5.944,3.474c-1.313.686-2.48-1.3-1.163-1.99" transform="translate(-809.866 -502.722)" fill="#de6340"/>
        <path id="Trazado_1018685" data-name="Trazado 1018685" d="M830.394,642.98a65.458,65.458,0,0,1,10.9-6.982c1.32-.669,2.488,1.319,1.163,1.99a62.578,62.578,0,0,0-10.434,6.622c-1.153.907-2.795-.713-1.63-1.63" transform="translate(-827.601 -482.626)" fill="#de6340"/>
        <path id="Trazado_1018686" data-name="Trazado 1018686" d="M767.152,624.989c.506-2.433,2.516-3.571,4.833-3.991,0-.005,0-.009,0-.015-.26-2.614,1-4.82,3.9-4.463a5.15,5.15,0,0,1,4.516,3.723c1.661,0,3.646.212,4.438,1.276.836,1.125.13,3.253-.481,4.329-1.193,2.1-3.878,2.4-5.656,3.738-1.478,1.109-2.8,1.988-4.764,1.413a6.149,6.149,0,0,1-1.861-1.075,14.029,14.029,0,0,0-3.159-1.451,2.879,2.879,0,0,1-1.758-3.486" transform="translate(-754.609 -467.916)" fill="#fff"/>
        <path id="Trazado_1018687" data-name="Trazado 1018687" d="M188.393,476.623a132.149,132.149,0,0,1,24.156-.219c7.9.8,15.048-2.681,22.415-5.224,1.4-.485,2.008,1.74.613,2.222-6.667,2.3-13.834,6.016-21.017,5.578a181.235,181.235,0,0,0-26.166-.053c-1.479.119-1.471-2.186,0-2.3" transform="translate(-66.043 -357.579)" fill="#969aa8"/>
        <path id="Trazado_1018688" data-name="Trazado 1018688" d="M50.23,503.92a36.525,36.525,0,0,1,11.561-2.256,1.126,1.126,0,0,1,.5-.759,20.965,20.965,0,0,1,18.488-2.535c1.4.463.8,2.69-.613,2.222a18.644,18.644,0,0,0-14.79,1.156A36.3,36.3,0,0,1,81.8,507c1.265.771.108,2.765-1.163,1.99a33.652,33.652,0,0,0-29.8-2.849c-1.393.516-1.994-1.711-.613-2.222" transform="translate(121.196 -377.437)" fill="#deaf87"/>
        <path id="Trazado_1018689" data-name="Trazado 1018689" d="M398.1,680.621a6.531,6.531,0,0,0,2.768-.63,1.152,1.152,0,0,0-1.051-2.049,3.669,3.669,0,0,1-3.275-.038c-1.224-.725-2.732-2.811-2.953-8.634-.507-13.338-1.866-38.739-1.879-38.994a1.184,1.184,0,0,0-1.211-1.09,1.153,1.153,0,0,0-1.089,1.213c.014.254,1.371,25.639,1.875,38.959.212,5.531,1.6,9.081,4.117,10.548a5.3,5.3,0,0,0,2.7.716" transform="translate(-279.88 -477.557)" fill="#08070f"/>
      </g>
    </g>
  </g>
</svg>
