<svg xmlns="http://www.w3.org/2000/svg" width="107" height="107" viewBox="0 0 107 107">
  <g id="Grupo_1197576" data-name="Grupo 1197576" transform="translate(-1008.711 -19209.262)">
    <path id="Elipse_5845" data-name="Elipse 5845" d="M53.5,0A53.5,53.5,0,1,1,0,53.5,53.5,53.5,0,0,1,53.5,0Z" transform="translate(1008.711 19209.262)" fill="#2d5a27"/>
    <g id="Grupo_1197555" data-name="Grupo 1197555" transform="translate(1029.02 19229.352)">
      <path id="Trazado_1018701" data-name="Trazado 1018701" d="M410.2,48.5A11.9,11.9,0,0,1,409.1,53.55l1.766.819a13.961,13.961,0,0,0-8.468-19.177l-.585,1.857A11.956,11.956,0,0,1,410.2,48.5Z" transform="translate(-349.661 -30.407)" fill="#fff"/>
      <path id="Trazado_1018702" data-name="Trazado 1018702" d="M315.556,32.49l1.06,1.633a11.952,11.952,0,0,1,6.525-1.926A12.137,12.137,0,0,1,325,32.34l.3-1.924a14.093,14.093,0,0,0-2.158-.166A13.9,13.9,0,0,0,315.556,32.49Z" transform="translate(-274.602 -26.107)" fill="#fff"/>
      <path id="Trazado_1018703" data-name="Trazado 1018703" d="M366.5.25h1.947V2.2H366.5Z" transform="translate(-318.935 0)" fill="#fff"/>
      <path id="Trazado_1018704" data-name="Trazado 1018704" d="M496.5,130.25h1.947V132.2H496.5Z" transform="translate(-432.063 -113.128)" fill="#fff"/>
      <path id="Trazado_1018705" data-name="Trazado 1018705" d="M0,0H1.947V1.947H0Z" transform="matrix(0.866, -0.5, 0.5, 0.866, 38.77, 3.124)" fill="#fff"/>
      <path id="Trazado_1018706" data-name="Trazado 1018706" d="M0,0H1.947V1.947H0Z" transform="matrix(0.866, -0.5, 0.5, 0.866, 61.819, 9.302)" fill="#fff"/>
      <path id="Trazado_1018707" data-name="Trazado 1018707" d="M0,0H1.947V1.947H0Z" transform="matrix(0.5, -0.866, 0.866, 0.5, 61.82, 26.889)" fill="#fff"/>
      <path id="Trazado_1018708" data-name="Trazado 1018708" d="M0,0H1.947V1.947H0Z" transform="matrix(0.5, -0.866, 0.866, 0.5, 55.645, 3.842)" fill="#fff"/>
      <path id="Trazado_1018709" data-name="Trazado 1018709" d="M226.292,28.358l.265.732.773-.1a9.932,9.932,0,0,1,1.259-.082,10.078,10.078,0,0,1,10.033,9.381l.072,1.084,1.069-.19a9.6,9.6,0,0,1,1.674-.151,9.34,9.34,0,0,1,6.709,2.812l1.388-1.365a11.272,11.272,0,0,0-8.1-3.394c-.326,0-.655.015-.987.044a12.036,12.036,0,0,0-11.862-10.167c-.247,0-.494.008-.744.024a13.306,13.306,0,0,0-4.09-5.287l-1.193,1.538A11.357,11.357,0,0,1,226.292,28.358Z" transform="translate(-193.676 -18.668)" fill="#fff"/>
      <path id="Trazado_1018710" data-name="Trazado 1018710" d="M32.266,16.942l.853-.254-.177-.873A11.36,11.36,0,0,1,49.527,3.589l.936-1.707A13.309,13.309,0,0,0,30.891,15.35a13.292,13.292,0,0,0-5.449,3.782l1.473,1.274a11.338,11.338,0,0,1,5.352-3.463Z" transform="translate(-22.14 0)" fill="#fff"/>
      <path id="Trazado_1018711" data-name="Trazado 1018711" d="M13.8,179.063h8.825v-1.947H13.8a11.359,11.359,0,0,1-9.655-17.337l-1.654-1.027A13.305,13.305,0,0,0,13.8,179.063Z" transform="translate(-0.435 -137.931)" fill="#fff"/>
      <path id="Trazado_1018712" data-name="Trazado 1018712" d="M415.919,185.408A11.3,11.3,0,0,0,414,179.093l-1.617,1.084a9.413,9.413,0,0,1-2.369,12.9l1.13,1.585A11.391,11.391,0,0,0,415.919,185.408Z" transform="translate(-356.803 -155.632)" fill="#fff"/>
      <path id="Trazado_1018713" data-name="Trazado 1018713" d="M196.356,416.25H183.285V418.2h13.071a4.212,4.212,0,1,1-4.069,3.1l-1.878-.514a6.165,6.165,0,1,0,5.947-4.534Z" transform="translate(-159.498 -362.01)" fill="#fff"/>
      <path id="Trazado_1018714" data-name="Trazado 1018714" d="M0,416.25H21.84V418.2H0Z" transform="translate(0 -362.01)" fill="#fff"/>
      <path id="Trazado_1018715" data-name="Trazado 1018715" d="M257.443,292.25a6.817,6.817,0,0,0-6.359,9.265l1.816-.7a4.868,4.868,0,1,1,4.543,3.116H241.7v1.947h15.743a6.814,6.814,0,0,0,0-13.627Z" transform="translate(-210.332 -254.103)" fill="#fff"/>
      <path id="Trazado_1018716" data-name="Trazado 1018716" d="M0,382.25H29.422V384.2H0Z" transform="translate(0 -332.423)" fill="#fff"/>
      <path id="Trazado_1018717" data-name="Trazado 1018717" d="M147.923,297.037h-11.5v1.947h11.5a4.867,4.867,0,1,0-4.867-4.867H145a2.92,2.92,0,1,1,2.92,2.92Z" transform="translate(-118.722 -251.493)" fill="#fff"/>
      <path id="Trazado_1018718" data-name="Trazado 1018718" d="M0,349.25H15.759V351.2H0Z" transform="translate(0 -303.706)" fill="#fff"/>
      <path id="Trazado_1018719" data-name="Trazado 1018719" d="M346,416.25h8.362V418.2H346Z" transform="translate(-301.095 -362.01)" fill="#fff"/>
      <path id="Trazado_1018720" data-name="Trazado 1018720" d="M431.732,416.25h-6.3V418.2h6.3a2.92,2.92,0,1,1-2.92,2.92h-1.947a4.867,4.867,0,1,0,4.867-4.867Z" transform="translate(-370.215 -362.01)" fill="#fff"/>
      <path id="Trazado_1018721" data-name="Trazado 1018721" d="M103,270.25h1.947V272.2H103Z" transform="translate(-89.632 -234.959)" fill="#fff"/>
      <path id="Trazado_1018722" data-name="Trazado 1018722" d="M133,270.25h1.947V272.2H133Z" transform="translate(-115.739 -234.959)" fill="#fff"/>
      <path id="Trazado_1018723" data-name="Trazado 1018723" d="M397,70.25h1.947V72.2H397Z" transform="translate(-345.476 -60.915)" fill="#fff"/>
      <path id="Trazado_1018724" data-name="Trazado 1018724" d="M427,100.25h1.947V102.2H427Z" transform="translate(-371.583 -87.022)" fill="#fff"/>
    </g>
  </g>
</svg>
