<svg xmlns="http://www.w3.org/2000/svg" width="84" height="84" viewBox="0 0 84 84">
  <g id="Grupo_1197576" data-name="Grupo 1197576" transform="translate(-731 -2033.985)">
    <g id="Grupo_1197328" data-name="Grupo 1197328" transform="translate(25 355.065)">
      <g id="Grupo_1119665" data-name="Grupo 1119665" transform="translate(534.111 -3840.08)">
        <rect id="Rectángulo_402006" data-name="Rectángulo 402006" width="84" height="84" rx="5" transform="translate(171.889 5519)" fill="#daeaaf"/>
      </g>
    </g>
    <g id="Grupo_1197558" data-name="Grupo 1197558" transform="translate(739.787 2041)">
      <path id="Trazado_1018824" data-name="Trazado 1018824" d="M54.239,8.468l-35-8.44a1,1,0,0,0-1.206.738l-1.641,6.8a1,1,0,0,0,.738,1.207l1.1.266-.872,8.573-1.981-.168a1,1,0,0,0-1.081.912l-.59,6.98a1,1,0,0,0,.911,1.082l1.122.094L16.073,33H14.005a1,1,0,0,0-1,1v7a1,1,0,0,0,1,1h1.127l2.882,21.135A1,1,0,0,0,19,64h9a1,1,0,0,0,.948-.684L29.725,61h4.559l.772,2.316A1,1,0,0,0,36,64h9a1,1,0,0,0,.99-.865L48.878,42H50a1,1,0,0,0,1-1V34a1,1,0,0,0-1-1H48.553l.817-3.648,1.119.095a.961.961,0,0,0,.73-.232,1.081,1.081,0,0,0,.352-.68l.59-6.971a1,1,0,0,0-.913-1.081l-1.544-.13,1.325-3.4,1.1.266a1.161,1.161,0,0,0,.757-.119,1,1,0,0,0,.45-.619l1.64-6.81a1,1,0,0,0-.737-1.2ZM44.132,62H36.725l-.772-2.316A1,1,0,0,0,35,59H29a1,1,0,0,0-.949.684L27.284,62H19.878L17.15,42H46.859ZM49,40H15V35H49Zm.657-12.631-19.6-1.655a1,1,0,0,0-.168,1.994l17.46,1.474L46.5,33H18.075l-.323-6.318,4.169.353a1,1,0,0,0,.168-1.993l-6.3-.533.422-4.988,33.877,2.873Zm1.965-12.326L42.24,12.777a1,1,0,0,0-.47,1.944l7.3,1.762-1.441,3.693-28.274-2.4L20.2,9.508l16.577,4a1,1,0,1,0,.47-1.944l-18.672-4.5,1.172-4.855L52.8,10.178Z" fill="#2d5a27"/>
      <path id="Trazado_1018825" data-name="Trazado 1018825" d="M41.005,50a3,3,0,1,0-3-3,3,3,0,0,0,3,3Zm0-4a1,1,0,1,1-1,1A1,1,0,0,1,41.005,46Z" fill="#2d5a27"/>
      <circle id="Elipse_13682" data-name="Elipse 13682" cx="1" cy="1" r="1" transform="translate(24.992 25.379)" fill="#2d5a27"/>
    </g>
  </g>
</svg>
