<svg xmlns="http://www.w3.org/2000/svg" xmlns:xlink="http://www.w3.org/1999/xlink" width="396" height="318" viewBox="0 0 396 318">
  <defs>
    <clipPath id="clip-path">
      <rect id="Rectángulo_462796" data-name="Rectángulo 462796" width="335.067" height="267.281" transform="translate(0 0)" fill="none"/>
    </clipPath>
  </defs>
  <g id="Grupo_1197575" data-name="Grupo 1197575" transform="translate(-498.792 -1135.549)">
    <rect id="Rectángulo_455518" data-name="Rectángulo 455518" width="396" height="318" transform="translate(498.792 1135.549)" fill="#edf5d7"/>
    <g id="Grupo_1197557" data-name="Grupo 1197557" transform="translate(524.569 1160.941)">
      <g id="Grupo_1197556" data-name="Grupo 1197556" transform="translate(0 0.003)" clip-path="url(#clip-path)">
        <path id="Trazado_1018725" data-name="Trazado 1018725" d="M585.516,857.252c-.6-3.458-4.643-6.23-6.479-9.22-3.527-5.745-4.842-5.688-5.233-26.414-.249-13.207-14.156-39.844-18.689-58.559,0,0-10.2-5.427-11.432-5.451a740.991,740.991,0,0,0-130.657,9.029c-5.432.863-10.949-4.48-13.9.16-3.483,5.473-1.012,19.524-2.809,25.757-3.421,11.87-6.661,14.86-8.4,24.828-4.138,23.647,1.142,24.615-5.589,35.232-2.094,3.3-4.379,8.874-3.9,10.372.828,2.605,4.372,1.75,7,.994s5.291-1.284,7.977-1.791c3.429-.648,6.909.514,10.229,1.588a237.476,237.476,0,0,0,144.667.095c4.856-1.563,18.231-3.677,23.27-2.882,4.735.748,14.551-.28,13.954-3.738" transform="translate(-317.366 -635.367)" fill="#a0683a"/>
        <path id="Trazado_1018726" data-name="Trazado 1018726" d="M632.971,606.907c-2.2-5.219-4.589-10.314-18.793-9-10.993,1.016-19.287,1.922-24.67,2.624-27.282,3.557-40.034,4.2-67.316,7.758-14.123,1.841-49.055,3.526-38.589-4.347-5.818.549-14.171,9.281-11.42,15.076.88,1.855,2.339,3.45,2.72,5.485.645,3.446-2.014,6.752-1.792,10.256.4,6.306,8.825,5.437,14.534,7.313,46.045,15.131,130.27-4.279,143.975-9.789.765-.308,2.492-1.245,2.741-2.491.871-4.355,1.385-16.308-1.391-22.883" transform="translate(-395.616 -501.35)" fill="#ce9e63"/>
        <path id="Trazado_1018727" data-name="Trazado 1018727" d="M661.085,448.63c-2.2-1.024-4.815-1.408-6.487-3.168-.7-.735-1.173-1.66-1.884-2.382-2.45-2.488-6.645-1.777-9.8-3.275-4.4-2.087-5.789-7.879-9.819-10.609-4.583-3.105-10.717-1.276-16.245-1.567A20.472,20.472,0,0,1,605.6,423.5c-1.765-1.345-3.339-3-5.355-3.925-2.75-1.265-5.926-1.014-8.94-.733-4.673.435-9.53.938-13.528,3.394-2.583,1.587-4.949,4.023-7.98,4.059a28.593,28.593,0,0,1-4.2-.717c-3.724-.518-7.372,1.373-10.34,3.682s-5.587,5.111-8.878,6.929c-5.4,2.982-12.669,3.445-16.034,8.614-1.007,1.546-1.553,3.4-2.828,4.738a26.812,26.812,0,0,1-3.564,2.566,10.039,10.039,0,0,0-3.672,5.636c-.252,1.043-.041,3.013,3.259,4.79a12.84,12.84,0,0,0,4.113,1.353c8.931,1.4,33.565,9.459,102.091,1.984,4.759-.519,27.036-5.5,32.043-9.781a4.452,4.452,0,0,0-.7-7.46" transform="translate(-436.349 -351.135)" fill="#683c1e"/>
        <path id="Trazado_1018728" data-name="Trazado 1018728" d="M1287.583,597.654c-.044,0,.469,1.23.527,1.383a4.616,4.616,0,0,1,.409,1.957,3.033,3.033,0,0,1-1.687,2.3,28.363,28.363,0,0,1-5.786,2.76,86.12,86.12,0,0,1-12.421,3.158c-1.656.334-.955,2.866.7,2.533,5.868-1.183,11.822-2.421,17.167-5.23,2.16-1.135,4.527-2.635,4.665-5.339.108-2.113-1.047-6.028-3.572-6.143-1.69-.077-1.686,2.549,0,2.626" transform="translate(-1063.335 -499.11)" fill="#282018"/>
        <path id="Trazado_1018729" data-name="Trazado 1018729" d="M543,683.994c11.139,4.229,23.223,5.875,35.045,6.747a287.267,287.267,0,0,0,42.172-.246q11.986-.881,23.891-2.584c1.666-.237.958-2.768-.7-2.533a337.755,337.755,0,0,1-42.188,3.349c-13.213.208-26.558-.314-39.6-2.57a96.97,96.97,0,0,1-17.924-4.7c-1.582-.6-2.266,1.938-.7,2.533" transform="translate(-454.73 -571.536)" fill="#282018"/>
        <path id="Trazado_1018730" data-name="Trazado 1018730" d="M468.152,708.571c.977,8.384,8.892,11.638,15.886,13.873a151.041,151.041,0,0,0,29.753,5.861,249.513,249.513,0,0,0,26.556,1.355,1.314,1.314,0,0,0,0-2.626,220.044,220.044,0,0,1-40.756-3.443A103.7,103.7,0,0,1,479.418,718c-.371-.153-1.289-.552-1.925-.88-3.293-1.7-6.268-4.717-6.714-8.546-.193-1.659-2.822-1.678-2.626,0" transform="translate(-392.679 -593.302)" fill="#282018"/>
        <path id="Trazado_1018731" data-name="Trazado 1018731" d="M497.195,805.782a198.2,198.2,0,0,0,59.849,8.38,280.827,280.827,0,0,0,31.5-2.519c5.162-.662,10.314-1.4,15.464-2.15,4.959-.724,9.937-1.377,14.812-2.562,5.705-1.387,11.271-3.3,16.851-5.116l16.837-5.471c1.6-.52.916-3.057-.7-2.533-9.748,3.168-19.455,6.577-29.3,9.416-9.764,2.813-19.982,3.908-30.028,5.271-20.356,2.762-40.759,4.124-61.226,1.714a195.533,195.533,0,0,1-33.353-6.962,1.314,1.314,0,0,0-.7,2.533" transform="translate(-416.277 -665.793)" fill="#282018"/>
        <path id="Trazado_1018732" data-name="Trazado 1018732" d="M474.375,1390.39a251.254,251.254,0,0,0,64.66,13.466q9.389.69,18.809.666a1.314,1.314,0,0,0,0-2.626,248.475,248.475,0,0,1-65.06-8.542q-8.956-2.415-17.711-5.5c-1.6-.561-2.285,1.976-.7,2.533" transform="translate(-397.153 -1164.072)" fill="#282018"/>
        <path id="Trazado_1018733" data-name="Trazado 1018733" d="M1037.794,550.9a13.925,13.925,0,0,1,9.911-.709,1.314,1.314,0,0,0,.7-2.532,16.726,16.726,0,0,0-11.935.974c-1.529.718-.2,2.983,1.326,2.268" transform="translate(-868.826 -458.814)" fill="#1c1c1c"/>
        <path id="Trazado_1018734" data-name="Trazado 1018734" d="M670.6,624.726c1.806-1.319,4.4-1.742,6.6-1.865,2.425-.136,4.6,1.023,7.065.7,2.49-.323,4.823-1.335,7.351-1.442a15.62,15.62,0,0,1,7.246,1.436c1.524.706,2.859-1.557,1.326-2.268a18.677,18.677,0,0,0-7.553-1.807c-2.81-.05-5.313.883-8.031,1.384a9.867,9.867,0,0,1-4.379-.322,11.217,11.217,0,0,0-4.153-.189c-2.343.3-4.843.678-6.8,2.1-1.351.987-.042,3.266,1.326,2.268" transform="translate(-560.916 -519.622)" fill="#1c1c1c"/>
        <path id="Trazado_1018735" data-name="Trazado 1018735" d="M1011.189,513.218a1.314,1.314,0,0,0,0-2.626,1.314,1.314,0,0,0,0,2.626" transform="translate(-847.125 -428.287)" fill="#bc8864"/>
        <path id="Trazado_1018736" data-name="Trazado 1018736" d="M878.574,571.632a1.314,1.314,0,0,0,0-2.626,1.314,1.314,0,0,0,0,2.626" transform="translate(-735.887 -477.285)" fill="#bc8864"/>
        <path id="Trazado_1018737" data-name="Trazado 1018737" d="M955.932,448.49a1.314,1.314,0,0,0,0-2.626,1.314,1.314,0,0,0,0,2.626" transform="translate(-800.775 -373.993)" fill="#bc8864"/>
        <path id="Trazado_1018738" data-name="Trazado 1018738" d="M763.358,560.843v.509a1.355,1.355,0,0,0,.385.929,1.313,1.313,0,0,0,1.857,0,1.365,1.365,0,0,0,.385-.929v-.509a1.355,1.355,0,0,0-.385-.928,1.313,1.313,0,0,0-1.857,0,1.364,1.364,0,0,0-.385.928" transform="translate(-640.307 -469.335)" fill="#bc8864"/>
        <path id="Trazado_1018739" data-name="Trazado 1018739" d="M611.765,601.628a1.314,1.314,0,0,0,0-2.626,1.314,1.314,0,0,0,0,2.626" transform="translate(-512.087 -502.445)" fill="#bc8864"/>
        <path id="Trazado_1018740" data-name="Trazado 1018740" d="M914.885,683.724a1.314,1.314,0,0,0,0-2.626,1.314,1.314,0,0,0,0,2.626" transform="translate(-766.345 -571.308)" fill="#bc8864"/>
        <path id="Trazado_1018741" data-name="Trazado 1018741" d="M1008.031,637.94a1.314,1.314,0,0,0,0-2.626,1.314,1.314,0,0,0,0,2.626" transform="translate(-844.476 -532.904)" fill="#bc8864"/>
        <path id="Trazado_1018742" data-name="Trazado 1018742" d="M1200.639,637.94a1.314,1.314,0,0,0,0-2.626,1.314,1.314,0,0,0,0,2.626" transform="translate(-1006.036 -532.904)" fill="#bc8864"/>
        <path id="Trazado_1018743" data-name="Trazado 1018743" d="M1192.745,513.218a1.314,1.314,0,0,0,0-2.626,1.314,1.314,0,0,0,0,2.626" transform="translate(-999.415 -428.287)" fill="#bc8864"/>
        <path id="Trazado_1018744" data-name="Trazado 1018744" d="M1304.836,607.944a1.314,1.314,0,0,0,0-2.626,1.314,1.314,0,0,0,0,2.626" transform="translate(-1093.437 -507.743)" fill="#bc8864"/>
        <path id="Trazado_1018745" data-name="Trazado 1018745" d="M775.955,682.145a1.314,1.314,0,0,0,0-2.626,1.314,1.314,0,0,0,0,2.626" transform="translate(-649.81 -569.983)" fill="#bc8864"/>
        <path id="Trazado_1018746" data-name="Trazado 1018746" d="M1096.441,669.515a1.314,1.314,0,0,0,0-2.626,1.314,1.314,0,0,0,0,2.626" transform="translate(-918.635 -559.389)" fill="#bc8864"/>
        <path id="Trazado_1018747" data-name="Trazado 1018747" d="M1079.075,494.273a1.314,1.314,0,0,0,0-2.626,1.314,1.314,0,0,0,0,2.626" transform="translate(-904.068 -412.396)" fill="#bc8864"/>
        <path id="Trazado_1018748" data-name="Trazado 1018748" d="M584.926,653.727a1.314,1.314,0,0,0,0-2.626,1.314,1.314,0,0,0,0,2.626" transform="translate(-489.574 -546.146)" fill="#bc8864"/>
        <path id="Trazado_1018749" data-name="Trazado 1018749" d="M1128.016,589a1.314,1.314,0,0,0,0-2.626,1.314,1.314,0,0,0,0,2.626" transform="translate(-945.12 -491.851)" fill="#bc8864"/>
        <path id="Trazado_1018750" data-name="Trazado 1018750" d="M752.594,345.414c-.191.863-.4,1.715-.61,2.547a15.359,15.359,0,0,0-10.508-.065,13.849,13.849,0,0,0-1.564.677c-.28.143-.554.3-.826.47a10.21,10.21,0,0,1-1.977,1.04,6.6,6.6,0,0,1-3.179.074,7.081,7.081,0,0,0-5.347,1.062q-.816-1.01-1.615-2.065c-7.76-10.22-14.226-23-12.047-25.154,2.871-2.839,8.434-5.276,14.555-6.923a69.476,69.476,0,0,1,7.8-1.622c7.02-1.04,13.617-.87,16.725,1.072,1.88,1.174,1.4,16.326-1.4,28.886" transform="translate(-599.319 -264.076)" fill="#bcbcbc"/>
        <rect id="Rectángulo_462795" data-name="Rectángulo 462795" width="7.963" height="19.656" transform="translate(127.949 43.272) rotate(-12.782)" fill="#bcbcbc"/>
        <path id="Trazado_1018751" data-name="Trazado 1018751" d="M748.577,20.93a95.617,95.617,0,0,1,.837,19.577l-7.787,1.6c-3.595-7.078-5.8-12.035-7.8-19.719-1.274-4.912-2.819-12.644-1.443-17.528.6-2.134,1.926-4.376,4.1-4.792,2.532-.484,4.753,1.7,6.173,3.854,3.47,5.258,5.076,10.76,5.912,17.005" transform="translate(-613.877 -0.003)" fill="#a0683a"/>
        <path id="Trazado_1018752" data-name="Trazado 1018752" d="M780.556,225.917,770.4,228.222a2.161,2.161,0,0,0-1.63,2.586l.775,3.416a2.162,2.162,0,0,0,2.586,1.63l10.161-2.305a2.162,2.162,0,0,0,1.63-2.586l-.775-3.416a2.162,2.162,0,0,0-2.586-1.63" transform="translate(-644.798 -189.455)" fill="#a0683a"/>
        <path id="Trazado_1018753" data-name="Trazado 1018753" d="M775.671,217.825a36.545,36.545,0,0,1,9.579-2.141c1.687-.117,1.68,2.51,0,2.626a34,34,0,0,0-8.88,2.047c-1.6.56-2.286-1.977-.7-2.533" transform="translate(-649.88 -180.914)" fill="#443a2d"/>
        <path id="Trazado_1018754" data-name="Trazado 1018754" d="M791.606,270.54c2.544-.578,5.085-1.167,7.632-1.732,1.647-.365,2.35,2.167.7,2.533-2.547.564-5.088,1.153-7.632,1.732-1.646.374-2.348-2.158-.7-2.533" transform="translate(-663.212 -225.448)" fill="#443a2d"/>
        <path id="Trazado_1018755" data-name="Trazado 1018755" d="M772.592,399.728a13.928,13.928,0,0,0-1.564.677c-.28.143-.554.3-.826.47q-.25-1.346-.5-2.695c-.635-3.381-1.3-6.758-2.11-10.084-.361-1.483-1.472-1.974-2.727-2.654q-2.067-1.12-4.152-2.2-4.188-2.176-8.448-4.21c-1.524-.73-.193-3,1.326-2.269q4.506,2.159,8.939,4.468c1.469.767,2.939,1.537,4.389,2.343a10.042,10.042,0,0,1,1.453.947,4.777,4.777,0,0,1,1.221,1.427c.057.1.108.206.157.314a20.125,20.125,0,0,1,1.014,4.29l1.015,5.088c.1.5.2,1.006.3,1.509q.258,1.29.515,2.583" transform="translate(-630.435 -315.908)" fill="#1c1c1c"/>
        <path id="Trazado_1018756" data-name="Trazado 1018756" d="M851.912,355.079l10.8-12.973c1.083-1.3,2.932.566,1.857,1.857l-10.8,12.973c-1.083,1.3-2.932-.567-1.857-1.857" transform="translate(-714.314 -286.59)" fill="#1c1c1c"/>
        <path id="Trazado_1018757" data-name="Trazado 1018757" d="M810.7,502.389a13.857,13.857,0,0,0-1.289-.547,15.359,15.359,0,0,0-10.508-.065,13.923,13.923,0,0,0-1.564.677c-.28.143-.554.3-.826.47a10.209,10.209,0,0,1-1.977,1.04,6.6,6.6,0,0,1-3.179.075,7.082,7.082,0,0,0-5.347,1.062,7.157,7.157,0,0,0-.8.656c-1.224,1.166-3.083-.688-1.857-1.856a9.938,9.938,0,0,1,1.038-.865,9.139,9.139,0,0,1,5.391-1.8c1.425,0,2.96.721,4.3.053.659-.329,1.281-.711,1.922-1.064a12.636,12.636,0,0,1,1.221-.6q.573-.238,1.156-.434a17.994,17.994,0,0,1,11.634.1,18.555,18.555,0,0,1,2,.828c1.524.737.189,3-1.325,2.267" transform="translate(-656.743 -417.957)" fill="#1c1c1c"/>
        <path id="Trazado_1018758" data-name="Trazado 1018758" d="M77.06,1144.25s-20.427-.659-38.838-1.767c-11.669-.7-22.527-1.585-26.867-2.6-11.194-2.6-16.11-43.409-5.4-48.715,4.51-2.232,14.1-5.211,24.422-8.082,17.719-4.931,37.588-9.548,37.588-9.548Z" transform="translate(0 -900.491)" fill="#a0683a"/>
        <path id="Trazado_1018759" data-name="Trazado 1018759" d="M281.257,1139.638c-11.1-9.35-17.321-51.55-9.333-63.893,1.874-2.9,11.614-5.927,16.935-6.313.354-.027.692-.048,1.01-.068.361-.022.7-.041,1-.057a14.011,14.011,0,0,1,11.484,4.429c15.293,17.775,15.371,54.688,4.762,64.822a14.468,14.468,0,0,1-6.872,3.077c-.676.144-1.373.266-2.085.366-6.5.909-14.112-.009-16.9-2.362" transform="translate(-225.062 -896.917)" fill="#a0683a"/>
        <path id="Trazado_1018760" data-name="Trazado 1018760" d="M379.606,1141.633c-8.352-3.008-14.008-18.167-16.109-36.013-1.8-15.28.773-31.421,5.732-36.257q.541-.033,1-.058a14.013,14.013,0,0,1,11.484,4.429c15.293,17.775,15.371,54.688,4.762,64.822a14.468,14.468,0,0,1-6.872,3.077" transform="translate(-304.422 -896.917)" fill="#ce9e63"/>
        <path id="Trazado_1018761" data-name="Trazado 1018761" d="M265.826,1103.032c-3.729,8.179-4.058,17.765-3.472,26.594a89.9,89.9,0,0,0,6.132,28.144,34.581,34.581,0,0,0,6.367,10.7c1.044,1.111,2.713-.563,1.671-1.671a30.493,30.493,0,0,1-5.359-8.716,72.214,72.214,0,0,1-4.037-12.462,89.712,89.712,0,0,1-2.345-28.267,40.04,40.04,0,0,1,3.083-13.124c.626-1.374-1.41-2.576-2.041-1.193" transform="translate(-219.871 -924.713)" fill="#1c1c1c"/>
        <path id="Trazado_1018762" data-name="Trazado 1018762" d="M420.314,1152.715c-.572,8.266-2.741,14.206-6,15.285a3.416,3.416,0,0,1-.649.15c-.084.01-.171.018-.252.024a3.663,3.663,0,0,1-1.239-.152c-4.417-1.281-8.973-10.433-11.276-22.556-.315-1.641-.586-3.338-.809-5.076-1.975-15.359.454-28.449,5.441-30.135a3.463,3.463,0,0,1,.67-.157c4.811-.617,10.126,9.049,12.715,22.4.333,1.73.625,3.526.861,5.365.039.315.076.625.113.935a76.237,76.237,0,0,1,.425,13.923" transform="translate(-335.021 -931.13)" fill="#a0683a"/>
        <path id="Trazado_1018763" data-name="Trazado 1018763" d="M38.221,1192.167c-11.668-.7-22.527-1.586-26.867-2.6-11.194-2.6-16.11-43.409-5.4-48.715,4.51-2.232,14.1-5.211,24.422-8.082a16.745,16.745,0,0,1-1.015,4.811c-.967,2.752-2.658,5.2-3.581,7.965a9.812,9.812,0,0,0-.167,1.067c.016.169.037.338.063.506.1.259.209.512.333.762.948,1.43,2.141,2.679,3.173,4.048a17.57,17.57,0,0,1,2.912,5.545,15.74,15.74,0,0,1,.624,7.154,17.381,17.381,0,0,1-2.57,6.234c-.657,1.081-1.39,2.117-2.056,3.191a11.437,11.437,0,0,0-.6,1.311c-.013.077-.027.157-.037.234.011.025.023.048.032.071.136.183.277.359.427.529,1.359,1.216,2.932,2.171,4.358,3.305a15.283,15.283,0,0,1,4.917,6.365,15.836,15.836,0,0,1,1.032,6.3" transform="translate(0 -950.175)" fill="#ce9e63"/>
        <path id="Trazado_1018764" data-name="Trazado 1018764" d="M495.39,1350.332c-2.1,1.25-51.883,1.631-73.294,1.856-.748.008-1.465.016-2.14.021-4.417-1.281-8.973-10.433-11.276-22.556a4.516,4.516,0,0,1,2.9,1.158c.893.822,1.56,2.072,2.757,2.274a4.821,4.821,0,0,0,1.993-.318,8.149,8.149,0,0,1,7.177,1.61,11.254,11.254,0,0,0,2.946,2.3,3.956,3.956,0,0,0,1.641.223c1.665-.1,3.393-.987,5.121-1,3.574-.026,5.971,3.464,8.71,5.761.811.68,1.943,1.294,2.875.793.775-.417,1.032-1.426,1.725-1.967,1.179-.919,2.886-.092,4.067.822s2.631,1.977,4.023,1.436c1.2-.467,1.662-1.87,2.337-2.965,1.967-3.18,4.845-5.415,9.844-4.548,3.674.638,5.215,4,7.292,5.527,3.012,2.211,7.452,2.358,11.107,3.133,6.638,1.407,9.115,5.425,10.191,6.436" transform="translate(-342.802 -1115.318)" fill="#683c1e"/>
        <path id="Trazado_1018765" data-name="Trazado 1018765" d="M402.283,1104.9c-2.379-1.134-4.986-1.111-6.758,1.049a17.644,17.644,0,0,0-2.881,6.19,52.178,52.178,0,0,0-1.416,20.09c.158,1.5,2.523,1.513,2.363,0a53.192,53.192,0,0,1,.773-17.312,24.628,24.628,0,0,1,2-5.876c1.046-2.021,2.377-3.22,4.727-2.1,1.366.651,2.567-1.386,1.193-2.041" transform="translate(-327.854 -926.17)" fill="#1c1c1c"/>
        <path id="Trazado_1018766" data-name="Trazado 1018766" d="M399,1308.06c1.252,7.2,3.024,14.521,7.38,20.535.884,1.22,2.935.042,2.041-1.193-4.245-5.862-5.922-12.954-7.141-19.97-.26-1.5-2.538-.862-2.279.628" transform="translate(-334.662 -1095.963)" fill="#1c1c1c"/>
        <path id="Trazado_1018767" data-name="Trazado 1018767" d="M468.593,1374.637a1.182,1.182,0,0,0,0-2.363,1.182,1.182,0,0,0,0,2.363" transform="translate(-392.1 -1151.069)" fill="#bc8864"/>
        <path id="Trazado_1018768" data-name="Trazado 1018768" d="M508.521,1410.821a1.182,1.182,0,0,0,0-2.363,1.182,1.182,0,0,0,0,2.363" transform="translate(-425.592 -1181.42)" fill="#bc8864"/>
        <path id="Trazado_1018769" data-name="Trazado 1018769" d="M555.935,1392.105a1.182,1.182,0,0,0,0-2.363,1.182,1.182,0,0,0,0,2.363" transform="translate(-465.363 -1165.721)" fill="#bc8864"/>
        <path id="Trazado_1018770" data-name="Trazado 1018770" d="M595.863,1427.042a1.182,1.182,0,0,0,0-2.363,1.182,1.182,0,0,0,0,2.363" transform="translate(-498.855 -1195.026)" fill="#bc8864"/>
        <path id="Trazado_1018771" data-name="Trazado 1018771" d="M756.823,1397.1a1.182,1.182,0,0,0,0-2.363,1.182,1.182,0,0,0,0,2.363" transform="translate(-633.869 -1169.907)" fill="#bc8864"/>
        <path id="Trazado_1018772" data-name="Trazado 1018772" d="M723.133,1424.546a1.182,1.182,0,0,0,0-2.363,1.182,1.182,0,0,0,0,2.363" transform="translate(-605.609 -1192.932)" fill="#bc8864"/>
        <path id="Trazado_1018773" data-name="Trazado 1018773" d="M840.422,1424.546a1.182,1.182,0,0,0,0-2.363,1.182,1.182,0,0,0,0,2.363" transform="translate(-703.992 -1192.932)" fill="#bc8864"/>
        <path id="Trazado_1018774" data-name="Trazado 1018774" d="M657,1419.555a1.182,1.182,0,0,0,0-2.363,1.182,1.182,0,0,0,0,2.363" transform="translate(-550.139 -1188.746)" fill="#bc8864"/>
        <path id="Trazado_1018775" data-name="Trazado 1018775" d="M1886.3,1081.143a17.6,17.6,0,0,0-9.841-11.248c-.214-.1-.488-.182-.665-.027a.637.637,0,0,0-.165.352l-2.007,8.612c-.762,3.268-1.437,7.013.535,9.728,2.124,2.924,6.676,3.614,8.176,6.9l.105-.118a14.65,14.65,0,0,0,3.862-14.2" transform="translate(-1570.961 -897.338)" fill="#afce5b"/>
        <path id="Trazado_1018776" data-name="Trazado 1018776" d="M1961.255,1150.594a16,16,0,0,0-5.964,2.422c-3.094,2.365-5.207,10.553-5.207,10.553a13.248,13.248,0,0,0,4.017,1.6,11.874,11.874,0,0,0,7.764-.865,14.261,14.261,0,0,0,6.245-6.9,42.437,42.437,0,0,0,2.694-9.07c-3.188.73-6.377,1.461-9.55,2.256" transform="translate(-1635.738 -963.23)" fill="#afce5b"/>
        <path id="Trazado_1018777" data-name="Trazado 1018777" d="M1785.107,1212.261c-2.348-3.359-5.072-6.959-9.072-7.848-4.4-.977-8.684,1.649-13.046,2.768a92.936,92.936,0,0,0,8.581,6.4,14.154,14.154,0,0,0,5.509,2.327,10.3,10.3,0,0,0,4.443-.449,13.426,13.426,0,0,0,4.42-2.366Z" transform="translate(-1478.801 -1010.087)" fill="#afce5b"/>
        <path id="Trazado_1018778" data-name="Trazado 1018778" d="M1798.987,1301.5c-11.429-.6-24.186,3.869-24.9,9.316-1.085,8.317,6.088,41.294,8.352,44.011,4.016,4.819,23.236,5.6,29.073,1.285,3.694-2.731,9.862-38.736,9.316-44.011-.482-4.658-6.586-9.8-21.845-10.6" transform="translate(-1488.02 -1091.658)" fill="#c9944f"/>
        <path id="Trazado_1018779" data-name="Trazado 1018779" d="M1834.2,1308.725a10.574,10.574,0,0,0-1.834-2.266c-.744-.825-1.13-1.934-1.918-2.717-.848-.843-2.066-1.214-2.964-2-.419-.368-.758-.819-1.149-1.217a6.42,6.42,0,0,0-4.162-1.894,19.1,19.1,0,0,1-3.1-.1c-1.209-.273-2.248-1.126-3.478-1.275a10.617,10.617,0,0,0-3.072.442c-3.041.537-6.47-.684-9.1.934-.762.469-1.388,1.148-2.188,1.549-.539.271-1.137.4-1.7.631a10.73,10.73,0,0,0-2.123,1.273,11.424,11.424,0,0,0-3.448,3.258c-.687,1.164-2.6,4.939.69,7.629,1.092.893,6.965,4.179,16.606,4.313,13.019.181,18.967-1.716,21.464-3.309a4.049,4.049,0,0,0,1.473-5.249" transform="translate(-1503.795 -1088.121)" fill="#683c1e"/>
        <path id="Trazado_1018780" data-name="Trazado 1018780" d="M1785.713,1358.372c-.448,3.54,2.257,6.116,5.18,7.573a32.764,32.764,0,0,0,11.734,2.93,65.631,65.631,0,0,0,11.786-.1,31.224,31.224,0,0,0,10.695-2.495c2.974-1.435,5.006-4,4.306-7.411-.3-1.449-2.514-.836-2.218.611.486,2.375-1.3,3.871-3.249,4.813a27.615,27.615,0,0,1-9.213,2.15c-6.8.672-14.144.665-20.653-1.637-2.856-1.01-6.518-2.875-6.068-6.435.185-1.465-2.117-1.451-2.3,0" transform="translate(-1497.822 -1138.49)" fill="#1c1c1c"/>
        <path id="Trazado_1018781" data-name="Trazado 1018781" d="M1827.741,1361a1.151,1.151,0,0,0,0-2.3,1.151,1.151,0,0,0,0,2.3" transform="translate(-1532.183 -1139.681)" fill="#bc8864"/>
        <path id="Trazado_1018782" data-name="Trazado 1018782" d="M1866.666,1388.474a1.151,1.151,0,0,0,0-2.3,1.151,1.151,0,0,0,0,2.3" transform="translate(-1564.834 -1162.728)" fill="#bc8864"/>
        <path id="Trazado_1018783" data-name="Trazado 1018783" d="M1860.92,1339.478a1.151,1.151,0,0,0,0-2.3,1.151,1.151,0,0,0,0,2.3" transform="translate(-1560.014 -1121.63)" fill="#bc8864"/>
        <path id="Trazado_1018784" data-name="Trazado 1018784" d="M1955.2,1317.493a1.151,1.151,0,0,0,0-2.3,1.151,1.151,0,0,0,0,2.3" transform="translate(-1639.098 -1103.189)" fill="#bc8864"/>
        <path id="Trazado_1018785" data-name="Trazado 1018785" d="M2010.919,1350.312a1.151,1.151,0,0,0,0-2.3,1.151,1.151,0,0,0,0,2.3" transform="translate(-1685.834 -1130.718)" fill="#bc8864"/>
        <path id="Trazado_1018786" data-name="Trazado 1018786" d="M1974.283,1383.132a1.151,1.151,0,0,0,0-2.3,1.151,1.151,0,0,0,0,2.3" transform="translate(-1655.103 -1158.247)" fill="#bc8864"/>
        <path id="Trazado_1018787" data-name="Trazado 1018787" d="M1923.146,1380.079a1.151,1.151,0,0,0,0-2.3,1.151,1.151,0,0,0,0,2.3" transform="translate(-1612.209 -1155.686)" fill="#bc8864"/>
        <path id="Trazado_1018788" data-name="Trazado 1018788" d="M1914.61,1142.583c3.68,10.551.106,21.806.809,32.644.1,1.47,2.4,1.48,2.3,0-.718-11.063,2.869-22.473-.892-33.255-.484-1.389-2.707-.792-2.218.611" transform="translate(-1605.923 -957.228)" fill="#93b449"/>
        <path id="Trazado_1018789" data-name="Trazado 1018789" d="M1924.847,1210.136a34.136,34.136,0,0,1,6.875-7.282c1.388-1.086,2.9-1.962,4.348-2.958,1.212-.834.063-2.828-1.161-1.986-1.611,1.109-3.273,2.1-4.814,3.318a36.516,36.516,0,0,0-7.235,7.748c-.853,1.214,1.141,2.365,1.986,1.161" transform="translate(-1612.728 -1004.641)" fill="#93b449"/>
        <path id="Trazado_1018790" data-name="Trazado 1018790" d="M1846.968,1236.153c4.426,1.051,8.816,3.3,11.4,7.178.817,1.226,2.81.076,1.986-1.161-2.914-4.376-7.739-7.041-12.77-8.235-1.439-.342-2.053,1.876-.611,2.218" transform="translate(-1548.554 -1034.999)" fill="#93b449"/>
        <path id="Trazado_1018791" data-name="Trazado 1018791" d="M1877.582,1348.588a8.949,8.949,0,0,1,3.486-1.1,3.8,3.8,0,0,1,1.889.367,3.889,3.889,0,0,0,1.193.549c1.077.146,2.178-.8,3.158-1.112a4.064,4.064,0,0,1,3.9.564c1.186.888,2.333-1.109,1.161-1.986a5.751,5.751,0,0,0-4.042-1.128,8.534,8.534,0,0,0-2.284.568c-.31.121-.617.251-.918.391q-.321.148-.635.311-.415.176-.015.067c-.535-.066-1.18-.609-1.75-.74a6.625,6.625,0,0,0-2.248-.1,12.327,12.327,0,0,0-4.058,1.361c-1.325.66-.161,2.645,1.161,1.986" transform="translate(-1573.458 -1127.954)" fill="#1c1c1c"/>
        <path id="Trazado_1018792" data-name="Trazado 1018792" d="M1057.115,1120.428a18.488,18.488,0,0,0-2.267-7.367,11.909,11.909,0,0,0-5.67-5.1,17.167,17.167,0,0,0-4.011-.959,9.365,9.365,0,0,0-3.762.012,3.548,3.548,0,0,0-2.632,2.46,4.325,4.325,0,0,0,.182,2.106,12.628,12.628,0,0,0,4.866,6.694,15.059,15.059,0,0,0,7.892,2.645,23.44,23.44,0,0,1,3.037.193,4.065,4.065,0,0,1,2.6,1.445Z" transform="translate(-871.272 -928.4)" fill="#afce5b"/>
        <path id="Trazado_1018793" data-name="Trazado 1018793" d="M1187.413,1099.318a3.873,3.873,0,0,0-1.948-3.053,5.376,5.376,0,0,0-3.191-.452,15.225,15.225,0,0,0-9.454,5.006,22.96,22.96,0,0,0-5.4,11.079l.5.764a7.173,7.173,0,0,1,3.974-1.7q2.5-.513,4.968-1.191a18.953,18.953,0,0,0,6.149-2.614,10.675,10.675,0,0,0,4.2-6.066,5.61,5.61,0,0,0,.191-1.771" transform="translate(-979.239 -919.126)" fill="#afce5b"/>
        <path id="Trazado_1018794" data-name="Trazado 1018794" d="M1045.879,1268.858c-11.429-.6-24.186,3.869-24.9,9.316-1.085,8.317,6.088,41.294,8.353,44.011,4.016,4.819,23.236,5.6,29.073,1.285,3.694-2.73,9.862-38.736,9.316-44.011-.482-4.658-6.586-9.8-21.845-10.6" transform="translate(-856.31 -1064.277)" fill="#c9944f"/>
        <path id="Trazado_1018795" data-name="Trazado 1018795" d="M1081.091,1276.082a10.574,10.574,0,0,0-1.834-2.266c-.744-.825-1.13-1.934-1.918-2.717-.848-.843-2.066-1.214-2.964-2-.419-.369-.758-.819-1.149-1.217a6.42,6.42,0,0,0-4.162-1.894,19.1,19.1,0,0,1-3.1-.1c-1.209-.273-2.248-1.126-3.479-1.275a10.617,10.617,0,0,0-3.072.442c-3.041.537-6.47-.684-9.1.934-.762.469-1.388,1.148-2.188,1.549-.54.271-1.137.4-1.7.63a10.739,10.739,0,0,0-2.123,1.273,11.424,11.424,0,0,0-3.448,3.258c-.687,1.164-2.6,4.939.69,7.629,1.092.893,6.965,4.179,16.606,4.313,13.018.181,18.967-1.716,21.464-3.309a4.049,4.049,0,0,0,1.473-5.249" transform="translate(-872.086 -1060.74)" fill="#683c1e"/>
        <path id="Trazado_1018796" data-name="Trazado 1018796" d="M1032.606,1325.729c-.447,3.54,2.257,6.116,5.181,7.573a32.762,32.762,0,0,0,11.734,2.93,65.641,65.641,0,0,0,11.785-.1,31.226,31.226,0,0,0,10.695-2.5c2.974-1.435,5.006-3.995,4.306-7.411-.3-1.449-2.515-.836-2.218.611.487,2.375-1.3,3.872-3.249,4.813a27.618,27.618,0,0,1-9.213,2.15c-6.8.673-14.144.665-20.653-1.637-2.856-1.01-6.518-2.875-6.067-6.435.185-1.465-2.117-1.451-2.3,0" transform="translate(-866.113 -1111.109)" fill="#1c1c1c"/>
        <path id="Trazado_1018797" data-name="Trazado 1018797" d="M1074.634,1328.354a1.151,1.151,0,0,0,0-2.3,1.151,1.151,0,0,0,0,2.3" transform="translate(-900.475 -1112.299)" fill="#bc8864"/>
        <path id="Trazado_1018798" data-name="Trazado 1018798" d="M1113.56,1355.831a1.151,1.151,0,0,0,0-2.3,1.151,1.151,0,0,0,0,2.3" transform="translate(-933.126 -1135.347)" fill="#bc8864"/>
        <path id="Trazado_1018799" data-name="Trazado 1018799" d="M1107.814,1306.835a1.151,1.151,0,0,0,0-2.3,1.151,1.151,0,0,0,0,2.3" transform="translate(-928.306 -1094.249)" fill="#bc8864"/>
        <path id="Trazado_1018800" data-name="Trazado 1018800" d="M1210.067,1294.814a1.151,1.151,0,0,0,0-2.3,1.151,1.151,0,0,0,0,2.3" transform="translate(-1014.076 -1084.166)" fill="#bc8864"/>
        <path id="Trazado_1018801" data-name="Trazado 1018801" d="M1257.812,1317.669a1.151,1.151,0,0,0,0-2.3,1.151,1.151,0,0,0,0,2.3" transform="translate(-1054.125 -1103.337)" fill="#bc8864"/>
        <path id="Trazado_1018802" data-name="Trazado 1018802" d="M1221.177,1350.488a1.151,1.151,0,0,0,0-2.3,1.151,1.151,0,0,0,0,2.3" transform="translate(-1023.396 -1130.865)" fill="#bc8864"/>
        <path id="Trazado_1018803" data-name="Trazado 1018803" d="M1170.04,1347.435a1.151,1.151,0,0,0,0-2.3,1.151,1.151,0,0,0,0,2.3" transform="translate(-980.502 -1128.304)" fill="#bc8864"/>
        <path id="Trazado_1018804" data-name="Trazado 1018804" d="M1113.169,1158.044c3.611,2.055,5.939,4.782,6.55,8.954.723,4.932.358,9.98.459,14.944a1.151,1.151,0,0,0,2.3,0c-.109-5.367.343-10.878-.646-16.186-.827-4.44-3.658-7.511-7.5-9.7a1.151,1.151,0,0,0-1.161,1.986" transform="translate(-933.26 -969.571)" fill="#93b449"/>
        <path id="Trazado_1018805" data-name="Trazado 1018805" d="M1157.4,1161.835c.8-3.114,3.606-6.2,6.256-7.882,1.246-.791.094-2.783-1.161-1.986-3.146,2-6.365,5.564-7.313,9.257a1.151,1.151,0,0,0,2.218.611" transform="translate(-968.936 -966.119)" fill="#93b449"/>
        <path id="Trazado_1018806" data-name="Trazado 1018806" d="M1127.759,1313.755a4.726,4.726,0,0,1,2.5-.973,8.882,8.882,0,0,1,2.629.541,3.412,3.412,0,0,0,2.088-.294,4.2,4.2,0,0,1,3.364-.085c1.347.572,2.521-1.409,1.161-1.986a6.71,6.71,0,0,0-3.286-.609,6.113,6.113,0,0,0-1.549.334,2.522,2.522,0,0,1-1.982.141,6.888,6.888,0,0,0-6.087.945c-1.19.858-.043,2.854,1.161,1.986" transform="translate(-944.573 -1099.107)" fill="#1c1c1c"/>
        <path id="Trazado_1018807" data-name="Trazado 1018807" d="M1506.137,945.711c-.552-.239-1.259-.159-1.678-.589-.534-.547-.207-1.447.084-2.154a12.317,12.317,0,0,0,.76-6.615c-.212-1.3-.86-2.781-2.16-3.013-1.234-.221-2.323.815-3.031,1.85a14.49,14.49,0,0,0-2.477,7.023,6.26,6.26,0,0,1-.36,2.118,1.663,1.663,0,0,1-1.694,1.065c-.445-.087-.837-.429-1.289-.4a1.1,1.1,0,0,0-.9,1.048,2.972,2.972,0,0,0,.37,1.445,26.538,26.538,0,0,0,4.514,6.816l.217.045a17.587,17.587,0,0,0,7.088-4.079,4.825,4.825,0,0,0,1.517-2.234,2.018,2.018,0,0,0-.956-2.33" transform="translate(-1252.654 -782.864)" fill="#afce5b"/>
        <path id="Trazado_1018808" data-name="Trazado 1018808" d="M1402.78,1028.962a24.468,24.468,0,0,0-8.064-8.245c-1.051-.655-2.627-1.142-3.361-.144a2.217,2.217,0,0,0-.148,1.907,6.488,6.488,0,0,0,1.95,3.088,15.32,15.32,0,0,0-8.007,2.795c-.533.379-1.092.9-1.062,1.55.046,1,1.338,1.372,2.34,1.357a13.677,13.677,0,0,0,5.737-1.363,5.155,5.155,0,0,1-1.234,1.549c-.434.505-.7,1.329-.225,1.8a1.468,1.468,0,0,0,1.194.278c3.948-.384,7.166-4.5,11.069-3.79Z" transform="translate(-1160.978 -855.583)" fill="#afce5b"/>
        <path id="Trazado_1018809" data-name="Trazado 1018809" d="M1568.136,1056.572c-2.506-1.808-5.969-1.088-8.991-1.729.612-.894,1.142-2.3.235-2.888a1.927,1.927,0,0,0-1.517-.07,13.694,13.694,0,0,0-9.616,9.314l.08.638a21.989,21.989,0,0,0,6.1,3c1,.311,2.229.5,2.965-.246.918-.927.348-2.48-.269-3.629a15.042,15.042,0,0,0,6.2,1.091,7.153,7.153,0,0,0,5.417-2.877,1.666,1.666,0,0,0-.606-2.6" transform="translate(-1298.674 -882.224)" fill="#afce5b"/>
        <path id="Trazado_1018810" data-name="Trazado 1018810" d="M1410.547,1163.208c-11.429-.6-24.186,3.869-24.9,9.316-1.085,8.317,6.088,41.294,8.352,44.011,4.016,4.819,23.236,5.6,29.073,1.285,3.694-2.731,9.862-38.736,9.316-44.011-.482-4.658-6.586-9.8-21.845-10.6" transform="translate(-1162.195 -975.658)" fill="#c9944f"/>
        <path id="Trazado_1018811" data-name="Trazado 1018811" d="M1445.758,1170.433a10.575,10.575,0,0,0-1.834-2.266c-.744-.825-1.13-1.934-1.918-2.717-.848-.843-2.066-1.214-2.964-2-.419-.368-.758-.819-1.149-1.217a6.42,6.42,0,0,0-4.162-1.894,19.079,19.079,0,0,1-3.1-.1c-1.209-.273-2.248-1.126-3.479-1.275a10.612,10.612,0,0,0-3.072.442c-3.041.537-6.47-.684-9.1.934-.762.469-1.388,1.148-2.188,1.549-.539.271-1.137.4-1.7.63a10.743,10.743,0,0,0-2.123,1.273,11.426,11.426,0,0,0-3.448,3.258c-.687,1.164-2.6,4.939.69,7.629,1.092.893,6.965,4.179,16.606,4.313,13.018.181,18.967-1.716,21.464-3.309a4.05,4.05,0,0,0,1.473-5.249" transform="translate(-1177.971 -972.121)" fill="#683c1e"/>
        <path id="Trazado_1018812" data-name="Trazado 1018812" d="M1397.273,1220.08c-.447,3.54,2.257,6.116,5.181,7.573a32.763,32.763,0,0,0,11.734,2.93,65.633,65.633,0,0,0,11.786-.1,31.223,31.223,0,0,0,10.694-2.495c2.974-1.435,5.006-3.995,4.306-7.411-.3-1.449-2.515-.836-2.218.612.487,2.375-1.3,3.871-3.249,4.813a27.618,27.618,0,0,1-9.213,2.15c-6.8.672-14.144.665-20.653-1.637-2.856-1.01-6.518-2.875-6.068-6.435.185-1.465-2.117-1.451-2.3,0" transform="translate(-1171.997 -1022.49)" fill="#1c1c1c"/>
        <path id="Trazado_1018813" data-name="Trazado 1018813" d="M1439.3,1222.705a1.151,1.151,0,0,0,0-2.3,1.151,1.151,0,0,0,0,2.3" transform="translate(-1206.359 -1023.68)" fill="#bc8864"/>
        <path id="Trazado_1018814" data-name="Trazado 1018814" d="M1478.226,1250.182a1.151,1.151,0,0,0,0-2.3,1.151,1.151,0,0,0,0,2.3" transform="translate(-1239.009 -1046.728)" fill="#bc8864"/>
        <path id="Trazado_1018815" data-name="Trazado 1018815" d="M1472.48,1201.186a1.151,1.151,0,0,0,0-2.3,1.151,1.151,0,0,0,0,2.3" transform="translate(-1234.189 -1005.63)" fill="#bc8864"/>
        <path id="Trazado_1018816" data-name="Trazado 1018816" d="M1566.762,1179.2a1.151,1.151,0,0,0,0-2.3,1.151,1.151,0,0,0,0,2.3" transform="translate(-1313.273 -987.188)" fill="#bc8864"/>
        <path id="Trazado_1018817" data-name="Trazado 1018817" d="M1622.479,1212.019a1.151,1.151,0,0,0,0-2.3,1.151,1.151,0,0,0,0,2.3" transform="translate(-1360.009 -1014.717)" fill="#bc8864"/>
        <path id="Trazado_1018818" data-name="Trazado 1018818" d="M1585.843,1244.839a1.151,1.151,0,0,0,0-2.3,1.151,1.151,0,0,0,0,2.3" transform="translate(-1329.279 -1042.246)" fill="#bc8864"/>
        <path id="Trazado_1018819" data-name="Trazado 1018819" d="M1534.706,1241.786a1.151,1.151,0,0,0,0-2.3,1.151,1.151,0,0,0,0,2.3" transform="translate(-1286.385 -1039.686)" fill="#bc8864"/>
        <path id="Trazado_1018820" data-name="Trazado 1018820" d="M1521.027,1030.729c-1.241-10.471-2.314-21.085,1.291-31.225.5-1.4-1.725-2-2.218-.612-3.672,10.332-2.638,21.165-1.373,31.837.172,1.452,2.474,1.469,2.3,0" transform="translate(-1272.934 -837.215)" fill="#93b449"/>
        <path id="Trazado_1018821" data-name="Trazado 1018821" d="M1458.374,1053.34a8.14,8.14,0,0,1,5.255,3.2c1.307,1.531,3.06,3.615,3.35,5.641.209,1.46,2.425.839,2.218-.612a8.877,8.877,0,0,0-1.739-3.689,30.66,30.66,0,0,0-2.482-3.286,10.118,10.118,0,0,0-6.6-3.555c-1.474-.135-1.464,2.167,0,2.3" transform="translate(-1222.365 -881.611)" fill="#93b449"/>
        <path id="Trazado_1018822" data-name="Trazado 1018822" d="M1522.923,1091.176c1.878-4.076,4.263-7.389,8.247-9.632a1.151,1.151,0,0,0-1.161-1.986c-4.3,2.419-7.041,6.049-9.073,10.458-.615,1.335,1.367,2.505,1.986,1.161" transform="translate(-1275.669 -905.405)" fill="#93b449"/>
        <path id="Trazado_1018823" data-name="Trazado 1018823" d="M1495.9,1199.807a5.529,5.529,0,0,1,5.725-.163,1.134,1.134,0,0,0,1.161,0,2.619,2.619,0,0,1,3.08.031c1.21.858,2.36-1.136,1.161-1.986a4.825,4.825,0,0,0-5.4-.031h1.161a7.877,7.877,0,0,0-8.047.162c-1.255.78-.1,2.771,1.161,1.986" transform="translate(-1253.342 -1003.74)" fill="#1c1c1c"/>
      </g>
    </g>
  </g>
</svg>
