<svg xmlns="http://www.w3.org/2000/svg" width="84" height="84" viewBox="0 0 84 84">
  <g id="Grupo_1197573" data-name="Grupo 1197573" transform="translate(-186 -6144.216)">
    <g id="Grupo_1197401" data-name="Grupo 1197401" transform="translate(-520 4465.296)">
      <g id="Grupo_1119665" data-name="Grupo 1119665" transform="translate(534.111 -3840.08)">
        <rect id="Rectángulo_402006" data-name="Rectángulo 402006" width="84" height="84" rx="5" transform="translate(171.889 5519)" fill="#daeaaf"/>
      </g>
    </g>
    <g id="_19_Planting" data-name="19 Planting" transform="translate(195.999 6156.007)">
      <path id="Trazado_1018826" data-name="Trazado 1018826" d="M38.24,4.77a.992.992,0,0,0,1-1,1.052,1.052,0,0,0-.29-.71,1.047,1.047,0,0,0-1.42,0,1.013,1.013,0,0,0,0,1.419A1.046,1.046,0,0,0,38.24,4.77Z" fill="#2d5a27"/>
      <path id="Trazado_1018827" data-name="Trazado 1018827" d="M9,11.04v1.966H1.006a1,1,0,0,0,0,2H63a1,1,0,0,0,0-2H54.959V11.04c2.427,0,5.141-.049,7.144-2.052,1.961-1.961,1.922-5.194,1.9-7.334L64,1.006a1,1,0,0,0-.953-1s-.272-.013-.721-.013c-2.019,0-5.654.247-7.308,1.9A6.04,6.04,0,0,0,53.976,3.3a6.142,6.142,0,0,0-1.034-1.4C51.289.251,47.658,0,45.642,0c-.447,0-.718.013-.718.013a1,1,0,0,0-.953,1l-.006.646C43.94,3.8,43.9,7.03,45.858,8.989c1.995,1.993,4.69,2.048,7.106,2.05v1.966H32.991V11.04c2.426,0,5.141-.049,7.145-2.052,1.961-1.961,1.922-5.194,1.9-7.334l-.006-.648a1,1,0,0,0-.953-1s-.272-.013-.72-.013c-2.02,0-5.655.247-7.309,1.9A6.04,6.04,0,0,0,32,3.307a6.167,6.167,0,0,0-1.033-1.4c-1.654-1.653-5.285-1.9-7.3-1.9-.446,0-.718.013-.718.013a1,1,0,0,0-.953,1l-.006.646c-.025,2.138-.065,5.367,1.894,7.326,1.993,1.993,4.689,2.049,7.1,2.05v1.966H11V11.04c2.427,0,5.141-.049,7.145-2.052,1.961-1.961,1.921-5.2,1.9-7.336l-.006-.646a1,1,0,0,0-.953-1s-.272-.013-.721-.013c-2.019,0-5.654.247-7.308,1.9A6.022,6.022,0,0,0,10.017,3.3,6.126,6.126,0,0,0,8.983,1.9C7.325.252,3.694.006,1.677.006,1.23.006.959.019.959.019a1,1,0,0,0-.953,1L0,1.666C-.026,3.8-.065,7.032,1.893,8.99,3.887,10.983,6.582,11.038,9,11.04ZM56.425,3.31C57.206,2.528,59.327,2.032,62,2c.018,1.875-.023,4.287-1.314,5.578-1.074,1.073-2.462,1.361-4.307,1.438l2.45-2.452a1,1,0,0,0-1.414-1.413L54.987,7.578A6,6,0,0,1,56.425,3.31ZM45.956,2.01c2.671.036,4.788.532,5.568,1.311,1.161,1.16,1.4,2.734,1.451,4.668-.008.348-.014.7-.015,1.054-2.566-.009-4.36-.143-5.692-1.467-1.289-1.288-1.331-3.7-1.312-5.568Zm-11.5,1.3c.781-.782,2.9-1.278,5.578-1.314.019,1.875-.022,4.287-1.313,5.578-1.075,1.073-2.462,1.361-4.309,1.438L36.864,6.56A1,1,0,0,0,35.45,5.147L33.019,7.578A6.007,6.007,0,0,1,34.457,3.31ZM23.987,2.01c2.671.036,4.788.532,5.569,1.311,1.159,1.16,1.4,2.734,1.449,4.668-.008.348-.014.7-.015,1.054-2.565-.009-4.363-.143-5.69-1.467-1.288-1.288-1.33-3.7-1.312-5.568ZM12.465,3.31c.781-.782,2.9-1.278,5.577-1.314.019,1.875-.023,4.287-1.314,5.578-1.074,1.073-2.461,1.361-4.307,1.438l2.45-2.452a1,1,0,1,0-1.414-1.413L11.026,7.578A6.012,6.012,0,0,1,12.465,3.31ZM2,2.008c2.671.036,4.788.532,5.567,1.311,1.161,1.16,1.4,2.734,1.451,4.669C9.006,8.336,9,8.686,9,9.041,6.433,9.034,4.635,8.9,3.307,7.576,2.019,6.288,1.977,3.88,2,2.008Z" fill="#2d5a27"/>
      <path id="Trazado_1018828" data-name="Trazado 1018828" d="M16.25,4.77a.992.992,0,0,0,1-1,1.013,1.013,0,0,0-.29-.7,1.038,1.038,0,0,0-1.42-.009.99.99,0,0,0-.29.71,1,1,0,0,0,.29.709,1.046,1.046,0,0,0,.71.29Z" fill="#2d5a27"/>
      <path id="Trazado_1018829" data-name="Trazado 1018829" d="M60.21,4.77a1,1,0,0,0,.7-1.71,1.034,1.034,0,0,0-1.41,0,1.013,1.013,0,0,0,0,1.419A1.026,1.026,0,0,0,60.21,4.77Z" fill="#2d5a27"/>
      <path id="Trazado_1018830" data-name="Trazado 1018830" d="M63,17.011H1.006a1,1,0,0,0,0,2H63a1,1,0,0,0,0-2Z" fill="#2d5a27"/>
      <path id="Trazado_1018831" data-name="Trazado 1018831" d="M38.24,27.77a1.017,1.017,0,0,0,.71-.3,1,1,0,0,0,0-1.41,1.047,1.047,0,0,0-1.42,0,1,1,0,0,0,.71,1.71Z" fill="#2d5a27"/>
      <path id="Trazado_1018832" data-name="Trazado 1018832" d="M9,34.035V36H1a1,1,0,0,0,0,2H9.974c.008,0,.015.005.024.005s.016-.005.024-.005H31.967c.009,0,.015.005.024.005s.016-.005.025-.005H53.935c.008,0,.015.005.024.005s.016-.005.024-.005H63a1,1,0,0,0,0-2H54.959V34.035c2.427,0,5.141-.049,7.144-2.052,1.961-1.961,1.922-5.194,1.9-7.334L63.993,24a1,1,0,0,0-.953-1s-.272-.013-.721-.013c-2.019,0-5.654.247-7.308,1.9A6.061,6.061,0,0,0,53.972,26.3a6.121,6.121,0,0,0-1.034-1.4c-1.653-1.653-5.284-1.9-7.3-1.9-.447,0-.718.013-.718.013a1,1,0,0,0-.953,1l-.006.646c-.025,2.138-.066,5.367,1.893,7.326,1.995,1.993,4.69,2.048,7.106,2.05V36H32.991V34.035c2.426,0,5.141-.049,7.145-2.052,1.961-1.961,1.922-5.194,1.9-7.334L42.025,24a1,1,0,0,0-.953-1s-.272-.013-.72-.013c-2.02,0-5.655.247-7.309,1.9A6.061,6.061,0,0,0,32,26.3a6.145,6.145,0,0,0-1.033-1.4c-1.654-1.653-5.285-1.9-7.3-1.9-.446,0-.718.013-.718.013a1,1,0,0,0-.953,1l-.006.646c-.025,2.138-.065,5.367,1.894,7.326,1.993,1.993,4.689,2.048,7.1,2.05V36H11V34.035c2.427,0,5.141-.049,7.145-2.052,1.961-1.961,1.921-5.2,1.9-7.336L20.033,24a1,1,0,0,0-.953-1s-.272-.013-.721-.013c-2.019,0-5.654.247-7.308,1.9a6.042,6.042,0,0,0-1.04,1.412,6.126,6.126,0,0,0-1.034-1.4C7.325,23.247,3.694,23,1.677,23c-.447,0-.718.013-.718.013a1,1,0,0,0-.953,1L0,24.661c-.026,2.137-.065,5.366,1.893,7.324C3.887,33.978,6.582,34.033,9,34.035Zm47.427-7.73c.781-.782,2.9-1.278,5.578-1.314.018,1.875-.023,4.287-1.314,5.578-1.074,1.074-2.462,1.362-4.307,1.438l2.45-2.451a1,1,0,1,0-1.414-1.414l-2.431,2.431a6.005,6.005,0,0,1,1.436-4.268ZM45.956,25c2.671.036,4.788.532,5.568,1.312,1.161,1.16,1.4,2.733,1.451,4.667-.008.348-.014.7-.015,1.054-2.566-.007-4.364-.138-5.692-1.465C45.979,29.283,45.937,26.875,45.956,25Zm-11.5,1.3c.781-.782,2.9-1.278,5.578-1.314.019,1.875-.022,4.287-1.313,5.578-1.075,1.074-2.462,1.362-4.309,1.438l2.451-2.451a1,1,0,1,0-1.414-1.414l-2.431,2.431a6.007,6.007,0,0,1,1.439-4.263ZM23.988,25c2.671.036,4.788.532,5.569,1.312,1.159,1.16,1.4,2.733,1.449,4.667-.008.348-.014.7-.015,1.054-2.566-.007-4.364-.138-5.691-1.465C24.012,29.283,23.97,26.875,23.988,25ZM12.465,26.3c.781-.782,2.9-1.278,5.577-1.314.019,1.875-.023,4.287-1.314,5.578-1.074,1.074-2.461,1.362-4.307,1.438l2.45-2.451a1,1,0,1,0-1.414-1.414l-2.431,2.431a6.012,6.012,0,0,1,1.439-4.263ZM2,25c2.671.036,4.788.532,5.567,1.312,1.161,1.16,1.4,2.733,1.451,4.668-.008.347-.014.7-.015,1.053-2.566-.007-4.364-.138-5.692-1.465C2.019,29.283,1.977,26.875,2,25Z" fill="#2d5a27"/>
      <path id="Trazado_1018833" data-name="Trazado 1018833" d="M16.25,27.77a1,1,0,0,0,.71-1.71,1.047,1.047,0,0,0-1.42,0,1.005,1.005,0,0,0,.71,1.71Z" fill="#2d5a27"/>
      <path id="Trazado_1018834" data-name="Trazado 1018834" d="M60.21,27.77a1,1,0,0,0,.7-1.71,1.034,1.034,0,0,0-1.41,0,1.005,1.005,0,0,0,.71,1.71Z" fill="#2d5a27"/>
      <path id="Trazado_1018835" data-name="Trazado 1018835" d="M63,40.006H1a1,1,0,0,0,0,2H63a1,1,0,0,0,0-2Z" fill="#2d5a27"/>
      <path id="Trazado_1018836" data-name="Trazado 1018836" d="M38.24,49.76a1,1,0,0,0,.71-1.7,1.047,1.047,0,0,0-1.42,0,1,1,0,0,0,.71,1.7Z" fill="#2d5a27"/>
      <path id="Trazado_1018837" data-name="Trazado 1018837" d="M16.25,49.76a1.007,1.007,0,0,0,1-.99.982.982,0,0,0-.3-.71,1.034,1.034,0,0,0-1.41,0,1,1,0,0,0,0,1.41A.986.986,0,0,0,16.25,49.76Z" fill="#2d5a27"/>
      <path id="Trazado_1018838" data-name="Trazado 1018838" d="M60.21,49.77a1,1,0,0,0,.71-1.71,1.047,1.047,0,0,0-1.42,0,1.005,1.005,0,0,0,.71,1.71Z" fill="#2d5a27"/>
      <path id="Trazado_1018839" data-name="Trazado 1018839" d="M63,58H54.96V56.035c2.427,0,5.141-.049,7.144-2.052,1.961-1.961,1.922-5.194,1.9-7.334L63.994,46a1,1,0,0,0-.953-1s-.272-.013-.721-.013c-2.019,0-5.654.247-7.308,1.9A6.061,6.061,0,0,0,53.973,48.3a6.121,6.121,0,0,0-1.034-1.4c-1.653-1.653-5.284-1.9-7.3-1.9-.447,0-.718.013-.718.013a1,1,0,0,0-.953,1l-.006.646c-.026,2.138-.066,5.367,1.893,7.326,1.995,1.993,4.691,2.048,7.106,2.05V58H32.992V56.035c2.427,0,5.141-.049,7.145-2.052,1.961-1.961,1.922-5.194,1.9-7.334L42.026,46a1,1,0,0,0-.953-1s-.272-.013-.721-.013c-2.019,0-5.654.247-7.308,1.9A6.066,6.066,0,0,0,32.005,48.3a6.126,6.126,0,0,0-1.034-1.4c-1.653-1.653-5.284-1.9-7.3-1.9-.446,0-.718.013-.718.013a1,1,0,0,0-.953,1l-.006.648c-.026,2.137-.065,5.366,1.894,7.324,1.994,1.993,4.689,2.048,7.1,2.05V58H11V56.035c2.426,0,5.141-.049,7.144-2.052,1.961-1.96,1.921-5.193,1.9-7.332L20.033,46a1,1,0,0,0-.953-1s-.272-.013-.721-.013c-2.019,0-5.654.247-7.308,1.9A6.061,6.061,0,0,0,10.012,48.3a6.121,6.121,0,0,0-1.034-1.4C7.325,45.247,3.694,45,1.677,45c-.447,0-.718.013-.718.013a1,1,0,0,0-.953,1L0,46.659c-.025,2.138-.065,5.368,1.894,7.326,1.994,1.993,4.69,2.048,7.106,2.05V58H1a1,1,0,0,0,0,2H9.976c.008,0,.015.005.024.005s.016-.005.024-.005H31.968c.009,0,.015.005.024.005s.016-.005.025-.005H53.935c.009,0,.016.005.025.005s.016-.005.024-.005H63a1,1,0,0,0,0-2Zm-6.575-9.7c.781-.782,2.9-1.278,5.578-1.314.018,1.875-.023,4.287-1.314,5.578-1.074,1.074-2.462,1.362-4.307,1.438l2.45-2.451a1,1,0,1,0-1.414-1.414l-2.431,2.431a6.005,6.005,0,0,1,1.439-4.263ZM45.957,47c2.671.036,4.788.532,5.568,1.312,1.16,1.16,1.4,2.733,1.451,4.667-.008.348-.014.7-.015,1.054-2.567-.007-4.364-.138-5.692-1.465C45.98,51.283,45.938,48.875,45.957,47Zm-11.5,1.3c.781-.782,2.9-1.278,5.578-1.314.019,1.875-.022,4.287-1.313,5.578C37.647,53.638,36.26,53.926,34.414,54l2.45-2.451a1,1,0,1,0-1.414-1.414l-2.43,2.436a6.01,6.01,0,0,1,1.438-4.268ZM23.989,47c2.671.036,4.788.532,5.568,1.312,1.16,1.161,1.4,2.734,1.451,4.669-.008.347-.014.7-.015,1.052-2.566-.007-4.364-.138-5.692-1.465C24.012,51.283,23.971,48.875,23.989,47ZM12.465,48.3c.781-.782,2.9-1.278,5.578-1.314.018,1.875-.022,4.287-1.313,5.578-1.074,1.074-2.461,1.362-4.308,1.438l2.451-2.451a1,1,0,1,0-1.414-1.414l-2.432,2.431a6,6,0,0,1,1.438-4.263ZM2,47c2.671.036,4.788.532,5.568,1.312,1.161,1.16,1.4,2.733,1.451,4.667-.008.348-.014.7-.015,1.054-2.566-.007-4.364-.138-5.691-1.465C2.019,51.283,1.977,48.875,2,47Z" fill="#2d5a27"/>
      <path id="Trazado_1018840" data-name="Trazado 1018840" d="M63,62.006H1a1,1,0,1,0,0,2H63a1,1,0,0,0,0-2Z" fill="#2d5a27"/>
    </g>
  </g>
</svg>
