<svg xmlns="http://www.w3.org/2000/svg" width="84" height="84" viewBox="0 0 84 84">
  <g id="Grupo_1197574" data-name="Grupo 1197574" transform="translate(-706 -9260.293)">
    <g id="Grupo_1197412" data-name="Grupo 1197412" transform="translate(0 7581.374)">
      <g id="Grupo_1119665" data-name="Grupo 1119665" transform="translate(534.111 -3840.08)">
        <rect id="Rectángulo_402006" data-name="Rectángulo 402006" width="84" height="84" rx="5" transform="translate(171.889 5519)" fill="#daeaaf"/>
      </g>
    </g>
    <g id="Layer_x0020_1" transform="translate(715.839 9271.44)">
      <g id="_385758016" transform="translate(0.84 1.158)">
        <path id="_385755328" d="M4.174,9.095a.812.812,0,0,1-.811-.811V3.093a.812.812,0,0,1,.811-.811.8.8,0,0,1,.811.811V8.3a.808.808,0,0,1-.811.795Z" transform="translate(27.342 11.396)" fill="#2d5a27" fill-rule="evenodd"/>
        <path id="_385755688" d="M4.174,9.121a.812.812,0,0,1-.811-.811V1.969a.812.812,0,0,1,.811-.811.8.8,0,0,1,.811.811v6.34A.812.812,0,0,1,4.174,9.121Z" transform="translate(27.342 -1.158)" fill="#2d5a27" fill-rule="evenodd"/>
        <path id="_385758976" d="M10.24,3.6H4.476a.812.812,0,0,1-.811-.811.8.8,0,0,1,.811-.811h5.782A.812.812,0,1,1,10.24,3.6Z" transform="translate(30.71 8.029)" fill="#2d5a27" fill-rule="evenodd"/>
        <path id="_385758952" d="M9.181,3.6H3.4a.812.812,0,0,1-.811-.811A.8.8,0,0,1,3.4,1.98H9.181a.811.811,0,0,1,0,1.623Z" transform="translate(18.683 8.029)" fill="#2d5a27" fill-rule="evenodd"/>
        <path id="_385758904" d="M7.336,7.451a.838.838,0,0,1-.626-.287L3.058,2.7A.805.805,0,1,1,4.309,1.685L7.961,6.149a.792.792,0,0,1-.118,1.133A.913.913,0,0,1,7.336,7.451Z" transform="translate(21.864 1.341)" fill="#2d5a27" fill-rule="evenodd"/>
        <path id="_385758208" d="M8.018,8.284A.838.838,0,0,1,7.392,8L3.74,3.533A.805.805,0,1,1,4.991,2.519L8.643,6.982a.792.792,0,0,1-.118,1.133A.958.958,0,0,1,8.018,8.284Z" transform="translate(29.483 10.651)" fill="#2d5a27" fill-rule="evenodd"/>
        <path id="_385758400" d="M7.526,10.607A4.419,4.419,0,0,1,4.5,9.423a4.457,4.457,0,1,1,6.036-6.56,4.411,4.411,0,0,1,1.437,3.28,4.456,4.456,0,0,1-1.623,3.449A4.314,4.314,0,0,1,7.526,10.607Zm0-7.3a2.753,2.753,0,0,0-1.809.642A2.846,2.846,0,0,0,5.6,8.257a2.8,2.8,0,0,0,1.927.761,2.753,2.753,0,0,0,1.809-.643A2.866,2.866,0,0,0,10.383,6.16a2.713,2.713,0,0,0-.913-2.079l-.017-.017A2.767,2.767,0,0,0,7.526,3.3Z" transform="translate(23.99 4.677)" fill="#2d5a27" fill-rule="evenodd"/>
        <path id="_385758136" d="M3.634,8.052a.741.741,0,0,1-.541-.22A.818.818,0,0,1,3.043,6.7L6.965,2.456A.8.8,0,1,1,8.149,3.539L4.226,7.782a.752.752,0,0,1-.592.27Z" transform="translate(21.491 10.511)" fill="#2d5a27" fill-rule="evenodd"/>
        <path id="_385758544" d="M4.364,7.247a.741.741,0,0,1-.541-.22.818.818,0,0,1-.051-1.133L7.694,1.668A.8.8,0,1,1,8.878,2.75L4.955,6.976a.811.811,0,0,1-.592.27Z" transform="translate(29.638 1.697)" fill="#2d5a27" fill-rule="evenodd"/>
        <path id="_385758376" d="M7.971,14.463a7.594,7.594,0,0,1-2.958-.642.81.81,0,0,1,.642-1.488,5,5,0,0,0,6.29-1.538A13.478,13.478,0,0,0,14.21,5.823c.068-.287.152-.592.22-.913-.321.017-.642.017-.98.034-1.606.051-3.28.084-4.9.169a6.5,6.5,0,0,0-2.925.761A3.389,3.389,0,0,0,3.829,9.357a3.61,3.61,0,0,0,.287,1.336.812.812,0,0,1-.423,1.065.827.827,0,0,1-1.065-.423,5.358,5.358,0,0,1-.423-1.911A5.053,5.053,0,0,1,4.826,4.453,8.191,8.191,0,0,1,8.445,3.49c1.64-.084,3.314-.135,4.937-.169l1.64-.051a1.2,1.2,0,0,1,.253.017c.051,0,.084.017.118.017a.8.8,0,0,1,.778.98c-.068.253-.118.507-.169.761-.084.406-.186.795-.27,1.184a15.019,15.019,0,0,1-2.553,5.562A6.56,6.56,0,0,1,7.971,14.463Z" transform="translate(14.331 22.444)" fill="#2d5a27" fill-rule="evenodd"/>
        <path id="_385758448" d="M2.836,16.095H2.751a.8.8,0,0,1-.71-.879A16.356,16.356,0,0,1,4.053,8.977c.169-.287.338-.558.507-.795A11.693,11.693,0,0,1,12.067,3.5a.8.8,0,1,1,.321,1.572A10.139,10.139,0,0,0,5.862,9.113a7.954,7.954,0,0,0-.44.676A14.558,14.558,0,0,0,3.63,15.4a.8.8,0,0,1-.794.693Z" transform="translate(12.518 24.836)" fill="#2d5a27" fill-rule="evenodd"/>
        <path id="_385758592" d="M9.093,14.4a6.6,6.6,0,0,1-5.224-2.654A14.721,14.721,0,0,1,1.316,6.2c-.118-.423-.2-.828-.287-1.234-.051-.237-.1-.474-.169-.71A.835.835,0,0,1,.995,3.6a.8.8,0,0,1,.575-.321.214.214,0,0,0,.1-.017,1.277,1.277,0,0,1,.372-.017l1.606.051c1.623.051,3.3.084,4.937.186a8.4,8.4,0,0,1,3.618.963,4.991,4.991,0,0,1,2.6,4.954,5.2,5.2,0,0,1-.44,1.927.8.8,0,1,1-1.454-.676A3.465,3.465,0,0,0,13.2,9.31a3.43,3.43,0,0,0-1.792-3.483,6.766,6.766,0,0,0-2.925-.761c-1.623-.084-3.3-.135-4.9-.169-.321-.017-.642-.017-.98-.034.068.321.135.626.22.913a13.336,13.336,0,0,0,2.265,4.954,5,5,0,0,0,6.29,1.538.812.812,0,0,1,1.065.423.8.8,0,0,1-.423,1.065,7.329,7.329,0,0,1-2.925.642Z" transform="translate(-0.84 22.035)" fill="#2d5a27" fill-rule="evenodd"/>
        <path id="_385758520" d="M11.531,16.529a.8.8,0,0,1-.795-.71,16.807,16.807,0,0,0-1.86-6.053l-.1-.152c-.118-.186-.22-.355-.338-.507,0-.017-.017-.017-.017-.034A10.139,10.139,0,0,0,1.894,5.033a.8.8,0,1,1,.321-1.572A11.739,11.739,0,0,1,9.721,8.127c.169.22.287.423.423.626l.1.152a.017.017,0,0,0,.017.017,18.088,18.088,0,0,1,2.079,6.695.813.813,0,0,1-.71.9.294.294,0,0,1-.1.017Z" transform="translate(3.771 24.402)" fill="#2d5a27" fill-rule="evenodd"/>
        <path id="_385758184" d="M10.5,14.45a7.594,7.594,0,0,1-2.958-.642.827.827,0,0,1-.423-1.065.815.815,0,0,1,1.065-.423,5.023,5.023,0,0,0,6.29-1.538,13.478,13.478,0,0,0,2.265-4.971c.068-.287.152-.592.22-.913-.321.017-.643.017-.98.034-1.606.051-3.28.084-4.9.169a6.5,6.5,0,0,0-2.925.761A3.389,3.389,0,0,0,6.36,9.344a3.687,3.687,0,0,0,.287,1.336.81.81,0,0,1-1.488.642,5.36,5.36,0,0,1-.423-1.911A5.053,5.053,0,0,1,7.357,4.441a8.191,8.191,0,0,1,3.618-.963c1.64-.084,3.314-.135,4.937-.169l1.64-.051a1.12,1.12,0,0,1,.253.017c.051,0,.084.017.118.017a.8.8,0,0,1,.778.98c-.068.253-.118.507-.169.761-.084.406-.169.795-.27,1.184a15.617,15.617,0,0,1-2.553,5.562A6.465,6.465,0,0,1,10.5,14.45Z" transform="translate(42.604 22.305)" fill="#2d5a27" fill-rule="evenodd"/>
        <path id="_385758352" d="M5.376,16.252H5.292a.813.813,0,0,1-.727-.879A16.328,16.328,0,0,1,6.594,8.948a7.212,7.212,0,0,1,.524-.795,11.607,11.607,0,0,1,7.506-4.666.8.8,0,0,1,.321,1.572A10.139,10.139,0,0,0,8.419,9.1c0,.017-.017.017-.017.034a4.742,4.742,0,0,0-.423.642A14.884,14.884,0,0,0,6.17,15.542a.778.778,0,0,1-.794.71Z" transform="translate(40.747 24.696)" fill="#2d5a27" fill-rule="evenodd"/>
        <path id="_385757584" d="M11.607,14.386a6.6,6.6,0,0,1-5.224-2.654A14.721,14.721,0,0,1,3.829,6.187c-.118-.423-.2-.828-.287-1.234l-.152-.71a.835.835,0,0,1,.135-.659A.8.8,0,0,1,4.1,3.262a.214.214,0,0,0,.1-.017,1.277,1.277,0,0,1,.372-.017l1.606.051c1.623.051,3.3.084,4.937.186a8.4,8.4,0,0,1,3.618.963,4.991,4.991,0,0,1,2.6,4.954,5.129,5.129,0,0,1-.423,1.927.8.8,0,1,1-1.454-.676,3.625,3.625,0,0,0,.287-1.319,3.43,3.43,0,0,0-1.792-3.483,6.765,6.765,0,0,0-2.925-.761c-1.623-.084-3.3-.135-4.9-.169-.321-.017-.642-.017-.98-.034.068.321.135.626.22.913a13.337,13.337,0,0,0,2.265,4.954,4.993,4.993,0,0,0,6.289,1.538.812.812,0,0,1,1.065.423.8.8,0,0,1-.423,1.065,7.838,7.838,0,0,1-2.959.625Z" transform="translate(27.433 21.896)" fill="#2d5a27" fill-rule="evenodd"/>
        <path id="_385757608" d="M14.079,16.686a.805.805,0,0,1-.795-.727,16.8,16.8,0,0,0-1.894-6.2c-.169-.287-.3-.49-.44-.693A10.158,10.158,0,0,0,4.425,5.021a.8.8,0,1,1,.321-1.572,11.816,11.816,0,0,1,7.523,4.683c.152.22.321.473.524.795a18.608,18.608,0,0,1,2.113,6.9.823.823,0,0,1-.727.879.248.248,0,0,0-.1-.017Z" transform="translate(32.045 24.262)" fill="#2d5a27" fill-rule="evenodd"/>
        <path id="_385757488" d="M54.19,16.478a.709.709,0,0,1-.474-.169.826.826,0,0,1-.169-1.133,2.014,2.014,0,0,0,.389-1.217V8.109A2.128,2.128,0,0,0,51.806,6H4.957a2.118,2.118,0,0,0-2.13,2.113v5.85a2.1,2.1,0,0,0,.389,1.234.8.8,0,1,1-1.285.947,3.7,3.7,0,0,1-.71-2.181V8.109A3.734,3.734,0,0,1,4.958,4.39H51.806a3.734,3.734,0,0,1,3.737,3.72v5.85a3.621,3.621,0,0,1-.71,2.181.732.732,0,0,1-.642.338Z" transform="translate(3.413 34.952)" fill="#2d5a27" fill-rule="evenodd"/>
        <path id="_385757680" d="M61.209,10.34H1.782a.812.812,0,0,1-.811-.811V6.063a.812.812,0,0,1,.811-.811H61.209a.812.812,0,0,1,.811.811V9.528a.823.823,0,0,1-.811.812ZM2.594,8.734H60.415V6.874H2.594Z" transform="translate(0.62 44.573)" fill="#2d5a27" fill-rule="evenodd"/>
        <path id="_385757872" d="M41.348,6.313H2.513A.812.812,0,0,1,1.7,5.5a.8.8,0,0,1,.811-.811H41.348a.812.812,0,0,1,0,1.623Z" transform="translate(8.783 38.304)" fill="#2d5a27" fill-rule="evenodd"/>
        <path id="_385757512" d="M41.321,6.581H2.5a.812.812,0,0,1-.811-.811A.8.8,0,0,1,2.5,4.958H41.338a.812.812,0,0,1,.811.811.826.826,0,0,1-.828.811Z" transform="translate(8.674 41.299)" fill="#2d5a27" fill-rule="evenodd"/>
      </g>
    </g>
  </g>
</svg>
