<svg xmlns="http://www.w3.org/2000/svg" width="108" height="100" viewBox="0 0 108 100">
  <g id="Grupo_1197569" data-name="Grupo 1197569" transform="translate(13566 11980)">
    <g id="Grupo_1197055" data-name="Grupo 1197055" transform="translate(-14523.833 -12154)">
      <rect id="Rectángulo_462525" data-name="Rectángulo 462525" width="108" height="100" transform="translate(957.833 174)" fill="#fcc100" opacity="0.68"/>
      <g id="Grupo_1197560" data-name="Grupo 1197560" transform="translate(979.833 192)">
        <path id="Trazado_1018841" data-name="Trazado 1018841" d="M47.75,32c0-2.565-2.7-4.527-2.813-4.61a.754.754,0,0,0-.874,0c-.115.083-2.813,2.045-2.813,4.61s2.7,4.527,2.813,4.61a.754.754,0,0,0,.874,0C45.052,36.527,47.75,34.565,47.75,32Z" fill="#1b3617"/>
        <path id="Trazado_1018842" data-name="Trazado 1018842" d="M38.144,39.336a.752.752,0,0,0-.618.618c-.023.14-.543,3.435,1.271,5.249s5.109,1.293,5.249,1.271a.755.755,0,0,0,.618-.619c.022-.139.543-3.435-1.271-5.248S38.284,39.313,38.144,39.336Z" fill="#1b3617"/>
        <path id="Trazado_1018843" data-name="Trazado 1018843" d="M36.046,24.526c-.14-.023-3.435-.543-5.249,1.271s-1.294,5.109-1.271,5.248a.752.752,0,0,0,.618.618c.14.023,3.435.544,5.249-1.27s1.293-5.109,1.271-5.249a.753.753,0,0,0-.618-.618Z" fill="#1b3617"/>
        <path id="Trazado_1018844" data-name="Trazado 1018844" d="M16.521,24.482a13.766,13.766,0,0,0,13.06-2.642,11.642,11.642,0,0,1,4.482-2.346l9.951-2.667a3,3,0,0,0-1.549-5.795l-13.822,3.7a.751.751,0,0,1-.4-1.447l13.83-3.7a4.5,4.5,0,0,1,5.432,5.759l11.184,3a2.922,2.922,0,0,0,1.984-5.474L38,2.363a8.748,8.748,0,0,0-5.98-.5L17.333,5.868l-2.446-.656L10.25,22.519Z" fill="#1b3617"/>
        <path id="Trazado_1018845" data-name="Trazado 1018845" d="M2.3,22.127,7.553,23.77a.75.75,0,0,0,.949-.521l5.26-19.632a.751.751,0,0,0-.53-.919L7.924,1.276a.75.75,0,0,0-.919.53L1.8,21.218a.749.749,0,0,0,.5.909Z" fill="#1b3617"/>
        <path id="Trazado_1018846" data-name="Trazado 1018846" d="M58.553,19.854l-6.01-1.611L46.782,16.7A4.478,4.478,0,0,1,44.4,18.276l-1.1.294,11.9,3.187a2.751,2.751,0,0,0,3.353-1.9Z" fill="#1b3617"/>
        <path id="Trazado_1018847" data-name="Trazado 1018847" d="M55.488,23.388l-7.88-2.112-7.2-1.929-4.346,1.164L52.3,24.861a2.75,2.75,0,0,0,3.188-1.473Z" fill="#1b3617"/>
        <path id="Trazado_1018848" data-name="Trazado 1018848" d="M63,50.75a11.606,11.606,0,0,1-4.9-.95,13.055,13.055,0,0,0-5.441-1.05,13.053,13.053,0,0,0-5.44,1.05,11.611,11.611,0,0,1-4.9.95,11.573,11.573,0,0,1-4.888-.949A13,13,0,0,0,32,48.75a13,13,0,0,0-5.432,1.05,11.573,11.573,0,0,1-4.888.949,11.611,11.611,0,0,1-4.9-.95,13.053,13.053,0,0,0-5.44-1.05A13.055,13.055,0,0,0,5.9,49.8a11.606,11.606,0,0,1-4.9.95.75.75,0,0,0-.75.75V62a.75.75,0,0,0,.75.75H63a.75.75,0,0,0,.75-.75V51.5a.75.75,0,0,0-.75-.75Zm-51.667,4a1,1,0,1,1,1-1A1,1,0,0,1,11.333,54.75Zm10.334,4a1,1,0,1,1,1-1A1,1,0,0,1,21.667,58.75ZM32,54.75a1,1,0,1,1,1-1A1,1,0,0,1,32,54.75Zm10.333,4a1,1,0,1,1,1-1A1,1,0,0,1,42.333,58.75Zm10.334-4a1,1,0,1,1,1-1A1,1,0,0,1,52.667,54.75Z" fill="#1b3617"/>
      </g>
    </g>
  </g>
</svg>
