<svg xmlns="http://www.w3.org/2000/svg" width="106" height="100" viewBox="0 0 106 100">
  <g id="Grupo_1197570" data-name="Grupo 1197570" transform="translate(13427 11980)">
    <g id="Grupo_1197056" data-name="Grupo 1197056" transform="translate(-14786.833 -12246)">
      <rect id="Rectángulo_462526" data-name="Rectángulo 462526" width="106" height="100" transform="translate(1359.833 266)" fill="#fcc100" opacity="0.68"/>
      <g id="Grupo_1197562" data-name="Grupo 1197562" transform="translate(1382.688 285.854)">
        <path id="Trazado_1018849" data-name="Trazado 1018849" d="M369,293v3.413a10.855,10.855,0,0,1,3.533,0V293Zm0,0" transform="translate(-325.548 -258.498)" fill="#1b3617"/>
        <path id="Trazado_1018850" data-name="Trazado 1018850" d="M413.86,135a15.066,15.066,0,0,0-13.1,7.612c.032.072.064.144.1.218a18.478,18.478,0,0,1,1.458,6.827A15.077,15.077,0,0,0,413.86,135Zm0,0" transform="translate(-353.57 -119.103)" fill="#1b3617"/>
        <path id="Trazado_1018851" data-name="Trazado 1018851" d="M256,135a15.073,15.073,0,0,0,15.073,15.073A15.067,15.067,0,0,0,256,135Zm0,0" transform="translate(-225.854 -119.103)" fill="#1b3617"/>
        <path id="Trazado_1018852" data-name="Trazado 1018852" d="M116.533,295.788v-3.412h-1.766q-.89,0-1.766-.083v3.5a10.872,10.872,0,0,1,3.533,0Zm0,0" transform="translate(-99.694 -257.874)" fill="#1b3617"/>
        <path id="Trazado_1018853" data-name="Trazado 1018853" d="M155.887,142.461A15,15,0,0,0,157.861,135a15.057,15.057,0,0,0-13.1,7.612c.032.072.064.144.1.218a18.469,18.469,0,0,1,1.459,6.827A15.1,15.1,0,0,0,155.887,142.461Zm0,0" transform="translate(-127.715 -119.103)" fill="#1b3617"/>
        <path id="Trazado_1018854" data-name="Trazado 1018854" d="M0,467H60.294v5.3H0Zm0,0" transform="translate(-0.003 -412.008)" fill="#1b3617"/>
        <path id="Trazado_1018855" data-name="Trazado 1018855" d="M52.758,353.251c-3.768,0-3.768-2.5-7.536-2.5s-3.769,2.5-7.537,2.5-3.768-2.5-7.537-2.5-3.768,2.5-7.536,2.5-3.768-2.5-7.536-2.5-3.768,2.5-7.536,2.5-3.768-2.5-7.536-2.5v10.156H60.294V350.75C56.526,350.75,56.526,353.251,52.758,353.251Zm0,0" transform="translate(-0.003 -309.447)" fill="#1b3617"/>
        <path id="Trazado_1018856" data-name="Trazado 1018856" d="M0,135a15.073,15.073,0,0,0,15.073,15.073A15.073,15.073,0,0,0,0,135Zm0,0" transform="translate(0 -119.103)" fill="#1b3617"/>
        <path id="Trazado_1018857" data-name="Trazado 1018857" d="M146.316,14.656A15.078,15.078,0,0,0,157.861,0a15.067,15.067,0,0,0-13.1,7.612c.032.073.064.145.1.218A18.465,18.465,0,0,1,146.316,14.656Zm0,0" transform="translate(-127.715)" fill="#1b3617"/>
        <path id="Trazado_1018858" data-name="Trazado 1018858" d="M15.073,15.073A15.073,15.073,0,0,0,0,0,15.073,15.073,0,0,0,15.073,15.073Zm0,0" fill="#1b3617"/>
      </g>
    </g>
  </g>
</svg>
