<svg xmlns="http://www.w3.org/2000/svg" width="84" height="84" viewBox="0 0 84 84">
  <g id="Grupo_1197569" data-name="Grupo 1197569" transform="translate(-706.082 -3680.469)">
    <g id="Grupo_1177229" data-name="Grupo 1177229" transform="translate(0.082 2001.549)" style="isolation: isolate">
      <g id="Grupo_1119665" data-name="Grupo 1119665" transform="translate(534.111 -3840.08)">
        <rect id="Rectángulo_402006" data-name="Rectángulo 402006" width="84" height="84" rx="5" transform="translate(171.889 5519)" fill="#1b3617"/>
      </g>
    </g>
    <g id="Page-1" transform="translate(723.448 3692.478)">
      <g id="_009---Pruning" data-name="009---Pruning" transform="translate(-1 -1)">
        <path id="Shape" d="M29,33a3,3,0,1,0-3-3A3,3,0,0,0,29,33Zm0-4a1,1,0,1,1-1,1A1,1,0,0,1,29,29Z" fill="#d5ded3"/>
        <path id="Shape-2" data-name="Shape" d="M1.84,41A11.54,11.54,0,0,1,6,42.53C5.21,50.15,5.05,56.38,5,59a1.948,1.948,0,0,0,2,2H9a2,2,0,0,0,2-2c0-1.32.09-3.69.25-6.76.8-1.2,3.39-2,4.91-2.29a1.006,1.006,0,0,0,.72-1.44,6.18,6.18,0,0,0-5.1-3.62,169.36,169.36,0,0,1,2.3-16.81,26.52,26.52,0,0,0,2.38,1.58,28.14,28.14,0,0,0,5.89,2.51A7.07,7.07,0,0,0,25,35.73v5.05A3,3,0,0,0,24,43V58a3,3,0,0,0,3,3h4a3,3,0,0,0,3-3V43a3,3,0,0,0-1-2.22V36.92l3.33,1.93a3,3,0,0,0,1.43,2l13,7.5a3.006,3.006,0,0,0,4.1-1.1l2-3.46a3,3,0,0,0-1.1-4.1l-13-7.5a3,3,0,0,0-2.43-.24L36,29.41a7,7,0,0,0-1.74-4.05A28.23,28.23,0,0,0,35,19c0-7.55-3.85-16-9-16a1,1,0,0,0-1,1V23.07l-8.48-4.9c.29-1,.59-1.94.92-2.89A10.9,10.9,0,0,1,22.2,15a1,1,0,0,0,1.14-1.14A6.18,6.18,0,0,0,20.08,9c.27-.52.52-1,.81-1.55a3,3,0,0,0-5.18-3c-.22.38-.43.77-.63,1.16C13.84,3.56,11,.73,4.92,1A2,2,0,0,0,3.13,3.72a11.21,11.21,0,0,0,9.53,7.22c-.52,1.33-1,2.72-1.48,4.15l-2.7-1.56a1,1,0,0,0-1.37.37C5.69,16.37,6.72,19.8,9,23c-1,4.31-1.74,8.7-2.3,12.89a6.25,6.25,0,0,0-5.6,3.66A1.014,1.014,0,0,0,1.84,41Zm12.54,7.35a12.81,12.81,0,0,0-3,1.2c.06-.83.12-1.71.19-2.62a4.13,4.13,0,0,1,2.81,1.41ZM26.5,25.68l.1-.07a5,5,0,1,1-2.47,5.57A5.13,5.13,0,0,1,24,30,5,5,0,0,1,26.5,25.68Zm10.16,11-2.86-1.6a7.06,7.06,0,0,0,2-3.46l2.86,1.65ZM32,58a1,1,0,0,1-1,1H27a1,1,0,0,1-1-1V43a1,1,0,0,1,1-1h4a1,1,0,0,1,1,1ZM27,40V36.7a6.82,6.82,0,0,0,4,0V40Zm14.76-6.1,13,7.5a1,1,0,0,1,.36,1.37l-2,3.46a1,1,0,0,1-1.36.37l-13-7.5a1,1,0,0,1-.37-1.37l2-3.46a1.1,1.1,0,0,1,.35-.36,1.1,1.1,0,0,1,1.02-.01ZM33,19a27,27,0,0,1-.49,5A6.92,6.92,0,0,0,29,23a7.07,7.07,0,0,0-2,.3V5.18C30.16,6.32,33,12.6,33,19ZM21,12.85a13.7,13.7,0,0,0-2.72.13c.3-.76.6-1.47.91-2.15A4,4,0,0,1,21,12.85ZM5,3c6.9-.32,8.61,3.84,8.94,4.93-.16.34-.31.7-.47,1.05A9.24,9.24,0,0,1,5,3Zm10,7.39c.28-.65.57-1.29.87-1.91V8.39c.47-1,1-2,1.51-2.9A1,1,0,0,1,18.31,5a.93.93,0,0,1,.84.48,1,1,0,0,1,0,1c-.48.84-.94,1.71-1.35,2.59a52.64,52.64,0,0,0-2.06,5,.5.5,0,0,0,0,.13c-.34,1-.66,1.95-1,2.93l-1.77-1c.62-2.02,1.32-3.94,2.03-5.74ZM8.5,15.86l15.71,9.06A7,7,0,0,0,22,30a25.83,25.83,0,0,1-4.53-2,22.72,22.72,0,0,1-6.63-5.81v-.06C9.1,19.83,8.2,17.54,8.5,15.86Zm3.84,10.8A183.42,183.42,0,0,0,9.29,51.84C9.1,55.11,9,57.63,9,59H7a187.73,187.73,0,0,1,3.63-34C11.17,25.56,11.74,26.12,12.34,26.66ZM6.47,37.9c-.1.83-.19,1.65-.28,2.45a13.45,13.45,0,0,0-2.58-1A4.07,4.07,0,0,1,6.47,37.9Z" fill="#d5ded3"/>
      </g>
    </g>
  </g>
</svg>
