<svg xmlns="http://www.w3.org/2000/svg" xmlns:xlink="http://www.w3.org/1999/xlink" width="258.825" height="162.889" viewBox="0 0 258.825 162.889">
  <defs>
    <clipPath id="clip-path">
      <rect id="Rectángulo_462747" data-name="Rectángulo 462747" width="104.536" height="121.545" fill="#fb9e9e"/>
    </clipPath>
    <clipPath id="clip-path-2">
      <rect id="Rectángulo_462746" data-name="Rectángulo 462746" width="154.362" height="143.826" fill="none"/>
    </clipPath>
  </defs>
  <g id="Grupo_1197568" data-name="Grupo 1197568" transform="translate(-1017.652 -3274.728)">
    <g id="Grupo_1197163" data-name="Grupo 1197163" transform="translate(-0.406 -1901.879)">
      <g id="Grupo_1177286" data-name="Grupo 1177286" transform="translate(0 26)">
        <rect id="Rectángulo_454804" data-name="Rectángulo 454804" width="235" height="119" rx="25" transform="translate(1018.059 5183)" fill="#daeaaf"/>
      </g>
      <g id="Grupo_1197160" data-name="Grupo 1197160" transform="translate(-180.809 -3.989)">
        <path id="Trazado_1015451" data-name="Trazado 1015451" d="M12.363,2.916C10.167,1.327-1.306-3.324.123,4.029.738,7.2,4.6,9.548,5.593,12.719c.811,2.6-1.227,6.819,1.031,9.073,3.873,3.867,10.06-3.384,10.8-5.843a10.16,10.16,0,0,0-.109-6.7,13.81,13.81,0,0,0-4.956-6.328" transform="matrix(-0.259, 0.966, -0.966, -0.259, 1391.552, 5237.209)" fill="#edf5d7" fill-rule="evenodd"/>
        <path id="Trazado_1015452" data-name="Trazado 1015452" d="M54,2.835C43.368-1.093,19.8-2.626,8.057,9.684,2.6,15.4-3.1,23.683,1.96,36.376,9.949,56.436,24.5,57.7,31.784,73.461c8.787,19.022-8.239,34.574,10.326,53.251a30.3,30.3,0,0,0,8.11,5.79,31.141,31.141,0,0,0,17.138,3c23.907-2.747,25.875-37.883,24.2-65.908-1.11-18.608-14-48.79-23.328-57.511A44.346,44.346,0,0,0,54,2.835" transform="matrix(-0.259, 0.966, -0.966, -0.259, 1457.692, 5245.613)" fill="#edf5d7" fill-rule="evenodd"/>
      </g>
      <g id="Grupo_1197453" data-name="Grupo 1197453" transform="translate(1135.559 5176.606)">
        <g id="Grupo_1197439" data-name="Grupo 1197439" clip-path="url(#clip-path)">
          <path id="Trazado_1016885" data-name="Trazado 1016885" d="M614.364,778.525c-5.267,4-10.578,8.854-10.55,15.793.03,7.521,7.531,17.335,12,23.381L635.7,844.577a20.073,20.073,0,0,0,4.246,4.632,6.789,6.789,0,0,0,5.957,1.2c2.731-.928,4.458-4.108,7.328-4.386,2.188-.212,4.116,1.374,6.255,1.882a6.738,6.738,0,0,0,7.479-3.717c.846-1.92.81-4.309,2.3-5.789,2.662-2.647,8.368-.6,10.149-3.91.712-1.322.379-2.939.029-4.4-4.014-16.72-8.04-33.482-13.9-49.648-2.252-6.214-4.431-11.743-10.577-14.173-4.923-1.947-12.117-.647-17.224.75Z" transform="translate(-575.294 -729.137)" fill="#fb9e9e"/>
          <path id="Trazado_1016886" data-name="Trazado 1016886" d="M772.776,542.15c.086,5.525.958,17.52,1.358,18.113,2.041,3.024,11.732.5,15.686-1.251,5.764-2.546,10.1-5.929,10.865-10.7l-13.938-12.464Z" transform="translate(-736.276 -510.539)" fill="#2d5a27"/>
          <path id="Trazado_1016887" data-name="Trazado 1016887" d="M435.847,610.33c-2.509,1.474-1.887,1.329-4.4,2.8a1.645,1.645,0,0,0,1.748,2.72c2.533-1.437,2.46-1.25,5.049-2.587l.569-.292Z" transform="translate(-410.564 -581.503)" fill="#f96025"/>
          <path id="Trazado_1016888" data-name="Trazado 1016888" d="M511.4,522.057A28.964,28.964,0,0,0,504.767,525a1.76,1.76,0,0,0-.583.484,1.677,1.677,0,0,0,.017,1.489,9.1,9.1,0,0,0,1.418,2.524,2.46,2.46,0,0,0,1.639,1.083,2.816,2.816,0,0,0,1.413-.429l5.879-3.009Z" transform="translate(-480.207 -497.399)" fill="#a3cb38"/>
          <path id="Trazado_1016889" data-name="Trazado 1016889" d="M1007.183,191.625l14.184-6.33a2.257,2.257,0,0,1,3.079.377l23.8,20.677a4.837,4.837,0,0,1,1.533,1.872,2.806,2.806,0,0,1-1.362,3.263c-1.711.93-3.814.1-5.548-.781a95.082,95.082,0,0,1-21.314-15.066,2.921,2.921,0,0,0-1.343-.852,2.882,2.882,0,0,0-1.566.3l-9.511,3.746Z" transform="translate(-959.611 -176.139)" fill="#a3cb38"/>
          <path id="Trazado_1016890" data-name="Trazado 1016890" d="M658.768,300.447a21.343,21.343,0,0,0-15.306,6.572,3.352,3.352,0,0,0-.962,1.53,3.65,3.65,0,0,0,.462,2.171c.961,2.167,2.133,4.24,3.094,6.406a2.86,2.86,0,0,0,1.393,1.124c6.01.888,15.168-4.549,15.809-7.341a2.015,2.015,0,0,0-.076-1.056,58.948,58.948,0,0,0-2.812-7.245,4.581,4.581,0,0,0-1.6-2.162" transform="translate(-612.114 -286.256)" fill="#fb9e9e"/>
          <path id="Trazado_1016891" data-name="Trazado 1016891" d="M638.525,308.757a1.658,1.658,0,0,0,1.2.1c.308-.065.614-.138.92-.212q.921-.224,1.831-.492,1.819-.536,3.581-1.242,1.813-.727,3.554-1.618,1.686-.868,3.284-1.893a5.167,5.167,0,0,0,2.441-2.535,2.812,2.812,0,0,0,.095-.494.519.519,0,0,0-.153-.369.522.522,0,0,0-.738,0l-.082.106a.52.52,0,0,0-.071.263l0,.035.019-.139a2.1,2.1,0,0,1-.142.513l.053-.125a2.628,2.628,0,0,1-.342.574l.082-.106a4.6,4.6,0,0,1-.821.793l.106-.082c-.385.3-.8.557-1.208.817q-.672.425-1.361.822-1.368.789-2.8,1.469-.808.385-1.633.733l.125-.053q-1.368.577-2.776,1.053t-2.847.844q-.4.1-.8.2c-.267.063-.536.135-.807.172l.139-.019a1.31,1.31,0,0,1-.312.006l.139.019a.784.784,0,0,1-.2-.054l.125.053c-.023-.011-.046-.022-.069-.035a.542.542,0,0,0-.4-.053.522.522,0,0,0-.125.954" transform="translate(-608.125 -285.684)" fill="#db4112"/>
          <path id="Trazado_1016892" data-name="Trazado 1016892" d="M700.932,455.469q.607,1.483,1.266,2.945.636,1.41,1.322,2.8.385.778.785,1.547a.522.522,0,0,0,.9-.527q-.626-1.205-1.215-2.43t-1.138-2.466q-.31-.7-.607-1.4l.053.125q-.182-.431-.359-.864a.584.584,0,0,0-.24-.312.522.522,0,0,0-.714.187.5.5,0,0,0-.053.4" transform="translate(-667.803 -433.327)" fill="#db4112"/>
          <path id="Trazado_1016893" data-name="Trazado 1016893" d="M780.9,430.308l1.432,2.959,1.427,2.948.806,1.665a.527.527,0,0,0,.312.24.533.533,0,0,0,.4-.053.526.526,0,0,0,.24-.312.583.583,0,0,0-.053-.4l-1.432-2.959-1.427-2.948-.806-1.665a.527.527,0,0,0-.312-.24.534.534,0,0,0-.4.053.527.527,0,0,0-.24.312.583.583,0,0,0,.053.4" transform="translate(-743.956 -409.237)" fill="#db4112"/>
          <path id="Trazado_1016894" data-name="Trazado 1016894" d="M869.248,391.27l1.385,3.234,1.375,3.213.781,1.823a.521.521,0,0,0,.312.24.533.533,0,0,0,.4-.053.527.527,0,0,0,.24-.312l.019-.139a.52.52,0,0,0-.071-.263l-1.385-3.234-1.375-3.213-.781-1.823a.521.521,0,0,0-.312-.24.533.533,0,0,0-.4.053.527.527,0,0,0-.24.312l-.019.139a.519.519,0,0,0,.071.263" transform="translate(-828.124 -372.042)" fill="#db4112"/>
          <path id="Trazado_1016895" data-name="Trazado 1016895" d="M952.745,331.525l1.848,4.27.516,1.192a.522.522,0,0,0,.312.24.533.533,0,0,0,.4-.053.526.526,0,0,0,.24-.312l.019-.139a.52.52,0,0,0-.071-.263l-1.848-4.27L953.646,331a.521.521,0,0,0-.312-.24.534.534,0,0,0-.4.053.527.527,0,0,0-.24.312l-.019.139a.521.521,0,0,0,.071.263" transform="translate(-907.677 -315.119)" fill="#db4112"/>
          <path id="Trazado_1016896" data-name="Trazado 1016896" d="M1597.258,1286.858q.9,1.808,1.784,3.627t1.729,3.629q.853,1.82,1.683,3.651t1.647,3.692q.807,1.841,1.592,3.691l.193.455-.053-.125q.53,1.257,1.05,2.518t1.029,2.527q.509,1.266,1.008,2.536t.986,2.544q.486,1.269.96,2.542t.943,2.561q.466,1.282.921,2.568t.9,2.576q.444,1.29.878,2.584t.856,2.591l.2.63a.551.551,0,0,0,.24.312.522.522,0,0,0,.714-.187.526.526,0,0,0,.052-.4q-.364-1.127-.737-2.252t-.757-2.257q-.381-1.122-.77-2.241t-.787-2.235q-.4-1.116-.8-2.229t-.823-2.234q-.414-1.11-.836-2.217t-.852-2.211q-.432-1.109-.872-2.215t-.885-2.2q-.446-1.1-.9-2.192-.476-1.146-.961-2.289-.465-1.1-.937-2.188t-.949-2.171q-.478-1.084-.965-2.164t-.98-2.157q-.5-1.082-1-2.16t-1.012-2.142q-.51-1.069-1.028-2.135t-1.049-2.137q-.254-.513-.51-1.026a.522.522,0,0,0-.954.125.576.576,0,0,0,.053.4" transform="translate(-1521.751 -1225.33)" fill="#db4112"/>
          <path id="Trazado_1016897" data-name="Trazado 1016897" d="M1248.712,1717.816q.8,1.656,1.62,3.3t1.656,3.259q.839,1.624,1.7,3.236t1.75,3.222q.886,1.6,1.795,3.2t1.833,3.163q.928,1.575,1.877,3.137t1.926,3.12q.974,1.553,1.969,3.093t2.005,3.056l.5.741a.555.555,0,0,0,.312.24.533.533,0,0,0,.4-.053.522.522,0,0,0,.187-.714q-1.024-1.527-2.028-3.068t-1.973-3.077q-.976-1.546-1.93-3.1t-1.893-3.14q-.935-1.577-1.849-3.166t-1.8-3.182q-.889-1.6-1.756-3.206t-1.717-3.24q-.847-1.626-1.672-3.263t-1.621-3.276q-.195-.4-.389-.8a.527.527,0,0,0-.312-.24.533.533,0,0,0-.4.053.526.526,0,0,0-.24.312.584.584,0,0,0,.052.4" transform="translate(-1189.668 -1635.932)" fill="#db4112"/>
          <path id="Trazado_1016898" data-name="Trazado 1016898" d="M695.465,140.638a104.614,104.614,0,0,1-5.171-10.616,13.006,13.006,0,0,1-4.53,2.1c1.626,3.616,3.307,7.208,4.889,10.726,1.85.113,4.5-1.174,4.811-2.214" transform="translate(-653.374 -123.881)" fill="#a3cb38"/>
          <path id="Trazado_1016899" data-name="Trazado 1016899" d="M532.854,3.609c-2.32-.692-10.674,3.055-15.345,6.009-1.049.663-2.2,1.677-1.948,2.892a2.16,2.16,0,0,0,1.9,1.526,5.929,5.929,0,0,0,2.547-.419A36.82,36.82,0,0,0,532.3,7.192a3.512,3.512,0,0,0,1.3-1.717,1.818,1.818,0,0,0-.75-1.866" transform="translate(-491.175 -3.359)" fill="#fb9e9e"/>
          <path id="Trazado_1016900" data-name="Trazado 1016900" d="M509.1,9.174a1.718,1.718,0,0,0,.4.255,2.637,2.637,0,0,0,.489.166,4.261,4.261,0,0,0,.949.092,5.348,5.348,0,0,0,.874-.084,6.662,6.662,0,0,0,.795-.223q1.046-.323,2.082-.676t2.061-.749q1.074-.416,2.127-.885,1-.447,1.971-.954t1.883-1.078q.918-.574,1.785-1.225.48-.362.944-.745c.267-.222.538-.445.787-.687a2.958,2.958,0,0,0,.267-.319,3.451,3.451,0,0,0,.216-.314,3.384,3.384,0,0,0,.23-.469,1.712,1.712,0,0,0,.116-.485.716.716,0,0,0,0-.153,1.355,1.355,0,0,0-.03-.2,1.357,1.357,0,0,0-.074-.185.521.521,0,0,0-.312-.24.533.533,0,0,0-.4.053.527.527,0,0,0-.24.312L526,.521a.52.52,0,0,0,.071.263l0,.01-.053-.125a.469.469,0,0,1,.027.1L526.03.635a.7.7,0,0,1,0,.177l.019-.139a1.393,1.393,0,0,1-.1.341L526,.889a3.013,3.013,0,0,1-.388.646l.082-.106a4.635,4.635,0,0,1-.659.635q-.454.392-.929.759l.106-.082a25.084,25.084,0,0,1-2.459,1.671c-.854.511-1.735.976-2.634,1.4q-.764.363-1.544.691l.125-.053c-.847.357-1.705.686-2.571.995s-1.738.6-2.615.868a7.061,7.061,0,0,1-1.136.3l.139-.019a4.409,4.409,0,0,1-1.155.008l.139.019a2.372,2.372,0,0,1-.583-.148l.125.053a1.3,1.3,0,0,1-.287-.163l.106.082-.02-.016a.565.565,0,0,0-.369-.153.531.531,0,0,0-.369.153.525.525,0,0,0-.153.369.507.507,0,0,0,.153.369" transform="translate(-484.909 0)" fill="#db4112"/>
          <path id="Trazado_1016901" data-name="Trazado 1016901" d="M816.092,777.235q1.26.044,2.52-.031c.876-.052,1.748-.148,2.616-.278q1.246-.188,2.471-.487t2.411-.7c.83-.281,1.646-.6,2.449-.954q1.151-.5,2.255-1.106t2.157-1.3c.731-.487,1.439-1.008,2.124-1.557q.979-.785,1.885-1.656t1.726-1.823q.2-.233.4-.47a.561.561,0,0,0,.153-.369.531.531,0,0,0-.153-.369.525.525,0,0,0-.369-.153.51.51,0,0,0-.369.153q-.762.927-1.605,1.783t-1.749,1.627q-.513.437-1.047.849l.106-.082a28.517,28.517,0,0,1-2.383,1.653,28.887,28.887,0,0,1-2.531,1.4q-.731.358-1.482.675l.125-.052a28.977,28.977,0,0,1-2.78,1.009,28.5,28.5,0,0,1-2.877.72q-.817.159-1.642.27l.139-.019a27.264,27.264,0,0,1-3.541.243q-.5,0-1-.016a.526.526,0,0,0-.522.522.533.533,0,0,0,.522.522" transform="translate(-777.049 -729.799)" fill="#445614"/>
          <path id="Trazado_1016902" data-name="Trazado 1016902" d="M1306.946,356.007q.037-.052.076-.1l-.082.106a6.359,6.359,0,0,1,.939-.947q.17-.144.348-.281l-.106.082a9.329,9.329,0,0,1,1.453-.93q.213-.108.432-.2l-.125.053a4.155,4.155,0,0,1,1.038-.3l-.139.019a2.183,2.183,0,0,1,.573-.007l-.139-.019a4.809,4.809,0,0,1,.65.147,5.173,5.173,0,0,1,.589.205l-.125-.053a3.628,3.628,0,0,1,.8.457l-.106-.082a2.73,2.73,0,0,1,.484.48l-.082-.106a2.548,2.548,0,0,1,.328.561l-.053-.125a2.956,2.956,0,0,1,.2.751l-.019-.139a4.466,4.466,0,0,1-.015,1.176l.019-.139a7.969,7.969,0,0,1-.245,1.127c-.1.354-.221.7-.348,1.048-.11.3-.226.6-.337.894a4.66,4.66,0,0,0-.211.662.876.876,0,0,0,.16.847.769.769,0,0,0,.129.1.513.513,0,0,0,.333.062.56.56,0,0,0,.3-.143c.452-.372.9-.75,1.362-1.108l-.106.082c.283-.219.571-.433.874-.624a6.978,6.978,0,0,1,.994-.508l-.125.053a3.527,3.527,0,0,1,.87-.257l-.139.019a1.889,1.889,0,0,1,.5,0l-.139-.019a1.491,1.491,0,0,1,.349.094l-.125-.053a3.838,3.838,0,0,1,.839.488l-.106-.082a3.116,3.116,0,0,1,.554.549l-.082-.106a2.959,2.959,0,0,1,.38.65l-.053-.125a3.539,3.539,0,0,1,.238.9l-.019-.139a5.641,5.641,0,0,1,.011,1.271c-.011.12-.025.239-.041.358l.019-.139c-.071.529-.186,1.051-.287,1.575a3.57,3.57,0,0,0-.093,1.368.9.9,0,0,0,.433.606.539.539,0,0,0,.632-.082c.378-.353.776-.686,1.185-1l-.106.082a11.687,11.687,0,0,1,1.631-1.084c.148-.079.3-.153.455-.218l-.125.053a2.948,2.948,0,0,1,.748-.211l-.139.019a2.77,2.77,0,0,1,.718,0l-.139-.019a2.429,2.429,0,0,1,.616.168l-.125-.053a2.454,2.454,0,0,1,.536.315l-.106-.082a2.778,2.778,0,0,1,.488.493l-.082-.106a3.423,3.423,0,0,1,.435.754l-.053-.125a4.338,4.338,0,0,1,.292,1.093l-.019-.139a5.242,5.242,0,0,1,0,1.376l.019-.139a5.789,5.789,0,0,1-.4,1.463l.053-.125a6.041,6.041,0,0,1-.335.673.542.542,0,0,0-.053.4.522.522,0,0,0,.954.125,6.3,6.3,0,0,0,.853-3,4.835,4.835,0,0,0-.655-2.621,3.1,3.1,0,0,0-2-1.462,3.3,3.3,0,0,0-1.419.034,4.179,4.179,0,0,0-.694.258,6.606,6.606,0,0,0-.617.322,12.589,12.589,0,0,0-1.28.871c-.4.305-.791.622-1.166.958q-.1.093-.206.188l.632-.082a.348.348,0,0,1-.05-.032l.106.082a.338.338,0,0,1-.058-.059l.082.106a.411.411,0,0,1-.05-.087l.052.125a.684.684,0,0,1-.044-.169l.019.139a2.086,2.086,0,0,1,.019-.548l-.019.139c.082-.611.239-1.21.334-1.819a6.834,6.834,0,0,0,.029-2.379,3.5,3.5,0,0,0-1.248-2.081,4.472,4.472,0,0,0-.648-.432,4.289,4.289,0,0,0-.46-.214,1.972,1.972,0,0,0-.545-.114,2.41,2.41,0,0,0-.56.031,2.937,2.937,0,0,0-.456.1,6.7,6.7,0,0,0-.984.412,6.232,6.232,0,0,0-.653.368c-.219.144-.432.3-.64.457-.459.349-.9.714-1.348,1.083l-.249.206.632-.082-.013-.008.106.082a.133.133,0,0,1-.023-.023l.082.106a.158.158,0,0,1-.018-.031l.053.125a.234.234,0,0,1-.015-.058l.019.139a.561.561,0,0,1,0-.149l-.019.139a3.67,3.67,0,0,1,.229-.757c.134-.362.276-.721.406-1.084a12.213,12.213,0,0,0,.39-1.279,6.653,6.653,0,0,0,.2-1.475,3.646,3.646,0,0,0-.24-1.4,3.024,3.024,0,0,0-.368-.681,3.151,3.151,0,0,0-.568-.6,3.984,3.984,0,0,0-.785-.493,5.82,5.82,0,0,0-1.013-.363,3.27,3.27,0,0,0-1.044-.133,3.983,3.983,0,0,0-1.045.225,8.19,8.19,0,0,0-2.005,1.078,8.734,8.734,0,0,0-1.55,1.361c-.1.12-.2.246-.294.376a.522.522,0,0,0,.589.767.59.59,0,0,0,.312-.24" transform="translate(-1244.29 -335.79)" fill="#445614"/>
          <path id="Trazado_1016903" data-name="Trazado 1016903" d="M181.367,819.885q.275-.121.551-.238l-.125.053c.851-.359,1.728-.647,2.585-.992.367-.148.73-.3,1.092-.463a.522.522,0,0,0,.24-.312.533.533,0,0,0-.053-.4.527.527,0,0,0-.312-.24l-.139-.019a.52.52,0,0,0-.263.071q-.275.121-.552.238l.125-.053c-.851.359-1.728.647-2.585.992-.367.148-.73.3-1.092.463a.523.523,0,0,0-.24.312.533.533,0,0,0,.053.4.527.527,0,0,0,.312.24l.139.019a.519.519,0,0,0,.263-.071" transform="translate(-172.054 -778.671)" fill="#5c98ad"/>
          <path id="Trazado_1016904" data-name="Trazado 1016904" d="M227.6,956.538a4.691,4.691,0,0,0-.748.749,5.283,5.283,0,0,0-.639.995,5.783,5.783,0,0,0-.272.665.522.522,0,0,0,1.006.277q.058-.172.128-.34l-.053.125a4.772,4.772,0,0,1,.607-1.037l-.082.106a4.727,4.727,0,0,1,.79-.8.522.522,0,0,0,.153-.369.531.531,0,0,0-.153-.369.525.525,0,0,0-.369-.153l-.139.019a.522.522,0,0,0-.23.134" transform="translate(-215.255 -911.212)" fill="#5c98ad"/>
          <path id="Trazado_1016905" data-name="Trazado 1016905" d="M222.139,1159.322l-1.315,2.61a.554.554,0,0,0-.053.4.522.522,0,0,0,.642.365.52.52,0,0,0,.312-.24l1.315-2.61a.554.554,0,0,0,.053-.4.532.532,0,0,0-.24-.312.526.526,0,0,0-.4-.053.521.521,0,0,0-.312.24" transform="translate(-210.328 -1104.317)" fill="#5c98ad"/>
          <path id="Trazado_1016906" data-name="Trazado 1016906" d="M161.891,657.674h3.267a.539.539,0,0,0,.369-.153.522.522,0,0,0-.369-.891h-3.267a.539.539,0,0,0-.369.153.522.522,0,0,0,.369.891" transform="translate(-153.747 -625.616)" fill="#5c98ad"/>
          <path id="Trazado_1016907" data-name="Trazado 1016907" d="M24.948,1016.02l-2.173,1.967a.522.522,0,0,0,.738.738l2.173-1.967a.522.522,0,0,0-.738-.738" transform="translate(-21.554 -967.889)" fill="#5c98ad"/>
          <path id="Trazado_1016908" data-name="Trazado 1016908" d="M397.285,929.141l-.653,2.614a.545.545,0,0,0,.053.4.522.522,0,0,0,.954-.125l.654-2.614a.546.546,0,0,0-.053-.4.522.522,0,0,0-.954.125" transform="translate(-377.882 -884.892)" fill="#5c98ad"/>
          <path id="Trazado_1016909" data-name="Trazado 1016909" d="M98.138,1353.42a3.662,3.662,0,0,1-.226.749l.053-.125a3.757,3.757,0,0,1-.48.819l.082-.106a3.664,3.664,0,0,1-.6.61.522.522,0,0,0-.153.369.531.531,0,0,0,.153.369.525.525,0,0,0,.369.153l.139-.019a.523.523,0,0,0,.23-.134,4.168,4.168,0,0,0,1.29-1.851,3.621,3.621,0,0,0,.151-.558.561.561,0,0,0-.053-.4.522.522,0,0,0-.714-.187.513.513,0,0,0-.24.312" transform="translate(-92.239 -1289.131)" fill="#5c98ad"/>
          <path id="Trazado_1016910" data-name="Trazado 1016910" d="M1.978,1270.409l-.053.129.053-.125a7.884,7.884,0,0,1-1.009,1.725l.082-.106a7.879,7.879,0,0,1-.9.978.526.526,0,0,0,0,.738.533.533,0,0,0,.738,0,8.263,8.263,0,0,0,1.727-2.253c.137-.263.257-.534.368-.809a.523.523,0,0,0-.053-.4.522.522,0,0,0-.714-.187l-.106.082a.522.522,0,0,0-.134.23" transform="translate(-0.001 -1210.041)" fill="#5c98ad"/>
          <path id="Trazado_1016911" data-name="Trazado 1016911" d="M393.513,1201.372l-.2,1.31a.4.4,0,0,0-.009.208.389.389,0,0,0,.062.194.522.522,0,0,0,.714.187.5.5,0,0,0,.24-.312l.2-1.31a.4.4,0,0,0,.009-.208.389.389,0,0,0-.062-.194.522.522,0,0,0-.714-.187.5.5,0,0,0-.24.312" transform="translate(-374.719 -1144.265)" fill="#5c98ad"/>
          <path id="Trazado_1016912" data-name="Trazado 1016912" d="M5.092,791.415H7.924a.539.539,0,0,0,.369-.153.522.522,0,0,0-.369-.891H5.092a.539.539,0,0,0-.369.153.522.522,0,0,0,.369.891" transform="translate(-4.354 -753.04)" fill="#5c98ad"/>
          <path id="Trazado_1016913" data-name="Trazado 1016913" d="M65.025,514.45l3.231,1.192.907.335a.522.522,0,0,0,.589-.767.589.589,0,0,0-.312-.24l-3.231-1.192-.907-.335a.522.522,0,0,0-.589.767.589.589,0,0,0,.312.24" transform="translate(-61.59 -489.173)" fill="#5c98ad"/>
        </g>
      </g>
    </g>
    <g id="Grupo_1197452" data-name="Grupo 1197452" transform="translate(1037.703 3293.791)">
      <g id="Grupo_1197437" data-name="Grupo 1197437" transform="translate(0)" clip-path="url(#clip-path-2)">
        <path id="Trazado_1016859" data-name="Trazado 1016859" d="M148.8,131.167c2.06-3.055,5.576-4.757,9-6.11s7.036-2.558,9.768-5.031c1.6-1.447,2.826-3.272,4.466-4.671a6.774,6.774,0,0,1,4.98-1.812,4.409,4.409,0,0,0-1.961.746,28.334,28.334,0,0,0-4.784,5.124,41.217,41.217,0,0,1-14.97,11.239,25.18,25.18,0,0,0-5.157,2.6,6.479,6.479,0,0,0-2.633,4.026,8.508,8.508,0,0,1,1.287-6.113" transform="translate(-57.145 -86.947)" fill="#f44e4e"/>
        <path id="Trazado_1016860" data-name="Trazado 1016860" d="M121.863,107.2a3.43,3.43,0,0,0,3.549.566,12.971,12.971,0,0,0,3.215-1.988c5.787-4.224,12.959-6.289,18.59-10.719,2.706-2.128,5.323-4.909,8.76-5.113,1.176-.07,3.914.83,3.813,2.361a2.331,2.331,0,0,1-.235.768,2.852,2.852,0,0,1-3.132,2.339,30.343,30.343,0,0,0-3.7.078,6.774,6.774,0,0,0-4.98,1.812c-1.64,1.4-2.868,3.224-4.466,4.671-2.732,2.473-6.341,3.677-9.768,5.031s-6.944,3.055-9,6.11a8.509,8.509,0,0,0-1.287,6.113,4.352,4.352,0,0,0-.047.848c.035.736.139,1.7-.539,1.988a1.352,1.352,0,0,1-1.04-.112,5.953,5.953,0,0,1-3.436-4.29c-.437-2.322.473-5.029-.968-6.9l4.673-3.562" transform="translate(-32.854 -68.894)" fill="#fb9e9e"/>
        <path id="Trazado_1016861" data-name="Trazado 1016861" d="M229.76,54.957c3.248-1.741,5.3-5.068,6.987-8.341s3.255-6.742,5.99-9.211c1.6-1.444,3.54-2.481,5.1-3.972a6.773,6.773,0,0,0,2.305-4.772,4.407,4.407,0,0,1-.94,1.876,28.329,28.329,0,0,1-5.581,4.243,41.215,41.215,0,0,0-12.692,13.76,25.186,25.186,0,0,1-3.108,4.868,6.479,6.479,0,0,1-4.272,2.213,8.509,8.509,0,0,0,6.212-.664" transform="translate(-148.092 -21.954)" fill="#f44e4e"/>
        <path id="Trazado_1016862" data-name="Trazado 1016862" d="M213.25,36.231a3.43,3.43,0,0,1-.205-3.588,12.97,12.97,0,0,1,2.3-3c4.786-5.332,7.565-12.258,12.54-17.414,2.39-2.477,5.421-4.8,5.971-8.2.188-1.163-.43-3.977-1.965-4.032a2.337,2.337,0,0,0-.787.156A3.813,3.813,0,0,0,228.888,1.5a3.783,3.783,0,0,0-.427,1.537,30.342,30.342,0,0,1-.45,3.67,6.774,6.774,0,0,1-2.305,4.772c-1.557,1.491-3.5,2.528-5.1,3.972-2.736,2.468-4.3,5.938-5.99,9.211s-3.74,6.6-6.987,8.341a8.508,8.508,0,0,1-6.212.664,4.358,4.358,0,0,1-.848-.039c-.729-.109-1.677-.309-2.033.336a1.352,1.352,0,0,0,.006,1.046,5.953,5.953,0,0,0,3.921,3.852c2.266.669,5.051.037,6.769,1.66l4.015-4.289" transform="translate(-125.963 0)" fill="#fb9e9e"/>
        <path id="Trazado_1016863" data-name="Trazado 1016863" d="M314.61,193.156c-1.148,2.009-3.723,2.615-6.018,2.914q-1.787.233-3.584.376a1.654,1.654,0,0,0-1.666,1.152,135.871,135.871,0,0,1-13.2,19.173c.782.428,2.874-.438,3.765-.472,3.418-.129,5.661-1.777,8.511-3.669a31.784,31.784,0,0,0,7.359-7.087,24.317,24.317,0,0,1,3.857-4.384c1.532-1.209,4.474-2.484,6.341-1.912a6.063,6.063,0,0,1-1.29-4.691,6.769,6.769,0,0,1-1.468-.137,7.976,7.976,0,0,1-2.609-1.263" transform="translate(-233.511 -147.955)" fill="#51424e"/>
        <path id="Trazado_1016864" data-name="Trazado 1016864" d="M337.284,171.735a.739.739,0,0,0-.108.445.935.935,0,0,0,.234.414c1.782,2.243,1.682,5.467.888,8.22A19.813,19.813,0,0,1,315.1,194.7c-.038-.736.9-1.056,1.636-1.142,3.5-.41,7.186-.848,9.995-2.969a10,10,0,0,0,3.3-11.02c-.368-1.036-.911-2.008-1.218-3.063a7.286,7.286,0,0,1,.03-4.141,14.509,14.509,0,0,1,2.168-3.924c.953-1.368,3.07-4.1,3.07-4.1l4.832.8s-1.476,2.92.173,5.24a3.136,3.136,0,0,0-1.811,1.35" transform="translate(-258.47 -125.883)" fill="#5f515c"/>
        <path id="Trazado_1016865" data-name="Trazado 1016865" d="M325.112,201.486a3.259,3.259,0,1,0,4.392-1.4,3.259,3.259,0,0,0-4.392,1.4" transform="translate(-252.897 -152.987)" fill="#fcc100"/>
        <path id="Trazado_1016866" data-name="Trazado 1016866" d="M332.772,208.358a1.418,1.418,0,1,0,1.911-.607,1.418,1.418,0,0,0-1.911.607" transform="translate(-258.923 -159.013)" fill="#5f515c"/>
        <path id="Trazado_1016867" data-name="Trazado 1016867" d="M285.325,164.7a.365.365,0,0,0,.312-.175c.56-.913,1.138-1.827,1.716-2.716a.366.366,0,0,0-.434-.542c-1.115.416-2.24.858-3.344,1.315a.366.366,0,1,0,.28.676c.754-.312,1.518-.618,2.283-.912-.379.595-.755,1.2-1.124,1.8a.365.365,0,0,0,.311.557" transform="translate(-199.357 -123.512)" fill="#cc6a5a"/>
        <path id="Trazado_1016875" data-name="Trazado 1016875" d="M548.425,217.077l-30.852-26.749a.267.267,0,0,0-.441.222c.166,1.824,1.914,8.007,16.044,21.2l17.3,16.158Z" transform="translate(-517.13 -145.738)" fill="#51424e"/>
        <path id="Trazado_1016876" data-name="Trazado 1016876" d="M515.305,399.443l6.4-.977-1.308-5.681a1.024,1.024,0,0,0-1.171-.751l-3.432.524a1.025,1.025,0,0,0-.894,1.059Z" transform="translate(-487.839 -300.284)" fill="#fcc100"/>
        <path id="Trazado_1016877" data-name="Trazado 1016877" d="M490.024,463.057l5.933-.906a1.274,1.274,0,0,0,1.067-1.451l-6.541-42.843a1.273,1.273,0,0,0-1.451-1.067l-5.933.906a1.273,1.273,0,0,0-1.067,1.451l6.541,42.843a1.273,1.273,0,0,0,1.451,1.067" transform="translate(-455.474 -319.246)" fill="#2d5a27"/>
        <path id="Trazado_1016878" data-name="Trazado 1016878" d="M431.183,350.2l3.427-5.5-5.163-2.706a1.025,1.025,0,0,0-1.332.4l-1.837,2.946a1.025,1.025,0,0,0,.221,1.368Z" transform="translate(-379.962 -261.881)" fill="#fcc100"/>
        <path id="Trazado_1016879" data-name="Trazado 1016879" d="M302.264,380.842l2.392-3.837a2.014,2.014,0,0,0-.643-2.774l-35.52-22.147a2.013,2.013,0,0,0-2.774.643l-2.392,3.837a2.014,2.014,0,0,0,.643,2.774l35.52,22.147a2.014,2.014,0,0,0,2.774-.643" transform="translate(-212.149 -269.46)" fill="#2d5a27"/>
        <path id="Trazado_1016880" data-name="Trazado 1016880" d="M450.066,320.753a36.032,36.032,0,0,1,8.519,1.988,28.556,28.556,0,0,1,5.876,2.966l-2.595,4.491s-7.684-4.684-12.325-4.322Z" transform="translate(-415.296 -245.693)" fill="#5f515c"/>
        <path id="Trazado_1016881" data-name="Trazado 1016881" d="M537.158,182.883l-.619.146-7.451-39.752a.267.267,0,0,1,.479-.2l2.154,3,6.755,34.77a1.753,1.753,0,0,1-1.317,2.04" transform="translate(-507.957 -109.506)" fill="#5f515c"/>
        <path id="Trazado_1016882" data-name="Trazado 1016882" d="M508.944,203.766a33.443,33.443,0,0,0,1.347-5.459l-.953-5.086.619-.146a1.752,1.752,0,0,0,1.317-2.04l-6.754-34.77.588.819a33.315,33.315,0,0,1,5.324,11.627c2.054,8.533,5.572,23.147,6.346,26.459,1.142,4.888-1.569,6.31-2.3,6.582-1.779,4.309-1.433,10.189-1.433,10.189l-4.836.461s-.3-5.471.738-8.638" transform="translate(-480.755 -119.698)" fill="#685b66"/>
        <path id="Trazado_1016883" data-name="Trazado 1016883" d="M510.863,325.789a2.2,2.2,0,1,0,.721-3.03,2.2,2.2,0,0,0-.721,3.03" transform="translate(-480.049 -246.98)" fill="#f09d4e"/>
        <path id="Trazado_1016884" data-name="Trazado 1016884" d="M516.018,329.224a.953.953,0,1,0,.312-1.31.953.953,0,0,0-.312,1.31" transform="translate(-484.14 -251.07)" fill="#685b66"/>
      </g>
    </g>
  </g>
</svg>
