<svg xmlns="http://www.w3.org/2000/svg" width="154" height="154" viewBox="0 0 154 154">
  <g id="Grupo_1197576" data-name="Grupo 1197576" transform="translate(-713 -10233.986)">
    <g id="Grupo_1197279" data-name="Grupo 1197279" transform="translate(402.941 2862.986)">
      <circle id="Elipse_13624" data-name="Elipse 13624" cx="77" cy="77" r="77" transform="translate(310.059 7371)" fill="#daeaaf"/>
    </g>
    <g id="Grupo_1197486" data-name="Grupo 1197486" transform="translate(747.711 10253.795)">
      <g id="Grupo_1197484" data-name="Grupo 1197484" transform="translate(1.298 16.898)">
        <path id="Trazado_1018390" data-name="Trazado 1018390" d="M117.663,54.7l-4.486-6.149a1.819,1.819,0,0,0-2.939,0l-.493.676-4.3,5.9,3.306,4.531,2.962,4.062,6.268-8.593Z" transform="translate(-88.496 -43.534)" fill="#a3cb38"/>
        <path id="Trazado_1018391" data-name="Trazado 1018391" d="M133.78,55.134l-6.268,8.593-2.962-4.062a9.042,9.042,0,0,1,5.3-4.529l0,0-4.3-5.9.493-.676a1.819,1.819,0,0,1,2.939,0l4.486,6.149Z" transform="translate(-104.3 -43.534)" fill="#2d5a27"/>
        <path id="Trazado_1018392" data-name="Trazado 1018392" d="M33.271,201.894h9.068A11.937,11.937,0,0,0,30.4,189.957H23.671a2.109,2.109,0,0,0-2.06,2.562A11.976,11.976,0,0,0,33.271,201.894Z" transform="translate(-19.128 -161.09)" fill="#a3cb38"/>
        <path id="Trazado_1018393" data-name="Trazado 1018393" d="M65.826,201.895H61.9A11.938,11.938,0,0,0,49.96,189.959h3.929a11.938,11.938,0,0,1,11.937,11.936Z" transform="translate(-42.614 -161.092)" fill="#2d5a27"/>
        <path id="Trazado_1018394" data-name="Trazado 1018394" d="M150.733,181.784h-9.068A11.937,11.937,0,0,1,153.6,169.847h6.731a2.109,2.109,0,0,1,2.06,2.562A11.976,11.976,0,0,1,150.733,181.784Z" transform="translate(-118.454 -144.459)" fill="#a3cb38"/>
        <path id="Trazado_1018395" data-name="Trazado 1018395" d="M187.117,172.408a11.977,11.977,0,0,1-11.66,9.375h-3.9a11.979,11.979,0,0,0,11.631-9.375,2.111,2.111,0,0,0-2.06-2.562h3.925A2.109,2.109,0,0,1,187.117,172.408Z" transform="translate(-143.177 -144.458)" fill="#2d5a27"/>
        <path id="Trazado_1018396" data-name="Trazado 1018396" d="M59.739,96.7h6.854a9.022,9.022,0,0,0-9.022-9.022H52.483a1.594,1.594,0,0,0-1.557,1.936A9.052,9.052,0,0,0,59.739,96.7Z" transform="translate(-43.382 -76.502)" fill="#a3cb38"/>
        <path id="Trazado_1018397" data-name="Trazado 1018397" d="M79.769,96.692H75.842A9.02,9.02,0,0,0,66.82,87.67h3.927a9.02,9.02,0,0,1,9.022,9.022Z" transform="translate(-56.557 -76.499)" fill="#2d5a27"/>
        <path id="Trazado_1018398" data-name="Trazado 1018398" d="M306.366,126.859a5.094,5.094,0,0,1-3.656,5.1l-5.946,1.744-9.469,2.777a2.587,2.587,0,0,1-3.209-3.209l4.521-15.415a5.1,5.1,0,0,1,5.1-3.656l12.159.5Z" transform="translate(-236.147 -98.435)" fill="#eaf6ff"/>
        <path id="Trazado_1018399" data-name="Trazado 1018399" d="M312,128.683a5.094,5.094,0,0,1-3.656,5.1L292.928,138.3a2.544,2.544,0,0,1-2.138-.315l14.342-4.206a5.092,5.092,0,0,0,3.656-5.1l-.294-12.283,3,.125Z" transform="translate(-241.78 -100.259)" fill="#c8effe"/>
        <path id="Trazado_1018400" data-name="Trazado 1018400" d="M299.941,209.673l-9.469,2.777a2.562,2.562,0,0,1-2.652-.756,3.87,3.87,0,0,1,.782-1.121l3.382-3.381a3.859,3.859,0,0,1,2.765-1.133H298.1v1.773Z" transform="translate(-239.323 -174.407)" fill="#c8effe"/>
        <path id="Trazado_1018401" data-name="Trazado 1018401" d="M429.713,35.19a3.5,3.5,0,0,1,0-4.949l6.117-6.117a3.5,3.5,0,0,1,4.949,4.949l-6.117,6.117A3.5,3.5,0,0,1,429.713,35.19Z" transform="translate(-355.821 -23.099)" fill="#ffd15b"/>
        <path id="Trazado_1018402" data-name="Trazado 1018402" d="M450.853,26.6a3.5,3.5,0,0,1-1.024,2.476L443.711,35.2a3.5,3.5,0,0,1-4.081.635,3.511,3.511,0,0,0,.867-.635l6.116-6.117a3.5,3.5,0,0,0,0-4.95,3.411,3.411,0,0,0-.867-.631,3.5,3.5,0,0,1,5.107,3.105Z" transform="translate(-364.87 -23.105)" fill="#ffc344"/>
        <path id="Trazado_1018403" data-name="Trazado 1018403" d="M258.281,304.676l-2.142-2.142a2.452,2.452,0,0,1,0-3.468l2.142-2.142a2.452,2.452,0,0,1,3.468,0l2.142,2.142a2.452,2.452,0,0,1,0,3.468l-2.142,2.142A2.452,2.452,0,0,1,258.281,304.676Z" transform="translate(-212.529 -248.957)" fill="#ffcebf"/>
        <path id="Trazado_1018404" data-name="Trazado 1018404" d="M278.04,302.534l-2.142,2.142a2.451,2.451,0,0,1-3.368.093q.049-.044.1-.093l2.142-2.142a2.453,2.453,0,0,0,0-3.467l-2.142-2.142q-.049-.049-.1-.093a2.451,2.451,0,0,1,3.368.093l2.142,2.142A2.453,2.453,0,0,1,278.04,302.534Z" transform="translate(-226.679 -248.958)" fill="#ffb09e"/>
        <path id="Trazado_1018405" data-name="Trazado 1018405" d="M309.825,219.424l-3.382-3.382a3.871,3.871,0,0,1,0-5.474l3.382-3.381a3.871,3.871,0,0,1,5.474,0l3.381,3.381a3.871,3.871,0,0,1,0,5.474l-3.381,3.382A3.871,3.871,0,0,1,309.825,219.424Z" transform="translate(-253.787 -174.402)" fill="#e49280"/>
        <path id="Trazado_1018406" data-name="Trazado 1018406" d="M345.278,216.046l-3.382,3.382a3.869,3.869,0,0,1-4.425.746,3.815,3.815,0,0,0,1.048-.746l3.382-3.382a3.873,3.873,0,0,0,0-5.474l-3.382-3.381a3.815,3.815,0,0,0-1.048-.746,3.869,3.869,0,0,1,4.425.746l3.382,3.381A3.87,3.87,0,0,1,345.278,216.046Z" transform="translate(-280.384 -174.406)" fill="#dd7f66"/>
        <path id="Trazado_1018407" data-name="Trazado 1018407" d="M204.174,269.079l-1.534-1.534a1.756,1.756,0,0,1,0-2.484l1.534-1.534a1.756,1.756,0,0,1,2.484,0l1.534,1.534a1.756,1.756,0,0,1,0,2.484l-1.534,1.534A1.756,1.756,0,0,1,204.174,269.079Z" transform="translate(-168.455 -221.507)" fill="#ffcebf"/>
        <path id="Trazado_1018408" data-name="Trazado 1018408" d="M216.78,267.544l-1.535,1.535a1.756,1.756,0,0,1-2.483,0l-.253-.253,1.282-1.282a1.758,1.758,0,0,0,0-2.484l-1.282-1.28.253-.253a1.753,1.753,0,0,1,2.483,0l1.535,1.533A1.758,1.758,0,0,1,216.78,267.544Z" transform="translate(-177.042 -221.506)" fill="#ffb09e"/>
        <path id="Trazado_1018409" data-name="Trazado 1018409" d="M93.483,323.959v28.535H7.5V323.959H19.14a3.422,3.422,0,0,1,3.235,2.306L24.2,331.55a4.356,4.356,0,0,0,4.118,2.935h44.35a4.356,4.356,0,0,0,4.118-2.935l1.824-5.285a3.422,3.422,0,0,1,3.235-2.306Z" transform="translate(-7.5 -271.909)" fill="#e49280"/>
        <path id="Trazado_1018410" data-name="Trazado 1018410" d="M64.861,334.486H60.868a4.355,4.355,0,0,1-4.117-2.934l-1.825-5.285a3.421,3.421,0,0,0-3.235-2.306h3.995a3.421,3.421,0,0,1,3.235,2.306l1.825,5.285A4.354,4.354,0,0,0,64.861,334.486Z" transform="translate(-44.045 -271.91)" fill="#dd7f66"/>
        <path id="Trazado_1018411" data-name="Trazado 1018411" d="M481.41,323.959H485.4v28.535H481.41Z" transform="translate(-399.422 -271.909)" fill="#dd7f66"/>
        <path id="Trazado_1018412" data-name="Trazado 1018412" d="M148.52,96.7h-6.854a9.022,9.022,0,0,1,9.022-9.022h5.088a1.594,1.594,0,0,1,1.557,1.936A9.052,9.052,0,0,1,148.52,96.7Z" transform="translate(-118.455 -76.502)" fill="#a3cb38"/>
        <path id="Trazado_1018413" data-name="Trazado 1018413" d="M171.452,89.6a9.049,9.049,0,0,1-8.813,7.086h-3.9a9.053,9.053,0,0,0,8.787-7.086,1.594,1.594,0,0,0-1.557-1.936H169.9A1.594,1.594,0,0,1,171.452,89.6Z" transform="translate(-132.575 -76.498)" fill="#2d5a27"/>
      </g>
      <g id="Grupo_1197485" data-name="Grupo 1197485" transform="translate(0 15.601)">
        <path id="Trazado_1018414" data-name="Trazado 1018414" d="M251.169,289.814l-2.142,2.142a3.754,3.754,0,0,0,0,5.3l2.142,2.142a3.754,3.754,0,0,0,5.3,0l2.142-2.142a3.754,3.754,0,0,0,0-5.3l-2.142-2.142A3.754,3.754,0,0,0,251.169,289.814Zm5.61,5.61-2.142,2.142a1.155,1.155,0,0,1-1.633,0l-2.142-2.142a1.155,1.155,0,0,1,0-1.633L253,291.649a1.155,1.155,0,0,1,1.633,0l2.142,2.142A1.155,1.155,0,0,1,256.779,295.423Z" transform="translate(-205.038 -241.467)"/>
        <path id="Trazado_1018415" data-name="Trazado 1018415" d="M201.38,263.8l1.534-1.534a3.057,3.057,0,0,0,0-4.318l-1.534-1.534a3.058,3.058,0,0,0-4.319,0l-1.534,1.534a3.058,3.058,0,0,0,0,4.319l1.534,1.534h0a3.058,3.058,0,0,0,4.319,0Zm-4.018-3.369a.459.459,0,0,1,0-.649l1.534-1.534a.46.46,0,0,1,.649,0l1.534,1.534a.459.459,0,0,1,0,.648l-1.534,1.534a.46.46,0,0,1-.649,0Z" transform="translate(-160.962 -214.014)"/>
        <path id="Trazado_1018416" data-name="Trazado 1018416" d="M280.194,56.342a5.142,5.142,0,0,0,1.482,3.115l3.381,3.382h0a5.175,5.175,0,0,0,7.309,0l3.382-3.382a5.233,5.233,0,0,0-.119-7.428c3.533-.684,5.924-3.324,5.824-6.759l-.478-11.591,2.98-2.981a4.8,4.8,0,0,0,5.741-.792,1.3,1.3,0,0,0-1.835-1.835,2.2,2.2,0,0,1-3.114-3.114l6.117-6.117a2.2,2.2,0,0,1,3.114,3.114l-1.8,1.8a1.3,1.3,0,1,0,1.835,1.835l1.8-1.8a4.8,4.8,0,1,0-6.784-6.784l-6.117,6.117a4.8,4.8,0,0,0-.79,5.739l-2.982,2.982-11.591-.478a6.376,6.376,0,0,0-6.4,4.588l-4.52,15.415a3.885,3.885,0,0,0,3.561,4.973Zm13.72,1.28L290.532,61a2.576,2.576,0,0,1-3.639,0l-3.381-3.382a2.576,2.576,0,0,1,0-3.639l3.381-3.381a2.573,2.573,0,0,1,3.639,0l3.381,3.381A2.577,2.577,0,0,1,293.914,57.622ZM279.123,52.1l4.52-15.415a3.8,3.8,0,0,1,3.8-2.725l9.2.379-7.492,7.492a1.3,1.3,0,0,0,1.835,1.835l7.492-7.492.38,9.2a3.791,3.791,0,0,1-2.725,3.8l-2.6.762-1.171-1.171a5.168,5.168,0,0,0-7.309,0l-3.381,3.381a5.14,5.14,0,0,0-1.077,1.579,1.288,1.288,0,0,1-1.477-1.628Z" transform="translate(-228.64 -15.601)"/>
        <path id="Trazado_1018417" data-name="Trazado 1018417" d="M87.281,481.4H1.3a1.3,1.3,0,0,0,0,2.6H87.281a1.3,1.3,0,0,0,0-2.6Z" transform="translate(0 -400.815)"/>
        <path id="Trazado_1018418" data-name="Trazado 1018418" d="M263.137,316.459H251.5a4.722,4.722,0,0,0-4.462,3.18l-1.824,5.285a3.06,3.06,0,0,1-2.891,2.06H213.943a1.3,1.3,0,1,0,0,2.6H242.32a5.656,5.656,0,0,0,5.344-3.809l1.824-5.285a2.126,2.126,0,0,1,2.009-1.432h11.64a1.3,1.3,0,0,0,0-2.6Z" transform="translate(-175.857 -264.409)"/>
        <path id="Trazado_1018419" data-name="Trazado 1018419" d="M1.3,90.68h11.64a2.126,2.126,0,0,1,2.009,1.432L16.77,97.4a5.656,5.656,0,0,0,5.344,3.809H31.9a1.3,1.3,0,0,0,0-2.6h-6.1V75.955h7.8A13.3,13.3,0,0,0,46.5,65.562a3.407,3.407,0,0,0-3.327-4.139s-7.262.008-7.526.024a1.3,1.3,0,1,0,.153,2.591c.214-.013,7.373-.019,7.373-.019A.812.812,0,0,1,43.97,65,10.693,10.693,0,0,1,33.6,73.36H29.372l6.172-3.546a1.3,1.3,0,1,0-1.293-2.25l-8.174,4.7a10.591,10.591,0,0,1,4.716-6.618,1.3,1.3,0,0,0-1.381-2.2,13.3,13.3,0,0,0-3.607,3.33V58.824h5.579a10.374,10.374,0,0,0,10.058-8.1,2.891,2.891,0,0,0-2.824-3.514H33.531a10.317,10.317,0,0,0-2.228.245L27.027,41.59a3.117,3.117,0,0,0-5.037,0l-4.275,5.861a10.306,10.306,0,0,0-2.228-.245H10.4A2.891,2.891,0,0,0,7.575,50.72a10.372,10.372,0,0,0,10.058,8.1h5.579V70.276A13.223,13.223,0,0,0,12.572,64.9H5.841a3.406,3.406,0,0,0-3.327,4.139,13.3,13.3,0,0,0,12.9,10.393h7.8V98.611h-1.1a3.06,3.06,0,0,1-2.891-2.06L17.4,91.265a4.722,4.722,0,0,0-4.462-3.18H1.3a1.3,1.3,0,0,0,0,2.6ZM38.618,49.8a.289.289,0,0,1,.232.112.286.286,0,0,1,.058.247,7.762,7.762,0,0,1-7.524,6.068H29.372l3.636-2.089a1.3,1.3,0,1,0-1.293-2.25l-5.5,3.159A7.737,7.737,0,0,1,33.531,49.8h5.087ZM24.087,43.12a.522.522,0,0,1,.844,0l3.835,5.258a10.39,10.39,0,0,0-4.257,4.147,10.39,10.39,0,0,0-4.257-4.147ZM17.655,56.229h-.022a7.763,7.763,0,0,1-7.524-6.068.286.286,0,0,1,.058-.247A.289.289,0,0,1,10.4,49.8h5.087A7.737,7.737,0,0,1,22.8,55.049L17.3,51.89a1.3,1.3,0,0,0-1.293,2.25l3.636,2.089H17.655ZM15.44,76.839h-.029A10.693,10.693,0,0,1,5.047,68.481a.811.811,0,0,1,.793-.984h6.731a10.656,10.656,0,0,1,10.364,8.239l-8.17-4.693a1.3,1.3,0,0,0-1.293,2.25l6.172,3.546Z" transform="translate(0 -36.035)"/>
        <path id="Trazado_1018420" data-name="Trazado 1018420" d="M276.147,447.243H229.674a1.3,1.3,0,1,0,0,2.6h46.473a1.3,1.3,0,1,0,0-2.6Z" transform="translate(-188.866 -372.567)"/>
        <path id="Trazado_1018421" data-name="Trazado 1018421" d="M1.3,449.838H21.08a1.3,1.3,0,1,0,0-2.6H1.3a1.3,1.3,0,1,0,0,2.6Z" transform="translate(0 -372.567)"/>
        <path id="Trazado_1018422" data-name="Trazado 1018422" d="M163.094,413.288a1.3,1.3,0,0,0-1.3-1.3H136.11a1.3,1.3,0,1,0,0,2.6H161.8A1.3,1.3,0,0,0,163.094,413.288Z" transform="translate(-111.489 -343.413)"/>
        <path id="Trazado_1018423" data-name="Trazado 1018423" d="M402.908,411.99H382.953a1.3,1.3,0,1,0,0,2.6h19.955a1.3,1.3,0,0,0,0-2.6Z" transform="translate(-315.627 -343.413)"/>
        <path id="Trazado_1018424" data-name="Trazado 1018424" d="M1.3,414.585H11.862a1.3,1.3,0,1,0,0-2.6H1.3a1.3,1.3,0,1,0,0,2.6Z" transform="translate(0 -343.413)"/>
        <circle id="Elipse_13671" data-name="Elipse 13671" cx="1.298" cy="1.298" r="1.298" transform="translate(77.164 61.49)"/>
        <circle id="Elipse_13672" data-name="Elipse 13672" cx="1.298" cy="1.298" r="1.298" transform="translate(33.414 74.676)"/>
        <circle id="Elipse_13673" data-name="Elipse 13673" cx="1.298" cy="1.298" r="1.298" transform="translate(57.086 38.904)"/>
      </g>
    </g>
  </g>
</svg>
