<svg xmlns="http://www.w3.org/2000/svg" width="84" height="84" viewBox="0 0 84 84">
  <g id="Grupo_1197574" data-name="Grupo 1197574" transform="translate(-186 -10882.428)">
    <g id="Grupo_1197286" data-name="Grupo 1197286" transform="translate(-520.371 3414.388)">
      <g id="Grupo_1197267" data-name="Grupo 1197267" transform="translate(0.371 5789.12)">
        <g id="Grupo_1119665" data-name="Grupo 1119665" transform="translate(534.111 -3840.08)">
          <rect id="Rectángulo_402006" data-name="Rectángulo 402006" width="84" height="84" rx="5" transform="translate(171.889 5519)" fill="#daeaaf"/>
        </g>
      </g>
      <g id="Grupo_1197498" data-name="Grupo 1197498" transform="translate(712.475 7476.104)">
        <g id="Grupo_1197497" data-name="Grupo 1197497">
          <path id="Trazado_1018447" data-name="Trazado 1018447" d="M49.315,65.973a.748.748,0,0,0-.551-.551c-3.492-.873-8.607.689-11.394,3.461-2.221,2.205-3.844,6.248-1.623,9.02l-3.155,3.155v-15.3c4.962-.368,7.366-5.973,7.351-10.306,0-5.437-3.461-11.93-7.718-14.487a.748.748,0,0,0-.8,0c-4.257,2.557-7.718,9.066-7.718,14.487-.015,4.334,2.389,9.939,7.351,10.306v15.36l-3.231-3.231a5.268,5.268,0,0,0,.888-4.61,9.8,9.8,0,0,0-2.512-4.411c-2.787-2.787-7.887-4.334-11.394-3.461a.725.725,0,0,0-.551.551c-.873,3.492.689,8.607,3.461,11.394,2.221,2.221,6.218,3.844,9.02,1.623l4.3,4.3v2.159a.766.766,0,0,0,1.531,0V83.232l4.242-4.242c2.8,2.221,6.815.582,9.02-1.623,2.8-2.787,4.349-7.9,3.476-11.394ZM26.879,61.425a11.983,11.983,0,0,1-1.639-5.973c0-4.7,2.971-10.49,6.585-12.925,3.614,2.45,6.585,8.224,6.585,12.925-.031,3.507-1.731,8.331-5.819,8.76V59.158l3.323-4.3a.764.764,0,0,0-1.21-.934l-2.113,2.741V51.547a.766.766,0,0,0-1.531,0v5.115l-2.113-2.741a.764.764,0,0,0-1.21.934l3.323,4.3v5.054A5.543,5.543,0,0,1,26.879,61.425ZM22.53,78.393a8.371,8.371,0,0,1-3.737-2.113,12.14,12.14,0,0,1-3.155-9.48,12.158,12.158,0,0,1,9.48,3.155c1.608,1.654,3.139,4.656,1.608,6.845l-2.557-2.557-.49-3.767a.765.765,0,0,0-1.516.2l.23,1.792-1.853-1.853A.769.769,0,1,0,19.452,71.7L21.3,73.554l-1.792-.23a.762.762,0,0,0-.858.659.77.77,0,0,0,.659.858l3.767.49,2.573,2.557A3.75,3.75,0,0,1,22.53,78.393ZM44.766,76.28c-1.654,1.608-4.64,3.139-6.845,1.608l2.557-2.557,3.767-.49a.765.765,0,0,0-.2-1.516l-1.792.23L44.108,71.7a.769.769,0,0,0-1.087-1.087l-1.853,1.853.23-1.792a.77.77,0,0,0-.659-.858.762.762,0,0,0-.858.659l-.49,3.767L36.833,76.8c-1.531-2.205,0-5.192,1.608-6.845a12.14,12.14,0,0,1,9.48-3.155,12.14,12.14,0,0,1-3.155,9.48Z" transform="translate(-11.871 -34.594)" fill="#2d5a27"/>
          <g id="Grupo_1197490" data-name="Grupo 1197490">
            <g id="Grupo_1197488" data-name="Grupo 1197488">
              <path id="Trazado_1018448" data-name="Trazado 1018448" fill="#2d5a27"/>
            </g>
            <g id="Grupo_1197489" data-name="Grupo 1197489" transform="translate(63.478 17.305)">
              <circle id="Elipse_13674" data-name="Elipse 13674" cx="0.919" cy="0.919" r="0.919" fill="#2d5a27"/>
            </g>
          </g>
          <g id="Grupo_1197491" data-name="Grupo 1197491" transform="translate(4.211 62.329)">
            <circle id="Elipse_13675" data-name="Elipse 13675" cx="0.919" cy="0.919" r="0.919" fill="#2d5a27"/>
          </g>
          <path id="Trazado_1018449" data-name="Trazado 1018449" d="M65.584,37.364A1.97,1.97,0,0,0,67.774,37l1.332-1.3a4.616,4.616,0,0,0,.98-1.378L71.8,30.625a.75.75,0,0,0-.368-1.011L63.241,25.8a.763.763,0,0,0-1.011.368L60.515,29.86a4.721,4.721,0,0,0-.429,1.639l-.138,1.853a1.923,1.923,0,0,0,.475,1.424L50.53,56l-1.654-.766a.76.76,0,1,0-.643,1.378l1.654.766-1.577,3.369-5.421-2.527a.763.763,0,0,0-1.011.368l-3,6.447a17.535,17.535,0,0,0-1.623,7.994C33.24,72,29.029,74,27.528,76.9c-6.371-3.2-12.006-.888-14.625,4.012a9.888,9.888,0,0,0-4.992.643.764.764,0,0,0,.628,1.394,8.953,8.953,0,0,1,4.717-.475.753.753,0,0,0,.8-.459,9.411,9.411,0,0,1,4.992-4.656c2.435-.858,5.283-.444,8.469,1.225a.766.766,0,0,0,1.057-.383,6.731,6.731,0,0,1,6.4-3.89H35a6.732,6.732,0,0,1,6.4,3.89.771.771,0,0,0,1.072.383c3.017-1.639,5.773-2.052,8.193-1.256a9.931,9.931,0,0,1,5.268,4.717.8.8,0,0,0,.8.444c2.6-.337,4.594.077,5.927,1.24a5.23,5.23,0,0,1,1.731,4.4H.866a.766.766,0,0,0,0,1.531H69.78a.766.766,0,0,0,0-1.531H65.905c.2-4.15-2.956-7.9-8.852-7.213-2.7-4.763-8.285-7.29-14.625-4.028A8.373,8.373,0,0,0,38.8,73.566a15.9,15.9,0,0,1,1.44-7.887l2.68-5.758,4.717,2.205-1.485,3.2a.677.677,0,0,0-.046.49l.949,4.089a.78.78,0,0,0,1.118.505l3.629-1.96a.721.721,0,0,0,.322-.352l1.485-3.2L58.325,67.1l-2.68,5.758a.768.768,0,0,0,1.394.643l3-6.447a.763.763,0,0,0-.368-1.011L54.251,63.52l1.577-3.369,1.761.827a.768.768,0,0,0,.643-1.394l-1.761-.827,7.136-15.314A.76.76,0,0,0,62.23,42.8L55.093,58.114l-3.185-1.485,9.816-21.057ZM54.435,59.508l-3.6,7.718-2.512,1.363-.659-2.864,3.6-7.718ZM63.287,27.5l6.8,3.17-.75,1.608-6.8-3.17Zm-1.822,5.957.138-1.853a2.939,2.939,0,0,1,.291-1.087l6.8,3.155a3.055,3.055,0,0,1-.659.919l-1.332,1.3a.416.416,0,0,1-.475.077l-4.518-2.113a.382.382,0,0,1-.245-.4Z" transform="translate(-0.085 -21.789)" fill="#2d5a27"/>
          <g id="Grupo_1197496" data-name="Grupo 1197496" transform="translate(1.639 5.268)">
            <g id="Grupo_1197492" data-name="Grupo 1197492" transform="translate(60.353 44.855)">
              <path id="Trazado_1018450" data-name="Trazado 1018450" d="M407.863,333.426a3.063,3.063,0,1,1,3.063-3.063A3.072,3.072,0,0,1,407.863,333.426Zm0-4.594a1.531,1.531,0,1,0,1.531,1.531A1.536,1.536,0,0,0,407.863,328.831Z" transform="translate(-404.8 -327.3)" fill="#2d5a27"/>
            </g>
            <g id="Grupo_1197493" data-name="Grupo 1197493">
              <path id="Trazado_1018451" data-name="Trazado 1018451" d="M13.763,40.526a3.063,3.063,0,1,1,3.063-3.063A3.072,3.072,0,0,1,13.763,40.526Zm0-4.594a1.531,1.531,0,1,0,1.531,1.531A1.536,1.536,0,0,0,13.763,35.931Z" transform="translate(-10.7 -34.4)" fill="#2d5a27"/>
            </g>
            <g id="Grupo_1197494" data-name="Grupo 1197494" transform="translate(1.654 43.447)">
              <path id="Trazado_1018452" data-name="Trazado 1018452" d="M24.563,324.226a3.063,3.063,0,1,1,3.063-3.063A3.072,3.072,0,0,1,24.563,324.226Zm0-4.594a1.531,1.531,0,1,0,1.531,1.531A1.536,1.536,0,0,0,24.563,319.631Z" transform="translate(-21.5 -318.1)" fill="#2d5a27"/>
            </g>
            <g id="Grupo_1197495" data-name="Grupo 1197495" transform="translate(36.188 14.319)">
              <path id="Trazado_1018453" data-name="Trazado 1018453" d="M250.063,134.026a3.063,3.063,0,1,1,3.063-3.063A3.072,3.072,0,0,1,250.063,134.026Zm0-4.594a1.531,1.531,0,1,0,1.531,1.531A1.536,1.536,0,0,0,250.063,129.431Z" transform="translate(-247 -127.9)" fill="#2d5a27"/>
            </g>
          </g>
        </g>
      </g>
    </g>
  </g>
</svg>
