<svg xmlns="http://www.w3.org/2000/svg" width="84" height="84" viewBox="0 0 84 84">
  <g id="Grupo_1197573" data-name="Grupo 1197573" transform="translate(-186 -10018.495)">
    <g id="Grupo_1197285" data-name="Grupo 1197285" transform="translate(-520.371 2550.455)">
      <g id="Grupo_1197267" data-name="Grupo 1197267" transform="translate(0.371 5789.12)">
        <g id="Grupo_1119665" data-name="Grupo 1119665" transform="translate(534.111 -3840.08)">
          <rect id="Rectángulo_402006" data-name="Rectángulo 402006" width="84" height="84" rx="5" transform="translate(171.889 5519)" fill="#daeaaf"/>
        </g>
      </g>
      <g id="Grupo_1197483" data-name="Grupo 1197483" transform="translate(716.525 7478.193)">
        <path id="Trazado_1018383" data-name="Trazado 1018383" d="M94.414,104.986a.871.871,0,0,0,0,1.742,2.065,2.065,0,0,1,2.062,2.062.871.871,0,0,0,1.742,0A3.808,3.808,0,0,0,94.414,104.986Z" transform="translate(-44.706 -50.455)" fill="#2d5a27"/>
        <path id="Trazado_1018384" data-name="Trazado 1018384" d="M81.227,96.755a3.847,3.847,0,0,0-3.842,3.843.871.871,0,0,0,1.742,0,2.1,2.1,0,0,1,2.1-2.1.871.871,0,0,0,0-1.742Z" transform="translate(-36.589 -46.32)" fill="#2d5a27"/>
        <path id="Trazado_1018385" data-name="Trazado 1018385" d="M42.521,61.04v2a.871.871,0,1,0,1.742,0v-2a6.89,6.89,0,0,0,6.015-6.823.871.871,0,0,0-.871-.871,6.867,6.867,0,0,0-5.144,2.323V54.1a6.87,6.87,0,0,0-.255-9.454.871.871,0,0,0-1.232,0,6.887,6.887,0,0,0-.255,9.454V55.67a6.861,6.861,0,0,0-5.143-2.323.871.871,0,0,0-.871.871,6.89,6.89,0,0,0,6.014,6.823Zm5.925-5.863a5.157,5.157,0,0,1-4.093,4.095A5.157,5.157,0,0,1,48.446,55.177Zm-5.053-8.559a5.151,5.151,0,0,1,0,5.789,5.157,5.157,0,0,1,0-5.792Zm-.961,12.654a5.157,5.157,0,0,1-4.093-4.093A5.157,5.157,0,0,1,42.431,59.272Z" transform="translate(-16.052 -20.011)" fill="#2d5a27"/>
        <path id="Trazado_1018386" data-name="Trazado 1018386" d="M23.423,50.475a13.4,13.4,0,1,0,13.4-13.4,13.4,13.4,0,0,0-13.4,13.4Zm13.4-11.654A11.654,11.654,0,1,1,25.165,50.475,11.654,11.654,0,0,1,36.818,38.822Z" transform="translate(-9.478 -16.339)" fill="#2d5a27"/>
        <path id="Trazado_1018387" data-name="Trazado 1018387" d="M60.34,57.971a5.618,5.618,0,0,0-4.23-5c0-.044,0-.088,0-.131a5.587,5.587,0,0,0-5.15-5.562,5.507,5.507,0,0,0-.164-.572,100.554,100.554,0,0,0,.869-12.365v-.409a130.045,130.045,0,0,0-2.7-23.427V5.428a.871.871,0,0,0-.871-.871H8.126a.87.87,0,0,0-.871.871V10.5a130.054,130.054,0,0,0-2.7,23.428v.409a130.024,130.024,0,0,0,2.7,23.427v5.076a.87.87,0,0,0,.871.871H62.844a.87.87,0,0,0,.871-.871,5.17,5.17,0,0,0-3.375-4.872ZM9,6.3H47.226V9.726H9ZM6.3,33.932A126.366,126.366,0,0,1,8.836,11.467H47.388a126.608,126.608,0,0,1,2.538,22.464v.409a93.37,93.37,0,0,1-.6,10,6.034,6.034,0,0,0-10.1,2.936,5.588,5.588,0,0,0-5.144,5.563c0,.043,0,.087,0,.131a5.628,5.628,0,0,0-4.01,3.832H8.834A126.559,126.559,0,0,1,6.3,34.34ZM9,58.546H28.736a5.158,5.158,0,0,0-2.193,3.427H9Zm28.879,3.427a2.351,2.351,0,0,1,2.18-1.481.871.871,0,1,0,0-1.742,4.1,4.1,0,0,0-4,3.222H28.32a3.439,3.439,0,0,1,2.585-2.5.871.871,0,0,0,.677-.892l-.006-.1c0-.032,0-.064,0-.1A3.854,3.854,0,0,1,35.1,54.565a.871.871,0,0,0,.787-1.026,3.8,3.8,0,0,1-.067-.7A3.842,3.842,0,0,1,39.653,49c.059,0,.116,0,.174.008l.075,0a.871.871,0,0,0,.921-.786,4.285,4.285,0,0,1,8.53,0,.869.869,0,0,0,.924.786l.065,0c.063,0,.125-.009.189-.009A3.823,3.823,0,0,1,54.3,53.54a.87.87,0,0,0,.786,1.026,3.854,3.854,0,0,1,3.525,3.822.658.658,0,0,1,0,.094l-.006.1a.871.871,0,0,0,.677.892,3.439,3.439,0,0,1,2.585,2.5Z" fill="#2d5a27"/>
        <path id="Trazado_1018388" data-name="Trazado 1018388" d="M19.568,25.142h7.242a.871.871,0,0,0,0-1.742H19.568a.871.871,0,0,0,0,1.742Z" transform="translate(-7.104 -9.467)" fill="#2d5a27"/>
        <path id="Trazado_1018389" data-name="Trazado 1018389" d="M41.142,25.142h1.98a.871.871,0,0,0,0-1.742h-1.98a.871.871,0,0,0,0,1.742Z" transform="translate(-17.943 -9.467)" fill="#2d5a27"/>
      </g>
    </g>
  </g>
</svg>
