<svg xmlns="http://www.w3.org/2000/svg" width="118.117" height="118.117" viewBox="0 0 118.117 118.117">
  <g id="Grupo_1197575" data-name="Grupo 1197575" transform="translate(-738.594 -14847.941)">
    <g id="Grupo_1197304" data-name="Grupo 1197304" transform="translate(431.535 8854.941)">
      <g id="Grupo_1192986" data-name="Grupo 1192986" transform="translate(307.059 5993)">
        <g id="Trazado_995327" data-name="Trazado 995327" transform="translate(0)" fill="#fff">
          <path d="M 59.05859375 116.1171951293945 C 51.35486221313477 116.1171951293945 43.88261032104492 114.6088409423828 36.84942626953125 111.6340637207031 C 33.46891021728516 110.2042236328125 30.20824432373047 108.4343566894531 27.15799331665039 106.3736572265625 C 24.13620948791504 104.3321914672852 21.29459381103516 101.9876251220703 18.71207618713379 99.40511322021484 C 16.12957763671875 96.82259368896484 13.78501033782959 93.98097991943359 11.74354362487793 90.95919036865234 C 9.682826995849609 87.90895843505859 7.91297721862793 84.64827728271484 6.48314380645752 81.26776123046875 C 3.508343696594238 74.23457336425781 2.00001049041748 66.7623291015625 2.00001049041748 59.05859375 C 2.00001049041748 51.35486221313477 3.508343696594238 43.88261032104492 6.48314380645752 36.84942626953125 C 7.91297721862793 33.46891021728516 9.682826995849609 30.20824432373047 11.74354362487793 27.15799331665039 C 13.78501033782959 24.13620948791504 16.12957763671875 21.29459381103516 18.71207618713379 18.71207618713379 C 21.29459381103516 16.12957763671875 24.13620948791504 13.78501033782959 27.15799331665039 11.74354362487793 C 30.20824432373047 9.682826995849609 33.46891021728516 7.91297721862793 36.84942626953125 6.48314380645752 C 43.88261032104492 3.508343696594238 51.35486221313477 2.00001049041748 59.05859375 2.00001049041748 C 66.7623291015625 2.00001049041748 74.23457336425781 3.508343696594238 81.26776123046875 6.48314380645752 C 84.64827728271484 7.91297721862793 87.90895843505859 9.682826995849609 90.95919036865234 11.74354362487793 C 93.98097991943359 13.78501033782959 96.82259368896484 16.12957763671875 99.40511322021484 18.71207618713379 C 101.9876251220703 21.29459381103516 104.3321914672852 24.13620948791504 106.3736572265625 27.15799331665039 C 108.4343566894531 30.20824432373047 110.2042236328125 33.46891021728516 111.6340637207031 36.84942626953125 C 114.6088409423828 43.88261032104492 116.1171951293945 51.35486221313477 116.1171951293945 59.05859375 C 116.1171951293945 66.7623291015625 114.6088409423828 74.23457336425781 111.6340637207031 81.26776123046875 C 110.2042236328125 84.64827728271484 108.4343566894531 87.90895843505859 106.3736572265625 90.95919036865234 C 104.3321914672852 93.98097991943359 101.9876251220703 96.82259368896484 99.40511322021484 99.40511322021484 C 96.82259368896484 101.9876251220703 93.98097991943359 104.3321914672852 90.95919036865234 106.3736572265625 C 87.90895843505859 108.4343566894531 84.64827728271484 110.2042236328125 81.26776123046875 111.6340637207031 C 74.23457336425781 114.6088409423828 66.7623291015625 116.1171951293945 59.05859375 116.1171951293945 Z" stroke="none"/>
          <path d="M 59.05859375 3.999992370605469 C 51.62397766113281 3.999992370605469 44.41384887695312 5.455177307128906 37.62852478027344 8.325119018554688 C 34.36693572998047 9.704666137695312 31.22083282470703 11.41236114501953 28.27759552001953 13.40077209472656 C 25.36128234863281 15.37099456787109 22.61879730224609 17.63377380371094 20.12628173828125 20.12628173828125 C 17.63377380371094 22.61879730224609 15.37099456787109 25.36128234863281 13.40077209472656 28.27759552001953 C 11.41236114501953 31.22083282470703 9.704666137695312 34.36693572998047 8.325119018554688 37.62852478027344 C 5.455177307128906 44.41384887695312 3.999992370605469 51.62397766113281 3.999992370605469 59.05859375 C 3.999992370605469 66.49320983886719 5.455177307128906 73.70333862304688 8.325119018554688 80.48866271972656 C 9.704666137695312 83.750244140625 11.41236114501953 86.89635467529297 13.40077209472656 89.83959197998047 C 15.37099456787109 92.75590515136719 17.63377380371094 95.49839782714844 20.12628173828125 97.99090576171875 C 22.61879730224609 100.4834136962891 25.36128234863281 102.7461929321289 28.27759552001953 104.7164154052734 C 31.22083282470703 106.704833984375 34.36693572998047 108.4125213623047 37.62852478027344 109.7920684814453 C 44.41384887695312 112.6620101928711 51.62397766113281 114.1171951293945 59.05859375 114.1171951293945 C 66.49320983886719 114.1171951293945 73.70333862304688 112.6620101928711 80.48866271972656 109.7920684814453 C 83.750244140625 108.4125213623047 86.89635467529297 106.704833984375 89.83959197998047 104.7164154052734 C 92.75590515136719 102.7461929321289 95.49839782714844 100.4834136962891 97.99090576171875 97.99090576171875 C 100.4834136962891 95.49839782714844 102.7461929321289 92.75590515136719 104.7164154052734 89.83959197998047 C 106.704833984375 86.89635467529297 108.4125213623047 83.750244140625 109.7920684814453 80.48866271972656 C 112.6620101928711 73.70333862304688 114.1171951293945 66.49320983886719 114.1171951293945 59.05859375 C 114.1171951293945 51.62397766113281 112.6620101928711 44.41384887695312 109.7920684814453 37.62852478027344 C 108.4125213623047 34.36693572998047 106.704833984375 31.22083282470703 104.7164154052734 28.27759552001953 C 102.7461929321289 25.36128234863281 100.4834136962891 22.61879730224609 97.99090576171875 20.12628173828125 C 95.49839782714844 17.63377380371094 92.75590515136719 15.37099456787109 89.83959197998047 13.40077209472656 C 86.89635467529297 11.41236114501953 83.750244140625 9.704666137695312 80.48866271972656 8.325119018554688 C 73.70333862304688 5.455177307128906 66.49320983886719 3.999992370605469 59.05859375 3.999992370605469 M 59.05859375 -7.62939453125e-06 C 91.67575836181641 -7.62939453125e-06 118.1171951293945 26.44142913818359 118.1171951293945 59.05859375 C 118.1171951293945 91.67575836181641 91.67575836181641 118.1171951293945 59.05859375 118.1171951293945 C 26.44142913818359 118.1171951293945 -7.62939453125e-06 91.67575836181641 -7.62939453125e-06 59.05859375 C -7.62939453125e-06 26.44142913818359 26.44142913818359 -7.62939453125e-06 59.05859375 -7.62939453125e-06 Z" stroke="none" fill="#2d5a27"/>
        </g>
      </g>
    </g>
    <path id="Trazado_1018552" data-name="Trazado 1018552" d="M54,25a9.01,9.01,0,0,0,9-9V14.279l-2.491-.83A8.735,8.735,0,0,0,51,16.184V5a2,2,0,0,1,4,0h2a3.99,3.99,0,0,0-7.761-1.312A4,4,0,0,0,43,7h2a2,2,0,0,1,4,0v9.184a8.734,8.734,0,0,0-9.508-2.735L37,14.279V16a9.01,9.01,0,0,0,9,9h3V51H37.974A4.98,4.98,0,0,0,34,49H33V47h4A10.011,10.011,0,0,0,47,37v-.82l-5.009-1a9.168,9.168,0,0,0-9.5,4.015,9.172,9.172,0,0,0-10.478-6.015L17,34.18V35A10.011,10.011,0,0,0,27,45h4v4H30a8.953,8.953,0,0,0-5.644,2H15V25h3a9.01,9.01,0,0,0,9-9V14.279l-2.491-.83A8.735,8.735,0,0,0,15,16.184V7a2,2,0,0,1,4,0h2a3.978,3.978,0,0,0-6.484-3.111A4.994,4.994,0,1,0,10,11h1V9H10a3,3,0,1,1,3-3V20.184a8.734,8.734,0,0,0-9.508-2.735L1,18.279V20a9.01,9.01,0,0,0,9,9h3V51H1v2H13v1.758a2.011,2.011,0,0,1-.586,1.414l-1.121,1.121,1.414,1.414,1.121-1.121A4.022,4.022,0,0,0,15,54.758V53h7.522A8.947,8.947,0,0,0,21,58a5.006,5.006,0,0,0,5,5h4a9.01,9.01,0,0,0,9-9,5,5,0,0,0-.1-1H49v1.758a2.011,2.011,0,0,1-.586,1.414l-1.121,1.121,1.414,1.414,1.121-1.121A4.022,4.022,0,0,0,51,54.758V53H63V51H51V25ZM40.189,37a7.2,7.2,0,0,1,1.41.14l3.36.672A8.011,8.011,0,0,1,37,45H33.691A8.643,8.643,0,0,1,41,41V39a10.641,10.641,0,0,0-7.745,3.32A7.2,7.2,0,0,1,40.189,37ZM19.041,35.812l3.36-.672a7.177,7.177,0,0,1,8.343,5.18A10.637,10.637,0,0,0,23,37v2a8.643,8.643,0,0,1,7.309,4H27a8.011,8.011,0,0,1-7.959-7.188ZM21.744,15a6.71,6.71,0,0,1,2.132.346L25,15.721V16a7.008,7.008,0,0,1-7,7H15.393A5.928,5.928,0,0,1,21,19V17a7.92,7.92,0,0,0-5.508,2.228A6.75,6.75,0,0,1,21.744,15ZM3,20v-.279l1.125-.375a6.736,6.736,0,0,1,8.383,3.882A7.92,7.92,0,0,0,7,21v2a5.928,5.928,0,0,1,5.607,4H10a7.008,7.008,0,0,1-7-7ZM30,61H26a3,3,0,0,1-3-3,7.008,7.008,0,0,1,7-7h1v1.521a4.961,4.961,0,0,1-1.464,3.53l-1.243,1.242,1.414,1.414,1.243-1.242A6.947,6.947,0,0,0,33,52.521V51h1a3,3,0,0,1,3,3A7.008,7.008,0,0,1,30,61ZM57.744,15a6.71,6.71,0,0,1,2.132.346L61,15.721V16a7.008,7.008,0,0,1-7,7H51.393A5.928,5.928,0,0,1,57,19V17a7.92,7.92,0,0,0-5.508,2.228A6.75,6.75,0,0,1,57.744,15ZM39,16v-.279l1.125-.375a6.736,6.736,0,0,1,8.383,3.882A7.92,7.92,0,0,0,43,17v2a5.928,5.928,0,0,1,5.607,4H46A7.008,7.008,0,0,1,39,16Z" transform="translate(766.711 14875)" fill="#2d5a27"/>
  </g>
</svg>
