<svg xmlns="http://www.w3.org/2000/svg" width="107" height="107" viewBox="0 0 107 107">
  <g id="Grupo_1197576" data-name="Grupo 1197576" transform="translate(-280.652 -14165.127)">
    <g id="Grupo_1194311" data-name="Grupo 1194311" transform="translate(-59.848 5637.19)">
      <g id="Grupo_1179280" data-name="Grupo 1179280" transform="translate(0 -165.063)">
        <g id="Grupo_156312" data-name="Grupo 156312" transform="translate(51.832 4244.563)">
          <path id="Elipse_5845" data-name="Elipse 5845" d="M53.5,0A53.5,53.5,0,1,1,0,53.5,53.5,53.5,0,0,1,53.5,0Z" transform="translate(288.668 4448.437)" fill="#fff3cc"/>
        </g>
        <g id="Grupo_1197535" data-name="Grupo 1197535" transform="translate(363.559 8713.873)">
          <path id="Trazado_1018494" data-name="Trazado 1018494" d="M4,55H56a3,3,0,0,1,3,3,1,1,0,0,1-1,1H2a1,1,0,0,1-1-1,3,3,0,0,1,3-3Z" fill="sienna"/>
          <path id="Trazado_1018495" data-name="Trazado 1018495" d="M56,55H53a3,3,0,0,1,3,3,1,1,0,0,1-1,1h3a1,1,0,0,0,1-1,3,3,0,0,0-3-3Z" fill="#783e22"/>
          <g id="Grupo_1197534" data-name="Grupo 1197534">
            <path id="Trazado_1018496" data-name="Trazado 1018496" d="M6.771,44.872C8.979,46.484,9,50.213,9,50.213s-3.559,1.117-5.767-.495S1,44.377,1,44.377,4.563,43.26,6.771,44.872Z" fill="#60a917"/>
            <path id="Trazado_1018497" data-name="Trazado 1018497" d="M11.233,44.872C9.025,46.484,9,50.213,9,50.213s3.559,1.117,5.767-.495S17,44.377,17,44.377,13.441,43.26,11.233,44.872Z" fill="#60a917"/>
            <path id="Trazado_1018498" data-name="Trazado 1018498" d="M27.767,44.872C29.975,46.484,30,50.213,30,50.213s-3.559,1.117-5.767-.495S22,44.377,22,44.377,25.559,43.26,27.767,44.872Z" fill="#60a917"/>
            <path id="Trazado_1018499" data-name="Trazado 1018499" d="M32.229,44.872C30.021,46.484,30,50.213,30,50.213s3.559,1.117,5.767-.495S38,44.377,38,44.377,34.437,43.26,32.229,44.872Z" fill="#60a917"/>
            <path id="Trazado_1018500" data-name="Trazado 1018500" d="M48.767,44.872C50.975,46.484,51,50.213,51,50.213s-3.559,1.117-5.767-.495S43,44.377,43,44.377,46.559,43.26,48.767,44.872Z" fill="#60a917"/>
            <path id="Trazado_1018501" data-name="Trazado 1018501" d="M53.229,44.872C51.021,46.484,51,50.213,51,50.213s3.559,1.117,5.767-.495S59,44.377,59,44.377,55.437,43.26,53.229,44.872Z" fill="#60a917"/>
          </g>
          <path id="Trazado_1018502" data-name="Trazado 1018502" d="M40,17a10,10,0,1,1-5.9-9.121A9.908,9.908,0,0,1,40,17Z" fill="#7f8e94"/>
          <path id="Trazado_1018503" data-name="Trazado 1018503" d="M38.66,12A9.931,9.931,0,0,0,28.5,7.12a9.994,9.994,0,0,1,0,19.763A10,10,0,0,0,38.66,12Z" fill="#545c60"/>
          <path id="Trazado_1018504" data-name="Trazado 1018504" d="M59,17v2a1,1,0,0,1-1,1H39.54a10,10,0,0,0-.88-8H54A5,5,0,0,1,59,17Z" fill="#9e9e9e"/>
          <path id="Trazado_1018505" data-name="Trazado 1018505" d="M54,12H51a5,5,0,0,1,5,5v2a1,1,0,0,1-1,1h3a1,1,0,0,0,1-1V17A5,5,0,0,0,54,12Z" fill="#707070"/>
          <path id="Trazado_1018506" data-name="Trazado 1018506" d="M20,17a9.908,9.908,0,0,0,.46,3H2a1,1,0,0,1-1-1V17a5,5,0,0,1,5-5H21.34A9.966,9.966,0,0,0,20,17Z" fill="#9e9e9e"/>
          <path id="Trazado_1018507" data-name="Trazado 1018507" d="M39.83,12H38.66a10,10,0,0,0-17.32,0H20.17L21.3,5.18A5.013,5.013,0,0,1,26.24,1h7.52A5.013,5.013,0,0,1,38.7,5.18Z" fill="#02a9f4"/>
          <path id="Trazado_1018508" data-name="Trazado 1018508" d="M38.7,5.18A5.013,5.013,0,0,0,33.76,1h-3A5.013,5.013,0,0,1,35.7,5.18l.687,4.148A10.04,10.04,0,0,1,38.66,12h1.17Z" fill="#0377bc"/>
          <circle id="Elipse_13678" data-name="Elipse 13678" cx="3" cy="3" r="3" transform="translate(27 14)" fill="#9e9e9e"/>
          <path id="Trazado_1018509" data-name="Trazado 1018509" d="M15,20v2a2.006,2.006,0,0,1-2,2H7a2.006,2.006,0,0,1-2-2V20Z" fill="#7f8e94"/>
          <path id="Trazado_1018510" data-name="Trazado 1018510" d="M55,20v2a2.006,2.006,0,0,1-2,2H47a2.006,2.006,0,0,1-2-2V20Z" fill="#7f8e94"/>
          <path id="Trazado_1018511" data-name="Trazado 1018511" d="M52,20v2a2.006,2.006,0,0,1-2,2h3a2.006,2.006,0,0,0,2-2V20Z" fill="#545c60"/>
          <path id="Trazado_1018512" data-name="Trazado 1018512" d="M56,54H52V51.454a10.524,10.524,0,0,0,1.634.133,6.273,6.273,0,0,0,3.726-1.061C59.942,48.638,60,44.555,60,44.382a1,1,0,0,0-.7-.96c-.166-.051-4.07-1.247-6.655.642a5.551,5.551,0,0,0-1.642,2,5.551,5.551,0,0,0-1.642-2c-2.585-1.886-6.49-.693-6.655-.642a1,1,0,0,0-.7.96c0,.173.054,4.256,2.64,6.144a6.272,6.272,0,0,0,3.725,1.061A10.616,10.616,0,0,0,50,51.455V54H31V51.454a10.525,10.525,0,0,0,1.634.133,6.273,6.273,0,0,0,3.726-1.061C38.946,48.638,39,44.555,39,44.382a1,1,0,0,0-.7-.96c-.165-.051-4.069-1.247-6.655.642a5.551,5.551,0,0,0-1.642,2,5.551,5.551,0,0,0-1.642-2c-2.585-1.886-6.49-.693-6.655-.642a1,1,0,0,0-.7.96c0,.173.054,4.256,2.64,6.144a6.272,6.272,0,0,0,3.725,1.061A10.616,10.616,0,0,0,29,51.455V54H10V51.454a10.527,10.527,0,0,0,1.635.133,6.272,6.272,0,0,0,3.725-1.061C17.946,48.638,18,44.555,18,44.382a1,1,0,0,0-.7-.96c-.164-.052-4.071-1.245-6.655.642a5.551,5.551,0,0,0-1.642,2,5.551,5.551,0,0,0-1.642-2C4.774,42.176.87,43.371.7,43.422a1,1,0,0,0-.7.96c0,.173.054,4.256,2.64,6.144A6.271,6.271,0,0,0,6.37,51.587,10.489,10.489,0,0,0,8,51.455V54H4a4,4,0,0,0-4,4,2,2,0,0,0,2,2H58a2,2,0,0,0,2-2A4,4,0,0,0,56,54Zm-2.181-8.32a5.631,5.631,0,0,1,4.114-.528,5.623,5.623,0,0,1-1.756,3.759,5.614,5.614,0,0,1-4.114.527A5.619,5.619,0,0,1,53.819,45.68Zm-8,3.231a5.621,5.621,0,0,1-1.756-3.759,5.629,5.629,0,0,1,4.114.528,5.618,5.618,0,0,1,1.756,3.758,5.615,5.615,0,0,1-4.114-.527Zm-13-3.231a5.631,5.631,0,0,1,4.114-.528,5.623,5.623,0,0,1-1.756,3.759,5.614,5.614,0,0,1-4.114.527,5.619,5.619,0,0,1,1.756-3.758Zm-8,3.231a5.621,5.621,0,0,1-1.756-3.759,5.63,5.63,0,0,1,4.114.528,5.618,5.618,0,0,1,1.756,3.758,5.615,5.615,0,0,1-4.114-.527Zm-13-3.231a5.613,5.613,0,0,1,4.114-.528,5.623,5.623,0,0,1-1.756,3.759,5.626,5.626,0,0,1-4.114.527,5.619,5.619,0,0,1,1.76-3.758Zm-8,3.231a5.621,5.621,0,0,1-1.756-3.759,5.63,5.63,0,0,1,4.114.528,5.618,5.618,0,0,1,1.756,3.758,5.616,5.616,0,0,1-4.11-.527ZM2,58a2,2,0,0,1,2-2H56a2,2,0,0,1,2,2Z"/>
          <path id="Trazado_1018513" data-name="Trazado 1018513" d="M54,11H40.678l-.992-5.988A6,6,0,0,0,33.76,0H26.24a6,6,0,0,0-5.927,5.017L19.322,11H6a6.006,6.006,0,0,0-6,6v2a2,2,0,0,0,2,2H4v1a3,3,0,0,0,3,3h6a3,3,0,0,0,3-3V21h3.764a10.984,10.984,0,0,0,20.472,0H44v1a3,3,0,0,0,3,3h6a3,3,0,0,0,3-3V21h2a2,2,0,0,0,2-2V17a6.006,6.006,0,0,0-6-6ZM26.24,2h7.52a4.006,4.006,0,0,1,3.954,3.344l.773,4.666a10.986,10.986,0,0,0-16.974,0l.772-4.662A4.007,4.007,0,0,1,26.24,2ZM14,22a1,1,0,0,1-1,1H7a1,1,0,0,1-1-1V21h8Zm1-3H2V17a4,4,0,0,1,4-4H19.764a10.758,10.758,0,0,0-.573,6Zm15,7a9,9,0,1,1,9-9,9,9,0,0,1-9,9Zm24-4a1,1,0,0,1-1,1H47a1,1,0,0,1-1-1V21h8Zm4-3H40.809a10.758,10.758,0,0,0-.573-6H54a4,4,0,0,1,4,4Z"/>
          <path id="Trazado_1018514" data-name="Trazado 1018514" d="M34,17a4,4,0,0,0-3-3.858V10a1,1,0,0,0-2,0v3.142a3.916,3.916,0,0,0-2.839,4.92l-2.723,1.572a1,1,0,1,0,1,1.732L27.151,19.8a3.982,3.982,0,0,0,5.7,0l2.714,1.566a1,1,0,1,0,1-1.732l-2.724-1.572A3.971,3.971,0,0,0,34,17Zm-4,2a2,2,0,1,1,2-2A2,2,0,0,1,30,19Z"/>
          <path id="Trazado_1018515" data-name="Trazado 1018515" d="M30,33a1,1,0,0,0,1-1V31a1,1,0,0,0-2,0v1A1,1,0,0,0,30,33Z"/>
          <path id="Trazado_1018516" data-name="Trazado 1018516" d="M29,37a1,1,0,0,0,2,0V36a1,1,0,0,0-2,0Z"/>
          <path id="Trazado_1018517" data-name="Trazado 1018517" d="M25,32a1,1,0,0,0,1-1V30a1,1,0,0,0-2,0v1A1,1,0,0,0,25,32Z"/>
          <path id="Trazado_1018518" data-name="Trazado 1018518" d="M24,36a1,1,0,0,0,2,0V35a1,1,0,0,0-2,0Z"/>
          <path id="Trazado_1018519" data-name="Trazado 1018519" d="M35,32a1,1,0,0,0,1-1V30a1,1,0,0,0-2,0v1A1,1,0,0,0,35,32Z"/>
          <path id="Trazado_1018520" data-name="Trazado 1018520" d="M34,36a1,1,0,0,0,2,0V35a1,1,0,0,0-2,0Z"/>
          <path id="Trazado_1018521" data-name="Trazado 1018521" d="M29,42a1,1,0,0,0,2,0V41a1,1,0,0,0-2,0Z"/>
          <path id="Trazado_1018522" data-name="Trazado 1018522" d="M50,30a1,1,0,0,0,1-1V28a1,1,0,0,0-2,0v1A1,1,0,0,0,50,30Z"/>
          <path id="Trazado_1018523" data-name="Trazado 1018523" d="M49,34a1,1,0,0,0,2,0V33a1,1,0,0,0-2,0Z"/>
          <path id="Trazado_1018524" data-name="Trazado 1018524" d="M45,29a1,1,0,0,0,1-1V27a1,1,0,0,0-2,0v1A1,1,0,0,0,45,29Z"/>
          <path id="Trazado_1018525" data-name="Trazado 1018525" d="M44,33a1,1,0,0,0,2,0V32a1,1,0,0,0-2,0Z"/>
          <path id="Trazado_1018526" data-name="Trazado 1018526" d="M55,29a1,1,0,0,0,1-1V27a1,1,0,0,0-2,0v1A1,1,0,0,0,55,29Z"/>
          <path id="Trazado_1018527" data-name="Trazado 1018527" d="M54,33a1,1,0,0,0,2,0V32a1,1,0,0,0-2,0Z"/>
          <path id="Trazado_1018528" data-name="Trazado 1018528" d="M49,39a1,1,0,0,0,2,0V38a1,1,0,0,0-2,0Z"/>
          <path id="Trazado_1018529" data-name="Trazado 1018529" d="M10,30a1,1,0,0,0,1-1V28a1,1,0,0,0-2,0v1A1,1,0,0,0,10,30Z"/>
          <path id="Trazado_1018530" data-name="Trazado 1018530" d="M9,34a1,1,0,0,0,2,0V33a1,1,0,0,0-2,0Z"/>
          <path id="Trazado_1018531" data-name="Trazado 1018531" d="M5,29a1,1,0,0,0,1-1V27a1,1,0,0,0-2,0v1A1,1,0,0,0,5,29Z"/>
          <path id="Trazado_1018532" data-name="Trazado 1018532" d="M4,33a1,1,0,0,0,2,0V32a1,1,0,0,0-2,0Z"/>
          <path id="Trazado_1018533" data-name="Trazado 1018533" d="M15,29a1,1,0,0,0,1-1V27a1,1,0,0,0-2,0v1A1,1,0,0,0,15,29Z"/>
          <path id="Trazado_1018534" data-name="Trazado 1018534" d="M14,33a1,1,0,0,0,2,0V32a1,1,0,0,0-2,0Z"/>
          <path id="Trazado_1018535" data-name="Trazado 1018535" d="M9,39a1,1,0,0,0,2,0V38a1,1,0,0,0-2,0Z"/>
        </g>
      </g>
    </g>
  </g>
</svg>
