<svg xmlns="http://www.w3.org/2000/svg" width="84" height="84" viewBox="0 0 84 84">
  <g id="Grupo_1197574" data-name="Grupo 1197574" transform="translate(-727.371 -17439.516)">
    <g id="Grupo_1197314" data-name="Grupo 1197314" transform="translate(21.371 15760.596)">
      <g id="Grupo_1119665" data-name="Grupo 1119665" transform="translate(534.111 -3840.08)">
        <rect id="Rectángulo_402006" data-name="Rectángulo 402006" width="84" height="84" rx="5" transform="translate(171.889 5519)" fill="#fb9e9e"/>
      </g>
    </g>
    <g id="Grupo_1197548" data-name="Grupo 1197548" transform="translate(737.309 17444.512)">
      <path id="Trazado_1018571" data-name="Trazado 1018571" d="M65.422,308.151a.972.972,0,0,0,.973-.973V292.195a2.532,2.532,0,0,0-2.529-2.529H48.878a11.3,11.3,0,0,0-7.811,3.117l-5.221,4.955a3.845,3.845,0,0,1-5.3,0l-5.221-4.955a11.3,11.3,0,0,0-7.811-3.118H2.529A2.532,2.532,0,0,0,0,292.195v24.033A2.272,2.272,0,0,0,2.269,318.5H64.125a2.272,2.272,0,0,0,2.269-2.269v-4.51a.973.973,0,0,0-1.945,0v4.51a.324.324,0,0,1-.324.324H2.269a.324.324,0,0,1-.324-.324V305.495h62.5v1.684a.973.973,0,0,0,.973.973Zm-63.477-4.6V292.195a.584.584,0,0,1,.584-.584H17.517a9.36,9.36,0,0,1,6.472,2.583l5.221,4.955a5.789,5.789,0,0,0,7.976,0l5.221-4.955a9.361,9.361,0,0,1,6.472-2.583H63.866a.584.584,0,0,1,.584.584V303.55Z" transform="translate(0 -252.099)" fill="#12263f"/>
      <path id="Trazado_1018572" data-name="Trazado 1018572" d="M215.215,262.142a4.661,4.661,0,0,0,3.459,6.911,1.375,1.375,0,0,0,.181.012,1.355,1.355,0,0,0,1.185-.693,4.661,4.661,0,0,0-3.458-6.911A1.357,1.357,0,0,0,215.215,262.142Zm3.192,2.724a2.714,2.714,0,0,1,.113,2.174,2.715,2.715,0,0,1-1.787-3.565A2.714,2.714,0,0,1,218.408,264.865Z" transform="translate(-186.784 -227.541)" fill="#12263f"/>
      <path id="Trazado_1018573" data-name="Trazado 1018573" d="M255.369,141.833a1.374,1.374,0,0,0,.181.012,1.355,1.355,0,0,0,1.185-.693,4.661,4.661,0,0,0-3.459-6.911,1.358,1.358,0,0,0-1.366.681,4.661,4.661,0,0,0,3.458,6.911Zm-1.94-5.579a2.715,2.715,0,0,1,1.787,3.565,2.715,2.715,0,0,1-1.787-3.565Z" transform="translate(-218.72 -116.819)" fill="#12263f"/>
      <path id="Trazado_1018574" data-name="Trazado 1018574" d="M297.162,223.674a1.359,1.359,0,0,0,1.262.843h.019a4.661,4.661,0,0,0,4.247-6.452,1.36,1.36,0,0,0-1.263-.843h-.018a4.661,4.661,0,0,0-4.247,6.451Zm2.035-3.284a2.715,2.715,0,0,1,1.825-1.186,2.715,2.715,0,0,1-2.192,3.331A2.714,2.714,0,0,1,299.2,220.39Z" transform="translate(-258.316 -189.05)" fill="#12263f"/>
      <path id="Trazado_1018575" data-name="Trazado 1018575" d="M93.892,125.858a4.728,4.728,0,0,0-7.844,0,1.361,1.361,0,0,0,0,1.527,4.728,4.728,0,0,0,7.844,0A1.361,1.361,0,0,0,93.892,125.858Zm-3.922,1.67a2.781,2.781,0,0,1-2.054-.906,2.782,2.782,0,0,1,4.109,0,2.782,2.782,0,0,1-2.055.906Z" transform="translate(-74.686 -107.717)" fill="#12263f"/>
      <path id="Trazado_1018576" data-name="Trazado 1018576" d="M13.214,33.578a2.091,2.091,0,0,0,2.954,0l1.919-1.919a.973.973,0,0,0-1.375-1.375L14.792,32.2a.143.143,0,0,1-.2,0l-12.6-12.6a.143.143,0,0,1,0-.2L8.2,13.194l1.384,1.384A7.16,7.16,0,0,0,19.619,24.609L21,25.992l-1.082,1.082A.973.973,0,0,0,21.3,28.45l9.011-9.011a1.637,1.637,0,0,0,.125-2.18,4.252,4.252,0,0,1-.073-5.225,1.639,1.639,0,0,0-.13-2.174L20.986.615a2.092,2.092,0,0,0-2.954,0L.618,18.029a2.091,2.091,0,0,0,0,2.954ZM11.6,22.593a5.215,5.215,0,1,1,7.376,0A5.221,5.221,0,0,1,11.6,22.593Zm9.391.64A7.159,7.159,0,0,0,10.963,13.2L9.58,11.818l6.312-6.312,12.8,12.8-6.312,6.312ZM19.408,1.99a.144.144,0,0,1,.2,0l9.057,9.058a6.049,6.049,0,0,0-1.107,3.376L17.267,4.131Z" transform="translate(-0.007)" fill="#12263f"/>
      <g id="Grupo_1197547" data-name="Grupo 1197547" transform="translate(6.8 55.785)">
        <g id="Grupo_1197539" data-name="Grupo 1197539" transform="translate(0 4.334)">
          <path id="Trazado_1018577" data-name="Trazado 1018577" d="M56.928,465.519h-3.52a.973.973,0,1,1,0-1.945h3.52a.973.973,0,1,1,0,1.945Z" transform="translate(-52.436 -463.574)" fill="#12263f"/>
        </g>
        <g id="Grupo_1197540" data-name="Grupo 1197540" transform="translate(6.761)">
          <path id="Trazado_1018578" data-name="Trazado 1018578" d="M109.069,432.1h-3.52a.973.973,0,1,1,0-1.945h3.52a.973.973,0,1,1,0,1.945Z" transform="translate(-104.577 -430.153)" fill="#12263f"/>
        </g>
        <g id="Grupo_1197541" data-name="Grupo 1197541" transform="translate(33.807)">
          <path id="Trazado_1018579" data-name="Trazado 1018579" d="M317.632,432.1h-3.52a.973.973,0,1,1,0-1.945h3.52a.973.973,0,1,1,0,1.945Z" transform="translate(-313.14 -430.153)" fill="#12263f"/>
        </g>
        <g id="Grupo_1197542" data-name="Grupo 1197542" transform="translate(47.33)">
          <path id="Trazado_1018580" data-name="Trazado 1018580" d="M421.914,432.1h-3.52a.973.973,0,1,1,0-1.945h3.52a.973.973,0,1,1,0,1.945Z" transform="translate(-417.422 -430.153)" fill="#12263f"/>
        </g>
        <g id="Grupo_1197543" data-name="Grupo 1197543" transform="translate(13.523 4.334)">
          <path id="Trazado_1018581" data-name="Trazado 1018581" d="M161.21,465.519h-3.52a.973.973,0,1,1,0-1.945h3.52a.973.973,0,1,1,0,1.945Z" transform="translate(-156.718 -463.574)" fill="#12263f"/>
        </g>
        <g id="Grupo_1197544" data-name="Grupo 1197544" transform="translate(40.569 4.334)">
          <path id="Trazado_1018582" data-name="Trazado 1018582" d="M369.774,465.519h-3.52a.973.973,0,1,1,0-1.945h3.52a.973.973,0,1,1,0,1.945Z" transform="translate(-365.282 -463.574)" fill="#12263f"/>
        </g>
        <g id="Grupo_1197545" data-name="Grupo 1197545" transform="translate(27.046 4.334)">
          <path id="Trazado_1018583" data-name="Trazado 1018583" d="M265.492,465.519h-3.52a.973.973,0,1,1,0-1.945h3.52a.973.973,0,1,1,0,1.945Z" transform="translate(-261 -463.574)" fill="#12263f"/>
        </g>
        <g id="Grupo_1197546" data-name="Grupo 1197546" transform="translate(20.284)">
          <path id="Trazado_1018584" data-name="Trazado 1018584" d="M213.351,432.1h-3.52a.973.973,0,1,1,0-1.945h3.52a.973.973,0,1,1,0,1.945Z" transform="translate(-208.859 -430.153)" fill="#12263f"/>
        </g>
      </g>
    </g>
  </g>
</svg>
