<svg xmlns="http://www.w3.org/2000/svg" width="118.117" height="118.117" viewBox="0 0 118.117 118.117">
  <g id="Grupo_1197576" data-name="Grupo 1197576" transform="translate(-1151.094 -14847.941)">
    <g id="Grupo_1197305" data-name="Grupo 1197305" transform="translate(844.035 8854.941)">
      <g id="Grupo_1192986" data-name="Grupo 1192986" transform="translate(307.059 5993)">
        <g id="Trazado_995327" data-name="Trazado 995327" transform="translate(0)" fill="#fff">
          <path d="M 59.05859375 116.1171951293945 C 51.35486221313477 116.1171951293945 43.88261032104492 114.6088409423828 36.84942626953125 111.6340637207031 C 33.46891021728516 110.2042236328125 30.20824432373047 108.4343566894531 27.15799331665039 106.3736572265625 C 24.13620948791504 104.3321914672852 21.29459381103516 101.9876251220703 18.71207618713379 99.40511322021484 C 16.12957763671875 96.82259368896484 13.78501033782959 93.98097991943359 11.74354362487793 90.95919036865234 C 9.682826995849609 87.90895843505859 7.91297721862793 84.64827728271484 6.48314380645752 81.26776123046875 C 3.508343696594238 74.23457336425781 2.00001049041748 66.7623291015625 2.00001049041748 59.05859375 C 2.00001049041748 51.35486221313477 3.508343696594238 43.88261032104492 6.48314380645752 36.84942626953125 C 7.91297721862793 33.46891021728516 9.682826995849609 30.20824432373047 11.74354362487793 27.15799331665039 C 13.78501033782959 24.13620948791504 16.12957763671875 21.29459381103516 18.71207618713379 18.71207618713379 C 21.29459381103516 16.12957763671875 24.13620948791504 13.78501033782959 27.15799331665039 11.74354362487793 C 30.20824432373047 9.682826995849609 33.46891021728516 7.91297721862793 36.84942626953125 6.48314380645752 C 43.88261032104492 3.508343696594238 51.35486221313477 2.00001049041748 59.05859375 2.00001049041748 C 66.7623291015625 2.00001049041748 74.23457336425781 3.508343696594238 81.26776123046875 6.48314380645752 C 84.64827728271484 7.91297721862793 87.90895843505859 9.682826995849609 90.95919036865234 11.74354362487793 C 93.98097991943359 13.78501033782959 96.82259368896484 16.12957763671875 99.40511322021484 18.71207618713379 C 101.9876251220703 21.29459381103516 104.3321914672852 24.13620948791504 106.3736572265625 27.15799331665039 C 108.4343566894531 30.20824432373047 110.2042236328125 33.46891021728516 111.6340637207031 36.84942626953125 C 114.6088409423828 43.88261032104492 116.1171951293945 51.35486221313477 116.1171951293945 59.05859375 C 116.1171951293945 66.7623291015625 114.6088409423828 74.23457336425781 111.6340637207031 81.26776123046875 C 110.2042236328125 84.64827728271484 108.4343566894531 87.90895843505859 106.3736572265625 90.95919036865234 C 104.3321914672852 93.98097991943359 101.9876251220703 96.82259368896484 99.40511322021484 99.40511322021484 C 96.82259368896484 101.9876251220703 93.98097991943359 104.3321914672852 90.95919036865234 106.3736572265625 C 87.90895843505859 108.4343566894531 84.64827728271484 110.2042236328125 81.26776123046875 111.6340637207031 C 74.23457336425781 114.6088409423828 66.7623291015625 116.1171951293945 59.05859375 116.1171951293945 Z" stroke="none"/>
          <path d="M 59.05859375 3.999992370605469 C 51.62397766113281 3.999992370605469 44.41384887695312 5.455177307128906 37.62852478027344 8.325119018554688 C 34.36693572998047 9.704666137695312 31.22083282470703 11.41236114501953 28.27759552001953 13.40077209472656 C 25.36128234863281 15.37099456787109 22.61879730224609 17.63377380371094 20.12628173828125 20.12628173828125 C 17.63377380371094 22.61879730224609 15.37099456787109 25.36128234863281 13.40077209472656 28.27759552001953 C 11.41236114501953 31.22083282470703 9.704666137695312 34.36693572998047 8.325119018554688 37.62852478027344 C 5.455177307128906 44.41384887695312 3.999992370605469 51.62397766113281 3.999992370605469 59.05859375 C 3.999992370605469 66.49320983886719 5.455177307128906 73.70333862304688 8.325119018554688 80.48866271972656 C 9.704666137695312 83.750244140625 11.41236114501953 86.89635467529297 13.40077209472656 89.83959197998047 C 15.37099456787109 92.75590515136719 17.63377380371094 95.49839782714844 20.12628173828125 97.99090576171875 C 22.61879730224609 100.4834136962891 25.36128234863281 102.7461929321289 28.27759552001953 104.7164154052734 C 31.22083282470703 106.704833984375 34.36693572998047 108.4125213623047 37.62852478027344 109.7920684814453 C 44.41384887695312 112.6620101928711 51.62397766113281 114.1171951293945 59.05859375 114.1171951293945 C 66.49320983886719 114.1171951293945 73.70333862304688 112.6620101928711 80.48866271972656 109.7920684814453 C 83.750244140625 108.4125213623047 86.89635467529297 106.704833984375 89.83959197998047 104.7164154052734 C 92.75590515136719 102.7461929321289 95.49839782714844 100.4834136962891 97.99090576171875 97.99090576171875 C 100.4834136962891 95.49839782714844 102.7461929321289 92.75590515136719 104.7164154052734 89.83959197998047 C 106.704833984375 86.89635467529297 108.4125213623047 83.750244140625 109.7920684814453 80.48866271972656 C 112.6620101928711 73.70333862304688 114.1171951293945 66.49320983886719 114.1171951293945 59.05859375 C 114.1171951293945 51.62397766113281 112.6620101928711 44.41384887695312 109.7920684814453 37.62852478027344 C 108.4125213623047 34.36693572998047 106.704833984375 31.22083282470703 104.7164154052734 28.27759552001953 C 102.7461929321289 25.36128234863281 100.4834136962891 22.61879730224609 97.99090576171875 20.12628173828125 C 95.49839782714844 17.63377380371094 92.75590515136719 15.37099456787109 89.83959197998047 13.40077209472656 C 86.89635467529297 11.41236114501953 83.750244140625 9.704666137695312 80.48866271972656 8.325119018554688 C 73.70333862304688 5.455177307128906 66.49320983886719 3.999992370605469 59.05859375 3.999992370605469 M 59.05859375 -7.62939453125e-06 C 91.67575836181641 -7.62939453125e-06 118.1171951293945 26.44142913818359 118.1171951293945 59.05859375 C 118.1171951293945 91.67575836181641 91.67575836181641 118.1171951293945 59.05859375 118.1171951293945 C 26.44142913818359 118.1171951293945 -7.62939453125e-06 91.67575836181641 -7.62939453125e-06 59.05859375 C -7.62939453125e-06 26.44142913818359 26.44142913818359 -7.62939453125e-06 59.05859375 -7.62939453125e-06 Z" stroke="none" fill="#2d5a27"/>
        </g>
      </g>
    </g>
    <g id="Grupo_1197537" data-name="Grupo 1197537" transform="translate(1167.211 14863.5)">
      <path id="Trazado_1018553" data-name="Trazado 1018553" d="M5.379,178.715h-3.8a1.582,1.582,0,0,0,0,3.164h3.8a1.582,1.582,0,0,0,0-3.164Zm0,0" transform="translate(0 -150.442)" fill="#2d5a27"/>
      <path id="Trazado_1018554" data-name="Trazado 1018554" d="M335.012,181.879h3.8a1.582,1.582,0,0,0,0-3.164h-3.8a1.582,1.582,0,0,0,0,3.164Zm0,0" transform="translate(-280.68 -150.442)" fill="#2d5a27"/>
      <path id="Trazado_1018555" data-name="Trazado 1018555" d="M181.879,338.809v-3.8a1.582,1.582,0,0,0-3.164,0v3.8a1.582,1.582,0,0,0,3.164,0Zm0,0" transform="translate(-150.442 -280.68)" fill="#2d5a27"/>
      <path id="Trazado_1018556" data-name="Trazado 1018556" d="M180.3,6.961a1.582,1.582,0,0,0,1.582-1.582v-3.8a1.582,1.582,0,0,0-3.164,0v3.8A1.582,1.582,0,0,0,180.3,6.961Zm0,0" transform="translate(-150.442)" fill="#2d5a27"/>
      <path id="Trazado_1018557" data-name="Trazado 1018557" d="M55.492,288.579l-2.685,2.685a1.582,1.582,0,1,0,2.237,2.237l2.685-2.685a1.582,1.582,0,0,0-2.237-2.238Zm0,0" transform="translate(-44.063 -242.535)" fill="#2d5a27"/>
      <path id="Trazado_1018558" data-name="Trazado 1018558" d="M289.7,58.192a1.578,1.578,0,0,0,1.119-.463l2.685-2.685a1.582,1.582,0,1,0-2.238-2.237l-2.685,2.685a1.582,1.582,0,0,0,1.119,2.7Zm0,0" transform="translate(-242.533 -44.063)" fill="#2d5a27"/>
      <path id="Trazado_1018559" data-name="Trazado 1018559" d="M55.492,57.729a1.582,1.582,0,1,0,2.237-2.238l-2.685-2.685a1.582,1.582,0,0,0-2.237,2.237Zm0,0" transform="translate(-44.063 -44.063)" fill="#2d5a27"/>
      <path id="Trazado_1018560" data-name="Trazado 1018560" d="M356.582,360.84a1.582,1.582,0,1,0,1.119.463A1.595,1.595,0,0,0,356.582,360.84Zm0,0" transform="translate(-298.838 -303.754)" fill="#2d5a27"/>
      <path id="Trazado_1018561" data-name="Trazado 1018561" d="M124.347,94.118a9.394,9.394,0,0,0-2.558.351,12.007,12.007,0,0,0-19.243-1.112,10.251,10.251,0,0,0-2.566-.784,19.9,19.9,0,1,0-11.988,9.312c-.023.286-.039.573-.039.865a10.331,10.331,0,0,0,10.32,10.32h5.966a1.582,1.582,0,0,0,0-3.164H98.273a7.156,7.156,0,1,1,3.87-13.173,1.582,1.582,0,0,0,2.185-.47,8.841,8.841,0,0,1,15.338.852,1.582,1.582,0,0,0,2.07.732,6.312,6.312,0,1,1,2.61,12.059H116.9a1.582,1.582,0,0,0,0,3.164h7.452a9.476,9.476,0,1,0,0-18.952ZM89.013,98.2a16.777,16.777,0,1,1,7.138-5.549A10.357,10.357,0,0,0,89.013,98.2Zm0,0" transform="translate(-52.823 -52.819)" fill="#2d5a27"/>
      <path id="Trazado_1018562" data-name="Trazado 1018562" d="M198.871,459.964l-5.142,5.142a1.582,1.582,0,1,0,2.237,2.237l5.142-5.142a1.582,1.582,0,0,0-2.237-2.237Zm0,0" transform="translate(-162.69 -386.806)" fill="#2d5a27"/>
      <path id="Trazado_1018563" data-name="Trazado 1018563" d="M315.222,459.964l-5.142,5.142a1.582,1.582,0,0,0,2.238,2.237l5.142-5.142a1.582,1.582,0,0,0-2.238-2.237Zm0,0" transform="translate(-260.635 -386.806)" fill="#2d5a27"/>
      <path id="Trazado_1018564" data-name="Trazado 1018564" d="M431.578,459.964l-5.142,5.142a1.582,1.582,0,1,0,2.237,2.237l5.142-5.142a1.582,1.582,0,1,0-2.237-2.237Zm0,0" transform="translate(-358.582 -386.806)" fill="#2d5a27"/>
      <path id="Trazado_1018565" data-name="Trazado 1018565" d="M292.658,402.378a1.582,1.582,0,0,0-2.238,0l-5.426,5.426a1.582,1.582,0,1,0,2.237,2.237l5.427-5.426A1.583,1.583,0,0,0,292.658,402.378Zm0,0" transform="translate(-239.518 -338.33)" fill="#2d5a27"/>
      <path id="Trazado_1018566" data-name="Trazado 1018566" d="M395.326,402.378a1.581,1.581,0,0,0-2.237,0l-5.426,5.426a1.582,1.582,0,1,0,2.237,2.237l5.426-5.426A1.581,1.581,0,0,0,395.326,402.378Zm0,0" transform="translate(-325.943 -338.33)" fill="#2d5a27"/>
      <path id="Trazado_1018567" data-name="Trazado 1018567" d="M179.905,109.332h-.084a1.582,1.582,0,0,0,.01,3.164h.074a1.582,1.582,0,0,0,0-3.165Zm0,0" transform="translate(-150.05 -92.035)" fill="#2d5a27"/>
      <path id="Trazado_1018568" data-name="Trazado 1018568" d="M114.868,121.452a12.553,12.553,0,0,0-5.536,10.413,1.582,1.582,0,0,0,3.164,0,9.393,9.393,0,0,1,4.143-7.791,1.582,1.582,0,0,0-1.771-2.622Zm0,0" transform="translate(-92.035 -102.01)" fill="#2d5a27"/>
    </g>
  </g>
</svg>
